<svg width="124" height="82" viewBox="0 0 124 82" fill="none" xmlns="http://www.w3.org/2000/svg">
<path d="M14.9268 81.4343H14.5206C13.906 81.2312 13.7029 80.6166 14.1143 80.0072C14.5206 79.1947 49.0831 4.97078 107.844 26.9343C108.453 27.1374 108.656 27.7468 108.453 28.1531C108.25 28.7624 107.64 28.9656 107.234 28.7624C50.0987 7.41349 16.3487 80.0072 15.9425 80.8197C15.7393 81.2312 15.3331 81.4343 14.9268 81.4343Z" fill="#6B7C25"/>
<path d="M20.6191 69.2311C20.6191 69.2311 62.0983 78.9915 53.9629 61.2988C50.0983 52.7571 20.6191 69.2311 20.6191 69.2311Z" fill="#6B7C25"/>
<path d="M21.8385 70.0436C21.8385 70.0436 13.5 28.153 0.895797 42.9967C-5.20316 50.1165 21.8385 70.0436 21.8385 70.0436Z" fill="#6B7C25"/>
<path d="M35.4629 48.4916C35.4629 48.4916 70.4316 61.2989 65.1452 45.0333C62.7077 37.101 35.4629 48.4916 35.4629 48.4916Z" fill="#6B7C25"/>
<path d="M36.4787 49.101C36.4787 49.101 33.6298 11.8875 21.0256 23.476C14.9267 28.9656 36.4787 49.101 36.4787 49.101Z" fill="#6B7C25"/>
<path d="M54.9785 32.8302C54.9785 32.8302 84.0566 51.7416 82.8327 35.8822C82.0202 28.3562 54.9785 32.8302 54.9785 32.8302Z" fill="#6B7C25"/>
<path d="M55.5887 33.8458C55.5887 33.8458 60.8751 -0.518768 47.0522 7.2104C40.3387 11.075 55.5887 33.8458 55.5887 33.8458Z" fill="#6B7C25"/>
<path d="M96.2549 24.2885C96.2549 24.2885 123.5 46.0489 123.5 29.9864C123.703 22.4603 96.2549 24.2885 96.2549 24.2885Z" fill="#6B7C25"/>
<path d="M77.9531 23.6792C77.9531 23.6792 95.4427 48.8979 99.7135 35.4761C101.542 29.1688 77.9531 23.6792 77.9531 23.6792Z" fill="#6B7C25"/>
<path d="M78.1614 24.6948C78.1614 24.6948 94.0156 -1.73749 79.9896 0.0906373C73.2812 0.903137 78.1614 24.6948 78.1614 24.6948Z" fill="#6B7C25"/>
<path d="M91.7812 24.6947C91.7812 24.6947 112.724 11.2781 101.948 7.41348C96.8646 5.58014 91.7812 24.6947 91.7812 24.6947Z" fill="#6B7C25"/>
</svg>
