<svg width="40" height="77" viewBox="0 0 40 77" fill="none" xmlns="http://www.w3.org/2000/svg">
<path d="M36.4346 75.5739V75.9801C36.2315 76.5947 35.6169 76.7978 35.0075 76.3864C34.195 75.9801 13.9711 74.4176 26.9346 17.6572C27.1377 17.0478 27.7471 16.8447 28.1534 17.0478C28.7627 17.251 28.9659 17.8603 28.7627 18.2666C16.4138 73.402 35.0075 74.152 35.82 74.5583C36.2315 74.7614 36.4346 75.1676 36.4346 75.5739Z" fill="#6B7C25"/>
<path d="M26.2882 27.246C26.2882 27.246 48.0486 0.0011792 31.9861 0.0011792C24.4601 -0.201946 26.2882 27.246 26.2882 27.246Z" fill="#6B7C25"/>
<path d="M23.6797 47.5477C23.6797 47.5477 48.8984 30.0581 35.4766 25.7873C29.1693 23.9592 23.6797 47.5477 23.6797 47.5477Z" fill="#6B7C25"/>
<path d="M24.6948 47.3394C24.6948 47.3394 -1.73749 31.4853 0.0906373 45.5113C0.903137 52.2196 24.6948 47.3394 24.6948 47.3394Z" fill="#6B7C25"/>
<path d="M24.6942 33.7196C24.6942 33.7196 11.2776 12.7769 7.41299 23.5529C5.57965 28.6363 24.6942 33.7196 24.6942 33.7196Z" fill="#6B7C25"/>
</svg>
