<svg width="43" height="90" viewBox="0 0 43 90" fill="none" xmlns="http://www.w3.org/2000/svg">
<path d="M39.4346 88.5725V88.9788C39.2315 89.5934 38.6169 89.7965 38.0075 89.385C37.195 88.9788 16.9711 87.4163 29.9346 30.6559C30.1377 30.0465 30.7471 29.8434 31.1534 30.0465C31.7627 30.2496 31.9659 30.859 31.7627 31.2652C19.4138 86.4007 38.0075 87.1507 38.82 87.5569C39.2315 87.76 39.4346 88.1663 39.4346 88.5725Z" fill="#6B7C25"/>
<path d="M19.0136 20.051L19.0082 19.695C19.2057 19.1533 19.8253 18.9658 20.4477 19.3171C21.2757 19.6608 26.8745 31.5553 28.5 44.5C28.3024 45.0372 28.5857 47.3906 28.1717 47.2187C27.5521 47.05 26.7997 46.3592 27 46C24.7738 34.4889 20.4772 21.2754 19.6492 20.9318C19.23 20.76 19.019 20.4071 19.0136 20.051Z" fill="#6B7C25"/>
<path d="M29.2882 40.2445C29.2882 40.2445 51.0486 12.9997 34.9861 12.9997C27.4601 12.7966 29.2882 40.2445 29.2882 40.2445Z" fill="#6B7C25"/>
<path d="M26.6797 60.5463C26.6797 60.5463 51.8984 43.0567 38.4766 38.7858C32.1693 36.9577 26.6797 60.5463 26.6797 60.5463Z" fill="#6B7C25"/>
<path d="M27.6948 60.338C27.6948 60.338 1.26251 44.4838 3.09064 58.5098C3.90314 65.2182 27.6948 60.338 27.6948 60.338Z" fill="#6B7C25"/>
<path d="M27.6942 46.7181C27.6942 46.7181 14.2776 25.7754 10.413 36.5515C8.57965 41.6348 27.6942 46.7181 27.6942 46.7181Z" fill="#6B7C25"/>
<path d="M11.2333 19.3617C15.6794 25.3822 21.5082 28.4716 24.4186 26.3118C27.333 24.1481 26.1075 17.6608 21.6614 11.6403C17.2152 5.61582 11.3864 2.52646 8.47208 4.6902C5.71482 6.69572 6.94026 13.3373 11.2333 19.3617Z" fill="#EABD4E"/>
<path d="M10.6593 26.4219C17.6834 28.9714 24.3916 28.3686 25.7988 25.0703C27.0461 21.772 22.3647 17.126 15.3407 14.5765C8.31663 12.0308 1.60841 12.6298 0.201199 15.9281C-1.0461 19.0766 3.63527 23.8723 10.6593 26.4219Z" fill="#F4CF64"/>
<path d="M16 13.4229C16 20.8279 18.9409 27 22.5 27C26.0591 27 29 20.982 29 13.5771C29 6.17211 26.0591 0 22.5 0C18.9409 0 16 6.018 16 13.4229Z" fill="#F4CF64"/>
</svg>
