<svg width="47" height="62" viewBox="0 0 47 62" fill="none" xmlns="http://www.w3.org/2000/svg">
<path d="M19.0808 61C18.4349 61 18.0043 60.5543 18.0043 59.8858C17.789 48.9498 25.7662 26.6434 25.9815 25.7521C26.1968 25.0836 26.8427 24.8607 27.2734 25.0836C27.9193 25.3064 28.1346 25.9749 27.9193 26.4206C27.9193 26.6434 19.9475 49.1783 19.9475 59.663C20.1628 60.5543 19.7322 61 19.0808 61Z" fill="#7E9B45"/>
<path d="M35.4398 15.4418C33.1474 21.96 28.8668 26.509 26.0591 25.4327C23.1938 24.4877 22.7598 18.3383 25.1685 11.8712C27.4609 5.35298 31.7414 0.80401 34.5492 1.88031C37.4145 2.82532 37.8485 8.97469 35.4398 15.4418Z" fill="#E2171A"/>
<path d="M38.6393 21.5638C33.1178 25.9257 26.9356 27.1559 24.9446 24.5476C22.9552 21.936 25.7725 16.2332 31.236 12.0035C36.7574 7.64158 42.9397 6.41135 44.9306 9.01959C46.9201 11.6312 44.1012 17.3374 38.6393 21.5638Z" fill="#D60000"/>
<path d="M30.777 11.6664C32.8469 18.4708 31.8384 24.7237 28.5745 25.683C25.3087 26.6374 21.0058 22.0411 19.0665 15.2899C16.9982 8.48208 18.0052 2.23261 21.2691 1.27332C24.404 0.257384 28.7087 4.85859 30.777 11.6664Z" fill="#D60000"/>
<path d="M19.007 61.066C19.4417 61.066 19.7315 60.7762 19.7315 60.3416C19.8764 53.2306 14.5078 38.7262 14.3629 38.1466C14.2181 37.7119 13.7834 37.567 13.4936 37.7119C13.0589 37.8568 12.914 38.2915 13.0589 38.5813C13.0589 38.7262 18.4237 53.3792 18.4237 60.1967C18.2788 60.7762 18.5686 61.066 19.007 61.066Z" fill="#7E9B45"/>
<path d="M8.16527 33.0151C9.80047 37.6647 12.8539 40.9096 14.8568 40.1419C16.9007 39.4678 17.2103 35.0812 15.4921 30.4681C13.8569 25.8184 10.8034 22.5735 8.80057 23.3413C6.75662 24.0154 6.44706 28.4019 8.16527 33.0151Z" fill="#E2171A"/>
<path d="M5.88278 37.382C9.82138 40.4935 14.2314 41.371 15.6516 39.5105C17.0707 37.6475 15.061 33.5795 11.1638 30.5624C7.22519 27.4509 2.8152 26.5733 1.39499 28.4339C-0.0241573 30.2968 1.98663 34.3672 5.88278 37.382Z" fill="#D60000"/>
<path d="M11.4914 30.322C10.0149 35.1758 10.7343 39.6362 13.0626 40.3204C15.3922 41.0012 18.4615 37.7226 19.8449 32.9068C21.3203 28.0505 20.602 23.5926 18.2737 22.9083C16.0375 22.1836 12.9668 25.4658 11.4914 30.322Z" fill="#D60000"/>
</svg>
