<svg width="81" height="89" viewBox="0 0 81 89" fill="none" xmlns="http://www.w3.org/2000/svg">
<path d="M26.7684 86C26.1537 85.8738 26 85.6215 26 85.2431C34.6144 43.1865 47.2286 31.6938 47.6897 31.1892C48.001 30.9369 48.4621 30.9369 48.7695 31.1892C49.0768 31.4415 49.0768 31.82 48.7695 32.0723C48.6158 32.1984 35.8479 43.8172 27.3832 85.3692C27.5369 85.7477 27.2295 86 26.7684 86Z" fill="#7E9B45"/>
<path d="M45.2316 89C45.8463 88.8807 46 88.6422 46 88.2844C37.3856 48.5217 24.7714 37.656 24.3103 37.1789C23.999 36.9404 23.5379 36.9404 23.2305 37.1789C22.9232 37.4174 22.9232 37.7753 23.2305 38.0138C23.3842 38.1331 36.1521 49.1181 44.6168 88.4037C44.4631 88.7615 44.7705 89 45.2316 89Z" fill="#7E9B45"/>
<path d="M65.7659 25.0158C59.8701 32.9429 52.1409 37.0106 48.2816 34.1668C44.417 31.3179 46.042 22.7762 51.9378 14.8491C57.8336 6.91683 65.5628 2.84912 69.4274 5.69808C73.0836 8.3387 71.4586 17.0835 65.7659 25.0158Z" fill="#EABD4E"/>
<path d="M11.2333 33.3617C15.6794 39.3822 21.5082 42.4716 24.4186 40.3118C27.333 38.1481 26.1075 31.6608 21.6614 25.6403C17.2152 19.6158 11.3864 16.5265 8.47208 18.6902C5.71482 20.6957 6.94026 27.3373 11.2333 33.3617Z" fill="#EABD4E"/>
<path d="M66.5789 34.5731C57.4278 38.0314 48.6882 37.2137 46.8549 32.7398C45.2299 28.2658 51.3289 21.9637 60.4799 18.5054C69.6309 15.0523 78.3705 15.8648 80.2039 20.3387C81.8289 24.6095 75.7299 31.1148 66.5789 34.5731Z" fill="#F4CF64"/>
<path d="M10.6593 40.4219C17.6834 42.9714 24.3916 42.3686 25.7988 39.0703C27.0461 35.772 22.3647 31.126 15.3407 28.5765C8.31663 26.0308 1.60841 26.6298 0.201199 29.9281C-1.0461 33.0766 3.63527 37.8723 10.6593 40.4219Z" fill="#F4CF64"/>
<path d="M59.6673 17.6927C59.6673 27.4531 55.8027 35.5885 51.1257 35.5885C46.4486 35.5885 42.584 27.6563 42.584 17.8958C42.584 8.13542 46.4486 0 51.1257 0C55.8027 0 59.6673 7.93229 59.6673 17.6927Z" fill="#F4CF64"/>
<path d="M16 27.4229C16 34.8279 18.9409 41 22.5 41C26.0591 41 29 34.982 29 27.5771C29 20.1721 26.0591 14 22.5 14C18.9409 14 16 20.018 16 27.4229Z" fill="#F4CF64"/>
</svg>
