<svg width="46" height="75" viewBox="0 0 46 75" fill="none" xmlns="http://www.w3.org/2000/svg">
<path d="M45.2316 75C45.8463 74.8807 46 74.6422 46 74.2844C37.3856 34.5217 24.7714 23.656 24.3103 23.1789C23.999 22.9404 23.5379 22.9404 23.2305 23.1789C22.9232 23.4174 22.9232 23.7753 23.2305 24.0138C23.3842 24.1331 36.1521 35.1181 44.6168 74.4037C44.4631 74.7615 44.7705 75 45.2316 75Z" fill="#7E9B45"/>
<path d="M11.2333 19.3617C15.6794 25.3822 21.5082 28.4716 24.4186 26.3118C27.333 24.1481 26.1075 17.6608 21.6614 11.6403C17.2152 5.61582 11.3864 2.52646 8.47208 4.6902C5.71482 6.69572 6.94026 13.3373 11.2333 19.3617Z" fill="#EABD4E"/>
<path d="M10.6593 26.4219C17.6834 28.9714 24.3916 28.3686 25.7988 25.0703C27.0461 21.772 22.3647 17.126 15.3407 14.5765C8.31663 12.0308 1.60841 12.6298 0.201199 15.9281C-1.0461 19.0766 3.63527 23.8723 10.6593 26.4219Z" fill="#F4CF64"/>
<path d="M16 13.4229C16 20.8279 18.9409 27 22.5 27C26.0591 27 29 20.982 29 13.5771C29 6.17211 26.0591 0 22.5 0C18.9409 0 16 6.018 16 13.4229Z" fill="#F4CF64"/>
</svg>
