<svg width="228" height="204" viewBox="0 0 228 204" fill="none" xmlns="http://www.w3.org/2000/svg">
<path d="M187.487 17.6281C154.561 -10.5161 127.107 1.24179 117.496 10.6387C69.8609 -7.43389 70.8139 9.23213 35.6285 35.0133C7.48016 55.6382 0.14769 106.335 0 129.105C9.01939 156.44 38.5286 209.592 84.41 203.521C141.762 195.932 174.725 185.612 208.894 152.924C243.063 120.235 228.644 52.8083 187.487 17.6281Z" fill="#A4C629"/>
<path fill-rule="evenodd" clip-rule="evenodd" d="M29.0482 124.279C31.6369 119.436 41.1088 101.714 49.7184 94.6867L58.2799 84.2769C60.6191 81.5572 66.7007 75.1612 68.9463 73.023C71.1919 70.8847 88.9698 58.3929 97.999 52.2032C105.344 47.6548 123.234 38.586 136.034 38.6986C142.209 38.1828 155.402 37.8264 158.77 40.5273C161.344 41.1838 168.005 43.791 174.069 48.9678C180.132 54.1445 183.8 62.4724 184.876 65.9893C185.624 71.0535 186.7 82.1949 185.016 86.2463C183.238 93.3269 176.883 110.225 166.77 122.118C156.244 134.497 134.63 145.611 134.63 145.611C134.63 145.611 136.174 135.763 129.156 123.666C126.77 120.852 123.683 119.727 120.876 120.711C114.913 122.803 111.192 127.182 110.771 133.372C110.35 139.562 114.7 148.987 126.911 151.8C126.359 155.256 124.46 163.195 122.841 166.852C122.068 168.597 120.967 170.396 120.059 171.879C119.295 173.127 118.668 174.151 118.49 174.73C118.102 175.996 118.63 179.71 123.122 178.247C128.736 176.418 133.788 159.115 134.209 151.8C136.876 151.238 143.191 149.549 145.578 148.283C147.87 147.252 153.858 144.485 157.226 141.109C161.063 138.155 168.848 131.206 171.542 127.604C174.256 124.65 180.44 117.307 183.472 111.568C187.261 104.393 191.924 93.4684 193.016 85.2616C193.062 84.9115 193.111 84.5545 193.161 84.1909C193.533 81.4709 193.954 78.3858 193.858 75.1331C193.656 68.3371 192.161 61.1471 190.068 57.4082C186.84 51.6405 184.454 47.7017 177.296 41.2307C174.92 39.0822 162.56 30.9615 152.876 29.9768C148.881 29.5706 147.155 29.332 145.422 29.2609C142.954 29.1596 140.472 29.3983 131.402 29.9768C127.8 30.3988 119.444 31.693 114.841 33.4936C110.237 35.2943 105.999 37.0574 104.455 37.7138C99.2621 40.246 86.771 46.9983 78.35 53.7507C73.5781 57.2675 63.922 64.4137 63.4729 64.8639C62.9115 65.4266 56.315 72.0382 55.6133 73.023C55.0519 73.8107 49.7654 80.8538 47.1923 84.2769L39.473 94.2647C37.4613 96.9844 32.8766 103.831 30.631 109.457C29.3215 112.739 29.2338 112.897 29.1567 113.061C29.0685 113.248 28.9941 113.442 27.1222 118.32C24.3152 125.635 26.28 126.198 26.8414 126.198C26.9133 126.198 26.9829 126.2 27.0508 126.202C27.5129 126.218 27.8958 126.23 28.3853 125.494C28.4547 125.39 28.6829 124.963 29.0482 124.279ZM122.49 125.459C120.666 125.74 116.989 127.485 115.754 129.961C114.21 133.055 114.631 136.713 115.192 137.698C115.256 137.81 115.339 137.965 115.439 138.154C116.216 139.611 118.056 143.064 120.666 144.309C121.274 144.778 123.417 145.885 127.122 146.56C127.356 140.98 126.28 128.132 122.49 125.459Z" fill="#FEF1EB"/>
</svg>
