<svg width="400" height="400" viewBox="0 0 400 400" fill="none" xmlns="http://www.w3.org/2000/svg">
<path fill-rule="evenodd" clip-rule="evenodd" d="M42.2405 230.938C44.937 224.678 58.7088 202.508 92.2233 163.909C125.738 125.309 179.573 102.754 202.301 96.3019C216.362 94.2795 248.47 92.7771 264.419 102.947C293.888 121.727 295.911 148.885 293.021 163.909C288.897 185.353 282.909 196.845 271.064 215.336C262.685 230.649 237.955 249.574 217.614 260.985C216.286 246.396 211.835 236.716 207.213 229.782C202.59 222.848 192.767 221.114 189.3 222.27C188.71 222.467 188.155 222.613 187.589 222.762C184.83 223.488 181.852 224.272 173.698 231.227C166.533 238.623 166.09 249.717 166.764 254.34C166.668 260.504 171.791 275.142 193.056 284.388C187.855 303.745 187.277 305.767 184.388 309.812C181.499 313.857 176.298 321.947 183.233 328.881C190.167 335.815 200.568 327.725 203.746 322.236C206.924 316.746 213.28 304.323 216.169 284.965C236.393 282.076 263.552 260.118 267.308 254.34C286.665 238.642 329.136 184.133 315.268 134.15C305.007 97.1655 272.219 76.786 251.995 71.7438C232.926 66.9898 198.357 69.0291 186.988 73.1884C182.625 74.7846 178.547 76.0476 174.483 77.306C156.481 82.8804 138.78 88.362 98.0017 122.304C58.0154 155.588 34.7286 199.157 28.0835 216.781C25.7721 222.752 21.6117 234.983 23.4608 236.138C24.0386 239.894 27.5056 245.961 36.1731 240.472L42.2405 230.938ZM190.572 242.64C188.453 243.507 184.158 246.858 183.927 251.018C183.638 256.219 192.017 266.042 195.195 264.886C194.52 258.145 192.652 243.795 190.572 242.64Z" fill="#A4C629"/>
</svg>
