<svg width="100" height="100" viewBox="0 0 100 100" fill="none" xmlns="http://www.w3.org/2000/svg">
<path d="M71.7131 51.8743C71.7131 52.3156 71.9337 52.5362 72.375 52.5362H89.9168C91.9026 52.5362 93.5943 53.2349 94.9918 54.6324C96.3892 56.0298 97.0879 57.6847 97.0879 59.5971C97.0879 62.7597 96.9776 65.7753 96.757 68.6437C96.5363 71.4387 96.2421 74.3807 95.8744 77.4698C94.9182 84.3835 92.4175 89.385 88.3722 92.4741C84.4005 95.5632 78.59 97.071 70.9408 96.9974C69.5433 96.9239 68.4033 96.3723 67.5207 95.3426C66.6381 94.3864 66.1968 93.2096 66.1968 91.8121C66.1968 90.5618 66.6381 89.5321 67.5207 88.723C68.4033 87.8404 69.433 87.3991 70.6098 87.3991C74.4344 87.3991 77.3764 87.1417 79.4358 86.6268C81.5688 86.0384 83.1134 84.9352 84.0695 83.3171C85.0992 81.699 85.9083 79.3086 86.4967 76.1459C86.7909 73.7923 87.0115 71.5122 87.1586 69.3057C87.3793 67.0992 87.5264 64.7824 87.5999 62.3552C87.5999 61.9139 87.3793 61.6932 86.938 61.6932H47.0001C45.0143 61.6932 43.2858 60.9945 41.8148 59.5971C40.4174 58.1996 39.7186 56.4712 39.7186 54.4117V10.1712C39.7186 8.25886 40.4174 6.60397 41.8148 5.20652C43.2123 3.73551 44.9407 3 47.0001 3H90.5787C91.8291 3 92.8956 3.4413 93.7782 4.32391C94.7343 5.20651 95.2124 6.27299 95.2124 7.52335C95.2124 8.70016 94.7343 9.76664 93.7782 10.7228C92.8956 11.6054 91.8291 12.0467 90.5787 12.0467H72.375C71.9337 12.0467 71.7131 12.2674 71.7131 12.7087V18.7766C71.7131 19.2179 71.9337 19.4385 72.375 19.4385H86.0554C87.3057 19.4385 88.409 19.8798 89.3652 20.7624C90.3213 21.645 90.7994 22.7483 90.7994 24.0722C90.7994 25.249 90.3213 26.3155 89.3652 27.2716C88.4825 28.2278 87.3793 28.7059 86.0554 28.7059H72.375C71.9337 28.7059 71.7131 28.9265 71.7131 29.3678V35.3254C71.7131 35.7667 71.9337 35.9874 72.375 35.9874H86.0554C87.3057 35.9874 88.409 36.4654 89.3652 37.4216C90.3213 38.3042 90.7994 39.3707 90.7994 40.621C90.7994 41.8714 90.3213 42.9747 89.3652 43.9308C88.4825 44.8134 87.3793 45.2547 86.0554 45.2547H72.375C71.9337 45.2547 71.7131 45.4754 71.7131 45.9167V51.8743ZM61.6734 19.4385C62.1147 19.4385 62.3354 19.2179 62.3354 18.7766V12.7087C62.3354 12.2674 62.1147 12.0467 61.6734 12.0467H49.6479C49.2066 12.0467 48.986 12.2674 48.986 12.7087V18.7766C48.986 19.2179 49.2066 19.4385 49.6479 19.4385H61.6734ZM48.986 35.3254C48.986 35.7667 49.2066 35.9874 49.6479 35.9874H61.6734C62.1147 35.9874 62.3354 35.7667 62.3354 35.3254V29.3678C62.3354 28.9265 62.1147 28.7059 61.6734 28.7059H49.6479C49.2066 28.7059 48.986 28.9265 48.986 29.3678V35.3254ZM62.3354 45.9167C62.3354 45.4754 62.1147 45.2547 61.6734 45.2547H49.6479C49.2066 45.2547 48.986 45.4754 48.986 45.9167V51.8743C48.986 52.3156 49.2066 52.5362 49.6479 52.5362H61.6734C62.1147 52.5362 62.3354 52.3156 62.3354 51.8743V45.9167ZM79.3255 83.7584C78.3694 83.7584 77.5235 83.4274 76.788 82.7654C76.0525 82.1035 75.6112 81.2944 75.4641 80.3383C75.1699 78.0582 74.6919 75.7781 74.0299 73.4981C73.4415 71.1445 72.8531 69.1586 72.2647 67.5405C72.044 67.0992 71.9337 66.6211 71.9337 66.1063C71.9337 64.9295 72.3015 63.9733 73.037 63.2378C73.846 62.5023 74.839 62.1345 76.0158 62.1345C78.4429 62.1345 80.0243 63.201 80.7598 65.334C81.3482 67.3198 81.9366 69.5264 82.525 71.9535C83.1134 74.3071 83.5547 76.4401 83.8489 78.3524C84.1431 79.7499 83.8121 81.0002 82.8559 82.1035C81.9733 83.2067 80.7965 83.7584 79.3255 83.7584ZM68.6239 87.3991C67.6678 87.3991 66.822 87.1049 66.0864 86.5165C65.4245 85.8545 65.02 85.0455 64.8729 84.0893C64.5051 81.7357 63.9903 79.235 63.3283 76.5872C62.6664 73.8658 61.9309 71.549 61.1218 69.6367C60.9011 69.0483 60.7908 68.4967 60.7908 67.9818C60.7908 66.9521 61.1953 66.0327 62.0044 65.2237C62.887 64.3411 63.9167 63.8997 65.0935 63.8997C66.0497 63.8997 66.9323 64.1572 67.7413 64.672C68.5504 65.1869 69.102 65.9224 69.3962 66.8785C70.1317 69.1586 70.7937 71.6593 71.3821 74.3807C72.044 77.0285 72.5589 79.5292 72.9266 81.8828C73.0002 82.1035 73.037 82.3977 73.037 82.7654C73.037 83.9422 72.5957 85.0087 71.7131 85.9649C70.904 86.921 69.8743 87.3991 68.6239 87.3991ZM57.7017 68.6437C58.5108 71.0709 59.283 73.7923 60.0185 76.8079C60.754 79.7499 61.3792 82.508 61.8941 85.0823C62.1147 86.4797 61.7837 87.8036 60.9011 89.054C60.0185 90.3043 58.805 90.9295 57.2604 90.9295C56.2307 90.9295 55.2745 90.5985 54.3919 89.9366C53.5829 89.2746 53.1048 88.392 52.9577 87.2888C52.5164 84.641 51.8912 81.9196 51.0822 79.1247C50.3467 76.3298 49.5744 73.8291 48.7653 71.6225C48.5447 71.0341 48.4344 70.4825 48.4344 69.9677C48.4344 68.7173 48.8389 67.6508 49.6479 66.7682C50.5305 65.8121 51.6706 65.334 53.068 65.334C54.0977 65.334 55.0539 65.6282 55.9365 66.2166C56.8191 66.805 57.4075 67.614 57.7017 68.6437ZM41.4838 67.6508C42.9548 67.6508 44.1684 68.2392 45.1246 69.416C46.0807 70.5193 46.3749 71.7329 46.0072 73.0568C45.6394 74.9691 45.1246 77.102 44.4626 79.4557C43.8742 81.8093 43.2123 84.1629 42.4768 86.5165C41.7413 88.7966 41.0058 90.7824 40.2703 92.4741C39.4612 94.4599 37.8799 95.4529 35.5263 95.4529C34.1288 95.4529 32.9888 95.0116 32.1062 94.129C31.2971 93.3199 30.8926 92.3638 30.8926 91.2605C30.8926 90.7456 31.0029 90.2308 31.2236 89.7159C32.2533 87.2152 33.283 84.2732 34.3127 80.8899C35.3424 77.5066 36.225 74.3439 36.9605 71.4019C37.1811 70.2986 37.7328 69.416 38.6154 68.7541C39.498 68.0186 40.4541 67.6508 41.4838 67.6508Z" fill="#1E1E1E"/>
<path d="M30.8929 16.4447V63.6801C30.8929 65.5325 30.1574 67.0872 28.6864 68.3441C27.289 69.6011 25.5973 70.2296 23.6114 70.2296H10.593C8.60715 70.2296 6.87872 69.6011 5.40771 68.3441C4.01025 67.0872 3.31152 65.5325 3.31152 63.6801V16.4447C3.31152 14.6585 4.01025 13.1369 5.40771 11.8799C6.80517 10.5568 8.5336 9.89526 10.593 9.89526H23.6114C25.5973 9.89526 27.289 10.5237 28.6864 11.7807C30.1574 13.0377 30.8929 14.5923 30.8929 16.4447ZM12.9099 61.0008C12.9099 61.3978 13.1305 61.5962 13.5718 61.5962H20.6326C21.074 61.5962 21.2946 61.3978 21.2946 61.0008V19.124C21.2946 18.7271 21.074 18.5286 20.6326 18.5286H13.5718C13.1305 18.5286 12.9099 18.7271 12.9099 19.124V61.0008Z" fill="#1E1E1E"/>
</svg>
