<svg width="1440" height="960" viewBox="0 0 1440 960" fill="none" xmlns="http://www.w3.org/2000/svg">
<path fill-rule="evenodd" clip-rule="evenodd" d="M502 110.028C489.65 109.91 477.317 110.243 465 111.028C472.105 109.516 479.438 108.849 487 109.028C492.178 109.029 497.178 109.362 502 110.028Z" fill="#A4C629"/>
<path fill-rule="evenodd" clip-rule="evenodd" d="M454 112.028C443.233 115.181 432.233 117.181 421 118.028C431.686 114.947 442.686 112.947 454 112.028Z" fill="#A4C629"/>
<path fill-rule="evenodd" clip-rule="evenodd" d="M502 110.029C561.532 113.038 608.032 139.038 641.5 188.029C651.139 204.443 657.305 222.11 660 241.029C661.544 260.084 661.21 279.084 659 298.029C647.693 351.978 623.193 398.978 585.5 439.029C564.001 460.883 540.501 480.049 515 496.529C499.18 505.771 482.18 511.604 464 514.029C461.563 543.508 452.063 570.508 435.5 595.029C432.579 598.621 429.079 601.454 425 603.529C415.028 604.422 410.861 599.922 412.5 590.029C423.491 572.541 431.658 553.875 437 534.029C437.617 533.918 438.117 533.585 438.5 533.029C439.184 527.422 440.351 521.922 442 516.529C441.833 515.029 441.667 513.529 441.5 512.029C441.167 512.362 440.833 512.696 440.5 513.029C436.569 511.276 432.735 509.276 429 507.029C431.614 507.378 434.28 506.712 437 505.029C434.453 505.264 431.787 504.931 429 504.029C427.853 504.347 427.019 505.013 426.5 506.029C424.327 503.628 421.994 503.628 419.5 506.029C419 505.529 418.5 505.029 418 504.529C419.955 503.576 421.622 502.242 423 500.529C422.333 500.362 421.667 500.196 421 500.029C418.504 500.78 416.17 501.78 414 503.029C407.777 499.645 402.61 494.978 398.5 489.029C387.759 473.713 385.092 457.046 390.5 439.029C399.345 420.86 413.845 411.693 434 411.529C444.041 417.07 451.208 425.237 455.5 436.029C457.174 439.55 458.34 443.216 459 447.029C459.067 448.93 458.733 450.763 458 452.529C460.686 456.861 462.186 461.695 462.5 467.029C462.584 475.92 463.417 484.586 465 493.029C465.06 493.572 465.393 493.905 466 494.029C485.42 487.655 503.086 478.155 519 465.529C578.739 421.595 617.072 363.429 634 291.029C634.958 290.576 635.792 289.91 636.5 289.029C637.167 275.362 637.167 261.696 636.5 248.029C636.463 245.555 635.63 243.555 634 242.029C629.718 215.628 617.718 193.461 598 175.529C576.839 156.785 552.172 145.285 524 141.029C521.72 139.306 519.053 138.64 516 139.029C501.839 137.868 487.506 137.702 473 138.529C467.632 139.191 462.632 140.357 458 142.029C457.008 141.857 456.342 142.191 456 143.029C424.682 147.968 395.016 157.802 367 172.529C328.64 195.234 291.64 219.901 256 246.529C244.809 256.721 233.976 267.221 223.5 278.029C201.248 305.286 178.248 331.952 154.5 358.029C139.561 380.236 125.894 403.236 113.5 427.029C109.001 431.429 105.501 430.762 103 425.029C112.224 388.161 128.057 354.494 150.5 324.029C167.167 302.029 183.833 280.029 200.5 258.029C208.651 248.577 217.151 239.41 226 230.529C262.671 201.195 301.004 174.195 341 149.529C365.995 134.868 392.661 124.368 421 118.029C432.233 117.182 443.233 115.182 454 112.029C457.564 111.106 461.231 110.773 465 111.029C477.317 110.244 489.65 109.911 502 110.029Z" fill="#A4C629"/>
<path fill-rule="evenodd" clip-rule="evenodd" d="M508 139.028C508 139.361 508 139.695 508 140.028C490.633 140.377 473.299 141.377 456 143.028C456.342 142.19 457.008 141.856 458 142.028C474.569 139.647 491.236 138.647 508 139.028Z" fill="#A4C629"/>
<path fill-rule="evenodd" clip-rule="evenodd" d="M508 140.028C508 139.695 508 139.361 508 139.028C510.667 139.028 513.333 139.028 516 139.028C519.053 138.639 521.72 139.305 524 141.028C518.703 140.253 513.37 139.92 508 140.028Z" fill="#A4C629"/>
<path fill-rule="evenodd" clip-rule="evenodd" d="M516 139.028C513.333 139.028 510.667 139.028 508 139.028C491.236 138.647 474.569 139.647 458 142.028C462.632 140.356 467.632 139.19 473 138.528C487.506 137.701 501.839 137.867 516 139.028Z" fill="#A4C629"/>
<path fill-rule="evenodd" clip-rule="evenodd" d="M634 242.028C635.63 243.554 636.463 245.554 636.5 248.028C637.167 261.695 637.167 275.361 636.5 289.028C635.792 289.909 634.958 290.575 634 291.028C636.558 274.662 636.558 258.329 634 242.028Z" fill="#A4C629"/>
<path fill-rule="evenodd" clip-rule="evenodd" d="M660 241.028C660.809 242.82 661.309 244.82 661.5 247.028C662.167 259.695 662.167 272.361 661.5 285.028C661.228 289.604 660.395 293.937 659 298.028C661.21 279.083 661.544 260.083 660 241.028Z" fill="#A4C629"/>
<path fill-rule="evenodd" clip-rule="evenodd" d="M439 460.028C440.543 472.307 441.21 484.64 441 497.028C420.357 495.566 406.857 484.899 400.5 465.028C397.623 445.461 405.79 433.128 425 428.028C428.336 429.2 430.503 431.533 431.5 435.028C434.915 443.104 437.415 451.437 439 460.028Z" fill="#FAFDFC"/>
<path fill-rule="evenodd" clip-rule="evenodd" d="M459 447.028C461.413 452.679 462.913 458.679 463.5 465.028C464.731 474.32 465.231 483.654 465 493.028C463.417 484.585 462.584 475.919 462.5 467.028C462.186 461.694 460.686 456.86 458 452.528C458.733 450.762 459.067 448.929 459 447.028Z" fill="#A4C629"/>
<path fill-rule="evenodd" clip-rule="evenodd" d="M439 460.028C440.591 463.732 441.424 467.732 441.5 472.028C442.323 480.538 442.157 488.872 441 497.028C441.21 484.64 440.543 472.307 439 460.028Z" fill="#A4C629"/>
<path fill-rule="evenodd" clip-rule="evenodd" d="M437 534.028C438.186 527.391 439.186 520.725 440 514.028C430.237 512.671 421.571 509.005 414 503.028C416.17 501.779 418.504 500.779 421 500.028C421.667 500.195 422.333 500.361 423 500.528C421.622 502.241 419.955 503.575 418 504.528C418.5 505.028 419 505.528 419.5 506.028C421.994 503.627 424.327 503.627 426.5 506.028C427.019 505.012 427.853 504.346 429 504.028C431.787 504.93 434.453 505.263 437 505.028C434.28 506.711 431.614 507.377 429 507.028C432.735 509.275 436.569 511.275 440.5 513.028C440.833 512.695 441.167 512.361 441.5 512.028C441.667 513.528 441.833 515.028 442 516.528C440.351 521.921 439.184 527.421 438.5 533.028C438.117 533.584 437.617 533.917 437 534.028Z" fill="#A4C629"/>
<path fill-rule="evenodd" clip-rule="evenodd" d="M672.829 548.285C671.94 543.09 672.156 534.805 672.156 534.805C668.909 531.587 665.319 528.666 661.389 526.042L637.162 513.91C641.459 512.527 643.254 509.607 642.546 505.148C651.018 504.496 653.934 500.003 651.294 491.668C647.379 488.489 642.893 487.141 637.835 487.624C626.849 488.717 617.652 493.435 610.243 501.778C597.712 501.963 593.226 508.029 596.783 519.976C592.514 527.176 589.149 534.815 586.689 542.893C582.281 564.733 590.133 580.236 610.243 589.399C640.471 599.623 662.903 590.861 677.54 563.113C677.54 563.113 673.855 554.274 672.829 548.285ZM658.697 549.633C645.163 541.518 630.806 535.226 615.627 530.76C612.167 537.784 609.925 545.198 608.897 553.003C609.224 558.763 611.916 563.257 616.972 566.483C633.756 571.999 647.889 568.18 659.37 555.025C660.421 553.078 660.196 551.281 658.697 549.633Z" fill="#A4C629"/>
<path fill-rule="evenodd" clip-rule="evenodd" d="M672.156 534.805C682.441 542.658 684.235 552.094 677.54 563.113C677.54 563.113 673.855 554.274 672.829 548.285C671.94 543.09 672.156 534.805 672.156 534.805Z" fill="#A4C629"/>
<path fill-rule="evenodd" clip-rule="evenodd" d="M727.512 571.06C729.346 562.74 730.846 554.073 732.012 545.06C732.594 541.892 733.594 541.559 735.012 544.06C735.179 543.393 735.345 542.727 735.512 542.06C734.729 539.459 734.396 536.959 734.512 534.56C735.167 532.055 736.834 530.721 739.512 530.56C736.977 529.632 735.977 527.798 736.512 525.06C739.393 514.21 742.893 503.543 747.012 493.06C775.873 427.68 802.206 361.347 826.012 294.06C831.382 289.661 835.052 290.994 837.012 298.06C837.452 301.771 837.122 305.438 836.012 309.06C825.322 341.835 814.322 374.502 803.012 407.06C788.326 445.127 773.66 483.127 759.012 521.06C751.993 542.176 748.326 563.842 748.012 586.06C763.067 575.342 776.567 562.842 788.512 548.56C793.411 546.01 796.745 547.344 798.512 552.56C789.546 569.871 777.879 585.205 763.512 598.56C756.522 604.306 748.522 606.973 739.512 606.56C732.915 604.297 728.748 599.797 727.012 593.06C726.19 585.548 726.357 578.215 727.512 571.06Z" fill="#A4C629"/>
<path fill-rule="evenodd" clip-rule="evenodd" d="M1034.51 330.06C1035.97 335.994 1036.64 342.161 1036.51 348.56C1035.83 365.971 1034.16 383.138 1031.51 400.06C1033.6 376.783 1034.6 353.45 1034.51 330.06Z" fill="#A4C629"/>
<path fill-rule="evenodd" clip-rule="evenodd" d="M1015.51 379.06C1015.57 384.291 1014.9 389.291 1013.51 394.06C1013.45 388.829 1014.12 383.829 1015.51 379.06Z" fill="#A4C629"/>
<path fill-rule="evenodd" clip-rule="evenodd" d="M838.512 401.06C849.652 399.213 859.152 402.213 867.012 410.06C869.912 413.908 870.082 417.741 867.512 421.56C865.842 422.227 864.182 422.227 862.512 421.56C857.572 418.954 852.912 415.954 848.512 412.56C844.812 411.879 841.142 412.045 837.512 413.06C832.762 411.917 831.262 408.917 833.012 404.06C834.892 402.951 836.722 401.951 838.512 401.06Z" fill="#A4C629"/>
<path fill-rule="evenodd" clip-rule="evenodd" d="M1012.51 401.06C1012.06 408.391 1011.56 415.725 1011.01 423.06C1010.16 424.131 1009.32 425.131 1008.51 426.06C1009.49 417.538 1010.82 409.205 1012.51 401.06Z" fill="#A4C629"/>
<path fill-rule="evenodd" clip-rule="evenodd" d="M1034.51 330.06C1034.6 353.45 1033.6 376.783 1031.51 400.06C1028.01 427.434 1024.51 454.767 1021.01 482.06C1028.91 471.457 1036.57 471.457 1044.01 482.06C1045.96 490.268 1046.96 498.601 1047.01 507.06C1058.84 497.893 1070.68 488.727 1082.51 479.56C1084.42 478.438 1086.42 477.605 1088.51 477.06C1092.63 477.248 1095.96 478.915 1098.51 482.06C1100.47 485.425 1101.97 489.092 1103.01 493.06C1104.8 503.104 1106.8 513.104 1109.01 523.06C1118 500.75 1128.33 479.084 1140.01 458.06C1145.41 453.626 1150.07 454.293 1154.01 460.06C1154.68 466.06 1154.68 472.06 1154.01 478.06C1149.71 495.576 1146.21 513.243 1143.51 531.06C1142.22 532.608 1141.55 534.608 1141.51 537.06C1140.48 545.703 1139.81 554.37 1139.51 563.06C1139.51 565.06 1139.51 567.06 1139.51 569.06C1138.71 570.512 1138.21 572.178 1138.01 574.06C1137.51 583.721 1137.34 593.388 1137.51 603.06C1137.34 611.067 1137.51 619.067 1138.01 627.06C1199.38 573.346 1263.88 523.846 1331.51 478.56C1334.87 477.419 1336.87 478.585 1337.51 482.06C1337.13 483.943 1336.13 485.443 1334.51 486.56C1266.54 541.687 1200.54 599.187 1136.51 659.06C1134.56 663.956 1133.9 669.289 1134.51 675.06C1132.59 709.094 1126.76 742.428 1117.01 775.06C1109.06 797.964 1097.73 818.964 1083.01 838.06C1067.29 856.048 1052.62 855.381 1039.01 836.06C1034.13 825.544 1030.96 814.544 1029.51 803.06C1029.18 789.71 1029.51 776.377 1030.51 763.06C1031.51 762.727 1032.18 762.06 1032.51 761.06C1031.56 757.765 1031.56 754.432 1032.51 751.06C1037.9 734.517 1046.06 719.517 1057.01 706.06C1075.34 686.393 1094.34 667.393 1114.01 649.06C1115.1 638.396 1115.93 627.729 1116.51 617.06C1118.44 598.252 1119.78 579.252 1120.51 560.06C1120.77 554.04 1120.94 548.04 1121.01 542.06C1112.98 550.974 1104.64 551.307 1096.01 543.06C1091.48 534.246 1088.65 524.913 1087.51 515.06C1087.49 507.523 1086.82 500.189 1085.51 493.06C1074.41 504.665 1063.07 516.165 1051.51 527.56C1047.59 530.937 1043.09 533.103 1038.01 534.06C1033.7 533.763 1030.37 531.763 1028.01 528.06C1026.79 519.12 1026.13 510.12 1026.01 501.06C1021.83 506.759 1018.16 512.759 1015.01 519.06C1013.32 529.898 1010.99 540.565 1008.01 551.06C1003.27 554.97 998.602 554.97 994.012 551.06C992.602 545.181 992.102 539.181 992.512 533.06C994.332 528.678 995.832 524.011 997.012 519.06C997.512 514.405 997.682 509.739 997.512 505.06C999.062 497.915 1000.4 490.582 1001.51 483.06C1002.18 484.727 1002.84 486.393 1003.51 488.06C1004.26 487.184 1004.76 486.184 1005.01 485.06C1005.72 477.192 1005.55 469.359 1004.51 461.56C1005.73 459.912 1007.01 456.06 1007.01 456.06C1007.01 456.06 1007.07 458.26 1008.01 459.06C1009.51 460.332 1008.34 455.727 1008.51 454.06C1006.84 451.963 1006.18 448.297 1006.51 443.06C1006.66 437.327 1007.32 431.66 1008.51 426.06C1009.32 425.131 1010.16 424.131 1011.01 423.06C1011.56 415.725 1012.06 408.391 1012.51 401.06C1012.31 398.61 1012.64 396.277 1013.51 394.06C1014.9 389.291 1015.57 384.291 1015.51 379.06C1016.85 362.867 1018.51 346.7 1020.51 330.56C1017.03 322.049 1019.69 318.383 1028.51 319.56C1031.94 322.263 1033.94 325.763 1034.51 330.06Z" fill="#A4C629"/>
<path fill-rule="evenodd" clip-rule="evenodd" d="M1088.51 477.06C1093.3 475.457 1096.64 477.123 1098.51 482.06C1095.96 478.915 1092.63 477.248 1088.51 477.06Z" fill="#A4C629"/>
<path fill-rule="evenodd" clip-rule="evenodd" d="M1006.51 443.06C1006.18 448.297 1006.84 451.963 1008.51 454.06C1008.34 455.727 1009.51 460.332 1008.01 459.06C1007.07 458.26 1007.01 456.06 1007.01 456.06C1007.01 456.06 1005.73 459.912 1004.51 461.56C1005.55 469.359 1005.72 477.192 1005.01 485.06C1004.76 486.184 1004.26 487.184 1003.51 488.06C1002.84 486.393 1002.18 484.727 1001.51 483.06C1000.4 490.582 999.062 497.915 997.512 505.06C999.452 484.101 1002.45 463.435 1006.51 443.06Z" fill="#A4C629"/>
<path fill-rule="evenodd" clip-rule="evenodd" d="M830.513 479.06C836.493 479.565 838.993 482.899 838.013 489.06C838.683 497.06 838.683 505.06 838.013 513.06C836.403 520.376 834.903 527.709 833.513 535.06C837.973 541.669 837.313 547.835 831.513 553.56C826.193 556.262 822.023 555.095 819.013 550.06C818.343 543.06 818.343 536.06 819.013 529.06C821.153 519.123 824.153 509.456 828.013 500.06C828.343 493.727 828.683 487.393 829.013 481.06C829.5 479.528 829.5 479.528 830.513 479.06Z" fill="#A4C629"/>
<path fill-rule="evenodd" clip-rule="evenodd" d="M1087.51 515.06C1087.49 507.523 1086.82 500.189 1085.51 493.06C1085.17 500.631 1085.83 507.964 1087.51 515.06Z" fill="#A4C629"/>
<path fill-rule="evenodd" clip-rule="evenodd" d="M997.512 505.06C997.682 509.739 997.512 514.405 997.012 519.06C995.832 524.011 994.332 528.678 992.512 533.06C994.002 523.574 995.672 514.241 997.512 505.06Z" fill="#A4C629"/>
<path fill-rule="evenodd" clip-rule="evenodd" d="M1143.51 531.06C1142.53 541.913 1141.19 552.58 1139.51 563.06C1139.81 554.37 1140.48 545.703 1141.51 537.06C1141.55 534.608 1142.22 532.608 1143.51 531.06Z" fill="#A4C629"/>
<path fill-rule="evenodd" clip-rule="evenodd" d="M917.512 464.06C924.742 464.812 927.242 468.812 925.012 476.06C922.562 485.572 921.902 495.239 923.012 505.06C927.302 514.034 931.632 523.034 936.012 532.06C936.992 548.78 930.822 562.28 917.512 572.56C910.842 577.227 904.182 581.893 897.512 586.56C875.652 597.055 853.982 607.721 832.512 618.56C824.662 620.86 819.992 618.027 818.512 610.06C818.752 606.409 820.422 603.576 823.512 601.56C828.552 598.039 833.882 595.039 839.512 592.56C859.192 584.555 878.192 575.221 896.512 564.56C901.962 560.414 907.122 555.914 912.012 551.06C914.502 547.249 916.002 543.082 916.512 538.56C914.252 532.55 911.092 527.05 907.012 522.06C900.282 504.986 901.282 488.319 910.012 472.06C912.712 469.524 915.212 466.857 917.512 464.06Z" fill="#A4C629"/>
<path fill-rule="evenodd" clip-rule="evenodd" d="M736.512 525.06C735.977 527.798 736.977 529.632 739.512 530.56C736.834 530.721 735.167 532.055 734.512 534.56C734.396 536.959 734.729 539.459 735.512 542.06C735.345 542.727 735.179 543.393 735.012 544.06C733.594 541.559 732.594 541.892 732.012 545.06C730.846 554.073 729.346 562.74 727.512 571.06C728.226 555.16 731.226 539.827 736.512 525.06Z" fill="#A4C629"/>
<path fill-rule="evenodd" clip-rule="evenodd" d="M1116.51 617.06C1118.44 598.252 1119.78 579.252 1120.51 560.06C1117.93 578.822 1116.6 597.822 1116.51 617.06Z" fill="#A4C629"/>
<path fill-rule="evenodd" clip-rule="evenodd" d="M1139.51 569.06C1139.12 580.563 1138.45 591.896 1137.51 603.06C1137.34 593.388 1137.51 583.721 1138.01 574.06C1138.21 572.178 1138.71 570.512 1139.51 569.06Z" fill="#A4C629"/>
<path fill-rule="evenodd" clip-rule="evenodd" d="M1136.51 659.06C1135.89 664.495 1135.22 669.828 1134.51 675.06C1133.9 669.289 1134.56 663.956 1136.51 659.06Z" fill="#A4C629"/>
<path fill-rule="evenodd" clip-rule="evenodd" d="M1111.51 695.06C1111.77 690.698 1111.93 686.365 1112.01 682.06C1107.94 686.639 1103.44 690.639 1098.51 694.06C1099.24 690.182 1101.58 687.849 1105.51 687.06C1105.39 681.167 1108.06 679.167 1113.51 681.06C1113.89 686.013 1113.22 690.679 1111.51 695.06Z" fill="#A4C629"/>
<path fill-rule="evenodd" clip-rule="evenodd" d="M1111.51 695.06C1110.35 703.691 1109.35 712.357 1108.51 721.06C1106.87 727.876 1105.54 734.876 1104.51 742.06C1098.87 771.496 1088.03 798.829 1072.01 824.06C1069.51 826.56 1067.01 829.06 1064.51 831.56C1062.65 832.861 1060.65 833.195 1058.51 832.56C1053.72 826.473 1050.38 819.64 1048.51 812.06C1046.82 800.467 1046.15 788.8 1046.51 777.06C1048.65 761.442 1054.15 747.109 1063.01 734.06C1073.59 719.641 1085.43 706.307 1098.51 694.06C1103.44 690.639 1107.94 686.639 1112.01 682.06C1111.93 686.365 1111.77 690.698 1111.51 695.06Z" fill="#FCFEFD"/>
<path fill-rule="evenodd" clip-rule="evenodd" d="M1108.51 721.06C1108.12 727.73 1107.62 734.396 1107.01 741.06C1106.34 741.812 1105.51 742.146 1104.51 742.06C1105.54 734.876 1106.87 727.876 1108.51 721.06Z" fill="#A4C629"/>
<path fill-rule="evenodd" clip-rule="evenodd" d="M1032.51 751.06C1031.56 754.432 1031.56 757.765 1032.51 761.06C1032.18 762.06 1031.51 762.727 1030.51 763.06C1029.51 776.377 1029.18 789.71 1029.51 803.06C1028.69 800.591 1028.19 797.925 1028.01 795.06C1027.34 785.393 1027.34 775.727 1028.01 766.06C1028.83 760.736 1030.33 755.736 1032.51 751.06Z" fill="#A4C629"/>
<path fill-rule="evenodd" clip-rule="evenodd" d="M1046.51 777.06C1046.15 788.8 1046.82 800.467 1048.51 812.06C1047.05 809.357 1046.21 806.357 1046.01 803.06C1045.19 794.217 1045.35 785.55 1046.51 777.06Z" fill="#A4C629"/>
</svg>
