<svg width="60" height="59" viewBox="0 0 60 59" fill="none" xmlns="http://www.w3.org/2000/svg">
<path d="M13.6671 1.22294C16.3354 -1.44539 18.3327 0.889688 18.666 2.22302C19.166 4.22302 15.5004 14.3896 14.1671 16.7229V53.9625C14.0005 54.5493 13.2671 55.8229 11.6671 56.2229C10.0671 56.6229 9.00046 54.8827 8.66713 53.9625V26.2229C8.66713 25.4229 8.33379 25.5562 8.16713 25.7229L4.16618 29.7229C2.16618 30.2229 2.16618 30.2229 0.667042 29.2229C-0.833303 27.2229 0.666185 25.2229 0.666185 25.2229C0.666185 25.2229 5.82733 19.2325 9.1671 14.2229C12.1671 9.72294 12.6671 2.22292 13.6671 1.22294Z" fill="black"/>
<path d="M56.166 12.223H28.666L31.666 3.22302C33.166 0.723022 27.166 -1.77698 26.666 2.72302C26.266 6.32302 21.8327 16.8897 19.166 20.223C18.3327 20.723 16.766 22.223 17.166 24.223C17.666 26.723 20.666 26.223 21.666 25.723C22.466 25.323 24.9993 20.223 26.666 17.723H34.666C36.266 17.723 36.666 19.0564 36.666 19.723V51.223C36.666 53.223 35.666 53.223 34.666 53.223H31.666C29.166 54.223 29.666 57.723 31.166 58.223C32.366 58.623 35.666 58.723 38.166 57.723C40.4509 56.8091 41.8327 54.0564 42.166 52.223V19.723C42.166 18.123 43.166 17.723 43.666 17.723H53.166C56.666 17.723 53.666 22.723 53.666 23.223C53.666 24.1271 53.666 24.223 54.3321 24.723C55.3764 24.9 56.5314 24.7769 56.666 24.723C60.666 23.123 60.666 13.723 56.166 12.223Z" fill="black"/>
<path d="M51 27C49.334 26 46.9993 27.0564 46.666 28.723C45.866 32.323 51.3327 42.8897 53.666 47.223C53.9993 47.8897 55.066 49.123 56.666 48.723C58.666 48.223 59.666 46.223 58.166 44.223C56.966 42.623 53.666 37 51 27Z" fill="black"/>
<path d="M25.166 27.5404C27.666 24.5405 30.3329 27.3737 30.6663 29.0403C30.666 32.5403 26.4993 42.2071 24.166 46.5404C23.666 48.0404 22.266 48.9404 20.666 48.5404C18.666 48.0404 18.166 46.0404 19.166 44.0404C20.0604 42.2516 23.8327 32.0404 25.166 27.5404Z" fill="black"/>
</svg>
