<svg width="100" height="100" viewBox="0 0 100 100" fill="none" xmlns="http://www.w3.org/2000/svg">
<path d="M23.4986 3.94387C27.8912 -0.297447 31.179 3.41416 31.7278 5.53349C32.5508 8.71248 26.5166 24.8722 24.3217 28.581C24.3217 28.581 24.5969 85.3295 24.3217 87.7733C24.0466 90.2171 21.6002 91.8066 19.1081 91.8066C16.3931 91.8066 15.8157 89.4224 15.2677 87.7733C14.7197 86.1243 15.2677 42.0918 15.2677 42.0918C15.2677 40.8202 14.719 41.0321 14.4446 41.297L7.85831 49.2445C4.56594 50.0393 4.56594 50.0393 2.09808 48.4498C-0.371772 45.2708 2.09667 42.0918 2.09667 42.0918C2.09667 42.0918 10.5929 32.57 16.0908 24.6073C21.0294 17.4546 21.8525 5.53332 23.4986 3.94387Z" fill="black"/>
<path d="M91.8136 21.4285H48.1896L53.1282 7.12299C54.5011 2.79475 44.8899 -0.384247 43.517 6.32824C42.3617 11.9766 36.5218 23.5153 31.1706 34.1444C29.9136 36.6411 26.9538 38.9129 27.6123 42.0919C28.4354 46.0657 33.6635 45.6771 35.0201 44.4762C37.2161 42.5322 42.1536 34.1444 44.8972 30.1707H58.0667C60.7006 30.1707 61.3591 32.29 61.3591 33.3497V83.4189C61.3591 86.5979 59.7129 86.5979 58.0667 86.5979H53.1282C49.0127 88.1874 49.8358 93.7506 52.3051 94.5454C54.2805 95.1812 59.7129 95.3401 63.8284 93.7506C67.5897 92.2979 69.8644 87.9224 70.4131 85.0084V33.3497C70.4131 30.8065 72.0593 30.1707 72.8824 30.1707H86.875C91.8136 31.7804 85.4061 36.1253 86.6017 39.3532C86.957 40.3125 87.6981 40.5024 88.7945 41.2972C90.5137 41.5785 92.4151 41.3828 92.6367 41.2972C98.723 38.9465 101.321 29.2072 96.4788 24.253C95.0029 22.7429 94.0096 21.8687 91.8136 21.4285Z" fill="black"/>
<path d="M83.3093 45.7754C81.6632 44.1859 78.3697 45.006 77.821 47.6552C76.504 53.3774 85.5032 70.1731 89.3443 77.0609C89.893 78.1206 91.649 80.0809 94.2829 79.4451C97.5752 78.6504 99.2214 75.4714 96.7521 72.2924C95.4024 70.5548 90.503 61.1969 87.4248 53.6587C85.9978 50.164 84.9555 47.3649 83.3093 45.7754Z" fill="black"/>
<path d="M42.428 45.7754C46.5434 41.0071 50.9337 45.5104 51.4824 48.1596C51.482 53.7228 44.6229 69.088 40.7818 75.9759C39.9587 78.3601 37.654 79.7907 35.0201 79.1549C31.7278 78.3601 30.9047 75.1811 32.5508 72.0021C34.0232 69.1587 40.2331 52.9282 42.428 45.7754Z" fill="black"/>
</svg>
