<svg width="400" height="400" viewBox="0 0 400 400" fill="none" xmlns="http://www.w3.org/2000/svg">
<g clip-path="url(#clip0_338_2453)">
<path d="M464 364.916C464 379.38 358.924 376.172 206.157 376.172C53.3905 376.172 -52 379.38 -52 364.916C-52 350.441 42.4725 304.086 195.239 304.086C348.006 304.086 464 350.441 464 364.916Z" fill="#66A2AF"/>
<path d="M102.311 275.349C102.311 275.349 81.6397 249.733 86.0599 248.511C90.4802 247.289 108.598 275.349 108.598 275.349H102.311Z" fill="white"/>
<path d="M222.934 319.486C222.934 319.486 199.12 198.829 236.49 176.139C260.305 156.275 338.57 148.21 350.117 176.139C360.617 197.913 381.714 258.148 393.163 290.519L410.635 336.37L368.377 331.72C368.377 331.72 347.192 330.203 321.326 329.57C301.309 329.09 272.779 330.444 272.779 330.444C272.779 330.444 229.134 362.52 222.934 319.486Z" fill="#FF5047"/>
<path d="M300.032 161.71C300.032 161.71 297.216 171.511 286.717 174.993C276.207 178.475 268.348 168.139 268.348 168.139L265.489 155.915C265.489 155.915 249.063 158.316 244.108 154.573C239.426 151.025 235.813 129.656 235.813 129.656C235.813 129.656 228.261 133.115 227.813 129.743C227.366 126.37 235.519 122.267 234.034 116.166C232.419 109.563 232.986 102.905 233.074 95.0685C233.237 79.4394 265.533 56.1158 286.28 96.2581C289.031 101.562 300.032 161.71 300.032 161.71Z" fill="#FFD9C1"/>
<path d="M241.325 117.53C240.976 115.882 240.124 114.681 239.426 114.834C238.716 114.998 238.422 116.46 238.771 118.108C239.109 119.745 239.961 120.957 240.67 120.804C241.369 120.64 241.663 119.178 241.325 117.53Z" fill="#5E2A28"/>
<path d="M244.796 140.1C244.021 140.1 243.169 139.948 242.22 139.598C241.805 139.445 241.598 138.976 241.751 138.561C241.881 138.245 242.187 138.038 242.504 138.038C242.602 138.038 242.7 138.059 242.787 138.092C243.551 138.376 244.206 138.496 244.796 138.496C247.306 138.496 248.299 136.313 248.419 136.007C248.561 135.702 248.856 135.516 249.172 135.516C249.27 135.516 249.38 135.538 249.467 135.571C249.882 135.746 250.078 136.204 249.914 136.619C249.347 138.005 247.666 140.1 244.796 140.1Z" fill="#FC827A"/>
<path d="M243.42 110.763C243.213 110.763 243.006 110.676 242.842 110.523C242.831 110.501 240.997 108.515 238.825 108.569C237.909 108.58 237.09 108.984 236.348 109.792C236.053 110.119 235.54 110.141 235.213 109.835C234.885 109.541 234.875 109.028 235.169 108.7C236.217 107.565 237.439 106.976 238.815 106.965H238.869C241.619 106.965 243.901 109.3 243.999 109.399C244.304 109.726 244.293 110.228 243.977 110.534C243.824 110.687 243.628 110.763 243.42 110.763Z" fill="#5E2A28"/>
<path d="M260.053 107.107C260.053 107.107 271.197 91.2048 277.625 100.951C284.054 110.698 272.954 125.475 272.954 125.475C272.954 125.475 278.913 146.496 294.258 141.366C309.582 136.237 312.496 98.8447 308.534 89.0984C304.583 79.352 316.927 62.9917 333.255 69.6602C349.572 76.3288 336.223 105.568 355.509 115.827C374.794 126.087 387.16 95.8215 387.16 95.8215C387.16 95.8215 363.913 94.7956 363.422 83.5103C362.92 72.2251 358.685 41.6654 330.625 44.0883C317.757 45.2016 307.41 58.8552 305.642 69.4965C304.561 76.0014 304.561 80.9455 304.561 80.9455C304.561 80.9455 276.065 42.7459 240.735 71.0354C229.243 80.247 232.844 92.7437 232.844 92.7437C232.844 92.7437 245.221 88.127 251.65 91.7178C258.078 95.3085 251.147 107.107 260.053 107.107Z" fill="#5E2A28"/>
<path d="M268.796 124.395C268.796 121.71 271 119.538 273.729 119.538C276.458 119.538 278.662 121.71 278.662 124.395C278.662 127.069 276.458 129.241 273.729 129.241C271 129.241 268.796 127.069 268.796 124.395Z" fill="white"/>
<path d="M267.18 159.746C267.169 159.746 267.159 159.735 267.159 159.735L265.794 155.511C265.794 155.511 271.35 154.572 276.228 148.57C277.462 147.053 278.226 146.463 278.651 146.463C279.906 146.463 278.182 151.68 276.676 153.983C272.976 159.637 267.595 159.746 267.18 159.746Z" fill="#FB928B"/>
<path d="M305.806 75.8159L309.659 83.2157L308.294 87.6796L301.495 76.7545L305.806 75.8159Z" fill="#CEC669"/>
<path d="M353.872 275.043C352.944 275.72 351.645 275.501 350.969 274.574L307.989 214.961C307.323 214.022 307.53 212.723 308.458 212.046C309.396 211.381 310.695 211.588 311.361 212.527L354.341 272.14C355.018 273.068 354.799 274.377 353.872 275.043Z" fill="#8D6535"/>
<path d="M356.218 331C355.214 330.946 354.188 330.88 353.162 330.815C354.232 330.869 355.258 330.924 356.229 330.978L356.218 331Z" fill="#D4A2A7"/>
<path d="M356.197 331.066C348.666 330.673 338.887 330.182 330.625 329.843C339.203 330.127 346.952 330.487 353.163 330.815C354.189 330.88 355.214 330.946 356.219 331L356.197 331.066ZM272.78 330.444C272.78 330.444 291.574 329.549 309.353 329.472C293.931 329.658 272.78 330.444 272.78 330.444Z" fill="#8481A1"/>
<path d="M356.229 330.978C355.258 330.924 354.232 330.869 353.163 330.814C346.952 330.487 339.203 330.127 330.625 329.843C326.412 329.668 322.592 329.537 319.667 329.472C318.314 329.45 316.775 329.439 315.083 329.439C313.315 329.439 311.372 329.45 309.353 329.472C291.574 329.548 272.78 330.443 272.78 330.443L317.943 287.714L311.951 278.623L318.543 275.785L324.72 286.874L295.95 319.278H352.148L341.823 287.441L361.468 320.195L356.229 330.978Z" fill="#FF3A33"/>
<path d="M258.395 291.535L251.464 243.545L261.778 278.623L307.716 250.901L299.356 261.084L258.395 291.535Z" fill="#FF3A33"/>
<path d="M299.355 261.084L311.95 278.623C311.95 278.623 331.116 270.95 340.971 263.278C347.105 258.497 345.97 246.033 346.155 238.513C346.199 236.887 369.981 227.567 367.613 221.52C366.761 219.348 346.461 231.452 339.683 233.34C329.675 238.732 317.975 246.841 317.975 246.841C317.975 246.841 330.013 217.253 326.183 212.319C322.352 207.386 316.884 231.496 314.144 238.623C311.405 245.75 299.355 261.084 299.355 261.084Z" fill="#FFD9C1"/>
<path d="M-9.24285 216.489C2.83914 173.869 -3.09817 153.023 26.3046 149.869C28.6184 148.33 40.886 149.738 54.1139 151.135C64.406 152.226 75.2765 153.317 82.5017 153.023C115.583 151.68 125.635 148.744 144.341 153.055C160.593 158.01 174.596 210.726 180.598 244.473C187.66 284.124 202.743 337.254 178.066 343.333C162.284 348.888 137.935 323.971 137.935 323.971L41.1479 324.004C41.1479 324.004 -18.4544 359.126 -24.1516 334.962C-29.8379 310.787 -21.3358 259.098 -9.24285 216.489Z" fill="#5E2A28"/>
<path d="M41.6937 323.819L40.766 322.509L62.1796 307.404L48.8315 278.547L-2.82526 297.243L-3.37097 295.725L49.6719 276.538L64.1878 307.938L41.6937 323.819Z" fill="#4C201E"/>
<path d="M164.926 297.166L122 269.553L102.617 290.574L101.438 289.483L121.738 267.469L122.306 267.829L165.799 295.813L164.926 297.166Z" fill="#4C201E"/>
<path d="M135.959 322.52L102.333 292.342L103.402 291.141L137.029 321.319L135.959 322.52Z" fill="#4C201E"/>
<path d="M60.6735 153.874C60.6735 153.874 62.5617 164.21 76.4445 168.019C90.5674 171.882 100.532 163.064 100.532 163.064L103.272 154.616C103.272 154.616 114.273 154.638 120.909 145.055C127.545 135.462 134.137 107.401 135.141 84.8309C136.003 65.4364 109.122 45.6272 91.8662 61.169C87.8717 64.7597 85.9508 67.1718 82.4364 76.0123C80.0571 82.015 68.9683 79.1992 66.9164 86.1952C65.0174 92.6782 70.2234 113.655 68.6627 120.051C67.2548 125.868 65.9996 131.456 64.9191 136.477C62.2233 149.115 60.6735 153.874 60.6735 153.874Z" fill="#FFD9C1"/>
<path d="M98.9167 161.416C94.5401 161.416 83.8224 159.779 79.2603 144.477C75.102 132.297 79.5659 124.22 79.5659 124.22C79.5659 124.22 77.9287 131.107 84.9138 142.381C92.1826 154.114 103.206 154.616 103.271 154.616V154.627L100.827 161.296C100.827 161.296 100.106 161.416 98.9167 161.416Z" fill="#FB928B"/>
<path d="M115.146 65.3054C115.146 65.3054 118.246 74.8662 128.778 74.7025C139.299 74.5497 141.471 88.6508 144.724 79.2537C147.976 69.8457 142.868 55.9083 134.661 49.3379C127.501 43.5971 95.4351 28.6556 71.7404 50.5058C69.4266 52.6449 55.7293 54.0856 53.6011 56.956C52.5424 58.3967 62.9872 60.9725 61.9831 62.6096C46.2231 88.4107 65.5302 136.477 65.5302 136.477C65.5302 136.477 81.7051 117.693 79.4022 116.111C74.3052 112.629 64.0787 98.2116 71.162 90.0806C73.1265 87.8322 75.5167 85.7258 79.9479 85.3875C87.8606 84.9509 88.7665 97.5895 92.1063 95.2102C96.2864 92.2416 105.334 87.483 110.78 80.8908C116.227 74.2877 115.146 65.3054 115.146 65.3054Z" fill="#8D6535"/>
<path d="M85.0667 102.687C84.8156 102.687 84.5646 102.556 84.4009 102.326C82.6328 99.7288 79.0311 95.5486 76.9247 95.374C76.5427 95.3413 76.248 95.4504 75.9751 95.7342C75.6695 96.0507 75.1675 96.0725 74.8401 95.7669C74.5236 95.4613 74.5126 94.9484 74.8182 94.6209C75.4185 93.9988 76.2153 93.7042 77.0556 93.7696C80.6137 94.0643 85.2195 100.678 85.7324 101.431C85.9834 101.792 85.8852 102.294 85.5141 102.545C85.3832 102.632 85.2195 102.687 85.0667 102.687Z" fill="#FFD9C1"/>
<path d="M109.875 129.361C108.172 129.361 106.535 127.964 106.338 127.789C106.055 127.538 106.033 127.123 106.273 126.851C106.404 126.698 106.589 126.621 106.775 126.621C106.928 126.621 107.092 126.676 107.212 126.785C107.637 127.156 108.849 128.029 109.864 128.029C109.973 128.029 110.082 128.018 110.191 127.997C110.65 127.898 111.01 127.571 111.294 126.992C112.712 124.067 111.719 118.992 111.708 118.938C111.643 118.578 111.872 118.228 112.232 118.152C112.276 118.141 112.319 118.141 112.363 118.141C112.669 118.141 112.952 118.359 113.018 118.676C113.062 118.905 114.098 124.253 112.483 127.582C111.905 128.782 111.053 129.175 110.453 129.306C110.257 129.339 110.071 129.361 109.875 129.361Z" fill="#FC827A"/>
<path d="M105.858 107.783C106.557 105.95 107.604 104.651 108.183 104.88C108.772 105.098 108.674 106.768 107.965 108.602C107.266 110.425 106.218 111.734 105.64 111.505C105.051 111.287 105.149 109.617 105.858 107.783Z" fill="#63312D"/>
<path d="M121.029 112.826C121.651 110.927 122.655 109.552 123.288 109.759C123.932 109.955 123.943 111.669 123.332 113.568C122.72 115.467 121.705 116.842 121.072 116.635C120.439 116.427 120.417 114.725 121.029 112.826Z" fill="#63312D"/>
<path d="M127.195 104.214C126.879 104.214 126.584 104.029 126.453 103.723C125.864 102.337 125.1 101.508 124.161 101.279C122.611 100.875 120.953 102.163 120.942 102.174C120.592 102.457 120.09 102.392 119.817 102.053C119.534 101.704 119.599 101.202 119.938 100.929C120.025 100.853 122.208 99.1285 124.543 99.7178C125.995 100.078 127.141 101.224 127.938 103.101C128.101 103.505 127.916 103.974 127.512 104.149C127.403 104.193 127.294 104.214 127.195 104.214Z" fill="#8D6535"/>
<path d="M111.937 101.028C111.61 101.028 111.304 100.831 111.184 100.515C110.649 99.0958 109.907 98.2445 108.991 97.9716C107.441 97.5241 105.749 98.7465 105.727 98.7574C105.378 99.0194 104.876 98.943 104.614 98.5937C104.352 98.2335 104.417 97.7315 104.778 97.4696C104.876 97.4041 107.113 95.756 109.427 96.4327C110.857 96.8474 111.959 98.0262 112.679 99.9362C112.843 100.351 112.636 100.809 112.221 100.973C112.123 101.006 112.025 101.028 111.937 101.028Z" fill="#8D6535"/>
<path d="M106.131 140.439C104.69 140.439 103.435 140.1 102.398 139.402C99.2112 137.295 99.3095 132.82 99.3095 132.624C99.3204 132.198 99.6806 131.849 100.117 131.849H100.128C100.576 131.86 100.925 132.231 100.914 132.668C100.914 132.711 100.848 136.466 103.293 138.07C104.068 138.583 105.018 138.834 106.142 138.834C107.779 138.834 109.776 138.299 112.123 137.219C112.232 137.175 112.352 137.153 112.461 137.153C112.767 137.153 113.05 137.317 113.192 137.623C113.378 138.026 113.203 138.496 112.799 138.681C110.245 139.849 108.019 140.439 106.131 140.439Z" fill="#FC827A"/>
<path d="M39.0307 237.902C39.0307 237.902 60.5207 256.445 90.8075 255.212C121.105 253.979 141.438 237.902 141.438 237.902L123.517 277.543C123.517 277.543 109.154 293.466 80.4063 288.762C66.0979 286.427 54.4743 280.991 54.4743 280.991L39.0307 237.902Z" fill="white"/>
<path d="M49.9885 277.073C49.9885 277.073 70.2343 264.162 75.3967 258.388C90.2182 241.842 71.042 273.373 75.3967 272.62C84.7283 270.994 94.3001 272.849 98.6439 271.452C105.673 269.182 125.635 261.706 131.092 263.769C140.369 267.283 116.86 285.684 102.868 291.753C88.8866 297.799 61.4375 301.685 61.4375 301.685L49.9885 277.073Z" fill="#FFD9C1"/>
<path d="M66.8072 345.723H138V364.878H66.8072V345.723Z" fill="#355DAF"/>
<path d="M50.4794 327.879H76.2696V345.723H50.4794V327.879Z" fill="#FF3A32"/>
<path d="M75.2002 327.879H131.768V345.723H75.2002V327.879Z" fill="#FF5047"/>
<path d="M74.6981 332.168H131.768V342.351H74.6981V332.168Z" fill="white"/>
<path d="M50.4794 332.168H75.1236V342.351H50.4794V332.168Z" fill="#66A2AF"/>
<path d="M42.8943 364.812H67.0037V345.723H42.8943V364.812Z" fill="#284B9E"/>
<path d="M138 361.702H67.0035V348.135H138V361.702Z" fill="white"/>
<path d="M67.0037 361.702H42.8943V348.135H67.0037V361.702Z" fill="#66A2AF"/>
<path d="M288.179 369.811L340.731 340.102L304.038 327.573L249.412 349.303L288.179 369.811Z" fill="white"/>
<path d="M181.559 355.295C181.559 347.491 187.998 341.161 195.933 341.161C203.868 341.161 210.296 347.491 210.296 355.295C210.296 363.11 203.868 369.429 195.933 369.429C187.998 369.429 181.559 363.11 181.559 355.295Z" fill="#FF5047"/>
<path d="M316.294 175.921C316.294 175.921 313.751 164.188 317.102 164.362C320.398 164.537 318.444 175.277 318.444 175.277C318.444 175.277 326.455 167.888 327.612 171.238C328.769 174.589 319.241 177.318 319.241 177.318C319.241 177.318 328.234 181.269 324.873 184.936C321.522 188.592 317.713 177.929 317.713 177.929C317.713 177.929 316.971 188.843 312.998 187.653C309.014 186.464 314.995 177.929 314.995 177.929C314.995 177.929 305.173 177.929 305.227 173.967C305.315 167.211 316.294 175.921 316.294 175.921Z" fill="white"/>
<path d="M247.612 185.514C247.612 185.514 245.069 173.781 248.419 173.956C251.715 174.131 249.762 184.87 249.762 184.87C249.762 184.87 257.762 177.481 258.919 180.832C260.087 184.194 250.548 186.911 250.548 186.911C250.548 186.911 259.541 190.862 256.179 194.54C252.829 198.196 249.031 187.522 249.031 187.522C249.031 187.522 248.288 198.448 244.305 197.247C240.321 196.057 246.313 187.522 246.313 187.522C246.313 187.522 236.49 187.522 236.545 183.561C236.632 176.805 247.612 185.514 247.612 185.514Z" fill="white"/>
<path d="M232.976 257.657C232.976 257.657 230.433 245.924 233.783 246.099C237.079 246.273 235.115 257.013 235.115 257.013C235.115 257.013 243.137 249.624 244.294 252.975C245.451 256.325 235.912 259.054 235.912 259.054C235.912 259.054 244.905 263.005 241.543 266.672C238.193 270.339 234.395 259.665 234.395 259.665C234.395 259.665 233.652 270.59 229.669 269.39C225.696 268.2 231.677 259.665 231.677 259.665C231.677 259.665 221.854 259.665 221.909 255.703C221.996 248.947 232.976 257.657 232.976 257.657Z" fill="white"/>
<path d="M271.754 229.716C271.754 229.716 269.221 217.984 272.561 218.169C275.868 218.333 273.904 229.073 273.904 229.073C273.904 229.073 281.915 221.684 283.072 225.034C284.239 228.396 274.7 231.114 274.7 231.114C274.7 231.114 283.694 235.075 280.332 238.743C276.981 242.399 273.172 231.725 273.172 231.725C273.172 231.725 272.43 242.65 268.457 241.46C264.474 240.26 270.455 231.725 270.455 231.725C270.455 231.725 260.643 231.725 260.687 227.763C260.774 221.018 271.754 229.716 271.754 229.716Z" fill="white"/>
<path d="M294.957 290.574C294.957 290.574 292.414 278.841 295.765 279.016C299.061 279.191 297.107 289.93 297.107 289.93C297.107 289.93 305.107 282.541 306.264 285.892C307.432 289.243 297.893 291.971 297.893 291.971C297.893 291.971 306.886 295.922 303.525 299.6C300.174 303.256 296.365 292.582 296.365 292.582C296.365 292.582 295.634 303.507 291.65 302.307C287.667 301.117 293.658 292.582 293.658 292.582C293.658 292.582 283.836 292.582 283.89 288.62C283.978 281.865 294.957 290.574 294.957 290.574Z" fill="white"/>
<path d="M243.519 315.502C243.519 315.502 240.976 303.769 244.326 303.944C247.633 304.118 245.669 314.858 245.669 314.858C245.669 314.858 253.669 307.469 254.837 310.82C256.004 314.17 246.455 316.899 246.455 316.899C246.455 316.899 255.448 320.85 252.097 324.517C248.747 328.173 244.938 317.51 244.938 317.51C244.938 317.51 244.195 328.424 240.212 327.235C236.239 326.045 242.22 317.51 242.22 317.51C242.22 317.51 232.397 317.51 232.452 313.548C232.539 306.792 243.519 315.502 243.519 315.502Z" fill="white"/>
<path d="M330.101 305.777C330.101 305.777 327.558 294.045 330.908 294.219C334.205 294.394 332.24 305.133 332.24 305.133C332.24 305.133 340.251 297.745 341.419 301.095C342.576 304.446 333.048 307.174 333.048 307.174C333.048 307.174 342.041 311.125 338.679 314.792C335.329 318.449 331.52 307.786 331.52 307.786C331.52 307.786 330.526 317.914 326.543 316.724C322.559 315.535 328.791 307.786 328.791 307.786C328.791 307.786 318.979 307.786 319.034 303.824C319.11 297.068 330.101 305.777 330.101 305.777Z" fill="white"/>
<path d="M367.591 268.255C367.591 268.255 365.048 256.522 368.399 256.697C371.695 256.871 369.73 267.611 369.73 267.611C369.73 267.611 377.741 260.222 378.909 263.572C380.066 266.934 370.527 269.652 370.527 269.652C370.527 269.652 379.52 273.603 376.159 277.27C372.808 280.937 368.999 270.263 368.999 270.263C368.999 270.263 368.006 280.402 364.033 279.202C360.049 278.012 366.281 270.263 366.281 270.263C366.281 270.263 356.469 270.263 356.513 266.301C356.6 259.545 367.591 268.255 367.591 268.255Z" fill="white"/>
<path d="M382.816 315.164C382.816 315.164 380.273 303.431 383.624 303.606C386.931 303.78 384.966 314.509 384.966 314.509C384.966 314.509 392.966 307.12 394.134 310.481C395.291 313.832 385.752 316.561 385.752 316.561C385.752 316.561 394.745 320.512 391.395 324.179C388.044 327.835 384.235 317.161 384.235 317.161C384.235 317.161 383.242 327.3 379.258 326.111C375.274 324.91 381.517 317.161 381.517 317.161C381.517 317.161 371.695 317.161 371.749 313.199C371.836 306.454 382.816 315.164 382.816 315.164Z" fill="white"/>
<path d="M349.834 211.108C349.834 211.108 347.302 199.375 350.652 199.55C353.948 199.724 351.984 210.464 351.984 210.464C351.984 210.464 359.995 203.064 361.152 206.426C362.32 209.776 352.781 212.505 352.781 212.505C352.781 212.505 361.774 216.456 358.412 220.123C355.062 223.779 351.253 213.116 351.253 213.116C351.253 213.116 350.51 224.03 346.538 222.841C342.554 221.64 348.535 213.116 348.535 213.116C348.535 213.116 338.723 213.116 338.767 209.143C338.854 202.398 349.834 211.108 349.834 211.108Z" fill="white"/>
</g>
<defs>
<clipPath id="clip0_338_2453">
<rect width="400" height="400" fill="white"/>
</clipPath>
</defs>
</svg>
