<svg width="400" height="400" viewBox="0 0 400 400" fill="none" xmlns="http://www.w3.org/2000/svg">
<g clip-path="url(#clip0_338_2800)">
<path d="M169.077 441.126C169.077 441.126 196.468 454.653 222.935 454.534C249.403 454.414 272.121 454.534 272.121 454.534C272.121 454.534 299.838 214.949 282.335 193.045C262.636 168.37 243.079 160.309 243.079 160.309C243.079 160.309 167.469 202.671 173.521 281.28C179.562 359.888 169.077 441.126 169.077 441.126Z" fill="#95C6C4"/>
<path d="M143.273 113.98C143.273 113.98 124.455 77.0608 140.753 61.6108C157.05 46.1715 204.052 93.4996 204.052 93.4996L143.273 113.98Z" fill="#FCC9B6"/>
<path d="M125.628 81.4503C125.628 81.4503 129.833 101.04 148.977 91.6525C158.321 87.0783 164.623 75.4202 173.521 75.0399C182.409 74.6596 183.734 91.6525 183.734 91.6525L231.041 118.935C231.041 118.935 250.717 98.5084 229.009 52.0821C210.951 13.4569 125.628 10.2843 125.628 81.4503Z" fill="#222323"/>
<path d="M219.719 219.947C231.932 210.027 248.381 198.01 248.142 160.309C248.055 146.564 234.007 116.675 224.934 113.307C214.363 109.406 220.893 99.0191 204.052 93.4997C181.887 86.2635 144.446 100.562 124.791 131.277C102.518 166.078 114.535 183.375 100.932 198.01C87.318 212.646 62.6109 216.057 57.0697 254.987C49.8336 305.878 101.214 348.22 101.214 348.22C101.214 348.22 185.418 247.794 219.719 219.947Z" fill="#965444"/>
<path d="M152.845 142.501C152.573 142.501 152.345 142.273 152.345 142.001C152.345 141.73 152.573 141.501 152.845 141.501C177.737 141.501 193.643 114.013 193.806 113.741C193.893 113.567 194.067 113.48 194.241 113.48C194.328 113.48 194.415 113.502 194.491 113.546C194.73 113.687 194.817 113.991 194.675 114.23C194.523 114.513 178.313 142.501 152.845 142.501Z" fill="#7C3D2F"/>
<path d="M116.393 220.447C116.219 220.447 116.045 220.349 115.959 220.186C115.817 219.947 115.904 219.643 116.154 219.501C143.632 204.236 140.285 173.814 140.253 173.51C140.22 173.238 140.416 172.977 140.687 172.956C140.72 172.956 140.742 172.945 140.763 172.945C141.013 172.945 141.22 173.14 141.252 173.39C141.296 173.705 144.707 204.79 116.643 220.381L116.393 220.447Z" fill="#7C3D2F"/>
<path d="M227.803 200.672L227.466 200.542C227.26 200.368 227.249 200.042 227.423 199.836C240.885 184.646 229.867 156.625 229.759 156.354C229.65 156.093 229.78 155.8 230.041 155.691C230.096 155.669 230.161 155.658 230.226 155.658C230.421 155.658 230.617 155.778 230.693 155.974C230.813 156.256 242.058 184.853 228.183 200.498L227.803 200.672Z" fill="#7C3D2F"/>
<path d="M205.16 256.073C201.738 252.172 197.848 248.055 193.828 244.371C203.759 234.213 212.766 225.586 219.72 219.947C220.752 219.099 221.816 218.241 222.914 217.35C223.49 223.206 214.211 240.427 208.844 249.815C207.572 251.879 206.345 253.976 205.16 256.073Z" fill="#83B9B7"/>
<path d="M193.828 244.371C193.448 244.024 193.067 243.676 192.676 243.339C192.861 243.078 212.809 215.329 220.871 215.329C221.056 215.329 221.24 215.34 221.403 215.373C222.327 215.525 222.805 216.231 222.914 217.35C221.816 218.241 220.752 219.099 219.719 219.947C212.766 225.586 203.759 234.213 193.828 244.371Z" fill="#844E3F"/>
<path d="M248.316 376.947C248.251 376.947 248.207 376.947 248.142 376.947C238.233 376.903 226.912 369.352 222.088 365.766C223.848 362.876 225.532 359.975 227.14 357.129C237.093 363.506 247.143 368.244 254.965 368.244C256.639 368.244 258.225 368.026 259.67 367.559C267.591 364.984 275.544 357.607 282.302 348.589L281.607 355.369C281.607 355.369 272.165 376.947 248.316 376.947Z" fill="#83B9B7"/>
<path d="M186.842 324.36C186.842 324.36 237.712 374.687 259.67 367.559C278.423 361.464 297.35 328.423 300.262 310.463C306.074 274.511 287.441 265.558 287.441 265.558L286.811 285.028C286.811 285.028 282.899 285.202 276.858 295.263C273.621 300.652 269.275 308.616 265.95 314.842C263.288 319.807 256.801 321.198 252.336 317.765L210.277 285.376L186.842 324.36Z" fill="#FFC1AA"/>
<path d="M188.646 291.243L248.153 328C248.153 328 283.91 258.507 278.869 245.415C273.827 232.322 247.621 210.168 226.956 227.292C206.28 244.415 188.646 291.243 188.646 291.243Z" fill="#95C6C4"/>
<path d="M282.335 310.963L282.03 310.865C281.813 310.692 281.77 310.377 281.933 310.159C291.222 297.958 286.768 285.876 286.724 285.756C286.626 285.496 286.757 285.202 287.017 285.115C287.278 285.018 287.561 285.137 287.669 285.398C287.713 285.517 292.385 298.099 282.747 310.768L282.335 310.963Z" fill="#AA4635"/>
<path d="M140.753 218.426L173.011 230.812L204.052 276.956L173.521 413.257L101.302 388.931C101.302 388.931 92.7508 311.485 110.906 265.558C124.64 230.779 140.753 218.426 140.753 218.426Z" fill="#F9D27A"/>
<path d="M188.645 325.99C188.645 325.99 143.273 285.202 143.273 265.058C143.273 244.915 155.594 232.496 172.641 232.496C189.688 232.496 217.622 271.599 217.622 271.599L188.645 325.99Z" fill="#F9D27A"/>
<path d="M186.516 324.74C161.874 304.292 151.052 287.038 146.348 276.434C146.413 276.401 146.467 276.38 146.522 276.347C148.63 280.617 151.607 285.191 155.018 289.776C160.375 297.697 168.274 307.171 179.91 317.689C182.865 320.6 185.31 322.915 186.853 324.349L186.842 324.36L186.516 324.74Z" fill="#F3AD3A"/>
<path d="M186.853 324.349C185.31 322.915 182.865 320.601 179.91 317.689C182.159 319.731 184.549 321.807 187.103 323.914L186.853 324.349ZM155.018 289.776C151.606 285.191 148.629 280.617 146.522 276.347C146.761 276.228 147 276.086 147.228 275.945C148.901 279.737 151.367 284.398 155.018 289.776Z" fill="#F3AD3A"/>
<path d="M169.882 333.812C165.916 329.336 160.516 323.034 154.269 315.179C156.398 313.332 159.19 312.202 162.243 312.202C168.969 312.202 174.412 317.645 174.412 324.36C174.412 328.184 172.641 331.585 169.882 333.812Z" fill="#FCE7B7"/>
<path d="M140.915 277.716C138.731 277.716 136.667 277.14 134.896 276.119C133.429 272.24 132.082 269.339 131.137 268.894C130.344 268.535 129.648 268.318 129.04 268.198C128.844 267.351 128.746 266.46 128.746 265.558C128.746 258.844 134.201 253.4 140.915 253.4C142.23 253.4 143.49 253.618 144.675 253.998C143.762 257.355 143.273 261.049 143.273 265.058L142.773 265.091C142.773 265.2 143.197 269.328 146.348 276.434C144.718 277.249 142.871 277.716 140.915 277.716Z" fill="#FCE7B7"/>
<path d="M147.228 275.945C144.196 269.089 143.784 265.113 143.773 265.015L143.273 265.058C143.273 261.049 143.762 257.355 144.675 253.998C149.553 255.573 153.084 260.158 153.084 265.558C153.084 269.959 150.737 273.826 147.228 275.945Z" fill="#FCE7B7"/>
<path d="M146.348 276.434C143.197 269.328 142.773 265.2 142.773 265.091L143.273 265.058C143.273 268.361 144.49 272.208 146.522 276.347C146.467 276.38 146.413 276.402 146.348 276.434Z" fill="#F9D394"/>
<path d="M146.522 276.347C144.49 272.208 143.273 268.361 143.273 265.058L143.773 265.015C143.784 265.113 144.196 269.089 147.228 275.945C147 276.086 146.761 276.228 146.522 276.347Z" fill="#F9D394"/>
<path d="M186.136 266.395C179.421 266.395 173.978 260.951 173.978 254.237C173.978 247.522 179.421 242.09 186.136 242.09C192.861 242.09 198.305 247.522 198.305 254.237C198.305 260.951 192.861 266.395 186.136 266.395Z" fill="#FCE7B7"/>
<path d="M279.227 246.816C279.151 246.294 279.032 245.827 278.869 245.414C278.814 245.262 278.749 245.099 278.684 244.947C278.738 244.925 278.792 244.915 278.858 244.915C278.869 244.915 278.89 244.915 278.89 244.915C279.173 244.925 279.39 245.165 279.368 245.447C279.368 245.48 279.347 245.925 279.227 246.816Z" fill="#579A97"/>
<path d="M247.556 328.13L247.328 328.086C247.078 327.956 246.98 327.652 247.11 327.402C247.121 327.391 247.121 327.38 247.132 327.369L247.99 327.891C247.893 328.054 247.73 328.13 247.556 328.13Z" fill="#88674F"/>
<path d="M247.99 327.891L247.132 327.369C276.859 269.426 278.358 245.621 278.369 245.393C278.38 245.186 278.51 245.012 278.684 244.947C278.749 245.099 278.814 245.262 278.869 245.414C279.032 245.827 279.151 246.294 279.227 246.816C278.467 252.651 273.892 277.423 248.012 327.869C248.001 327.869 247.99 327.891 247.99 327.891Z" fill="#579A97"/>
<path d="M173.521 413.258L101.302 388.931C101.801 385.465 104.485 384.041 108.538 384.041C126.943 384.041 173.521 413.258 173.521 413.258Z" fill="#F7C767"/>
<path d="M101.302 388.931C101.302 388.931 75.7254 418.364 64.6322 441.42C53.5499 464.464 39.4253 544.029 36.4048 572.235C33.3843 600.429 -11.988 679.375 -11.988 679.375C-11.988 679.375 74.7149 689.066 89.8391 698.117C104.963 707.178 156.8 709.025 156.8 709.025C156.8 709.025 164.797 519.626 166.818 506.023C169.404 488.606 173.522 413.257 173.522 413.257L101.302 388.931Z" fill="#F9D27A"/>
<path d="M92.3923 434.998C91.5991 434.998 90.8495 434.749 90.1432 434.227C80.3647 426.98 119.088 394.928 119.088 394.928C119.088 394.928 102.584 434.998 92.3923 434.998Z" fill="#F7C767"/>
<path d="M143.273 216.209C143.273 216.209 153.356 201.107 155.876 192.545C158.397 183.973 155.876 164.85 155.876 164.85C155.876 164.85 140.752 160.309 148.977 146.716C151.378 142.751 156.985 145.5 163.047 148.248C167.111 150.085 171.37 151.932 175.031 151.758C191.34 150.986 211.82 128.083 213.841 122.042C215.862 116.001 224.424 140.676 227.955 151.258C231.486 161.819 225.554 186.982 218.883 197.576C207.79 215.199 192.166 220.24 180.573 216.209L173.011 230.812L143.273 216.209Z" fill="#FCC9B6"/>
<path d="M201.249 188.015C200.097 188.015 198.848 187.786 197.62 187.319C195.675 186.58 194.209 185.407 193.72 184.168C193.611 183.908 193.741 183.614 194.002 183.516C194.252 183.408 194.545 183.538 194.654 183.788C195.045 184.755 196.316 185.755 197.979 186.385C200.043 187.167 202.173 187.232 203.542 186.548C205.552 185.537 207.225 172.988 207.79 165.307C207.812 165.035 208.062 164.829 208.344 164.85C208.616 164.872 208.822 165.111 208.8 165.383C208.54 168.794 207.116 185.896 203.987 187.45C203.227 187.83 202.281 188.015 201.249 188.015Z" fill="#AA4635"/>
<path d="M143.11 213.786C143.11 213.786 147.826 198.01 152.432 200.661C156.007 202.704 148.977 219.012 148.977 219.012C148.977 219.012 157.387 202.498 160.918 203.562C164.438 204.627 155.203 222.065 155.203 222.065C155.203 222.065 163.938 207.648 167.98 208.158C172.011 208.658 162.287 225.553 162.287 225.553C162.287 225.553 173.521 209.158 176.042 210.668C178.552 212.178 168.762 228.726 168.762 228.726C168.762 228.726 179.584 214.797 183.093 216.122C186.614 217.448 174.521 233.333 174.521 233.333L140.752 218.426L143.11 213.786Z" fill="#FFDE9C"/>
<path d="M193.306 198.51C192.535 198.51 191.807 198.347 191.155 198C188.645 196.663 188.156 193.262 188.135 193.11C188.102 192.839 188.298 192.589 188.569 192.545C188.852 192.513 189.102 192.708 189.134 192.98C189.145 193.012 189.58 196.022 191.633 197.119C192.883 197.771 194.512 197.608 196.479 196.62C196.729 196.5 197.033 196.598 197.153 196.848C197.283 197.098 197.185 197.402 196.924 197.521C195.61 198.184 194.393 198.51 193.306 198.51Z" fill="#AA4635"/>
<path d="M193.089 165.806C192.242 165.806 191.47 165.643 190.753 165.328C188.352 164.231 187.635 161.71 187.602 161.602C187.526 161.33 187.678 161.069 187.95 160.993C188.222 160.917 188.504 161.069 188.569 161.33C188.569 161.363 189.2 163.525 191.177 164.416C192.709 165.1 194.654 164.872 196.968 163.742C197.229 163.622 197.533 163.731 197.653 163.981C197.772 164.22 197.674 164.535 197.414 164.655C195.838 165.426 194.393 165.806 193.089 165.806Z" fill="black"/>
<path d="M218.883 172.738C218.503 172.738 218.144 172.695 217.775 172.597C215.059 171.869 213.461 168.729 213.385 168.599C213.266 168.349 213.364 168.045 213.614 167.925C213.874 167.795 214.168 167.903 214.298 168.142C214.309 168.175 215.765 171.022 218.036 171.63C219.035 171.891 220.078 171.674 221.121 170.978C221.36 170.815 221.675 170.88 221.827 171.109C221.98 171.348 221.914 171.663 221.686 171.804C220.752 172.423 219.807 172.738 218.883 172.738Z" fill="black"/>
<path d="M159.407 156.788C159.168 156.788 158.962 156.625 158.908 156.386C158.419 154.115 157.517 152.616 156.224 151.921C154.681 151.084 153.051 151.714 153.041 151.714C152.769 151.823 152.486 151.693 152.389 151.432C152.28 151.182 152.41 150.889 152.66 150.78C152.747 150.747 154.725 149.976 156.68 151.03C158.267 151.866 159.342 153.594 159.896 156.18C159.951 156.451 159.777 156.712 159.505 156.777L159.407 156.788Z" fill="#AA4635"/>
<path d="M183.137 181.68C181.518 181.68 179.812 181.365 178.107 180.724C172.554 178.584 169.306 173.618 170.838 169.598C171.913 166.817 175.01 165.23 178.661 165.23C180.269 165.23 181.985 165.535 183.68 166.187C189.243 168.316 192.492 173.292 190.96 177.302C189.884 180.083 186.788 181.68 183.137 181.68Z" fill="#FB8B63"/>
<path d="M220.176 195.283C219.654 195.153 219.122 195.001 218.601 194.794C213.049 192.665 209.789 187.689 211.332 183.679C212.397 180.887 215.493 179.301 219.155 179.301C220.752 179.301 222.468 179.605 224.174 180.257C224.685 180.452 225.163 180.681 225.63 180.92C224.12 186.352 222.208 191.437 220.176 195.283Z" fill="#FB8B63"/>
<path d="M199.847 156.788L199.413 156.549C195.838 150.758 189.145 153.953 188.863 154.083C188.613 154.213 188.309 154.105 188.189 153.855C188.07 153.605 188.167 153.301 188.417 153.181C188.493 153.149 196.208 149.444 200.282 156.017C200.423 156.256 200.347 156.571 200.108 156.712L199.847 156.788Z" fill="#965444"/>
<path d="M224.978 164.655C224.783 164.655 224.609 164.557 224.522 164.372C221.849 158.918 216.21 161.124 215.971 161.21C215.721 161.319 215.417 161.2 215.319 160.939C215.221 160.689 215.341 160.396 215.591 160.287C215.656 160.254 222.338 157.614 225.424 163.938C225.543 164.187 225.445 164.492 225.195 164.611L224.978 164.655Z" fill="#965444"/>
<path d="M176.314 400.752C161.385 400.035 101.932 334.877 101.932 334.877L103.583 317.384C120.272 342.081 156.083 387.377 176.477 400.046L176.314 400.752Z" fill="#F7C767"/>
<path d="M243.503 325.12C243.503 325.12 205.638 409.107 182.92 403.066C160.222 397.025 99.9215 315.907 94.8801 302.815C89.8388 289.733 91.3925 277.629 97.4443 271.078C100.595 267.666 104.029 272.349 106.788 277.032C109.32 281.323 111.297 285.615 112.014 283.692C113.535 279.661 100.334 270.589 109.026 265.558C111.504 264.124 115.676 269.524 124.596 279.237C125.259 279.965 124.618 276.847 124.716 273.729C124.813 270.111 125.9 266.482 131.137 268.894C134.277 270.35 142.002 299.11 142.708 300.066C161.722 325.946 177.042 341.603 177.042 341.603L201.249 299.023L243.503 325.12Z" fill="#FCC9B6"/>
<path d="M194.035 352.598C187.353 352.598 177.042 341.603 177.042 341.603L186.353 325.218C186.353 325.218 201.999 343.895 198.087 350.295C197.098 351.935 195.675 352.598 194.035 352.598Z" fill="#FB855E"/>
<path d="M104.235 295.209L103.844 295.035C102.464 293.427 90.4582 279.151 93.446 274.348C93.5873 274.109 93.9024 274.033 94.1414 274.185C94.3696 274.326 94.4456 274.642 94.2935 274.87C92.0988 278.423 101.008 290.157 104.615 294.372C104.8 294.59 104.778 294.905 104.561 295.09L104.235 295.209Z" fill="#AA4635"/>
<path d="M272.925 170.739C272.925 170.739 248.664 162.101 248.153 171.163C247.784 177.845 259.985 180.42 266.428 181.311C268.047 181.539 268.666 183.353 267.732 184.69C263.364 190.948 247.393 202.671 247.393 209.679C247.393 212.58 248.903 213.069 250.674 215.796C251.5 217.078 250.88 217.491 252.597 219.947C254.042 222.011 256.737 221.587 256.737 221.587C257.204 221.837 259.094 223.597 260.702 224.184C264.69 225.629 269.047 221.424 269.047 223.032C269.047 225.749 271.958 225.282 274.131 224.619C279.358 223.032 284.725 218.784 290.212 213.308C303.152 200.411 293.808 178.757 272.925 170.739Z" fill="#FCC9B6"/>
<path d="M251.021 215.829C250.848 215.829 250.674 215.731 250.587 215.568C250.446 215.329 250.543 215.014 250.782 214.884C250.88 214.829 260.789 209.266 267.895 197.739C268.036 197.51 268.351 197.434 268.579 197.576C268.818 197.728 268.894 198.032 268.742 198.271C261.506 210.027 251.369 215.709 251.271 215.764L251.021 215.829Z" fill="#AA4635"/>
<path d="M256.965 221.555C256.758 221.555 256.574 221.435 256.498 221.24C256.389 220.99 256.508 220.697 256.769 220.577C256.9 220.523 270.035 215.036 279.455 199.901C279.608 199.662 279.912 199.597 280.151 199.738C280.379 199.89 280.455 200.194 280.314 200.433C270.709 215.862 257.28 221.468 257.149 221.511L256.965 221.555Z" fill="#AA4635"/>
<path d="M269.047 223.532C268.862 223.532 268.677 223.435 268.591 223.25C268.471 223 268.58 222.696 268.83 222.576C268.96 222.522 281.694 216.361 285.899 208.006C286.029 207.756 286.322 207.659 286.572 207.778C286.822 207.908 286.931 208.213 286.8 208.452C282.433 217.122 269.797 223.228 269.264 223.489L269.047 223.532Z" fill="#AA4635"/>
<path d="M85.4387 334.366C85.4387 334.366 88.8612 319.003 96.282 316.559C103.714 314.103 97.5315 334.366 97.5315 334.366C97.5315 334.366 109.429 327.978 113.46 331.335C117.501 334.692 109.244 342.722 109.244 342.722C109.244 342.722 121.521 339.962 123.151 344.319C125.781 351.392 116.393 352.598 116.393 352.598C116.393 352.598 120.207 349.621 121.598 355.608C123.238 362.594 111.776 362.692 111.776 362.692C111.776 362.692 119.088 361.029 119.088 364.789C119.088 373.166 101.215 373.415 92.5879 367.277C85.9819 362.594 80.745 343.558 85.4387 334.366Z" fill="#FFC1AA"/>
<path d="M98.846 346.655C98.6179 346.655 98.4006 346.492 98.3571 346.253C98.3028 345.981 98.4766 345.71 98.7482 345.655C98.8569 345.634 109.885 343.417 113.003 337.061C113.134 336.822 113.438 336.713 113.688 336.833C113.927 336.963 114.035 337.257 113.916 337.507C110.569 344.308 99.4219 346.557 98.9438 346.644L98.846 346.655Z" fill="#AA4635"/>
<path d="M102.529 356.281C100.4 356.281 98.9763 356.129 98.7916 356.107C98.52 356.075 98.3136 355.825 98.3462 355.553C98.3788 355.271 98.6178 355.075 98.9111 355.108C99.0415 355.119 113.068 356.607 121.195 349.773C121.413 349.599 121.728 349.621 121.912 349.838C122.086 350.056 122.065 350.371 121.847 350.545C115.958 355.488 107.408 356.281 102.529 356.281Z" fill="#AA4635"/>
<path d="M107.603 364.082C102.475 364.082 98.9113 362.963 98.694 362.898C98.4224 362.811 98.2812 362.518 98.3681 362.257C98.455 361.985 98.7375 361.844 99.0091 361.942C99.0743 361.964 107.049 364.441 116.263 361.931C116.534 361.855 116.806 362.007 116.882 362.279C116.958 362.55 116.795 362.833 116.534 362.898C113.297 363.789 110.244 364.082 107.603 364.082Z" fill="#AA4635"/>
</g>
<defs>
<clipPath id="clip0_338_2800">
<rect width="400" height="400" fill="white"/>
</clipPath>
</defs>
</svg>
