<svg width="400" height="400" viewBox="0 0 400 400" fill="none" xmlns="http://www.w3.org/2000/svg">
<g clip-path="url(#clip0_340_3231)">
<path d="M221.699 220.744C186.698 201.527 164.216 194.534 158.215 188.445C153.902 184.076 149.832 171.732 148.651 172.538C145.64 174.612 148.949 181.396 147.813 182.719C144.956 186.007 137.907 167.309 133.451 169.118C130.263 170.409 129.435 180.392 130.461 186.878C130.693 188.356 132.469 195.626 139.529 197.325C150.88 200.06 155.027 201.814 157.3 202.366C177.74 207.374 220.519 261.559 235.356 254.488C235.356 254.488 238.213 249.48 235.61 236.077C234.132 228.421 221.699 220.744 221.699 220.744Z" fill="#FFCFC4"/>
<path d="M241.28 479.677C251.428 557.689 261.577 595.68 255.83 607.925C252.366 615.304 250.016 624.946 243.166 632.171L241.379 635.613C241.379 637.135 242.604 638.359 244.115 638.359L256.271 638.37C257.838 638.37 259.283 637.532 260.066 636.164L279.591 602.067C280.33 600.798 280.374 599.243 279.723 597.93L279.128 596.739C279.128 596.739 278.907 596.298 278.742 595.437C278.013 591.687 278.168 587.087 278.819 583.127C286.143 538.418 288.096 526.272 287.941 452.154C287.941 452.154 273.016 419.248 264.136 396.723C258.819 383.232 236.603 387.688 233.922 396.326C232.466 401.025 240.133 470.885 241.28 479.677Z" fill="#FFCFC4"/>
<path d="M302.04 478.386C312.188 556.398 319.358 595.68 313.611 607.925C310.147 615.304 307.798 624.946 300.959 632.171L299.171 635.613C299.171 637.135 300.396 638.359 301.907 638.359L314.052 638.37C315.619 638.37 317.075 637.532 317.858 636.164L337.383 602.067C338.111 600.798 338.155 599.243 337.505 597.93L336.909 596.739C336.909 596.739 336.688 596.298 336.523 595.437C335.806 591.687 335.949 587.087 336.589 583.127C343.925 538.418 353.213 509.284 335.762 454.581C335.762 454.581 330.809 419.248 321.929 396.723C316.601 383.232 294.384 387.688 291.703 396.326C290.247 401.025 300.892 469.583 302.04 478.386Z" fill="#FFCFC4"/>
<path d="M251.605 114.205C244.622 117.007 235.731 131.546 233.017 156.234C229.675 186.713 228.561 202.664 226.487 211.279C224.722 218.581 221.699 220.744 221.699 220.744C241.5 238.018 234.573 255.392 234.573 255.392C240.397 258.503 248.417 251.686 248.417 251.686C244.126 323.576 230.866 378.566 221.898 535.902C221.898 535.902 276.535 552.482 294.097 541.804C294.097 541.804 288.096 521.992 296.391 488.27C302.425 463.671 307.036 398.477 307.036 398.477C306.827 419.899 325.844 458.486 324.234 491.392C322.932 518.142 326.407 542.146 329.341 543.514C358.198 551.456 370.741 536.156 370.741 536.156C363.703 510.619 367.829 472.871 354.404 410.192C346.042 371.153 351.172 308.882 347.465 272.248C347.465 272.248 368.413 274.3 379.411 267.229C379.411 267.229 378.551 236.684 373.554 203.204C369.671 177.27 363.968 149.174 355.948 131.149L251.605 114.205Z" fill="#E8C3D0"/>
<path d="M259.967 80.2734C259.349 86.2302 258.025 92.2531 259.316 98.1438C259.911 100.879 262.096 103.174 263.596 105.513C265.173 107.961 268.494 111.359 268.251 114.282C267.997 117.47 269.542 116.72 269.685 114.172C269.839 111.381 268.604 108.204 267.313 105.722C265.979 103.196 264.291 101.155 263.574 98.3203C262.085 92.4627 262.427 86.2853 263.044 80.3285C263.254 78.3429 260.165 78.3098 259.967 80.2734Z" fill="#A55852"/>
<path d="M355.948 131.149C355.948 131.149 344.465 116.08 337.284 114.029C327.543 111.238 314.107 110.51 308.426 107.366C305.47 105.744 303.242 103.88 303.198 100.736L302.933 82.1045C304.731 80.0637 309.496 65.6681 308.018 56.4351C304.874 36.7556 290.534 21.2789 274.55 22.4151C256.15 23.7058 247.943 39.6457 248.748 59.5569C249.487 77.8796 260.562 93.7092 274.803 95.6066L274.837 101.332C274.87 104.509 272.73 107.311 269.641 108.105L251.605 114.205C254.241 127.156 277.407 126.24 297.947 133.267C343.616 148.898 355.948 131.149 355.948 131.149Z" fill="#FFCFC4"/>
<path d="M270.181 57.5604C269.52 56.8103 269.95 56.3139 271.649 55.7844C273.116 55.3322 275.388 55.1226 277.043 55.2218C280.738 55.4535 282.933 57.5274 281.852 57.2736C280.032 56.8324 278.543 56.6449 274.859 56.9206C272.851 57.0861 270.634 58.0789 270.181 57.5604Z" fill="#A55852"/>
<path d="M261.974 59.8549C262.405 58.9724 261.908 58.5863 260.242 58.4319C258.808 58.2995 256.69 58.6084 255.201 59.0386C252.499 59.8218 250.91 62.3149 251.649 61.9619C253.227 61.1897 254.153 60.7484 257.573 60.23C259.437 59.9542 261.676 60.4506 261.974 59.8549Z" fill="#A55852"/>
<path d="M276.216 62.028C276.304 62.8112 275.83 63.4951 275.146 63.5613C274.473 63.6275 273.844 63.0428 273.745 62.2596C273.656 61.4874 274.131 60.8035 274.815 60.7373C275.499 60.6711 276.116 61.2558 276.216 62.028Z" fill="#2E283A"/>
<path d="M259.073 65.1609C259.183 65.9441 258.72 66.6281 258.036 66.7053C257.363 66.7825 256.723 66.2089 256.613 65.4367C256.502 64.6645 256.977 63.9696 257.65 63.8923C258.323 63.8151 258.962 64.3887 259.073 65.1609Z" fill="#2E283A"/>
<path d="M265.56 67.3339C265.504 68.2716 265.383 69.2202 265.262 70.1579C265.173 70.8087 265.074 71.4816 265.096 72.1435C265.118 72.5627 265.207 73.026 265.571 73.2907C266.001 73.5886 266.641 73.6217 267.126 73.4893C267.931 73.2797 268.494 72.6509 268.803 71.9008C268.913 71.625 268.483 71.4485 268.372 71.7243C268.075 72.4634 267.468 73.0701 266.63 73.0922C266.144 73.1142 265.692 72.9598 265.593 72.4524C265.471 71.8126 265.604 71.1066 265.692 70.4557C265.824 69.4298 265.957 68.415 266.023 67.378C266.045 67.0802 265.582 67.0251 265.56 67.3339Z" fill="#EE785A"/>
<path d="M278.532 99.5007C277.319 99.5007 276.072 99.3021 274.826 98.894L274.803 95.6067C275.344 95.706 275.896 95.7391 276.447 95.7391C286.761 95.7391 296.998 80.9574 296.998 80.9574C293.501 91.3487 286.43 99.5007 278.532 99.5007Z" fill="#F18D74"/>
<path d="M255.51 22.9559C248.693 23.695 244.236 25.0629 241.004 31.7587C235.356 43.5179 244.523 52.7289 248.825 60.925C248.825 60.925 248.075 52.7179 250.016 44.7975C251.197 39.999 254.109 36.6124 254.705 36.6345C265.559 53.7327 285.448 56.9317 296.281 54.3836C296.281 54.3836 300.495 56.7773 302.811 65.8008C302.811 65.8008 302.657 76.4458 302.933 82.1047C303.197 87.1901 329.771 70.8751 314.736 34.0091C309.75 21.8307 281.94 0.46348 255.51 22.9559Z" fill="#A55852"/>
<path d="M307.467 58.5753C307.775 62.2818 305.018 65.5359 301.322 65.8448C297.616 66.1647 294.362 63.4069 294.053 59.6894C293.744 55.983 296.491 52.7288 300.197 52.4199C303.904 52.1111 307.147 54.8688 307.467 58.5753Z" fill="#FFCFC4"/>
<path d="M302.922 58.9725C302.514 58.4872 301.907 58.3217 301.3 58.3107C301.631 57.6267 302.15 57.0531 302.756 56.6119C302.933 56.4905 303.021 56.292 302.911 56.0934C302.811 55.9279 302.558 55.8176 302.392 55.95C301.554 56.5457 300.859 57.2958 300.473 58.2665C300.054 59.3145 300.065 60.4617 300.219 61.5538C300.285 62.0392 301.024 61.8516 300.958 61.3663C300.848 60.6051 300.848 59.8219 301.035 59.0718H301.046L301.201 59.0608L301.499 59.0718L301.576 59.0828L301.697 59.1159L301.951 59.1821L301.962 59.1931L302.072 59.2483L302.227 59.3586L302.249 59.3696L302.326 59.4469L302.403 59.5461L302.48 59.6785L302.525 59.7668L302.58 59.9433L302.613 60.0756V60.4066L302.591 60.4838V60.5169L302.48 60.8699L302.425 60.9581L302.326 61.1236L302.271 61.2008L302.249 61.2229C302.116 61.3773 302.083 61.5979 302.238 61.7524C302.37 61.8958 302.646 61.9178 302.778 61.7744C303.032 61.4876 303.22 61.1677 303.308 60.8037C303.462 60.1639 303.352 59.48 302.922 58.9725Z" fill="#EE785A"/>
<path d="M286.905 74.5373C284.941 74.5373 283.132 73.2136 282.625 71.2169C281.996 68.8563 283.43 66.4294 285.791 65.8117C286.166 65.7124 286.541 65.6683 286.916 65.6683C288.879 65.6683 290.677 66.992 291.196 68.9886C291.814 71.3603 290.391 73.7761 288.03 74.3939C287.655 74.4932 287.28 74.5373 286.905 74.5373Z" fill="#F08970"/>
<path d="M255.477 81.9061C255.477 81.9061 253.734 78.9056 253.249 77.8908C252.862 77.0634 251.781 74.4601 251.781 74.4601C252.333 73.8423 253.028 73.4121 253.899 73.1915C254.274 73.0922 254.649 73.0481 255.025 73.0481C256.988 73.0481 258.786 74.3718 259.305 76.3685C259.922 78.7401 258.499 81.167 256.128 81.7847C255.841 81.862 255.764 81.884 255.477 81.9061Z" fill="#F08970"/>
<mask id="mask0_340_3231" style="mask-type:luminance" maskUnits="userSpaceOnUse" x="283" y="0" width="40" height="40">
<path d="M283.397 0H322.932V39.1825H283.397V0Z" fill="white"/>
</mask>
<g mask="url(#mask0_340_3231)">
<path d="M322.701 14.8369C322.513 25.4488 316.148 42.2161 304.908 35.818C295.686 30.5672 283.231 27.5778 283.419 16.9769C283.618 6.36496 296.954 1.98561 307.489 0.794248C314.505 7.68886e-06 322.888 4.22492 322.701 14.8369Z" fill="#A55852"/>
</g>
<mask id="mask1_340_3231" style="mask-type:luminance" maskUnits="userSpaceOnUse" x="263" y="76" width="13" height="9">
<path d="M263.629 76.1697H275.873V84.3659H263.629V76.1697Z" fill="white"/>
</mask>
<g mask="url(#mask1_340_3231)">
<mask id="mask2_340_3231" style="mask-type:luminance" maskUnits="userSpaceOnUse" x="263" y="77" width="13" height="7">
<path d="M270.325 83.0752C267.181 83.7923 264.931 81.5309 264.015 80.4609C263.85 80.2733 263.827 80.0086 264.048 79.9645C264.048 79.9645 267.457 79.2916 269.641 78.7731C271.913 78.2436 275.201 77.1405 275.201 77.1405C275.421 77.0853 275.576 77.306 275.476 77.7141C275.123 79.071 273.678 82.3141 270.325 83.0752Z" fill="white"/>
</mask>
<g mask="url(#mask2_340_3231)">
<path d="M270.325 83.0752C267.181 83.7923 264.931 81.5309 264.015 80.4609C263.85 80.2733 263.827 80.0086 264.048 79.9645C264.048 79.9645 267.457 79.2916 269.641 78.7731C271.913 78.2436 275.212 77.1405 275.212 77.1405C275.421 77.0853 275.576 77.306 275.476 77.7141C275.123 79.071 273.678 82.3141 270.325 83.0752Z" fill="#B04550"/>
</g>
</g>
<mask id="mask3_340_3231" style="mask-type:luminance" maskUnits="userSpaceOnUse" x="263" y="76" width="13" height="6">
<path d="M263.629 76.1697H275.873V81.5419H263.629V76.1697Z" fill="white"/>
</mask>
<g mask="url(#mask3_340_3231)">
<mask id="mask4_340_3231" style="mask-type:luminance" maskUnits="userSpaceOnUse" x="263" y="77" width="13" height="7">
<path d="M270.325 83.0752C267.181 83.7923 264.931 81.5309 264.015 80.4609C263.85 80.2733 263.827 80.0086 264.048 79.9645C264.048 79.9645 267.457 79.2916 269.641 78.7731C271.913 78.2436 275.201 77.1405 275.201 77.1405C275.421 77.0853 275.576 77.306 275.476 77.7141C275.123 79.071 273.678 82.3141 270.325 83.0752Z" fill="white"/>
</mask>
<g mask="url(#mask4_340_3231)">
<path d="M275.267 76.7875C276.281 77.1516 272.895 79.1482 269.597 80.0086C266.817 80.7367 263.408 80.0086 263.496 79.6005L275.267 76.7875Z" fill="white"/>
</g>
</g>
<path d="M249.906 120.504C252.167 137.856 250.215 155.439 244.346 171.909C242.945 175.869 241.434 179.84 240.894 184.032C240.397 187.816 240.894 191.577 241.831 195.262C242.868 199.332 244.402 203.27 245.549 207.319C246.806 211.753 247.59 216.309 248.031 220.898C248.968 230.837 248.362 240.853 247.744 250.803C247.7 251.532 248.847 251.532 248.891 250.803C249.443 241.923 249.983 233.01 249.432 224.108C249.167 220.005 248.682 215.912 247.843 211.886C246.961 207.595 245.549 203.48 244.214 199.321C242.857 195.085 241.666 190.706 241.842 186.216C242.019 181.925 243.453 177.833 244.876 173.828C247.733 165.853 249.917 157.756 251.031 149.339C252.3 139.764 252.3 130.079 251.053 120.504C250.954 119.787 249.807 119.776 249.906 120.504Z" fill="#CBA481"/>
<path d="M348.403 271.244C347.3 263.302 346.197 255.348 345.358 247.373C344.564 239.695 344.277 232.006 343.715 224.318C342.667 209.988 338.276 196.442 334.327 182.73C332.033 174.799 329.97 166.78 328.977 158.561C328.889 157.844 327.742 157.833 327.83 158.561C329.562 172.902 334.504 186.503 338.243 200.38C340.163 207.517 341.74 214.743 342.391 222.112C343.075 229.9 343.251 237.71 344.024 245.486C344.884 254.201 346.097 262.872 347.289 271.553C347.399 272.281 348.502 271.961 348.403 271.244Z" fill="#CBA481"/>
<path d="M248.748 251.057C247.59 246.931 246.475 242.784 245.097 238.724C243.905 235.205 242.361 231.808 239.868 229.017C239.382 228.465 238.577 229.271 239.063 229.822C241.578 232.657 243.056 236.154 244.225 239.717C245.472 243.567 246.542 247.472 247.645 251.366C247.843 252.072 248.946 251.774 248.748 251.057Z" fill="#CBA481"/>
<path d="M346.925 262.629C351.988 262.783 357.007 262.132 362.004 261.349C364.354 260.974 366.759 260.687 369.064 260.003C371.237 259.363 373.311 258.415 375.363 257.422C376.025 257.102 375.44 256.12 374.778 256.44C372.671 257.455 370.531 258.426 368.259 259.033C366.119 259.617 363.891 259.904 361.695 260.246C356.809 261.018 351.889 261.625 346.925 261.481C346.186 261.459 346.186 262.607 346.925 262.629Z" fill="#CBA481"/>
<path d="M245.538 206.072C248.516 209.359 252.796 210.893 257.065 211.665C261.323 212.448 266.133 212.933 269.972 210.507C270.589 210.12 270.016 209.128 269.398 209.525C265.725 211.83 261.059 211.268 257.01 210.496C253.039 209.734 249.112 208.322 246.343 205.267C245.847 204.715 245.041 205.532 245.538 206.072Z" fill="#CBA481"/>
<path d="M292.487 203.91C293.193 209.238 298.024 213.298 302.69 215.316C308.537 217.853 315.078 217.699 321.289 216.894C322.006 216.805 322.017 215.647 321.289 215.746C315.663 216.475 309.761 216.706 304.345 214.743C299.712 213.066 294.329 209.172 293.634 203.91C293.535 203.193 292.387 203.182 292.487 203.91Z" fill="#CBA481"/>
<path d="M273.458 137.834C284.886 139.963 295.034 145.931 306.132 149.119C311.78 150.751 317.56 151.248 323.406 151.612C329.352 151.976 335.342 152.097 341.288 151.534C347.498 150.95 353.577 149.56 359.291 147.034C359.964 146.736 359.379 145.754 358.717 146.041C345.237 151.998 329.33 151.501 314.979 149.769C300.473 148.016 288.03 139.389 273.766 136.731C273.038 136.587 272.741 137.69 273.458 137.834Z" fill="#CBA481"/>
<path d="M251.097 129.66C253.05 130.686 254.991 131.91 257.109 132.594C258.102 132.925 259.128 133.157 260.121 133.51C261.202 133.885 262.228 134.337 263.243 134.866C263.894 135.208 264.467 134.216 263.816 133.874C261.897 132.87 259.911 132.241 257.837 131.623C255.664 130.972 253.679 129.715 251.671 128.667C251.02 128.325 250.436 129.318 251.097 129.66Z" fill="#CBA481"/>
<path d="M274.847 101.795C279.602 102.832 284.477 103.02 289.331 102.645C293.964 102.281 298.84 101.718 303.153 99.92C303.826 99.6331 303.528 98.519 302.855 98.8058C298.63 100.582 293.854 101.144 289.331 101.497C284.588 101.861 279.811 101.707 275.145 100.692C274.428 100.527 274.119 101.641 274.847 101.795Z" fill="#2E283A"/>
<path d="M272.509 106.572C271.141 114.47 271.604 120.603 272.575 128.535C273.06 132.484 273.722 136.411 274.472 140.338C274.836 142.257 275.234 144.188 275.631 146.107C275.951 147.685 276.182 149.461 277.175 150.795C281.19 156.234 286.419 146.901 288.008 143.835C289.519 140.922 290.721 137.867 292.1 134.877C293.622 131.579 295.575 128.623 297.45 125.523C301.686 118.463 305.139 112.881 304.642 104.52L303.407 102.258C303.606 105.612 303.396 108.965 302.381 112.186C301.377 115.441 299.789 118.596 298.266 121.64C296.843 124.475 295.034 127.045 293.435 129.77C291.968 132.274 290.809 134.933 289.651 137.591C288.504 140.194 282.459 154.557 278.421 150.509C277.175 149.273 276.998 147.078 276.657 145.445C276.281 143.636 275.917 141.838 275.575 140.029C274.914 136.543 274.307 133.057 273.855 129.549C272.774 121.397 272.509 112.97 273.91 104.851L272.509 106.572Z" fill="#2E283A"/>
<path d="M292.089 51.0299C286.265 58.0016 291.714 68.6356 294.571 76.0705C296.237 80.3837 297.98 84.73 298.642 89.3189C299.017 91.9443 299.447 94.5476 299.458 97.1951C299.469 99.7102 299.072 102.325 298.62 104.818C297.649 110.035 294.748 114.845 296.027 118.629C297.263 122.291 299.767 124.001 299.16 122.147C297.119 115.937 300.649 111.425 301.708 107.035C302.845 102.314 303.451 97.4378 302.999 92.6172C302.547 87.9621 300.616 83.6489 299.017 79.3137C297.461 75.0777 295.608 70.919 294.56 66.5066C293.601 62.5023 293.314 57.5824 296.127 54.2179L294.119 52.5301L292.089 51.0299Z" fill="#A55852"/>
<path d="M283.187 156.366C283.187 158.947 281.62 161.043 279.701 161.043C277.771 161.043 276.204 158.947 276.204 156.366C276.204 153.785 277.771 151.678 279.701 151.678C281.62 151.678 283.187 153.785 283.187 156.366Z" fill="#2E283A"/>
<path d="M271.947 263.324C271.947 267.846 268.284 271.52 263.762 271.52C259.239 271.52 255.565 267.846 255.565 263.324C255.565 258.79 259.239 255.117 263.762 255.117C268.284 255.117 271.947 258.79 271.947 263.324Z" fill="#E685B0"/>
<path d="M332.386 302.782C332.386 307.316 328.723 310.989 324.201 310.989C319.678 310.989 316.016 307.316 316.016 302.782C316.016 298.259 319.678 294.586 324.201 294.586C328.723 294.586 332.386 298.259 332.386 302.782Z" fill="#E685B0"/>
<path d="M281.797 321.8C281.797 326.333 278.135 329.996 273.612 329.996C269.089 329.996 265.427 326.333 265.427 321.8C265.427 317.277 269.089 313.604 273.612 313.604C278.135 313.604 281.797 317.277 281.797 321.8Z" fill="#E685B0"/>
<path d="M375.385 232.117C375.385 236.651 371.712 240.313 367.189 240.313C362.666 240.313 359.004 236.651 359.004 232.117C359.004 227.583 362.666 223.921 367.189 223.921C371.712 223.921 375.385 227.583 375.385 232.117Z" fill="#E685B0"/>
<path d="M326.837 368.605C326.837 373.127 323.175 376.79 318.641 376.79C314.129 376.79 310.456 373.127 310.456 368.605C310.456 364.071 314.129 360.397 318.641 360.397C323.175 360.397 326.837 364.071 326.837 368.605Z" fill="#E685B0"/>
<path d="M254.848 381.401C254.848 385.923 251.186 389.597 246.663 389.597C242.14 389.597 238.478 385.923 238.478 381.401C238.478 376.867 242.14 373.194 246.663 373.194C251.186 373.194 254.848 376.867 254.848 381.401Z" fill="#E685B0"/>
<path d="M312.883 182.267C312.883 186.79 309.21 190.463 304.687 190.463C300.164 190.463 296.502 186.79 296.502 182.267C296.502 177.744 300.164 174.071 304.687 174.071C309.21 174.071 312.883 177.744 312.883 182.267Z" fill="#E685B0"/>
<path d="M246.321 212.944C246.321 217.467 242.659 221.141 238.136 221.141C233.613 221.141 229.951 217.467 229.951 212.944C229.951 208.411 233.613 204.737 238.136 204.737C242.659 204.737 246.321 208.411 246.321 212.944Z" fill="#E685B0"/>
<path d="M350.124 272.424C352.242 278.337 352.529 276.87 358 291.31C368.237 318.347 371.646 329.996 373.201 341.766C373.83 346.487 372.297 351.352 372.517 360.32C372.716 368.108 377.426 374.815 378.65 374.451C381.695 373.547 378.022 364.347 379.93 363.729C381.43 363.255 382.522 366.774 384.949 372.08C387.431 377.496 392.495 376.977 394.723 376.635C398.352 376.106 400.867 376.966 399.72 365.295C398.771 355.632 388.292 351.451 386.56 341.292C382.699 318.479 385.567 299.749 378.187 267.968C378.187 267.968 373.83 270.395 366.384 271.652C358.806 272.932 350.124 272.424 350.124 272.424Z" fill="#FFCFC4"/>
<path d="M269.729 148.71C269.729 153.233 266.067 156.907 261.544 156.907C257.022 156.907 253.348 153.233 253.348 148.71C253.348 144.177 257.022 140.514 261.544 140.514C266.067 140.514 269.729 144.177 269.729 148.71Z" fill="#E685B0"/>
<path d="M67.5068 165.489C60.7557 174.611 59.4761 230.826 54.7879 231.51C52.0632 231.907 23.6912 190.209 23.8897 183.789C23.9449 181.914 24.4634 178.075 24.8384 172.648C25.3679 164.827 24.6288 157.888 22.93 158.484C19.7972 159.598 20.7017 168.533 19.2346 168.655C18.6279 168.71 18.0984 163.845 16.8078 158.87C16.2893 156.862 14.8994 156.576 13.8073 156.951C12.6821 157.348 12.1637 158.528 12.5056 159.653C12.5056 159.653 11.1378 157.668 9.35073 158.142C7.98287 158.517 7.674 160.448 8.03803 161.661C8.03803 161.661 6.23996 160.536 5.11478 161.22C4.21023 161.76 3.83517 162.985 4.01167 164.485C4.01167 164.485 1.48555 163.658 0.647183 164.661C-2.91587 168.908 9.39486 190.596 9.39486 190.596C30.0782 232.37 48.4671 267.008 61.4286 263.577C72.9782 260.511 76.795 230.186 83.0937 204.837C83.0937 204.837 74.5998 155.903 67.5068 165.489Z" fill="#FFCFC4"/>
<path d="M165.54 280.587C165.54 280.587 148.574 290.019 119.232 290.019C92.1282 290.019 71.9523 280.587 71.9523 280.587C71.9523 280.587 72.6031 277.498 73.1767 273.527C73.9599 268.078 75.9345 261.15 74.6328 257.962L160.466 257.753C160.146 272.391 165.54 280.587 165.54 280.587Z" fill="#FFCFC4"/>
<path d="M124.957 49.9336C124.957 49.9336 135.855 110.439 140.61 134.057C148.243 171.905 142.055 194.794 151.067 202.56C164.591 214.231 204.414 215.731 200.409 170.846C198.622 150.868 182.885 140.365 174.59 106.455C174.59 106.455 179.307 56.9604 168.232 44.7379C158.028 33.4972 140.742 34.0598 131.41 41.0425C126.534 44.6828 124.957 49.9336 124.957 49.9336Z" fill="#7B87A1"/>
<path d="M133.638 40.7932C136.771 37.0647 141.9 36.8441 146.335 37.859C151.398 39.0283 156.252 41.6537 160.113 45.1285C169.401 53.4901 171.971 66.8929 171.431 78.8616C171.089 86.2194 169.71 93.4778 168.353 100.703C167.029 107.719 165.805 114.746 165.088 121.85C163.764 135.209 164.194 149.064 168.905 161.76C172.755 172.163 179.362 181.793 188.694 187.97C189.853 188.731 191.044 189.437 192.269 190.088C192.577 190.254 192.853 189.779 192.544 189.614C182.098 184.065 174.542 174.292 170.14 163.448C164.944 150.641 164.283 136.543 165.54 122.909C166.224 115.496 167.504 108.16 168.883 100.858C170.228 93.6985 171.596 86.5062 171.96 79.2146C172.556 67.3672 170.173 54.2843 161.437 45.6138C157.874 42.0729 153.285 39.3923 148.486 37.881C144.382 36.5904 139.385 36.0168 135.547 38.3885C134.675 38.929 133.914 39.6129 133.252 40.3961C133.02 40.6719 133.407 41.058 133.638 40.7932Z" fill="#51577F"/>
<path d="M162.065 134.061C162.065 134.061 155.006 133.256 149.446 130.189C146.567 128.601 144.383 126.781 144.338 123.703L144.085 105.502C145.839 103.516 150.494 89.4403 149.049 80.4168C145.982 61.2006 131.973 46.077 116.353 47.1801C98.3718 48.4376 90.3522 64.0136 91.1354 83.4724C91.8635 101.376 102.674 116.842 116.595 118.706L116.628 124.288C116.661 127.398 114.565 130.123 111.554 130.906L98.5263 134.282C102.133 139.488 113.286 144.574 128.354 144.585C146.258 144.607 154.355 140.437 162.065 134.061Z" fill="#FFCFC4"/>
<path d="M112.205 80.119C111.598 79.3468 112.05 78.8945 113.727 78.4643C115.183 78.1003 117.422 78.0231 119.022 78.2106C122.618 78.6408 124.648 80.7919 123.6 80.472C121.846 79.9425 120.412 79.6777 116.794 79.755C114.83 79.7881 112.613 80.6485 112.205 80.119Z" fill="#7B87A1"/>
<path d="M102.641 81.3655C102.795 80.4168 102.211 80.1962 100.622 80.5272C99.2321 80.8029 97.3568 81.6965 96.0883 82.5238C93.7717 84.024 92.9885 86.7928 93.5732 86.2523C94.8417 85.094 95.5808 84.4211 98.6364 82.965C100.302 82.1708 102.53 82.0053 102.641 81.3655Z" fill="#7B87A1"/>
<path d="M118.184 85.7561C118.107 86.429 117.511 86.9033 116.849 86.8261C116.187 86.7489 115.702 86.1532 115.779 85.4913C115.856 84.8184 116.452 84.3441 117.125 84.4213C117.776 84.4985 118.261 85.0942 118.184 85.7561Z" fill="#2E283A"/>
<path d="M101.03 88.977C100.953 89.6388 100.357 90.1132 99.6954 90.047C99.0335 89.9698 98.5482 89.3631 98.6254 88.7122C98.7026 88.0393 99.2983 87.565 99.9712 87.6422C100.633 87.7194 101.107 88.3151 101.03 88.977Z" fill="#2E283A"/>
<path d="M107.373 91.2604C107.329 92.0877 107.23 92.904 107.119 93.7093C107.042 94.2829 106.954 94.8675 106.987 95.4411C106.998 95.8052 107.075 96.2133 107.384 96.4339C107.759 96.6987 108.311 96.7208 108.741 96.6104C109.436 96.4229 109.932 95.8824 110.197 95.2316C110.296 94.9889 109.921 94.8344 109.822 95.0771C109.557 95.7169 109.039 96.2464 108.311 96.2685C107.892 96.2795 107.494 96.1582 107.406 95.7059C107.307 95.1543 107.417 94.5366 107.494 93.974C107.605 93.0915 107.726 92.198 107.781 91.3045C107.792 91.0508 107.395 91.0066 107.373 91.2604Z" fill="#EE785A"/>
<path d="M116.606 119.61C116.595 119.61 116.595 119.61 116.595 119.61V118.706L116.606 119.61Z" fill="#F8C9BD"/>
<path d="M121.658 119.831C120.202 119.831 118.536 119.754 116.606 119.61L116.595 118.706C117.433 118.838 118.261 118.893 119.066 118.893C130.45 118.893 139.121 106.958 139.628 106.252C131.807 117.294 129.667 119.831 121.658 119.831ZM139.628 106.252C139.628 106.241 139.639 106.23 139.65 106.219C139.65 106.219 139.639 106.23 139.628 106.252Z" fill="#F18D74"/>
<path d="M97.743 47.7094C91.6317 49.0111 88.0576 51.085 84.9027 57.6264C79.3761 69.1208 87.0097 76.7985 91.2125 84.8071C91.2125 84.8071 90.4735 76.7875 92.3818 69.0546C93.5291 64.3554 96.3751 61.0461 96.9597 61.0792C107.561 77.7803 126.986 80.9131 137.587 78.4201C137.587 78.4201 141.702 80.7587 143.974 89.5725C143.974 89.5725 143.82 99.9859 144.085 105.501C144.338 110.476 170.317 94.5255 155.612 58.5089C150.747 46.6063 123.567 25.7244 97.743 47.7094Z" fill="#7B87A1"/>
<path d="M148.508 82.5129C148.817 86.1311 146.126 89.3191 142.507 89.6169C138.889 89.9258 135.701 87.2342 135.403 83.605C135.105 79.9867 137.786 76.7988 141.415 76.5009C145.033 76.192 148.21 78.8947 148.508 82.5129Z" fill="#FFCFC4"/>
<path d="M144.074 82.8988C143.665 82.4355 143.081 82.27 142.496 82.248C142.816 81.5861 143.323 81.0235 143.919 80.5933C144.085 80.483 144.173 80.2734 144.062 80.0859C143.974 79.9204 143.721 79.8211 143.555 79.9425C142.728 80.5381 142.066 81.2662 141.68 82.2149C141.272 83.2408 141.272 84.3549 141.426 85.4249C141.492 85.8993 142.22 85.7117 142.154 85.2374C142.044 84.4983 142.044 83.7261 142.231 82.9981H142.242L142.386 82.987L142.684 82.9981L142.761 83.0091L143.125 83.1084V83.1194L143.158 83.1304L143.235 83.1746L143.39 83.2739L143.423 83.2959L143.478 83.3621L143.566 83.4504L143.643 83.5938L143.687 83.671V83.682L143.743 83.8475L143.765 83.9798V83.9909L143.776 84.035V84.1343L143.765 84.2997L143.754 84.377V84.4101L143.698 84.5866L143.643 84.752L143.632 84.7741L143.588 84.8403L143.489 85.0057L143.434 85.0719L143.423 85.094C143.279 85.2484 143.257 85.469 143.412 85.6235C143.533 85.7559 143.798 85.7779 143.93 85.6345C144.173 85.3587 144.36 85.0499 144.449 84.6969C144.603 84.0681 144.493 83.3952 144.074 82.8988Z" fill="#EE785A"/>
<path d="M128.42 98.1106C126.501 98.1106 124.747 96.82 124.229 94.8675C123.633 92.551 125.023 90.1903 127.339 89.5836C127.703 89.4843 128.067 89.4402 128.432 89.4402C130.351 89.4402 132.116 90.7308 132.612 92.6833C133.219 95.0109 131.829 97.3716 129.513 97.9783C129.149 98.0665 128.785 98.1106 128.42 98.1106Z" fill="#F08970"/>
<path d="M95.592 101.497C95.57 101.464 95.5479 101.42 95.5369 101.387C95.5369 101.376 95.5369 101.376 95.5369 101.376C95.5479 101.42 95.57 101.453 95.592 101.497Z" fill="#F7BBAC"/>
<path d="M97.7098 105.303C97.6436 105.193 96.1213 102.567 95.5918 101.497C95.5697 101.453 95.5477 101.42 95.5366 101.376C95.1505 100.571 94.1246 98.1217 94.0916 98.0445C94.6431 97.4267 95.327 97.0186 96.1764 96.7979C96.5405 96.6987 96.9045 96.6545 97.2685 96.6545C99.1879 96.6545 100.942 97.9452 101.449 99.8977C102.056 102.225 100.666 104.586 98.3496 105.193C98.0628 105.259 97.9966 105.292 97.7098 105.303Z" fill="#F08970"/>
<path d="M111.885 104.696C109.105 105.325 107.274 104.884 106.369 104.068C106.226 103.924 106.182 103.792 106.369 103.748C106.369 103.748 109.26 102.711 111.19 102.258C113.209 101.795 116.253 101.299 116.253 101.299C116.441 101.255 116.529 101.365 116.386 101.663C115.856 102.733 114.863 104.035 111.885 104.696Z" fill="#EE785A"/>
<path d="M127.626 38.9397C133.054 40.0208 138.238 42.1057 142.882 45.1172C147.67 48.2059 152.082 52.2322 154.62 57.4279C157.157 62.6015 158.337 68.5914 159.131 74.2724C159.97 80.2623 159.959 86.539 157.565 92.1869C156.263 95.2536 154.388 98.0334 152.546 100.791C150.659 103.593 148.31 106.792 144.57 106.77C144.217 106.77 144.217 107.333 144.57 107.333C147.438 107.344 149.722 105.501 151.398 103.35C153.274 100.957 154.95 98.2982 156.451 95.6617C159.55 90.1572 160.532 84.1342 160.069 77.8685C159.837 74.7247 159.308 71.6029 158.657 68.5252C158.05 65.5689 157.322 62.6235 156.252 59.8106C155.215 57.097 153.836 54.5488 151.994 52.2984C150.119 50.026 147.88 48.0514 145.53 46.2865C140.29 42.3704 134.19 39.6788 127.77 38.4103C127.428 38.3441 127.273 38.8736 127.626 38.9397Z" fill="#51577F"/>
<path d="M115.79 50.6328C118.062 56.5896 121.912 61.7742 126.49 66.1646C128.895 68.4701 131.498 70.566 134.19 72.5296C135.524 73.5114 136.881 74.4711 138.26 75.3756C139.407 76.1257 140.698 76.8317 142.088 76.3684C142.43 76.2471 142.287 75.7176 141.945 75.8279C140.301 76.3905 138.723 75.0336 137.444 74.1622C136.164 73.2797 134.907 72.3862 133.66 71.4706C131.123 69.5622 128.674 67.5325 126.402 65.3042C122.1 61.0903 118.47 56.1484 116.33 50.4784C116.198 50.1475 115.668 50.2909 115.79 50.6328Z" fill="#51577F"/>
<path d="M97.3128 47.8641C93.9594 51.5485 94.2462 56.8214 96.6399 60.936C96.8274 61.2449 97.3018 60.9691 97.1253 60.6602C94.8529 56.7662 94.5219 51.7581 97.6989 48.2502C97.9416 47.9965 97.5555 47.5994 97.3128 47.8641Z" fill="#51577F"/>
<path d="M158.602 89.628C160.686 94.9229 158.701 101.144 157.09 106.318C155.469 111.481 153.483 116.566 152.557 121.916C152.038 124.861 151.884 127.851 152.292 130.818C152.325 131.171 152.876 131.171 152.832 130.818C151.321 119.511 157.829 109.285 159.65 98.4198C160.146 95.4304 160.256 92.3416 159.131 89.4736C158.999 89.1536 158.469 89.2971 158.602 89.628Z" fill="#51577F"/>
<path d="M98.5261 134.282C80.2365 138.452 69.0399 157.094 64.4399 170.762C56.6409 193.96 57.3249 209.205 56.9277 219.949C56.9277 219.949 61.6601 222.829 68.9627 223.314C68.9627 223.314 67.308 245.266 68.5876 264.184C68.5876 264.184 84.318 266.699 119 266.534C152.876 266.368 169.699 263.412 169.699 263.412C172.688 255.966 171.96 238.371 171.96 238.371C194.1 245.2 208.308 241.614 208.308 241.614C207.028 202.509 195.203 138.816 162.065 134.061C162.065 134.061 150.648 139.522 130.042 139.135C109.888 138.76 98.5261 134.282 98.5261 134.282Z" fill="#393146"/>
<path d="M71.9524 280.587C71.9524 280.587 83.138 282.032 115.283 282.463C152.248 282.948 165.54 280.587 165.54 280.587C178.403 315.203 177.509 391.604 179.031 444.267C180.135 482.247 195.545 523.404 219.979 555.03C219.979 555.03 210.382 569.845 196.052 574.037C196.052 574.037 145 513.266 134.08 455.232C125.597 410.148 120.5 383.166 118.746 369.465C118.746 369.465 107.131 419.778 110.683 465.38C115.415 526.074 104.924 583.568 104.924 583.568C86.7231 586.226 75.5706 583.689 75.5706 583.689C72.3937 537.358 65.6757 489.836 65.9405 461.994C66.9774 355.996 65.8081 332.389 71.9524 280.587Z" fill="#B48068"/>
<path d="M118.89 370.612C118.757 370.612 118.625 370.557 118.526 370.447C118.658 369.807 118.746 369.465 118.746 369.465C118.79 369.84 118.846 370.226 118.89 370.612Z" fill="#CEB4AD"/>
<path d="M118.923 370.623C118.912 370.623 118.9 370.623 118.889 370.612C118.845 370.226 118.79 369.84 118.746 369.465C118.746 369.465 118.658 369.807 118.525 370.447C118.47 370.392 118.426 370.315 118.393 370.215C112.701 350.128 108.233 329.72 105.023 309.092C104.957 308.662 105.321 308.375 105.663 308.375C105.884 308.375 106.082 308.507 106.126 308.794C109.348 329.411 113.815 349.83 119.496 369.906C119.618 370.337 119.265 370.623 118.923 370.623Z" fill="#A97462"/>
<path d="M171.188 307.437C171.177 307.437 171.166 307.437 171.144 307.437C158.999 306.422 149.347 298.215 142.96 288.309C142.684 287.868 143.07 287.471 143.478 287.471C143.644 287.471 143.82 287.537 143.952 287.724C150.097 297.266 159.429 305.308 171.144 306.29C171.85 306.345 171.872 307.437 171.188 307.437Z" fill="#A97462"/>
<path d="M70.0438 306.554C69.5254 306.554 69.3489 305.65 69.9556 305.407C74.2577 303.664 78.4937 301.293 81.9574 298.171C85.2116 295.237 87.4399 291.398 88.3775 287.118C88.4437 286.831 88.6644 286.709 88.885 286.709C89.2269 286.709 89.591 286.996 89.4917 287.426C88.5099 291.883 86.1493 295.931 82.7627 298.987C79.1445 302.252 74.7541 304.701 70.2534 306.51C70.1872 306.543 70.11 306.554 70.0438 306.554Z" fill="#A97462"/>
<path d="M12.3291 160.205C12.6601 161.86 13.0461 163.503 13.4764 165.147C13.8735 166.647 14.2265 168.225 14.8552 169.659C15.3406 170.784 16.3003 171.71 17.613 171.545C18.8265 171.391 19.5986 170.254 19.389 169.074C19.3228 168.644 18.661 168.82 18.7382 169.262C18.9699 170.662 17.2821 171.291 16.2783 170.519C15.3958 169.824 15.1421 168.478 14.8442 167.452C14.1162 165.003 13.4984 162.521 12.991 160.017C12.9027 159.587 12.2409 159.764 12.3291 160.205Z" fill="#EE785A"/>
<path d="M7.90554 162.157C8.31369 163.823 8.93143 165.412 9.63743 166.978C10.3324 168.522 11.0384 170.111 11.9209 171.578C12.5496 172.615 13.6197 174.016 15.0206 173.729C16.3664 173.464 16.9069 171.986 16.4436 170.784C16.2892 170.376 15.6273 170.552 15.7928 170.96C16.0244 171.6 15.9913 172.328 15.4398 172.791C14.8662 173.266 14.1602 173.067 13.6307 172.626C12.66 171.821 12.1415 170.574 11.5899 169.471C10.3875 167.055 9.21824 164.606 8.56741 161.97C8.45709 161.551 7.79523 161.727 7.90554 162.157Z" fill="#EE785A"/>
<path d="M3.95641 164.993C4.55209 166.592 5.22499 168.169 5.97511 169.703C6.70316 171.181 7.47534 172.714 8.45711 174.049C9.21825 175.075 10.3765 176.321 11.7995 175.957C13.1343 175.615 13.7079 174.181 13.3549 172.935C13.2225 172.505 12.5717 172.692 12.682 173.122C13.0791 174.501 11.8326 175.902 10.4537 175.075C9.38372 174.435 8.68876 173.233 8.08205 172.196C6.72522 169.835 5.56696 167.364 4.61828 164.805C4.46384 164.397 3.80198 164.573 3.95641 164.993Z" fill="#EE785A"/>
<path d="M4.46386 176.399C5.00438 177.38 6.09646 178.02 7.22163 177.987C7.54154 177.976 7.86144 177.91 8.12619 177.711C8.36887 177.535 8.54537 177.281 8.6998 177.027C8.98661 176.531 9.15208 175.968 9.17414 175.395C9.19621 174.744 9.0528 174.104 8.7329 173.542C8.52331 173.155 7.92763 173.497 8.13722 173.895C8.67774 174.854 8.60052 176.222 7.83938 177.049C7.46432 177.458 6.72524 177.314 6.26193 177.127C5.7545 176.917 5.32428 176.542 5.05954 176.046C4.83891 175.66 4.24324 176.013 4.46386 176.399Z" fill="#EE785A"/>
<path d="M14.3036 183.602C14.5904 180.039 15.4178 176.068 18.5616 173.917C18.9257 173.674 18.5837 173.078 18.2197 173.332C14.8552 175.626 13.9286 179.774 13.6197 183.602C13.5866 184.043 14.2705 184.032 14.3036 183.602Z" fill="#EE785A"/>
<path d="M71.2791 253.385C97.809 257.521 124.835 257.654 151.398 253.749C152.126 253.638 151.817 252.535 151.089 252.646C124.758 256.517 97.8972 256.385 71.588 252.27C70.8599 252.16 70.5511 253.263 71.2791 253.385Z" fill="#2E283A"/>
<path d="M176.086 239.541C176.086 239.541 181.966 241.206 189.632 242.089C198.325 243.093 204.612 242.199 204.612 242.199C207.392 258.073 206.223 277.433 197.839 278.017C185.385 278.889 176.637 264.548 136.286 245.906C126.17 241.228 118.283 233.871 103.115 237.39C95.7905 239.088 87.9363 241.129 88.4217 233.904C88.7747 228.73 103.832 219.354 116.01 220.733C138.536 223.259 171.85 242.464 176.262 242.199C176.262 242.199 176.284 240.886 176.086 239.541Z" fill="#FFCFC4"/>
<path d="M171.696 228.884C182.936 231.852 195.048 234.124 206.686 232.8C207.414 232.712 207.425 231.565 206.686 231.653C195.126 232.966 183.168 230.727 171.993 227.781C171.287 227.594 170.979 228.697 171.696 228.884Z" fill="#2E283A"/>
<path d="M57.4134 213.596C58.1745 214.147 59.2445 214.357 60.116 214.655C61.0757 214.963 62.0354 215.261 62.9951 215.526C64.9807 216.056 66.9994 216.442 69.0512 216.541C69.7903 216.563 69.7903 215.427 69.0512 215.394C67.0987 215.294 65.1903 214.93 63.304 214.423C62.3994 214.169 61.5059 213.905 60.6234 213.607C59.774 213.342 58.7261 213.132 57.987 212.603C57.3913 212.173 56.8177 213.154 57.4134 213.596Z" fill="#2E283A"/>
<path d="M91.2567 139.908C98.2946 144.772 107.064 147.045 115.437 148.225C122.585 149.24 130.594 149.836 137.609 147.696C138.315 147.475 138.018 146.372 137.312 146.582C130.34 148.711 122.309 148.093 115.216 147.045C107.108 145.843 98.6476 143.636 91.8304 138.915C91.2237 138.496 90.65 139.489 91.2567 139.908Z" fill="#2E283A"/>
<path d="M332.452 112.826C329.794 116.047 329.628 120.559 328.933 124.53C328.084 129.296 327.61 134.8 327.963 139.632L329.143 139.676C328.801 135.109 329.176 129.825 329.948 125.336C330.301 123.24 330.72 121.155 331.162 119.07C331.581 117.018 332.298 114.746 333.655 113.102L332.452 112.826Z" fill="#2E283A"/>
<path d="M70.0661 222.829C68.8968 193.795 73.5629 163.26 91.9518 139.819C92.393 139.246 91.5878 138.429 91.1355 139.003C77.148 156.84 70.7169 179.156 69.1505 201.516C68.6541 208.609 68.632 215.724 68.9188 222.829C68.9519 223.568 70.0992 223.568 70.0661 222.829Z" fill="#2E283A"/>
<path d="M172.71 237.665C172.07 212.89 170.714 187.827 164.404 163.746C162.617 156.951 160.422 150.255 157.741 143.747C157.465 143.085 156.362 143.371 156.638 144.055C166.103 167.088 169.368 192.074 170.758 216.772C171.144 223.733 171.386 230.694 171.563 237.665C171.585 238.393 172.732 238.404 172.71 237.665Z" fill="#2E283A"/>
<path d="M144.471 125.005C144.471 125.005 132.612 127.365 116.573 125.336L116.595 120.339C116.595 120.339 135.9 120.725 144.272 119.644L144.471 125.005Z" fill="#393146"/>
<path d="M176.395 242.662C179.638 245.497 182.032 249.391 182.12 253.793C182.131 254.245 182.815 254.245 182.804 253.793C182.716 249.215 180.256 245.133 176.891 242.166C176.56 241.879 176.064 242.364 176.395 242.662Z" fill="#EE785A"/>
<path d="M54.6994 232.062C55.6702 233.981 56.2879 236.033 56.5306 238.173C56.7733 240.258 56.7071 242.354 56.6519 244.438C56.6409 244.88 57.3248 244.88 57.3469 244.438C57.4021 242.221 57.4572 239.982 57.1704 237.776C56.8946 235.658 56.2659 233.617 55.2841 231.72C55.0855 231.322 54.4899 231.664 54.6994 232.062Z" fill="#EE785A"/>
<path d="M388.225 368.185C389.703 370.568 390.155 373.381 390.453 376.128C390.497 376.569 391.082 376.569 391.137 376.128L391.181 375.819C391.236 375.378 390.542 375.378 390.486 375.819L390.453 376.128C390.685 376.128 390.917 376.128 391.137 376.128C390.828 373.26 390.376 370.325 388.821 367.832C388.589 367.457 387.982 367.81 388.225 368.185Z" fill="#EE785A"/>
<path d="M392.715 367.623C393.884 370.226 395.064 372.918 395.119 375.819C395.119 376.26 395.814 376.26 395.803 375.819C395.748 372.796 394.524 369.994 393.31 367.27C393.134 366.873 392.538 367.215 392.715 367.623Z" fill="#EE785A"/>
<path d="M397.392 367.469C398.319 369.498 398.716 371.727 398.606 373.955C398.584 374.396 399.267 374.396 399.29 373.955C399.422 371.605 398.959 369.267 397.988 367.116C397.8 366.718 397.216 367.06 397.392 367.469Z" fill="#EE785A"/>
</g>
<defs>
<clipPath id="clip0_340_3231">
<rect width="400" height="400" fill="white"/>
</clipPath>
</defs>
</svg>
