<svg width="533" height="846" viewBox="0 0 533 846" fill="none" xmlns="http://www.w3.org/2000/svg">
<path d="M372.54 179.793C371.728 179.59 371.524 179.184 371.524 178.569C377.217 150.304 372.337 53.512 372.134 52.4912C372.134 51.8818 372.54 51.4756 373.155 51.4756C373.764 51.4756 374.17 51.8818 374.17 52.4912C374.17 53.512 379.254 150.71 373.561 179.184C373.561 179.387 373.155 179.793 372.54 179.793Z" fill="#7E9B45"/>
<path d="M379.66 36.6317C381.082 46.3921 378.441 54.7306 373.764 55.5431C369.087 56.1525 364.207 48.8348 362.785 39.2775C361.358 29.5171 364.004 21.1786 368.681 20.3661C373.358 19.5483 378.238 26.8713 379.66 36.6317Z" fill="#F4CF64"/>
<path d="M348.754 185.486C348.347 185.486 347.941 185.08 347.738 184.673C330.66 116.548 295.077 59.2046 294.67 58.5952C294.467 58.1889 294.467 57.5796 295.077 57.1681C295.483 56.965 296.092 56.965 296.498 57.5796C296.905 58.1889 332.691 115.736 349.769 184.267C349.972 184.876 349.566 185.283 348.957 185.486H348.754Z" fill="#7E9B45"/>
<path d="M294.873 45.1735C299.55 51.6788 300.769 58.7985 297.514 61.0329C294.264 63.2725 288.165 59.8142 283.488 53.309C278.811 46.7986 277.592 39.684 280.842 37.4444C283.894 35.0069 290.196 38.46 294.873 45.1735Z" fill="#EABD4E"/>
<path d="M302.395 46.7983C302.801 54.7306 299.957 61.439 296.093 61.439C292.228 61.6421 288.978 55.34 288.572 47.2046C288.166 39.0744 291.009 32.564 294.874 32.564C298.739 32.564 302.192 38.8713 302.395 46.7983Z" fill="#F4CF64"/>
<path d="M287.759 47.8142C295.28 50.2569 300.567 55.3402 299.348 59.0017C298.129 62.6631 291.009 63.6787 283.488 61.0329C275.962 58.5954 270.676 53.5121 271.9 49.8506C272.916 46.1892 280.03 45.3767 287.759 47.8142Z" fill="#F4CF64"/>
<path d="M395.52 139.325C383.316 163.929 393.889 121.429 415.035 70.7933C425.811 44.9704 455.092 31.7517 466.478 43.7517C495.348 74.2517 407.108 115.736 395.52 139.325Z" fill="#8CAD57"/>
<path d="M365.628 187.923C360.951 146.647 353.024 16.2984 326.186 2.26719C299.347 -11.7641 298.128 42.3245 316.222 82.1839C337.165 128.548 365.831 190.366 365.628 187.923Z" fill="#8CAD57"/>
<path d="M395.52 25.6526C406.702 5.11091 444.317 -8.51409 444.114 14.2619C443.91 36.8349 394.301 45.1734 389.827 56.5588C389.827 56.3557 390.03 35.6161 395.52 25.6526Z" fill="#8CAD57"/>
<path d="M268.035 65.913C243.634 80.9651 281.655 106.788 296.093 118.788C330.051 147.054 333.91 160.064 333.91 160.064C333.91 160.064 292.431 50.8662 268.035 65.913Z" fill="#8CAD57"/>
<path d="M362.785 186.502C362.176 186.502 361.764 186.095 361.764 185.486C359.327 145.627 322.525 27.4808 322.118 26.262C321.915 25.6527 322.322 25.2464 322.728 25.0433C323.337 24.8402 323.743 25.2464 323.947 25.6527C324.353 26.8714 361.155 145.22 363.598 185.283C363.801 185.892 363.395 186.502 362.785 186.502Z" fill="#7E9B45"/>
<path d="M381.691 182.028C381.082 182.028 380.676 181.418 380.676 180.809C390.436 115.33 443.91 61.6421 444.316 61.2358C444.723 60.8296 445.332 60.8296 445.738 61.2358C446.145 61.6421 446.145 62.2567 445.738 62.6629C445.129 63.2723 392.264 116.345 382.504 181.215C382.707 181.824 382.301 182.028 381.691 182.028Z" fill="#7E9B45"/>
<path d="M321.915 172.673C338.181 187.111 317.848 159.048 287.144 128.142C271.493 112.481 246.077 111.465 241.196 123.465C228.999 154.574 306.259 158.642 321.915 172.673Z" fill="#8CAD57"/>
<path d="M366.644 180.606C366.035 180.606 365.629 179.996 365.629 179.59C368.478 137.903 360.545 112.887 360.342 112.684C360.139 112.075 360.545 111.668 360.951 111.465C361.561 111.262 361.967 111.668 362.175 112.075C362.175 112.278 370.509 137.903 367.457 179.793C367.665 180.2 367.254 180.606 366.644 180.606Z" fill="#7E9B45"/>
<path d="M367.868 97.2307C368.68 106.991 365.425 115.33 360.748 115.533C356.071 115.939 351.602 108.21 350.988 98.4495C350.175 88.6891 353.43 80.3505 358.108 80.1474C362.785 79.7411 367.253 87.4703 367.868 97.2307Z" fill="#E2171A"/>
<path d="M374.983 103.736C370.306 112.481 362.988 117.564 358.92 115.33C354.852 113.09 355.259 104.147 359.936 95.6058C364.613 86.861 371.931 81.7777 375.998 84.0121C380.066 86.2517 379.66 95.1996 374.983 103.736Z" fill="#D60000"/>
<path d="M358.718 95.4027C365.223 102.924 367.458 111.465 363.801 114.517C360.14 117.564 352.01 114.111 345.702 106.585C339.197 99.0589 336.963 90.5225 340.619 87.4704C344.077 84.4183 352.213 87.8766 358.718 95.4027Z" fill="#D60000"/>
<path d="M344.483 200.126C344.077 200.126 343.874 199.923 343.671 199.72C317.239 155.184 262.546 131.798 262.14 131.595C261.53 131.392 261.327 130.783 261.53 130.173C261.733 129.564 262.343 129.361 262.952 129.564C263.562 129.767 318.864 153.356 345.499 198.501C345.702 198.908 345.702 199.517 345.093 199.923L344.483 200.126Z" fill="#7E9B45"/>
<path d="M344.89 179.793C344.483 179.793 344.077 179.59 343.874 179.184C332.285 149.085 281.452 89.5016 280.843 88.8923C280.436 88.486 280.436 87.8766 281.046 87.4704C281.452 87.0641 282.067 87.0641 282.473 87.6735C283.082 88.2829 334.114 148.272 345.702 178.569C345.905 179.184 345.702 179.59 345.093 179.793H344.89Z" fill="#7E9B45"/>
<path d="M368.478 175.929C367.868 175.929 367.462 175.319 367.462 174.71C383.316 37.2412 398.363 29.5172 416.056 20.3662C417.478 19.5485 419.103 18.736 420.728 17.9235C421.139 17.7204 421.748 17.7204 422.155 18.3297C422.358 18.736 422.358 19.3454 421.748 19.7516C420.118 20.5693 418.696 21.3818 417.071 22.1943C399.993 30.9391 385.353 38.6631 369.696 174.913C369.493 175.522 368.884 175.929 368.478 175.929Z" fill="#7E9B45"/>
<path d="M416.462 193.215H416.056C415.441 193.012 415.238 192.397 415.65 191.788C416.056 190.976 450.618 116.752 509.379 138.715C509.988 138.918 510.191 139.528 509.988 139.934C509.785 140.543 509.176 140.746 508.769 140.543C451.634 119.194 417.884 191.788 417.478 192.601C417.275 193.012 416.868 193.215 416.462 193.215Z" fill="#6B7C25"/>
<path d="M422.155 181.012C422.155 181.012 463.634 190.772 455.499 173.08C451.634 164.538 422.155 181.012 422.155 181.012Z" fill="#6B7C25"/>
<path d="M423.374 181.824C423.374 181.824 415.035 139.934 402.431 154.777C396.332 161.897 423.374 181.824 423.374 181.824Z" fill="#6B7C25"/>
<path d="M436.999 160.272C436.999 160.272 471.968 173.08 466.681 156.814C464.244 148.882 436.999 160.272 436.999 160.272Z" fill="#6B7C25"/>
<path d="M438.015 160.882C438.015 160.882 435.166 123.668 422.562 135.257C416.463 140.746 438.015 160.882 438.015 160.882Z" fill="#6B7C25"/>
<path d="M456.515 144.611C456.515 144.611 485.593 163.522 484.369 147.663C483.556 140.137 456.515 144.611 456.515 144.611Z" fill="#6B7C25"/>
<path d="M457.124 145.627C457.124 145.627 462.41 111.262 448.587 118.991C441.874 122.856 457.124 145.627 457.124 145.627Z" fill="#6B7C25"/>
<path d="M497.79 136.069C497.79 136.069 525.035 157.83 525.035 141.767C525.238 134.241 497.79 136.069 497.79 136.069Z" fill="#6B7C25"/>
<path d="M479.488 135.46C479.488 135.46 496.978 160.679 501.249 147.257C503.077 140.95 479.488 135.46 479.488 135.46Z" fill="#6B7C25"/>
<path d="M479.697 136.476C479.697 136.476 495.551 110.043 481.525 111.871C474.816 112.684 479.697 136.476 479.697 136.476Z" fill="#6B7C25"/>
<path d="M493.316 136.475C493.316 136.475 514.259 123.059 503.483 119.194C498.4 117.361 493.316 136.475 493.316 136.475Z" fill="#6B7C25"/>
<path d="M344.89 166.575C344.89 166.575 377.218 138.715 358.108 135.054C348.957 133.022 344.89 166.575 344.89 166.575Z" fill="#6B7C25"/>
<path d="M346.317 165.965C346.317 165.965 307.682 148.069 312.156 166.981C314.192 176.132 346.317 165.965 346.317 165.965Z" fill="#6B7C25"/>
<path d="M328.014 145.83C328.014 145.83 352.212 117.767 335.128 116.955C327.201 116.548 328.014 145.83 328.014 145.83Z" fill="#6B7C25"/>
<path d="M329.03 145.22C329.03 145.22 293.452 134.85 299.754 150.71C302.801 158.033 329.03 145.22 329.03 145.22Z" fill="#6B7C25"/>
<path d="M308.29 128.752C308.29 128.752 327.608 101.705 312.358 102.314C305.04 102.72 308.29 128.752 308.29 128.752Z" fill="#6B7C25"/>
<path d="M309.311 128.142C309.311 128.142 276.78 121.835 283.488 135.257C286.738 141.767 309.311 128.142 309.311 128.142Z" fill="#6B7C25"/>
<path d="M274.337 111.871C274.337 111.871 247.092 92.9599 247.905 108.007C248.311 115.33 274.337 111.871 274.337 111.871Z" fill="#6B7C25"/>
<path d="M285.723 116.548C285.723 116.548 299.145 90.1161 285.723 92.7567C279.421 93.9755 285.723 116.548 285.723 116.548Z" fill="#6B7C25"/>
<path d="M286.535 115.939C286.535 115.939 256.852 114.72 264.779 125.7C268.441 130.986 286.535 115.939 286.535 115.939Z" fill="#6B7C25"/>
<path d="M352.212 174.095C351.806 174.095 351.603 173.892 351.4 173.689C350.988 173.283 316.832 123.262 270.676 112.074C270.066 111.871 269.863 111.465 269.863 110.856C270.066 110.246 270.473 110.043 271.082 110.043C318.051 121.429 352.618 172.064 353.025 172.47C353.431 172.877 353.228 173.486 352.822 173.892C352.618 174.095 352.415 174.095 352.212 174.095Z" fill="#6B7C25"/>
<path d="M376.812 180.809C375.999 180.606 375.796 180.2 375.796 179.59C387.181 111.871 403.853 93.3662 404.463 92.5537C404.874 92.1475 405.483 92.1475 405.89 92.5537C406.296 92.96 406.296 93.5693 405.89 93.9756C405.687 94.1787 388.812 112.887 377.624 179.793C377.827 180.403 377.421 180.809 376.812 180.809Z" fill="#7E9B45"/>
<path d="M422.561 86.4548C416.665 94.3818 408.936 98.4495 405.076 95.6058C401.212 92.7568 402.837 84.2152 408.733 76.2881C414.629 68.3558 422.358 64.2881 426.222 67.137C429.879 69.7777 428.254 78.5225 422.561 86.4548Z" fill="#EABD4E"/>
<path d="M423.374 96.0121C414.223 99.4704 405.483 98.6527 403.65 94.1787C402.025 89.7048 408.124 83.4027 417.275 79.9443C426.426 76.4912 435.165 77.3037 436.999 81.7777C438.624 86.0485 432.525 92.5537 423.374 96.0121Z" fill="#F4CF64"/>
<path d="M416.462 79.1317C416.462 88.8921 412.598 97.0275 407.921 97.0275C403.243 97.0275 399.379 89.0952 399.379 79.3348C399.379 69.5744 403.243 61.439 407.921 61.439C412.598 61.439 416.462 69.3713 416.462 79.1317Z" fill="#F4CF64"/>
<path d="M388.196 180.403C387.587 180.403 387.181 179.996 387.181 179.387C386.978 169.418 394.504 149.085 394.707 148.272C394.91 147.663 395.519 147.46 395.926 147.663C396.535 147.866 396.738 148.476 396.535 148.882C396.535 149.085 389.014 169.627 389.014 179.184C389.217 179.996 388.811 180.403 388.196 180.403Z" fill="#7E9B45"/>
<path d="M454.687 273.538C445.535 219.851 422.562 195.449 422.562 195.449C422.562 195.449 284.504 194.231 281.452 198.502C224.728 280.653 247.958 335.637 228.458 368.137C208.957 400.637 204.601 399.616 218.457 406.637C225.977 410.447 233.453 410.062 239.957 404.699C247.644 398.362 253.801 386.397 253.801 379.481C253.801 379.481 248.654 401.621 256.447 411.408C266.442 423.96 278.603 428.298 295.957 424.637L299.145 409.58L300.457 424.637C367.458 470.137 405.457 427.637 410.457 427.637C415.457 427.637 410.457 387.637 416.957 395.137C416.957 395.137 426.316 424.471 439.957 427.637C456.565 431.492 477.296 414.877 480.957 412.637C491.957 402.637 464.853 333.528 454.687 273.538Z" fill="#A40391"/>
<path d="M449.603 305.668C447.572 319.085 439.437 329.054 431.51 327.83C423.577 326.611 418.697 314.819 420.728 301.397C422.765 287.976 430.895 278.012 438.827 279.231C446.754 280.45 451.635 292.246 449.603 305.668Z" fill="#FFD5B6"/>
<path d="M431.098 309.528H430.691C430.082 309.324 429.879 308.715 430.082 308.309C430.285 307.903 433.54 298.752 439.436 296.923C441.874 296.111 444.113 296.72 446.551 298.548C446.957 298.955 447.16 299.564 446.754 299.97C446.348 300.377 445.738 300.585 445.332 300.173C443.504 298.752 441.671 298.345 440.046 298.955C435.165 300.377 432.118 308.918 432.118 308.918C431.915 309.121 431.509 309.528 431.098 309.528Z" fill="#EA9475"/>
<path d="M387.384 363.418V425.845C387.384 448.621 369.493 466.923 347.535 466.923C325.576 466.923 307.884 448.621 307.884 425.845V363.418H387.384Z" fill="#FFD5B6"/>
<path d="M119.405 556.804C119.405 556.804 107.816 522.236 125.91 458.991C135.467 425.439 162.915 488.278 162.915 488.278L152.952 546.434L119.405 556.804Z" fill="#D16A42"/>
<path d="M347.535 352.439C346.519 352.439 334.925 357.725 322.728 363.418H371.321C359.733 357.725 348.55 352.439 347.535 352.439Z" fill="#9D5038"/>
<path d="M371.524 363.418H322.931C317.847 365.856 312.561 368.298 307.884 370.533V393.309C307.884 393.309 331.879 412.423 362.785 412.423C370.712 412.423 378.847 411.205 387.384 408.158V371.554C382.707 369.111 377.014 366.267 371.524 363.418Z" fill="#F09C7C"/>
<path d="M429.676 294.075C429.676 295.772 429.645 297.47 429.582 299.163C429.514 300.861 429.421 302.554 429.29 304.241C429.165 305.929 429.004 307.616 428.811 309.293C428.618 310.97 428.395 312.642 428.139 314.309C427.884 315.97 427.598 317.627 427.28 319.272C426.962 320.924 426.613 322.554 426.238 324.179C425.858 325.804 425.447 327.418 425.004 329.012C424.566 330.611 424.092 332.194 423.592 333.762C423.092 335.33 422.561 336.882 422.004 338.418C421.447 339.95 420.858 341.465 420.243 342.965C419.624 344.46 418.978 345.939 418.306 347.392C417.634 348.851 416.936 350.283 416.212 351.694C415.483 353.106 414.733 354.491 413.952 355.856C413.171 357.22 412.368 358.554 411.54 359.866C410.707 361.179 409.853 362.465 408.978 363.72C408.098 364.981 407.197 366.21 406.275 367.408C405.348 368.611 404.4 369.778 403.431 370.918C402.462 372.059 401.473 373.168 400.462 374.241C399.452 375.319 398.421 376.366 397.368 377.377C396.322 378.387 395.249 379.361 394.165 380.304C393.077 381.252 391.973 382.158 390.853 383.028C389.728 383.903 388.592 384.736 387.436 385.538C386.285 386.34 385.118 387.101 383.936 387.83C382.754 388.554 381.556 389.241 380.348 389.892C379.139 390.538 377.921 391.153 376.691 391.72C375.457 392.293 374.217 392.825 372.967 393.319C371.712 393.809 370.457 394.262 369.186 394.679C367.915 395.09 366.645 395.46 365.358 395.793C364.077 396.121 362.79 396.413 361.493 396.663C360.202 396.913 358.905 397.116 357.603 397.283C356.301 397.45 354.999 397.575 353.691 397.658C352.384 397.741 351.077 397.783 349.77 397.783C348.462 397.783 347.155 397.741 345.848 397.658C344.546 397.575 343.238 397.45 341.936 397.283C340.639 397.116 339.337 396.913 338.046 396.663C336.754 396.413 335.462 396.121 334.181 395.793C332.9 395.46 331.624 395.09 330.353 394.679C329.087 394.262 327.827 393.809 326.577 393.319C325.322 392.825 324.082 392.293 322.853 391.72C321.618 391.153 320.4 390.538 319.191 389.892C317.983 389.241 316.79 388.554 315.608 387.83C314.426 387.101 313.254 386.34 312.103 385.538C310.952 384.736 309.811 383.903 308.691 383.028C307.566 382.158 306.462 381.252 305.379 380.304C304.29 379.361 303.223 378.387 302.171 377.377C301.118 376.366 300.087 375.319 299.077 374.241C298.066 373.168 297.077 372.059 296.108 370.918C295.139 369.778 294.191 368.611 293.27 367.408C292.342 366.21 291.441 364.981 290.566 363.72C289.686 362.465 288.832 361.179 288.004 359.866C287.171 358.554 286.368 357.22 285.587 355.856C284.811 354.491 284.056 353.106 283.332 351.694C282.603 350.283 281.905 348.851 281.233 347.392C280.561 345.939 279.915 344.46 279.301 342.965C278.681 341.465 278.098 339.95 277.535 338.418C276.978 336.882 276.447 335.33 275.947 333.762C275.447 332.194 274.978 330.611 274.535 329.012C274.092 327.418 273.686 325.804 273.306 324.179C272.926 322.554 272.577 320.924 272.259 319.272C271.941 317.627 271.655 315.97 271.4 314.309C271.145 312.642 270.921 310.97 270.728 309.293C270.535 307.616 270.379 305.929 270.249 304.241C270.118 302.554 270.025 300.861 269.962 299.163C269.895 297.47 269.863 295.772 269.863 294.075C269.863 292.377 269.895 290.684 269.962 288.986C270.025 287.293 270.118 285.601 270.249 283.908C270.379 282.22 270.535 280.538 270.728 278.856C270.921 277.179 271.145 275.507 271.4 273.84C271.655 272.179 271.941 270.522 272.259 268.877C272.577 267.231 272.926 265.595 273.306 263.97C273.686 262.345 274.092 260.736 274.535 259.137C274.978 257.538 275.447 255.955 275.947 254.387C276.447 252.819 276.978 251.267 277.535 249.736C278.098 248.2 278.681 246.684 279.301 245.189C279.915 243.689 280.561 242.215 281.233 240.757C281.905 239.304 282.603 237.866 283.332 236.46C284.056 235.049 284.811 233.658 285.587 232.293C286.368 230.934 287.171 229.595 288.004 228.283C288.832 226.97 289.686 225.684 290.566 224.429C291.441 223.168 292.342 221.944 293.27 220.741C294.191 219.543 295.139 218.371 296.108 217.231C297.077 216.09 298.066 214.986 299.077 213.908C300.087 212.83 301.118 211.788 302.171 210.778C303.223 209.762 304.29 208.788 305.379 207.845C306.462 206.903 307.566 205.991 308.691 205.121C309.811 204.246 310.952 203.413 312.103 202.611C313.254 201.814 314.426 201.049 315.608 200.325C316.79 199.595 317.983 198.908 319.191 198.262C320.4 197.611 321.618 197.002 322.853 196.429C324.082 195.856 325.322 195.325 326.577 194.83C327.827 194.34 329.087 193.887 330.353 193.476C331.624 193.064 332.9 192.689 334.181 192.361C335.462 192.028 336.754 191.736 338.046 191.486C339.337 191.241 340.639 191.033 341.936 190.866C343.238 190.7 344.546 190.575 345.848 190.491C347.155 190.408 348.462 190.366 349.77 190.366C351.077 190.366 352.384 190.408 353.691 190.491C354.999 190.575 356.301 190.7 357.603 190.866C358.905 191.033 360.202 191.241 361.493 191.486C362.79 191.736 364.077 192.028 365.358 192.361C366.645 192.689 367.915 193.064 369.186 193.476C370.457 193.887 371.712 194.34 372.967 194.83C374.217 195.325 375.457 195.856 376.691 196.429C377.921 197.002 379.139 197.611 380.348 198.262C381.556 198.908 382.754 199.595 383.936 200.325C385.118 201.049 386.285 201.814 387.436 202.611C388.592 203.413 389.728 204.246 390.853 205.121C391.973 205.991 393.077 206.903 394.165 207.845C395.249 208.788 396.322 209.762 397.368 210.778C398.421 211.788 399.452 212.83 400.462 213.908C401.473 214.986 402.462 216.09 403.431 217.231C404.4 218.371 405.348 219.543 406.275 220.741C407.197 221.944 408.098 223.168 408.978 224.429C409.853 225.684 410.707 226.97 411.54 228.283C412.368 229.595 413.171 230.934 413.952 232.293C414.733 233.658 415.483 235.049 416.212 236.46C416.936 237.866 417.634 239.304 418.306 240.757C418.983 242.215 419.624 243.689 420.243 245.189C420.858 246.684 421.447 248.2 422.004 249.736C422.566 251.267 423.092 252.819 423.592 254.387C424.092 255.955 424.566 257.538 425.004 259.137C425.447 260.736 425.858 262.345 426.238 263.97C426.613 265.595 426.962 267.231 427.28 268.877C427.598 270.522 427.884 272.179 428.139 273.84C428.395 275.507 428.618 277.179 428.811 278.856C429.004 280.538 429.165 282.22 429.29 283.908C429.421 285.601 429.514 287.293 429.582 288.986C429.645 290.684 429.676 292.377 429.676 294.075Z" fill="#FFD5B6"/>
<path d="M325.983 203.788C325.983 203.788 359.123 276.179 429.269 282.892C429.269 282.892 440.045 267.231 444.926 271.502C444.926 271.502 447.978 195.653 392.264 171.455C342.452 149.694 321.306 192.397 325.983 203.788Z" fill="#A40391"/>
<path d="M331.066 202.366C331.066 202.366 278.811 267.845 274.54 289.194C274.54 289.194 267.222 274.554 255.837 281.059C255.837 281.059 260.306 165.356 341.233 168.606C415.238 171.658 331.066 202.366 331.066 202.366Z" fill="#A40391"/>
<path d="M320.696 305.465C320.696 311.97 317.644 317.054 313.983 317.054C310.326 317.054 307.274 311.767 307.274 305.465C307.274 298.955 310.326 293.871 313.983 293.871C317.644 293.668 320.696 298.955 320.696 305.465Z" fill="#51392A"/>
<circle cx="317.957" cy="300.637" r="2" fill="#D9D9D9"/>
<path d="M391.858 305.465C391.858 311.97 388.811 317.054 385.15 317.054C381.488 317.054 378.441 311.767 378.441 305.465C378.441 298.955 381.488 293.871 385.15 293.871C388.811 293.668 391.858 298.955 391.858 305.465Z" fill="#51392A"/>
<path d="M352.618 338.408L346.519 338.205C340.618 336.371 337.165 330.272 338.79 324.174L344.077 304.851C344.28 304.241 344.889 304.038 345.295 304.241C345.905 304.444 346.113 304.851 345.905 305.465L340.618 324.783C339.196 329.663 342.045 334.746 346.926 336.168L352.618 336.371C353.228 336.371 353.634 336.778 353.634 337.387C353.634 338.002 353.025 338.408 352.618 338.408Z" fill="#EA9475"/>
<path d="M413.187 287.082C412.986 287.106 412.784 287.13 412.558 286.953C392.322 273.609 371.342 283.083 371.14 283.107C370.559 283.382 370.107 283.027 369.857 282.647C369.583 282.066 369.938 281.615 370.317 281.365C370.519 281.341 392.459 271.337 413.599 285.396C414.051 285.751 414.123 286.356 413.97 286.784C413.768 286.808 413.591 287.034 413.187 287.082Z" fill="#A8664C"/>
<path d="M286.574 287.264C286.372 287.241 285.99 286.994 285.811 286.77C285.452 286.321 285.52 285.716 286.17 285.379C307.396 271.17 329.216 280.971 329.418 280.993C330.001 281.263 330.135 281.891 329.888 282.272C329.619 282.855 328.991 282.99 328.609 282.743C328.407 282.72 307.35 273.418 287.229 286.928C287.005 287.108 286.781 287.287 286.574 287.264Z" fill="#A8664C"/>
<path d="M354.355 368.143C354.467 368.143 354.69 368.254 354.802 368.365C355.025 368.587 355.025 368.921 354.69 369.143C347.267 372.757 342.445 368.678 342.334 368.678C341.999 368.567 341.887 368.234 341.999 368.012C342.11 367.679 342.445 367.568 342.668 367.679C342.78 367.679 347.542 371.663 354.018 368.365C354.129 368.254 354.241 368.143 354.355 368.143Z" fill="#A8664C"/>
<path d="M510.598 511.663C506.124 492.955 457.327 470.991 422.561 448.621C412.598 442.116 393.28 432.153 388.197 421.574C388.197 421.574 375.796 433.168 347.738 433.168C318.66 433.168 307.275 421.168 307.275 421.168C303.619 431.746 288.978 443.944 279.827 448.418C243.431 466.72 192.4 482.788 187.113 513.085C181.218 547.449 202.16 604.595 215.577 645.059C235.301 704.439 243.634 747.345 243.634 747.345H449.4C449.4 747.345 461.395 706.064 482.134 658.278C501.452 614.153 520.968 554.976 510.598 511.663Z" fill="#E685B0"/>
<path d="M243.837 747.752V775.205L449.603 774.189V747.752H243.837Z" fill="#63403B"/>
<path d="M474.202 839.059C469.53 839.872 464.853 840.481 460.176 841.09C451.228 842.309 442.488 843.127 433.54 843.939C404.056 846.377 374.577 846.174 345.499 844.142C316.223 842.106 287.556 837.835 259.493 831.939C247.092 829.299 234.895 826.247 222.895 822.991C234.285 790.252 244.04 772.767 244.04 772.767H449.806C449.806 772.767 455.296 786.59 463.02 807.132C466.275 816.486 470.139 827.262 474.202 839.059Z" fill="#F2D3C9"/>
<path d="M345.296 842.512C344.483 842.512 343.874 841.903 343.874 841.09C343.671 811.606 345.092 789.033 347.738 773.783C347.941 772.97 348.551 772.559 349.363 772.559C350.176 772.767 350.582 773.377 350.582 774.189C347.941 789.236 346.519 811.606 346.723 840.887C346.723 841.903 346.113 842.512 345.296 842.512Z" fill="#EAC0B5"/>
<path d="M373.764 845.158C372.951 845.158 372.337 844.549 372.337 843.736C372.337 812.418 369.696 774.595 369.493 774.392C369.493 773.58 370.103 772.97 370.915 772.767C371.728 772.767 372.337 773.377 372.54 774.189C372.54 774.595 375.186 812.418 375.389 843.736C375.186 844.345 374.576 845.158 373.764 845.158Z" fill="#EAC0B5"/>
<path d="M259.696 830.72C258.884 830.72 258.274 829.908 258.274 829.095C258.681 823.804 258.884 819.33 259.087 816.486C259.29 812.824 259.29 812.418 259.493 812.215C259.696 811.403 260.509 810.996 261.326 811.199C262.139 811.403 262.545 812.215 262.342 812.824C262.342 813.231 262.139 814.653 262.139 816.486C261.936 819.33 261.733 823.804 261.326 829.095C260.92 830.111 260.306 830.72 259.696 830.72Z" fill="#EAC0B5"/>
<path d="M433.134 843.533C432.525 843.533 431.915 843.127 431.712 842.309C428.051 819.538 426.832 802.658 426.832 802.455C426.832 801.642 427.441 801.033 428.254 800.83C429.066 800.83 429.676 801.439 429.879 802.252C429.879 802.455 430.895 819.127 434.759 841.7C434.962 842.512 434.353 843.33 433.54 843.33L433.134 843.533Z" fill="#EAC0B5"/>
<path d="M328.218 747.549H378.848V772.767H328.218V747.549Z" fill="#EFAA7B"/>
<path d="M401.618 774.189C400.806 774.189 400.196 773.58 400.196 772.767V747.549C400.196 746.736 400.806 746.127 401.618 746.127C402.431 746.127 403.04 746.736 403.04 747.549V772.767C403.04 773.58 402.431 774.189 401.618 774.189Z" fill="#EAC0B5"/>
<path d="M305.446 774.189C304.634 774.189 304.024 773.58 304.024 772.767V747.549C304.024 746.736 304.634 746.127 305.446 746.127C306.259 746.127 306.868 746.736 306.868 747.549V772.767C306.868 773.58 306.259 774.189 305.446 774.189Z" fill="#EAC0B5"/>
<path d="M272.915 774.189C272.103 774.189 271.493 773.58 271.493 772.767V747.549C271.493 746.736 272.103 746.127 272.915 746.127C273.728 746.127 274.337 746.736 274.337 747.549V772.767C274.337 773.58 273.728 774.189 272.915 774.189Z" fill="#EAC0B5"/>
<path d="M434.962 774.189C434.149 774.189 433.54 773.58 433.54 772.767V747.549C433.54 746.736 434.149 746.127 434.962 746.127C435.774 746.127 436.384 746.736 436.384 747.549V772.767C436.384 773.58 435.571 774.189 434.962 774.189Z" fill="#EAC0B5"/>
<path d="M365.832 701.793C365.425 701.793 365.222 701.59 365.019 701.184C364.816 700.778 365.019 700.168 365.425 699.762C366.035 699.356 428.66 663.767 436.587 600.934C436.587 600.325 437.201 599.918 437.811 600.121C438.42 600.121 438.826 600.731 438.623 601.34C430.488 665.194 367.05 701.387 366.441 701.793H365.832Z" fill="#D8784E"/>
<path d="M350.582 459.809C317.644 459.809 294.467 440.897 294.264 440.689C293.858 440.283 293.858 439.673 294.061 439.267C294.467 438.861 295.077 438.861 295.483 439.064C295.889 439.47 346.926 480.752 404.462 439.267C404.874 438.861 405.483 439.064 405.889 439.47C406.296 439.877 406.092 440.486 405.686 440.897C385.962 455.132 367.051 459.809 350.582 459.809Z" fill="#D8784E"/>
<path d="M328.217 739.413C265.389 732.299 246.076 645.059 245.873 644.043C245.67 643.434 246.076 643.028 246.686 642.825C247.295 642.621 247.701 643.028 247.904 643.637C248.108 644.45 267.222 730.465 328.42 737.382C329.029 737.382 329.436 737.991 329.233 738.601C329.233 739.21 328.623 739.413 328.217 739.413Z" fill="#D8784E"/>
<path d="M308.29 217.616C308.29 217.616 317.441 262.96 330.863 271.502H362.379C362.379 271.502 320.899 232.663 325.983 201.752C329.233 181.824 308.29 217.616 308.29 217.616Z" fill="#A40391"/>
<path d="M325.374 205.007C325.374 205.007 327.202 249.949 399.379 274.554C399.379 274.554 335.541 253.814 329.64 203.179L329.03 195.449L325.374 205.007Z" fill="#A40391"/>
<path d="M249.53 305.465C251.566 318.882 259.697 328.647 267.629 327.423C275.556 326.205 280.436 314.408 278.405 300.991C276.368 287.569 268.238 277.809 260.306 279.028C252.176 280.449 247.499 292.246 249.53 305.465Z" fill="#FFD5B6"/>
<path d="M268.035 309.528C267.629 309.528 267.222 309.325 267.019 308.918C267.019 308.918 263.967 300.377 259.087 298.955C257.462 298.345 255.634 298.752 253.801 300.174C253.394 300.585 252.785 300.377 252.379 299.97C251.972 299.564 252.176 298.955 252.582 298.549C255.019 296.72 257.259 296.314 259.696 296.924C265.592 298.752 268.847 307.903 269.051 308.309C269.254 308.918 269.051 309.325 268.441 309.528H268.035Z" fill="#EA9475"/>
<path d="M245.061 465.298C245.061 465.298 226.15 453.908 193.009 444.147C160.884 434.793 67.7591 297.33 67.7591 297.33C67.7591 297.33 88.0925 261.944 93.7852 250.559C112.29 212.939 160.884 104.35 160.884 104.35L132.212 87.6733C132.212 87.6733 52.1029 204.6 27.0977 245.475C22.0143 253.814 10.4258 272.929 2.4935 286.345C-2.99609 295.496 0.868495 312.783 11.2383 330.475C35.431 370.944 94.8008 468.751 127.337 510.439C171.457 566.767 193.822 582.022 193.822 582.022L245.061 465.298Z" fill="#FFD5B6"/>
<path d="M268.239 454.314C268.239 454.314 238.957 485.429 135.671 388.835C135.671 388.835 137.91 450.043 136.687 474.043C133.03 543.59 119.608 556.804 119.608 556.804L210.088 618.424L267.02 537.892L268.239 454.314Z" fill="#E685B0"/>
<path d="M121.233 103.127C121.233 103.127 121.64 88.8922 122.457 78.3193C123.473 67.7463 134.249 55.9495 136.89 47.2047C139.535 38.2568 167.187 35.6161 184.265 40.4963C201.343 45.5797 211.713 47.4078 211.713 47.4078L172.067 89.5015C172.067 89.5015 157.426 100.689 153.358 108.824C149.296 116.955 145.431 128.752 145.431 128.752L121.233 103.127Z" fill="#FFD5B6"/>
<path d="M149.296 80.3505C145.228 86.6578 133.436 107.6 150.108 107.804C166.78 108.007 188.535 95.6057 192.197 92.7567C195.853 90.1161 200.124 83.1994 207.244 78.9286C214.358 74.4547 214.358 68.9651 220.254 68.7619C226.15 68.5588 227.978 61.0328 216.389 60.8297C205.004 60.6265 201.139 64.4911 194.025 70.9963C187.113 77.7099 157.426 67.7463 149.296 80.3505Z" fill="#FFD5B6"/>
<path d="M224.322 121.022L222.488 120.21C213.342 141.564 192.4 154.168 170.645 154.168C163.118 154.168 155.598 152.746 148.275 149.491C126.926 140.34 114.322 119.397 114.322 97.637C114.322 90.1162 115.743 82.5902 118.999 75.2673C128.15 53.9183 149.092 41.3089 170.848 41.3089C178.368 41.3089 185.895 42.7308 193.212 45.986C214.561 55.137 227.165 76.085 227.165 97.8402C227.165 105.366 225.743 112.887 222.488 120.21L224.322 121.022L226.15 121.835C229.608 113.908 231.233 105.772 231.233 97.8402C231.233 74.4548 217.608 52.085 194.837 42.3245C186.91 38.8714 178.775 37.2412 170.848 37.2412C147.462 37.2412 125.098 50.8662 115.337 73.6423C111.884 81.5745 110.254 89.7048 110.254 97.637C110.254 121.022 123.879 143.392 146.65 153.153C154.582 156.611 162.712 158.236 170.645 158.236C194.025 158.236 216.389 144.611 226.15 121.835L224.322 121.022Z" fill="#CC814E"/>
<path d="M200.936 195.653C200.936 195.653 188.738 197.481 162.712 186.095C139.535 176.132 129.571 164.741 129.571 164.741L168.811 74.2515L240.181 105.163L200.936 195.653Z" fill="#DB7649"/>
<path d="M240.181 105.163C239.16 107.6 222.285 102.72 202.566 94.1786C182.842 85.6421 167.796 76.6942 168.811 74.0484C169.832 71.6109 186.707 76.4911 206.426 85.0276C226.15 93.5692 241.4 102.517 240.181 105.163Z" fill="#B25A38"/>
<path d="M202.769 88.8921C202.363 89.7046 196.462 88.0796 189.754 85.0275C182.842 81.9806 177.759 78.9285 177.962 78.116C178.368 77.3035 184.264 78.9285 190.972 81.9806C197.889 84.8244 203.175 88.0796 202.769 88.8921Z" fill="#593514"/>
<path d="M213.546 159.251L284.301 143.595L285.723 151.934L201.14 187.923L213.546 159.251Z" fill="#DB7649"/>
<path d="M137.702 45.3764C140.551 40.6994 154.785 20.7723 159.869 22.8035C167.796 26.0587 157.02 53.5119 152.749 55.34C146.244 58.1889 142.582 55.1369 146.041 41.9181L137.702 45.3764Z" fill="#FFD5B6"/>
<path d="M154.176 63.4754C155.801 64.8973 166.17 55.34 168.405 50.4598C168.608 50.2566 168.202 50.866 167.998 51.0691C165.358 56.965 161.493 62.0535 166.17 64.2879C170.847 66.3191 179.587 55.1368 183.248 49.241C186.91 43.34 188.129 43.5483 188.129 43.5483L190.16 43.7514C190.16 43.7514 179.181 57.5795 189.551 55.5431C200.123 53.5118 207.243 46.5952 207.243 46.5952L211.306 47.2045C211.306 47.2045 214.358 43.1368 212.733 40.09C211.103 37.0379 206.426 33.3764 203.379 34.1941C200.327 35.2098 198.498 35.616 198.498 35.616C198.498 35.616 202.16 29.517 197.077 25.6525C191.993 21.7879 186.301 24.6316 183.655 27.2775C183.655 27.2775 177.353 21.3816 173.894 23.2098C170.441 25.2462 161.493 35.2098 158.238 43.34C155.394 51.4754 150.108 60.2202 154.176 63.4754Z" fill="#FFD5B6"/>
<path d="M155.191 63.6786C154.785 63.6786 154.582 63.6786 154.379 63.6786C152.749 63.2724 151.53 62.0536 150.921 60.2203C149.905 55.9495 158.441 41.7151 160.072 38.8713C160.275 38.4599 161.087 38.2568 161.493 38.4599C161.9 38.6682 162.103 39.4807 161.9 39.887C158.035 46.1891 152.342 56.9651 152.952 59.8141C153.155 60.6266 153.561 61.4391 154.785 61.6422C156.816 62.0536 160.681 60.0172 165.561 53.3088C171.254 45.3766 175.931 38.2568 179.181 32.9703C180.4 31.1422 181.421 29.5172 182.233 28.2932C182.639 27.887 183.249 27.6838 183.655 28.0901C184.061 28.4963 184.264 29.1057 183.858 29.5172C183.046 30.7359 182.03 32.3609 180.811 34.1943C177.353 39.4807 172.879 46.7984 166.983 54.7307C161.697 62.2568 157.629 63.6786 155.191 63.6786Z" fill="#EA9475"/>
<path d="M166.983 65.9131C166.577 65.9131 166.17 65.9131 165.764 65.71C164.748 65.3037 163.931 64.4912 163.524 63.4756C162.103 59.4079 166.78 51.6787 167.389 50.8662C167.592 50.46 168.405 50.2568 168.811 50.46C169.217 50.6631 169.42 51.4756 169.217 51.8818C167.795 53.9183 164.545 60.0173 165.561 62.8662C165.764 63.4756 166.17 63.6787 166.577 63.8818C170.441 65.3037 181.827 50.8662 186.097 45.3766C186.707 44.5641 187.316 43.7516 187.722 43.137C191.993 37.6475 198.295 35.0068 198.702 34.8037C199.311 34.6006 199.717 34.8037 200.123 35.4131C200.327 36.0225 200.123 36.4287 199.514 36.835C199.514 36.835 193.415 39.4808 189.347 44.5641C188.941 45.1735 188.332 45.7829 187.722 46.5954C180.196 55.9495 172.066 65.9131 166.983 65.9131Z" fill="#EA9475"/>
<path d="M188.129 57.1682C186.707 57.1682 185.686 56.762 185.28 56.1526C181.421 51.0693 188.739 42.7307 192.197 38.8714C192.603 38.4599 193.213 38.2568 193.619 38.6682C194.025 39.0745 194.228 39.6839 193.822 40.0901L193.619 40.2932C190.973 43.3401 184.061 51.2724 186.91 55.137C186.91 55.137 187.114 55.3401 188.129 55.3401C192.4 55.3401 203.582 50.8662 209.072 43.5485C209.478 43.137 210.088 42.9339 210.494 43.3401C210.9 43.7516 211.103 44.361 210.697 44.7672C205.004 52.0849 193.416 57.1682 188.129 57.1682Z" fill="#EA9475"/>
<path d="M148.275 56.9651C147.665 56.9651 146.853 56.762 146.244 56.5588C140.348 54.1213 145.634 40.4963 146.244 39.0745C146.447 38.4599 147.056 38.2568 147.462 38.4599C148.072 38.6682 148.275 39.2776 148.072 39.6838C146.447 43.9547 143.806 53.3088 147.056 54.5276C151.124 56.1526 154.582 48.8349 154.785 48.6318C154.988 48.2255 155.598 47.814 156.207 48.2255C156.816 48.4286 157.02 49.038 156.613 49.6474C156.207 50.0536 152.952 56.9651 148.275 56.9651Z" fill="#EA9475"/>
<path d="M149.702 110.246H149.499C147.463 109.84 145.025 108.21 142.583 106.382C140.348 104.96 138.114 103.33 135.874 102.517C133.64 101.502 130.791 101.502 128.353 101.705C125.911 101.705 123.88 101.705 122.661 100.689C122.255 100.283 122.255 99.6735 122.458 99.2621C122.864 98.8558 123.473 98.8558 123.88 99.059C124.489 99.4704 126.52 99.4704 128.353 99.4704C130.791 99.4704 134.046 99.4704 136.687 100.486C139.13 101.502 141.364 103.127 143.603 104.554C146.041 106.179 148.275 107.804 149.906 108.007C150.515 108.21 150.718 108.616 150.718 109.231C150.515 109.84 150.109 110.246 149.702 110.246Z" fill="#EA9475"/>
<path d="M147.26 95.4025C146.65 95.4025 146.244 94.9963 146.244 94.3817C146.041 85.6421 153.973 75.4702 165.765 74.4546C166.374 74.4546 166.781 74.8608 166.781 75.4702C166.781 76.0848 166.374 76.491 165.765 76.491C154.176 77.3035 147.869 87.4702 148.072 94.3817C148.275 94.9963 147.869 95.4025 147.26 95.4025Z" fill="#EA9475"/>
<path d="M279.608 140.949L284.499 139.574L289.301 156.601L284.405 157.981L279.608 140.949Z" fill="#B25A38"/>
<path d="M532.759 775.205L522.598 828.684C506.535 832.955 490.27 836.413 474.202 838.856C469.53 839.668 464.853 840.278 460.176 840.887C460.988 828.684 461.801 817.908 462.613 809.976C462.613 809.163 462.816 808.147 463.02 806.929C465.259 790.861 472.171 754.668 472.171 754.668L461.801 695.491L483.353 667.632L526.457 677.799C528.493 710.538 532.759 775.205 532.759 775.205Z" fill="#FFD5B6"/>
<path d="M509.582 508.611C509.582 508.611 533.983 564.533 532.759 716.028C532.759 716.028 521.78 720.095 497.181 720.095C474.202 720.095 462.207 714.199 462.207 714.199L446.145 713.793L509.582 508.611Z" fill="#E685B0"/>
<path d="M459.973 713.184C459.363 713.184 458.957 712.778 458.957 712.168C458.957 711.757 460.582 678.814 463.426 582.022C464.04 560.465 475.832 533.215 476.035 533.012C476.238 532.403 476.848 532.199 477.457 532.403C478.066 532.606 478.27 533.215 478.066 533.824C477.863 534.028 466.275 560.871 465.665 582.022C462.613 678.814 461.191 711.757 461.191 712.168C460.988 712.778 460.582 713.184 459.973 713.184Z" fill="#D8784E"/>
<path d="M513.447 698.543C491.488 698.543 462.207 695.085 460.582 694.882C459.973 694.882 459.567 694.272 459.77 693.663C459.77 693.048 460.379 692.642 460.988 692.845C461.598 692.845 514.462 699.153 531.337 695.085C531.947 694.882 532.353 695.288 532.556 695.897C532.759 696.507 532.353 696.913 531.744 697.116C527.473 698.137 520.968 698.543 513.447 698.543Z" fill="#D8784E"/>
<path d="M159.103 134.726C159.499 134.892 159.874 135.09 160.228 135.33C160.588 135.564 160.916 135.835 161.218 136.137C161.52 136.439 161.785 136.767 162.025 137.121C162.265 137.481 162.463 137.856 162.629 138.246C162.791 138.642 162.916 139.048 162.999 139.47C163.082 139.887 163.124 140.309 163.124 140.741C163.124 141.168 163.082 141.59 162.999 142.007C162.916 142.429 162.791 142.835 162.629 143.231C162.463 143.621 162.265 143.996 162.025 144.356C161.785 144.71 161.52 145.038 161.218 145.34C160.916 145.642 160.588 145.913 160.228 146.147C159.874 146.387 159.499 146.585 159.103 146.752C158.713 146.913 158.306 147.038 157.884 147.121C157.468 147.205 157.041 147.246 156.614 147.246C156.187 147.246 155.765 147.205 155.348 147.121C154.926 147.038 154.52 146.913 154.124 146.752C153.733 146.585 153.358 146.387 152.999 146.147C152.645 145.913 152.317 145.642 152.015 145.34C151.713 145.038 151.442 144.71 151.207 144.356C150.968 143.996 150.77 143.621 150.603 143.231C150.442 142.835 150.317 142.429 150.233 142.007C150.15 141.59 150.108 141.168 150.108 140.741C150.108 140.309 150.15 139.887 150.233 139.47C150.317 139.048 150.442 138.642 150.603 138.246C150.77 137.856 150.968 137.481 151.207 137.121C151.442 136.767 151.713 136.439 152.015 136.137C152.317 135.835 152.645 135.564 152.999 135.33C153.358 135.09 153.733 134.892 154.124 134.726C154.52 134.564 154.926 134.439 155.348 134.356C155.765 134.272 156.187 134.231 156.614 134.231C157.041 134.231 157.468 134.272 157.884 134.356C158.306 134.439 158.713 134.564 159.103 134.726Z" fill="#E685B0"/>
<path d="M180.452 147.132C180.848 147.293 181.223 147.496 181.577 147.731C181.936 147.97 182.264 148.241 182.566 148.543C182.868 148.845 183.134 149.173 183.374 149.528C183.613 149.882 183.811 150.257 183.978 150.653C184.139 151.048 184.264 151.455 184.348 151.871C184.431 152.293 184.473 152.715 184.473 153.142C184.473 153.569 184.431 153.991 184.348 154.413C184.264 154.83 184.139 155.241 183.978 155.632C183.811 156.028 183.613 156.403 183.374 156.757C183.134 157.116 182.868 157.444 182.566 157.746C182.264 158.048 181.936 158.314 181.577 158.554C181.223 158.793 180.848 158.991 180.452 159.153C180.061 159.319 179.655 159.444 179.233 159.528C178.816 159.611 178.389 159.653 177.962 159.653C177.535 159.653 177.113 159.611 176.697 159.528C176.275 159.444 175.868 159.319 175.473 159.153C175.082 158.991 174.707 158.793 174.348 158.554C173.993 158.314 173.665 158.048 173.363 157.746C173.061 157.444 172.79 157.116 172.556 156.757C172.316 156.403 172.118 156.028 171.952 155.632C171.79 155.241 171.665 154.83 171.582 154.413C171.499 153.991 171.457 153.569 171.457 153.142C171.457 152.715 171.499 152.293 171.582 151.871C171.665 151.455 171.79 151.048 171.952 150.653C172.118 150.257 172.316 149.882 172.556 149.528C172.79 149.173 173.061 148.845 173.363 148.543C173.665 148.241 173.993 147.97 174.348 147.731C174.707 147.496 175.082 147.293 175.473 147.132C175.868 146.97 176.275 146.845 176.697 146.762C177.113 146.679 177.535 146.637 177.962 146.637C178.389 146.637 178.816 146.679 179.233 146.762C179.655 146.845 180.061 146.97 180.452 147.132Z" fill="#E685B0"/>
<path d="M209.071 158.845C209.071 159.272 209.03 159.694 208.946 160.116C208.863 160.533 208.738 160.944 208.576 161.335C208.41 161.731 208.212 162.106 207.972 162.46C207.738 162.819 207.467 163.147 207.165 163.449C206.863 163.752 206.535 164.017 206.181 164.257C205.821 164.496 205.446 164.694 205.056 164.856C204.66 165.022 204.254 165.147 203.832 165.231C203.415 165.314 202.993 165.356 202.566 165.356C202.139 165.356 201.712 165.314 201.295 165.231C200.873 165.147 200.467 165.022 200.076 164.856C199.681 164.694 199.306 164.496 198.951 164.257C198.592 164.017 198.264 163.752 197.962 163.449C197.66 163.147 197.394 162.819 197.155 162.46C196.915 162.106 196.717 161.731 196.556 161.335C196.389 160.944 196.264 160.533 196.181 160.116C196.097 159.694 196.056 159.272 196.056 158.845C196.056 158.418 196.097 157.996 196.181 157.574C196.264 157.158 196.389 156.752 196.556 156.356C196.717 155.96 196.915 155.585 197.155 155.231C197.394 154.877 197.66 154.548 197.962 154.246C198.264 153.944 198.592 153.673 198.951 153.434C199.306 153.199 199.681 152.996 200.076 152.835C200.467 152.673 200.873 152.548 201.295 152.465C201.712 152.382 202.139 152.34 202.566 152.34C202.993 152.34 203.415 152.382 203.832 152.465C204.254 152.548 204.66 152.673 205.056 152.835C205.446 152.996 205.821 153.199 206.181 153.434C206.535 153.673 206.863 153.944 207.165 154.246C207.467 154.548 207.738 154.877 207.972 155.231C208.212 155.585 208.41 155.96 208.576 156.356C208.738 156.752 208.863 157.158 208.946 157.574C209.03 157.996 209.071 158.418 209.071 158.845Z" fill="#E685B0"/>
<path d="M154.379 163.522C154.379 163.949 154.337 164.371 154.254 164.793C154.171 165.21 154.046 165.621 153.884 166.012C153.717 166.408 153.52 166.783 153.28 167.137C153.046 167.496 152.775 167.824 152.473 168.126C152.171 168.429 151.842 168.694 151.483 168.934C151.129 169.173 150.754 169.371 150.358 169.533C149.967 169.699 149.561 169.824 149.139 169.908C148.723 169.991 148.296 170.033 147.868 170.033C147.441 170.033 147.02 169.991 146.603 169.908C146.181 169.824 145.775 169.699 145.379 169.533C144.988 169.371 144.613 169.173 144.254 168.934C143.9 168.694 143.572 168.429 143.27 168.126C142.967 167.824 142.697 167.496 142.462 167.137C142.223 166.783 142.025 166.408 141.858 166.012C141.697 165.621 141.572 165.21 141.488 164.793C141.405 164.371 141.363 163.949 141.363 163.522C141.363 163.095 141.405 162.673 141.488 162.251C141.572 161.835 141.697 161.429 141.858 161.033C142.025 160.637 142.223 160.262 142.462 159.908C142.697 159.554 142.967 159.225 143.27 158.923C143.572 158.621 143.9 158.35 144.254 158.111C144.613 157.876 144.988 157.673 145.379 157.512C145.775 157.35 146.181 157.225 146.603 157.142C147.02 157.059 147.441 157.017 147.868 157.017C148.296 157.017 148.723 157.059 149.139 157.142C149.561 157.225 149.967 157.35 150.358 157.512C150.754 157.673 151.129 157.876 151.483 158.111C151.842 158.35 152.171 158.621 152.473 158.923C152.775 159.225 153.046 159.554 153.28 159.908C153.52 160.262 153.717 160.637 153.884 161.033C154.046 161.429 154.171 161.835 154.254 162.251C154.337 162.673 154.379 163.095 154.379 163.522Z" fill="#E685B0"/>
<path d="M175.728 175.726C175.728 176.153 175.686 176.574 175.603 176.996C175.519 177.413 175.394 177.819 175.233 178.215C175.066 178.611 174.868 178.986 174.629 179.34C174.394 179.694 174.123 180.022 173.821 180.324C173.519 180.627 173.191 180.897 172.832 181.137C172.478 181.371 172.103 181.574 171.707 181.736C171.316 181.897 170.91 182.022 170.488 182.106C170.071 182.189 169.644 182.231 169.217 182.231C168.79 182.231 168.368 182.189 167.951 182.106C167.53 182.022 167.123 181.897 166.728 181.736C166.337 181.574 165.962 181.371 165.603 181.137C165.248 180.897 164.92 180.627 164.618 180.324C164.316 180.022 164.045 179.694 163.811 179.34C163.571 178.986 163.373 178.611 163.207 178.215C163.045 177.819 162.92 177.413 162.837 176.996C162.754 176.574 162.712 176.153 162.712 175.726C162.712 175.298 162.754 174.877 162.837 174.455C162.92 174.038 163.045 173.627 163.207 173.236C163.373 172.84 163.571 172.465 163.811 172.111C164.045 171.752 164.316 171.423 164.618 171.121C164.92 170.819 165.248 170.554 165.603 170.314C165.962 170.074 166.337 169.877 166.728 169.715C167.123 169.548 167.53 169.423 167.951 169.34C168.368 169.257 168.79 169.215 169.217 169.215C169.644 169.215 170.071 169.257 170.488 169.34C170.91 169.423 171.316 169.548 171.707 169.715C172.103 169.877 172.478 170.074 172.832 170.314C173.191 170.554 173.519 170.819 173.821 171.121C174.123 171.423 174.389 171.752 174.629 172.111C174.868 172.465 175.066 172.84 175.233 173.236C175.394 173.627 175.519 174.038 175.603 174.455C175.686 174.877 175.728 175.298 175.728 175.726Z" fill="#E685B0"/>
<path d="M196.311 175.601C196.707 175.762 197.082 175.965 197.436 176.199C197.796 176.439 198.124 176.71 198.426 177.012C198.728 177.314 198.993 177.642 199.233 177.996C199.473 178.351 199.671 178.726 199.832 179.121C199.999 179.517 200.124 179.923 200.207 180.345C200.29 180.762 200.332 181.184 200.332 181.611C200.332 182.038 200.29 182.465 200.207 182.882C200.124 183.298 199.999 183.71 199.832 184.101C199.671 184.496 199.473 184.871 199.233 185.226C198.993 185.585 198.728 185.913 198.426 186.215C198.124 186.517 197.796 186.788 197.436 187.022C197.082 187.262 196.707 187.46 196.311 187.627C195.921 187.788 195.514 187.913 195.092 187.996C194.676 188.08 194.249 188.121 193.822 188.121C193.395 188.121 192.973 188.08 192.556 187.996C192.134 187.913 191.728 187.788 191.332 187.627C190.941 187.46 190.566 187.262 190.207 187.022C189.853 186.788 189.525 186.517 189.223 186.215C188.921 185.913 188.65 185.585 188.415 185.226C188.176 184.871 187.978 184.496 187.811 184.101C187.65 183.71 187.525 183.298 187.441 182.882C187.358 182.465 187.316 182.038 187.316 181.611C187.316 181.184 187.358 180.762 187.441 180.345C187.525 179.923 187.65 179.517 187.811 179.121C187.978 178.726 188.176 178.351 188.415 177.996C188.65 177.642 188.921 177.314 189.223 177.012C189.525 176.71 189.853 176.439 190.207 176.199C190.566 175.965 190.941 175.762 191.332 175.601C191.728 175.439 192.134 175.314 192.556 175.231C192.973 175.147 193.395 175.106 193.822 175.106C194.249 175.106 194.676 175.147 195.092 175.231C195.514 175.314 195.921 175.439 196.311 175.601Z" fill="#E685B0"/>
<path d="M325.374 206.022C324.967 206.022 324.353 205.616 324.353 205.21C324.353 205.007 320.697 178.772 345.905 169.012C346.519 168.809 346.926 169.012 347.129 169.626C347.332 170.236 347.129 170.642 346.519 170.845C322.728 179.996 325.983 203.788 326.186 204.804C326.389 205.413 325.983 206.022 325.374 206.022Z" fill="#E685B0"/>
<path d="M427.848 272.725C370.306 261.538 342.249 204.804 342.046 204.194C341.842 203.788 342.046 203.179 342.452 202.772C342.858 202.569 343.467 202.772 343.874 203.179C344.077 203.788 371.728 259.507 428.051 270.486C428.66 270.689 428.863 271.095 428.863 271.705C428.863 272.314 428.254 272.725 427.848 272.725Z" fill="#E685B0"/>
<path d="M255.837 268.658H255.634C255.019 268.455 254.816 268.049 255.019 267.434C255.837 264.387 276.368 192.194 314.191 182.84C314.801 182.637 315.207 183.043 315.41 183.658C315.613 184.267 315.207 184.673 314.598 184.877C277.999 193.825 257.259 267.231 257.056 268.049C256.65 268.252 256.243 268.658 255.837 268.658Z" fill="#E685B0"/>
<path d="M445.941 409.986H445.535C444.926 409.783 444.723 409.173 444.926 408.564C452.04 391.074 449.197 336.168 448.993 335.559C448.993 334.949 449.4 334.543 450.009 334.543C450.618 334.543 451.025 334.949 451.025 335.559C451.228 337.793 453.874 391.481 446.754 409.377C446.551 409.783 446.145 409.986 445.941 409.986Z" fill="#E685B0"/>
<path d="M442.691 263.168C442.285 263.168 441.671 262.757 441.671 262.351C438.218 240.392 422.764 218.429 422.561 218.226C422.155 217.819 422.358 217.21 422.764 216.804C423.171 216.397 423.78 216.601 424.186 217.007C424.389 217.21 440.046 239.575 443.707 262.147C443.707 262.554 443.504 262.96 442.691 263.168Z" fill="#E685B0"/>
<path d="M273.728 410.595C273.119 410.595 272.712 410.189 272.712 409.58C272.712 408.158 270.879 372.772 272.712 357.929C272.712 357.319 273.322 356.913 273.931 357.116C274.54 357.116 274.947 357.725 274.744 358.335C272.915 372.975 274.744 409.173 274.744 409.58C274.744 409.986 274.337 410.392 273.728 410.595Z" fill="#E685B0"/>
<path d="M257.055 525.897C256.649 525.897 256.446 525.694 256.243 525.491C247.092 510.236 193.618 468.345 193.212 467.939C192.805 467.533 192.602 466.923 193.009 466.517C193.415 466.111 194.024 465.908 194.43 466.314C196.67 468.142 248.717 509.017 258.071 524.47C258.274 524.882 258.274 525.491 257.665 525.897H257.055Z" fill="#D8784E"/>
<path d="M333.025 357.602C333.385 361.64 340.326 366.637 349.838 366.637C354.392 366.637 361.383 363.943 364.627 358.122C364.761 357.883 364.981 357.775 364.956 357.502C364.949 357.419 364.942 357.37 364.903 357.297C364.799 357.097 364.573 357.087 364.378 357.06C364.258 357.041 364.176 357.054 364.047 357.06C363.815 357.071 363.457 357.137 363.457 357.137C362.971 357.259 362.784 357.296 362.782 357.297C351.957 359.637 345.957 359.637 334.61 356.927C334.351 356.865 333.991 356.693 333.975 356.681C333.779 356.632 333.441 356.634 333.385 356.64C333.329 356.647 333.11 356.625 333.025 356.764C332.887 357.106 332.996 357.276 333.025 357.602Z" fill="#CB6039"/>
<ellipse cx="435.457" cy="336.137" rx="8.5" ry="13.5" fill="#D9D9D9"/>
<path d="M442.909 336.137C442.497 336.137 441.855 336.137 441.855 336.137C441.855 339.362 441.016 342.381 439.758 344.399C439.129 345.405 438.5 346.21 437.661 346.814C436.817 347.418 436.188 347.624 435.35 347.624C434.511 347.624 433.882 347.418 433.043 346.814C431.995 346.009 430.941 344.6 430.102 342.784C429.263 340.972 428.844 338.557 428.844 336.137C428.844 332.912 429.683 329.893 430.941 327.875C431.575 326.869 432.204 326.064 433.043 325.46C433.882 324.856 434.511 324.655 435.35 324.655C436.188 324.655 436.817 324.856 437.661 325.46C438.71 326.265 439.758 327.674 440.597 329.49C441.436 331.302 441.855 333.722 441.855 336.137H442.906H443.957C443.957 332.509 443.118 329.289 441.645 326.869C441.016 325.661 439.968 324.655 438.919 323.845C437.871 323.039 436.608 322.637 435.35 322.637C434.091 322.637 432.833 323.039 431.785 323.845C430.312 324.856 429.054 326.667 428.215 328.881C427.376 330.899 426.957 333.515 426.957 336.137C426.957 339.765 427.796 342.99 429.263 345.405C429.893 346.613 430.941 347.624 431.995 348.429C433.043 349.234 434.301 349.637 435.559 349.637C436.817 349.637 438.081 349.234 439.129 348.429C440.597 347.418 441.855 345.607 442.699 343.393C443.538 341.375 443.957 338.759 443.957 336.137C443.957 336.137 443.318 336.137 442.909 336.137Z" fill="#EAC354"/>
<ellipse cx="264.457" cy="336.137" rx="8.5" ry="13.5" fill="#D9D9D9"/>
<path d="M271.909 336.137C271.497 336.137 270.855 336.137 270.855 336.137C270.855 339.362 270.016 342.381 268.758 344.399C268.129 345.405 267.5 346.21 266.661 346.814C265.817 347.418 265.188 347.624 264.35 347.624C263.511 347.624 262.882 347.418 262.043 346.814C260.995 346.009 259.941 344.6 259.102 342.784C258.263 340.972 257.844 338.557 257.844 336.137C257.844 332.912 258.683 329.893 259.941 327.875C260.575 326.869 261.204 326.064 262.043 325.46C262.882 324.856 263.511 324.655 264.35 324.655C265.188 324.655 265.817 324.856 266.661 325.46C267.71 326.265 268.758 327.674 269.597 329.49C270.436 331.302 270.855 333.722 270.855 336.137H271.906H272.957C272.957 332.509 272.118 329.289 270.645 326.869C270.016 325.661 268.968 324.655 267.919 323.845C266.871 323.039 265.608 322.637 264.35 322.637C263.091 322.637 261.833 323.039 260.785 323.845C259.312 324.856 258.054 326.667 257.215 328.881C256.376 330.899 255.957 333.515 255.957 336.137C255.957 339.765 256.796 342.99 258.263 345.405C258.893 346.613 259.941 347.624 260.995 348.429C262.043 349.234 263.301 349.637 264.559 349.637C265.817 349.637 267.081 349.234 268.129 348.429C269.597 347.418 270.855 345.607 271.699 343.393C272.538 341.375 272.957 338.759 272.957 336.137C272.957 336.137 272.318 336.137 271.909 336.137Z" fill="#EAC354"/>
<circle cx="388.957" cy="300.637" r="2" fill="#D9D9D9"/>
<path d="M403.395 141.079C401.103 147.597 396.822 152.146 394.014 151.07C391.149 150.125 390.715 143.975 393.124 137.508C395.416 130.99 399.697 126.441 402.504 127.517C405.37 128.462 405.804 134.612 403.395 141.079Z" fill="#E2171A"/>
<path d="M406.594 147.201C401.073 151.563 394.891 152.793 392.9 150.185C390.91 147.573 393.728 141.87 399.191 137.64C404.712 133.279 410.895 132.048 412.886 134.657C414.875 137.268 412.056 142.974 406.594 147.201Z" fill="#D60000"/>
<path d="M398.732 137.303C400.802 144.108 399.793 150.361 396.53 151.32C393.264 152.274 388.961 147.678 387.022 140.927C384.953 134.119 385.96 127.87 389.224 126.91C392.359 125.894 396.664 130.496 398.732 137.303Z" fill="#D60000"/>
</svg>
