<svg width="560" height="560" viewBox="0 0 560 560" fill="none" xmlns="http://www.w3.org/2000/svg">
<path d="M391.749 120.064C382.598 66.1989 359.624 41.717 359.624 41.717C359.624 41.717 221.567 40.4942 218.515 44.7792C161.791 127.203 185.02 182.369 165.52 214.977C146.02 247.585 141.663 246.56 155.52 253.605C163.04 257.428 170.515 257.042 177.02 251.661C184.706 245.302 190.864 233.298 190.864 226.358C190.864 226.358 185.716 248.572 193.509 258.391C203.504 270.985 215.666 275.338 233.02 271.664L236.207 256.557L237.52 271.664C304.52 317.315 342.52 274.674 347.52 274.674C352.52 274.674 347.52 234.542 354.02 242.067C354.02 242.067 363.379 271.498 377.02 274.674C393.628 278.542 414.358 261.872 418.02 259.625C429.02 249.592 401.916 180.253 391.749 120.064Z" fill="#A40391"/>
<path d="M386.666 152.301C384.635 165.762 376.499 175.764 368.572 174.536C360.64 173.313 355.76 161.483 357.791 148.016C359.827 134.55 367.958 124.553 375.89 125.776C383.817 126.999 388.697 138.835 386.666 152.301Z" fill="#FFD5B6"/>
<path d="M368.16 156.173H367.754C367.145 155.97 366.941 155.358 367.145 154.951C367.348 154.543 370.603 145.362 376.499 143.527C378.936 142.712 381.176 143.324 383.613 145.158C384.02 145.565 384.223 146.177 383.816 146.584C383.41 146.992 382.801 147.201 382.395 146.788C380.566 145.362 378.733 144.954 377.108 145.565C372.228 146.992 369.181 155.562 369.181 155.562C368.978 155.766 368.572 156.173 368.16 156.173Z" fill="#EA9475"/>
<path d="M324.447 210.243V272.877C324.447 295.728 306.557 314.091 284.598 314.091C262.64 314.091 244.947 295.728 244.947 272.877V210.243H324.447Z" fill="#FFD5B6"/>
<path d="M284.598 199.227C283.583 199.227 271.989 204.531 259.791 210.243H308.385C296.796 204.531 285.614 199.227 284.598 199.227Z" fill="#9D5038"/>
<path d="M308.588 210.243H259.994C254.911 212.688 249.624 215.139 244.947 217.381V240.232C244.947 240.232 268.942 259.41 299.848 259.41C307.775 259.41 315.911 258.188 324.447 255.131V218.405C319.77 215.954 314.077 213.101 308.588 210.243Z" fill="#EA9475"/>
<path d="M366.738 140.669C366.738 142.373 366.707 144.076 366.645 145.774C366.577 147.478 366.483 149.176 366.353 150.869C366.228 152.563 366.066 154.256 365.874 155.938C365.681 157.621 365.457 159.298 365.202 160.971C364.947 162.638 364.66 164.299 364.342 165.951C364.025 167.607 363.676 169.243 363.301 170.873C362.921 172.503 362.509 174.123 362.066 175.722C361.629 177.327 361.155 178.915 360.655 180.488C360.155 182.061 359.624 183.618 359.066 185.16C358.509 186.696 357.921 188.217 357.306 189.722C356.686 191.222 356.04 192.706 355.368 194.164C354.697 195.627 353.999 197.064 353.275 198.48C352.546 199.896 351.796 201.286 351.014 202.655C350.233 204.024 349.431 205.362 348.603 206.679C347.77 207.996 346.915 209.286 346.04 210.546C345.16 211.81 344.259 213.044 343.337 214.246C342.41 215.453 341.462 216.623 340.493 217.768C339.525 218.912 338.535 220.025 337.525 221.102C336.514 222.183 335.483 223.234 334.431 224.247C333.384 225.261 332.311 226.238 331.228 227.184C330.139 228.135 329.035 229.045 327.915 229.917C326.79 230.795 325.655 231.631 324.499 232.436C323.348 233.241 322.181 234.004 320.999 234.735C319.816 235.462 318.618 236.151 317.41 236.805C316.202 237.452 314.983 238.069 313.754 238.639C312.52 239.214 311.28 239.747 310.03 240.243C308.775 240.734 307.52 241.189 306.249 241.607C304.978 242.02 303.707 242.391 302.421 242.725C301.139 243.054 299.853 243.347 298.556 243.598C297.264 243.849 295.967 244.052 294.665 244.22C293.363 244.387 292.061 244.512 290.754 244.596C289.447 244.68 288.139 244.721 286.832 244.721C285.525 244.721 284.217 244.68 282.91 244.596C281.608 244.512 280.301 244.387 278.999 244.22C277.702 244.052 276.4 243.849 275.108 243.598C273.816 243.347 272.525 243.054 271.243 242.725C269.962 242.391 268.686 242.02 267.415 241.607C266.15 241.189 264.889 240.734 263.639 240.243C262.384 239.747 261.145 239.214 259.915 238.639C258.681 238.069 257.462 237.452 256.254 236.805C255.046 236.151 253.853 235.462 252.671 234.735C251.488 234.004 250.316 233.241 249.165 232.436C248.014 231.631 246.874 230.795 245.754 229.917C244.629 229.045 243.525 228.135 242.441 227.184C241.353 226.238 240.285 225.261 239.233 224.247C238.181 223.234 237.15 222.183 236.139 221.102C235.129 220.025 234.139 218.912 233.171 217.768C232.202 216.623 231.254 215.453 230.332 214.246C229.405 213.044 228.504 211.81 227.629 210.546C226.749 209.286 225.895 207.996 225.066 206.679C224.233 205.362 223.431 204.024 222.65 202.655C221.874 201.286 221.118 199.896 220.395 198.48C219.665 197.064 218.967 195.627 218.296 194.164C217.624 192.706 216.978 191.222 216.363 189.722C215.743 188.217 215.16 186.696 214.598 185.16C214.04 183.618 213.509 182.061 213.009 180.488C212.509 178.915 212.04 177.327 211.598 175.722C211.155 174.123 210.749 172.503 210.368 170.873C209.988 169.243 209.639 167.607 209.322 165.951C209.004 164.299 208.717 162.638 208.462 160.971C208.207 159.298 207.983 157.621 207.79 155.938C207.598 154.256 207.441 152.563 207.311 150.869C207.181 149.176 207.087 147.478 207.025 145.774C206.957 144.076 206.926 142.373 206.926 140.669C206.926 138.966 206.957 137.267 207.025 135.564C207.087 133.865 207.181 132.167 207.311 130.469C207.441 128.776 207.598 127.088 207.79 125.4C207.983 123.717 208.207 122.04 208.462 120.368C208.717 118.701 209.004 117.039 209.322 115.388C209.639 113.736 209.988 112.095 210.368 110.465C210.749 108.835 211.155 107.22 211.598 105.616C212.04 104.011 212.509 102.423 213.009 100.85C213.509 99.2771 214.04 97.7198 214.598 96.1835C215.16 94.6419 215.743 93.1213 216.363 91.6215C216.978 90.1166 217.624 88.6377 218.296 87.1745C218.967 85.7166 219.665 84.2743 220.395 82.8634C221.118 81.4473 221.874 80.0521 222.65 78.6829C223.431 77.3191 224.233 75.9761 225.066 74.6592C225.895 73.3424 226.749 72.0516 227.629 70.7923C228.504 69.5277 229.405 68.2997 230.332 67.0926C231.254 65.8907 232.202 64.7149 233.171 63.5705C234.139 62.4261 235.129 61.3183 236.139 60.2366C237.15 59.1549 238.181 58.1097 239.233 57.096C240.285 56.077 241.353 55.0998 242.441 54.154C243.525 53.2081 244.629 52.2936 245.754 51.421C246.874 50.5431 248.014 49.707 249.165 48.9022C250.316 48.1027 251.488 47.3345 252.671 46.6082C253.853 45.8766 255.046 45.1868 256.254 44.5388C257.462 43.8856 258.681 43.2742 259.915 42.6994C261.145 42.1246 262.384 41.5916 263.639 41.0952C264.889 40.604 266.15 40.1493 267.415 39.7365C268.686 39.3237 269.962 38.9474 271.243 38.6182C272.525 38.2838 273.816 37.9912 275.108 37.7403C276.4 37.4947 277.702 37.2857 278.999 37.1185C280.301 36.9513 281.608 36.8258 282.91 36.7422C284.217 36.6586 285.525 36.6168 286.832 36.6168C288.139 36.6168 289.447 36.6586 290.754 36.7422C292.061 36.8258 293.363 36.9513 294.665 37.1185C295.967 37.2857 297.264 37.4947 298.556 37.7403C299.853 37.9912 301.139 38.2838 302.421 38.6182C303.707 38.9474 304.978 39.3237 306.249 39.7365C307.52 40.1493 308.775 40.604 310.03 41.0952C311.28 41.5916 312.52 42.1246 313.754 42.6994C314.983 43.2742 316.202 43.8856 317.41 44.5388C318.618 45.1868 319.816 45.8766 320.999 46.6082C322.181 47.3345 323.348 48.1027 324.499 48.9022C325.655 49.707 326.79 50.5431 327.915 51.421C329.035 52.2936 330.139 53.2081 331.228 54.154C332.311 55.0998 333.384 56.077 334.431 57.096C335.483 58.1097 336.514 59.1549 337.525 60.2366C338.535 61.3183 339.525 62.4261 340.493 63.5705C341.462 64.7149 342.41 65.8907 343.337 67.0926C344.259 68.2997 345.16 69.5277 346.04 70.7923C346.915 72.0516 347.77 73.3424 348.603 74.6592C349.431 75.9761 350.233 77.3191 351.014 78.6829C351.796 80.0521 352.546 81.4473 353.275 82.8634C353.999 84.2743 354.697 85.7166 355.368 87.1745C356.046 88.6377 356.686 90.1166 357.306 91.6215C357.921 93.1213 358.509 94.6419 359.066 96.1835C359.629 97.7198 360.155 99.2771 360.655 100.85C361.155 102.423 361.629 104.011 362.066 105.616C362.509 107.22 362.921 108.835 363.301 110.465C363.676 112.095 364.025 113.736 364.342 115.388C364.66 117.039 364.947 118.701 365.202 120.368C365.457 122.04 365.681 123.717 365.874 125.4C366.066 127.088 366.228 128.776 366.353 130.469C366.483 132.167 366.577 133.865 366.645 135.564C366.707 137.267 366.738 138.966 366.738 140.669Z" fill="#FFD5B6"/>
<path d="M263.046 50.0831C263.046 50.0831 296.187 122.714 366.333 129.45C366.333 129.45 377.109 113.736 381.989 118.021C381.989 118.021 385.041 41.9207 329.328 17.6426C279.515 -4.19002 258.369 38.6547 263.046 50.0831Z" fill="#A40391"/>
<path d="M268.13 48.6566C268.13 48.6566 215.874 114.353 211.604 135.773C211.604 135.773 204.286 121.084 192.9 127.61C192.9 127.61 197.369 11.5235 278.296 14.7843C352.301 17.8465 268.13 48.6566 268.13 48.6566Z" fill="#A40391"/>
<path d="M252.062 150.13C252.062 155.478 248.879 159.657 245.06 159.657C241.246 159.657 238.062 155.311 238.062 150.13C238.062 144.778 241.246 140.599 245.06 140.599C248.879 140.432 252.062 144.778 252.062 150.13Z" fill="#51392A"/>
<ellipse cx="249.02" cy="147.253" rx="2" ry="2.00663" fill="#E685B0"/>
<path d="M329.062 150.13C329.062 155.478 325.883 159.657 322.062 159.657C318.242 159.657 315.062 155.311 315.062 150.13C315.062 144.778 318.242 140.599 322.062 140.599C325.883 140.432 329.062 144.778 329.062 150.13Z" fill="#51392A"/>
<path d="M285.681 181.136L279.582 180.932C273.681 179.093 274.228 174.98 275.853 168.861L277.139 161.514C277.342 160.903 277.952 160.699 278.358 160.903C278.967 161.106 279.176 161.514 278.967 162.131L277.681 169.473C276.259 174.369 275.108 177.463 279.988 178.889L285.681 179.093C286.29 179.093 286.696 179.501 286.696 180.112C286.696 180.729 286.087 181.136 285.681 181.136Z" fill="#EA9475"/>
<path d="M350.136 134.262C349.934 134.281 349.732 134.299 349.511 134.115C338.062 122.033 308.421 129.058 308.219 129.076C307.631 129.335 307.189 128.966 306.95 128.578C306.692 127.988 307.06 127.545 307.446 127.305C307.649 127.287 329.864 117.88 350.596 132.583C351.037 132.952 351.093 133.561 350.927 133.985C350.725 134.004 350.541 134.225 350.136 134.262Z" fill="#9D5038"/>
<path d="M219.637 133.836C219.435 133.813 219.054 133.565 218.874 133.34C218.516 132.89 218.583 132.282 219.234 131.945C240.46 117.688 262.279 127.522 262.481 127.544C263.064 127.815 263.198 128.445 262.952 128.827C262.682 129.413 262.054 129.547 261.673 129.3C261.471 129.277 230.063 122.535 220.293 133.499C220.068 133.679 219.844 133.859 219.637 133.836Z" fill="#9D5038"/>
<path d="M298.936 202.035C299.147 202.035 299.559 202.201 299.77 202.605C300.191 203.413 299.191 203.626 298.559 204.434C284.537 217.582 267.147 208.035 266.936 208.035C266.304 207.631 265.932 207.773 266.142 206.964C266.353 205.752 267.514 206.131 267.936 206.535C269.563 207.747 286.056 214.603 298.289 202.605C298.5 202.201 298.72 202.035 298.936 202.035Z" fill="#C2006F"/>
<path d="M245.354 63.9571C245.354 63.9571 254.505 109.451 267.926 118.021H299.442C299.442 118.021 257.963 79.0539 263.046 48.0399C266.296 28.0468 245.354 63.9571 245.354 63.9571Z" fill="#A40391"/>
<path d="M262.437 51.3059C262.437 51.3059 264.265 96.3977 336.442 121.083C336.442 121.083 272.603 100.275 266.702 49.4717L266.093 41.7169L262.437 51.3059Z" fill="#A40391"/>
<path d="M186.592 152.097C188.629 165.559 196.759 175.357 204.691 174.129C212.618 172.906 217.499 161.07 215.467 147.609C213.431 134.142 205.301 124.349 197.368 125.572C189.238 126.999 184.561 138.835 186.592 152.097Z" fill="#FFD5B6"/>
<path d="M205.098 156.173C204.692 156.173 204.286 155.97 204.083 155.562C204.083 155.562 201.031 146.992 196.15 145.566C194.525 144.954 192.697 145.362 190.864 146.788C190.458 147.201 189.848 146.992 189.442 146.585C189.036 146.177 189.239 145.566 189.645 145.158C192.083 143.324 194.322 142.916 196.76 143.528C202.656 145.362 205.911 154.543 206.114 154.951C206.317 155.562 206.114 155.97 205.505 156.173H205.098Z" fill="#EA9475"/>
<path d="M262.436 52.3248C262.03 52.3248 261.415 51.9172 261.415 51.5097C261.415 51.3059 257.759 24.9845 282.967 15.1917C283.582 14.9879 283.988 15.1917 284.191 15.8083C284.394 16.4197 284.191 16.8273 283.582 17.0311C259.79 26.2125 263.046 50.0831 263.249 51.1021C263.452 51.7135 263.046 52.3248 262.436 52.3248Z" fill="#E685B0"/>
<path d="M364.911 119.249C307.369 108.025 279.312 51.1021 279.109 50.4907C278.906 50.0831 279.109 49.4717 279.515 49.0641C279.921 48.8603 280.531 49.0641 280.937 49.4717C281.14 50.0831 308.791 105.987 365.114 117.002C365.724 117.206 365.927 117.614 365.927 118.225C365.927 118.836 365.317 119.249 364.911 119.249Z" fill="#E685B0"/>
<path d="M192.9 115.168H192.697C192.082 114.964 191.879 114.557 192.082 113.94C192.9 110.883 213.431 38.451 251.254 29.0658C251.863 28.862 252.269 29.2696 252.473 29.8863C252.676 30.4976 252.269 30.9052 251.66 31.109C215.061 40.0866 194.322 113.736 194.118 114.557C193.712 114.761 193.306 115.168 192.9 115.168Z" fill="#E685B0"/>
<path d="M383.004 256.965H382.598C381.988 256.761 381.785 256.15 381.988 255.538C389.103 237.991 386.259 182.902 386.056 182.291C386.056 181.68 386.462 181.272 387.072 181.272C387.681 181.272 388.087 181.68 388.087 182.291C388.29 184.533 390.936 238.398 383.816 256.353C383.613 256.761 383.207 256.965 383.004 256.965Z" fill="#E685B0"/>
<path d="M379.754 109.66C379.348 109.66 378.733 109.248 378.733 108.84C375.28 86.8088 359.827 64.7724 359.624 64.5686C359.218 64.161 359.421 63.5496 359.827 63.142C360.233 62.7344 360.843 62.9382 361.249 63.3458C361.452 63.5496 377.108 85.9884 380.77 108.636C380.77 109.044 380.566 109.451 379.754 109.66Z" fill="#E685B0"/>
<path d="M210.791 257.576C210.182 257.576 209.776 257.169 209.776 256.557C209.776 255.131 207.942 219.628 209.776 204.735C209.776 204.123 210.385 203.716 210.995 203.92C211.604 203.92 212.01 204.531 211.807 205.142C209.979 219.832 211.807 256.15 211.807 256.557C211.807 256.965 211.401 257.372 210.791 257.576Z" fill="#E685B0"/>
<path fill-rule="evenodd" clip-rule="evenodd" d="M381.02 182.871C381.02 185.501 380.6 188.126 379.761 190.151C378.917 192.372 377.659 194.189 376.192 195.204C375.143 196.012 373.88 196.416 372.622 196.416C372.604 196.416 372.587 196.416 372.57 196.416C372.553 196.416 372.536 196.416 372.52 196.416C370.646 196.416 368.915 195.45 367.51 193.815C367.047 193.315 366.636 192.766 366.326 192.17C364.858 189.747 364.02 186.511 364.02 182.871C364.02 180.241 364.439 177.616 365.278 175.591C366.116 173.37 367.374 171.553 368.847 170.538C369.896 169.73 371.154 169.326 372.412 169.326C372.43 169.326 372.449 169.326 372.467 169.326C372.484 169.326 372.502 169.326 372.52 169.326C374.429 169.326 376.192 170.33 377.611 172.024C378.039 172.498 378.418 173.013 378.708 173.572C380.181 176 381.02 179.231 381.02 182.871Z" fill="#EABD4E"/>
<path fill-rule="evenodd" clip-rule="evenodd" d="M211.436 183.08C211.436 185.71 211.016 188.335 210.177 190.359C209.333 192.581 208.075 194.398 206.608 195.413C205.559 196.221 204.296 196.624 203.038 196.624C203.02 196.624 203.003 196.624 202.986 196.624C202.969 196.624 202.952 196.624 202.936 196.624C201.062 196.624 199.331 195.659 197.926 194.023C197.463 193.524 197.052 192.975 196.742 192.379C195.274 189.956 194.436 186.72 194.436 183.08C194.436 180.449 194.855 177.824 195.694 175.8C196.532 173.579 197.79 171.761 199.264 170.746C200.312 169.939 201.57 169.535 202.828 169.535C202.846 169.535 202.865 169.535 202.883 169.535C202.9 169.535 202.918 169.535 202.936 169.535C204.845 169.535 206.608 170.539 208.027 172.233C208.455 172.706 208.834 173.222 209.124 173.781C210.597 176.209 211.436 179.44 211.436 183.08Z" fill="#EABD4E"/>
<ellipse cx="326.02" cy="147.253" rx="2" ry="2.00663" fill="#E685B0"/>
<path d="M211.562 149.624C211.562 167.13 225.266 181.234 242.062 181.234C258.859 181.234 272.562 167.13 272.562 149.624C272.562 132.118 258.859 118.015 242.062 118.015C225.266 118.015 211.562 132.118 211.562 149.624Z" stroke="#EABD4E" stroke-width="3"/>
<path d="M293.562 149.624C293.562 167.086 307.67 181.234 325.062 181.234C342.455 181.234 356.562 167.086 356.562 149.624C356.562 132.162 342.455 118.015 325.062 118.015C307.67 118.015 293.562 132.162 293.562 149.624Z" stroke="#EABD4E" stroke-width="3"/>
<path d="M294.062 142.601C292.339 141.425 285.164 137.397 282.062 137.083C278.961 136.769 277.909 139.072 273.062 142.601" stroke="#EABD4E" stroke-width="3"/>
<path d="M260.077 257.708L258.669 266.451C258.949 266.451 259.51 266.731 259.79 266.731L261.198 257.988C260.918 257.988 260.638 257.988 260.077 257.708Z" fill="#FFD5B6"/>
<path d="M156.894 533.4C156.894 533.4 215.394 555.9 313.894 543.4C314.736 539.468 316.894 535.9 316.894 535.9L379.894 530.4L397.936 520.035C409.936 524.035 408.936 528.535 430.176 527.987C446.234 529.115 460.877 524.603 468.206 509.379C483.136 478.636 468.206 441.973 459.756 411.797C454.684 394.029 451.02 376.262 452.715 357.934C454.403 340.166 455.812 323.246 443.978 308.295C418.91 276.144 368.936 282.535 331.436 265.535C331.436 265.535 289.338 292.783 236.666 269.095C219.487 274.175 183.713 273.327 166.527 277.839C152.725 281.503 140.051 289.399 130.473 300.119C120.055 311.679 114.135 325.502 111.606 340.726C108.502 359.622 108.789 378.798 103.437 397.133C94.1395 428.717 73.8567 463.692 94.1395 495.836C102.589 509.092 156.894 533.4 156.894 533.4Z" fill="#E685B0"/>
<path d="M344.692 328.954C344.692 328.954 339.506 324.266 332.745 309.882C329.088 302.267 328.801 294.09 323.168 283.651C318.943 270.115 317.255 259.963 316.974 257.14C316.694 254.884 316.694 252.348 317.255 250.092C318.102 247.556 319.791 245.3 321.479 243.324C323.448 241.068 325.424 237.116 325.424 235.148C324.576 226.684 313.878 234.58 311.054 237.404C307.397 240.788 304.3 244.732 301.484 248.683C299.508 251.22 296.972 254.043 295.003 256.86C292.747 255.451 290.498 254.043 288.522 252.348C281.761 247.556 275.568 240.788 268.807 235.988C263.174 232.044 258.935 228.035 252.435 225.035C251.027 223.562 246.435 222.535 241.935 222.535C239.399 223.095 234.442 221.499 233.033 224.035C229.369 230.523 241.763 235.092 244.299 235.94C251.341 237.916 257.261 246.988 260.358 253.756C256.693 252.628 253.029 251.787 249.372 251.787C245.708 251.787 241.203 252.348 238.666 255.171C236.698 257.707 236.978 261.091 239.794 262.78C240.075 262.78 240.355 263.067 240.635 263.067C238.386 263.628 236.13 264.475 234.442 265.884C232.473 267.579 231.065 270.683 233.033 272.939C235.289 275.755 241.203 275.195 244.299 275.755C247.964 276.323 251.341 277.451 254.437 279.139C250.78 278.011 246.836 277.164 242.891 276.883C238.666 276.323 233.594 276.036 230.217 279.42C228.248 281.676 227.681 285.059 229.657 287.315C232.186 290.419 236.698 290.139 240.355 290.139C244.019 290.139 246.555 291.267 249.092 293.803C250.78 295.779 252.469 297.755 254.157 299.73C257.261 303.114 260.358 306.498 264.015 309.315C268.239 312.419 272.471 313.266 277.256 314.955C282.889 316.931 286.554 322.29 290.211 326.802C297.252 335.826 297.805 333.002 305.694 344.849C305.407 344.849 325.818 329.514 344.692 328.954Z" fill="#FFD5B6"/>
<path d="M324.857 234.58C324.857 240.501 319.791 244.172 317.535 249.244C315.566 254.044 316.127 259.396 317.255 264.195C318.663 269.835 319.511 275.756 321.76 281.115C323.736 286.475 326.832 291.267 327.68 297.187C327.68 298.035 329.088 298.035 329.088 297.187C328.521 292.395 326.552 288.444 324.576 283.932C322.04 278.292 320.919 272.091 319.511 265.884C317.815 259.683 316.694 253.196 320.352 247.276C322.888 243.044 326.265 239.66 326.552 234.58C326.265 233.733 324.857 233.733 324.857 234.58Z" fill="#EA9475"/>
<path d="M233.753 225.581C236.85 220.788 245.858 223.035 248.244 224.069C253.936 226.535 266.436 234.535 268.436 236.035C270.436 237.535 274.72 241.068 278.665 244.733C282.329 248.117 285.426 251.788 289.931 254.044C290.778 254.324 291.339 253.196 290.498 252.916C284.865 249.812 280.921 244.733 275.848 240.501C271.624 236.837 267.936 234.581 262.936 231.035C258.936 228.199 246.971 221.38 242.459 221.66C239.936 221.035 233.753 222.035 232.625 224.733C232.345 225.581 233.473 226.148 233.753 225.581Z" fill="#EA9475"/>
<path d="M302.892 247.556C305.421 244.452 308.238 241.348 311.341 238.244C314.158 235.428 317.255 233.172 321.199 232.324C322.04 232.044 321.759 230.916 320.919 231.196C316.974 232.324 313.878 234.3 311.054 237.116C307.957 240.22 304.861 243.604 302.044 246.988C301.484 247.275 302.324 248.403 302.892 247.556Z" fill="#EA9475"/>
<path d="M242.932 234.38C246.742 235.403 250.655 238.815 253.404 241.599C255.955 244.039 258.361 247.021 259.81 250.326C260.211 251.021 261.441 250.764 261.045 250.077C259.67 246.495 256.994 243.44 254.443 241C251.489 237.871 247.305 234.386 243.224 233.291C242.406 233.071 242.113 234.161 242.932 234.38Z" fill="#EA9475"/>
<path d="M290.498 327.363C300.916 325.955 311.902 323.418 319.223 315.522C319.791 314.955 318.943 314.114 318.382 314.675C311.054 322.29 300.636 325.107 290.498 326.235C289.93 326.235 289.93 327.363 290.498 327.363Z" fill="#EA9475"/>
<path d="M260.357 254.324C267.959 256.58 274.72 260.524 281.481 265.036C282.042 265.604 282.889 264.476 282.042 263.908C275.288 259.396 268.527 255.452 260.638 253.196C259.79 252.915 259.51 254.043 260.357 254.324Z" fill="#EA9475"/>
<path d="M240.355 263.628C250.78 263.628 260.077 267.859 269.367 272.091C270.215 272.371 270.776 271.243 269.935 270.963C260.638 266.731 250.78 262.219 240.355 262.219C239.794 262.5 239.794 263.628 240.355 263.628Z" fill="#EA9475"/>
<path d="M253.876 279.42C257.54 280.268 261.198 281.676 264.301 283.932C265.142 284.499 265.71 283.371 264.862 282.804C261.485 280.548 257.821 279.14 253.876 278.292C253.316 278.012 253.029 279.14 253.876 279.42Z" fill="#EA9475"/>
<path d="M294.723 257.141C299.228 259.396 303.453 261.94 307.117 265.324C310.774 268.708 313.591 272.372 316.694 276.323C317.255 276.884 318.103 276.036 317.535 275.476C314.438 271.524 311.342 267.58 307.677 264.476C304.013 261.092 299.788 258.556 295.284 256.3C294.723 255.732 293.875 256.86 294.723 257.141Z" fill="#EA9475"/>
<path d="M390.444 287.907C378.898 312.442 373.265 339.234 373.545 366.306C373.545 367.154 374.953 367.154 374.953 366.306C374.673 339.514 380.306 313.003 391.572 288.467C391.852 287.907 390.731 287.059 390.444 287.907Z" fill="#E8C3D0"/>
<path d="M148.486 457.4C162.288 459.656 175.81 462.472 188.765 467.552C201.446 472.631 214.12 475.168 227.642 476.015C257.776 477.984 287.636 478.832 317.496 484.472C318.337 484.752 318.617 483.344 317.776 483.344C289.324 477.704 260.592 476.576 231.579 474.887C216.937 474.04 203.695 472.064 189.893 466.704C176.371 461.344 162.856 458.248 148.767 455.992C148.206 455.992 147.646 457.12 148.486 457.4Z" fill="#E8C3D0"/>
<path d="M156.095 534.342C183.132 542.238 210.456 548.158 238.621 548.439C263.409 548.719 288.484 546.75 312.984 543.646C313.832 543.646 313.832 542.238 312.984 542.238C289.044 545.335 264.537 547.03 240.317 547.03C211.584 547.03 183.98 540.823 156.656 532.927C155.528 532.927 155.248 534.055 156.095 534.342Z" fill="#E8C3D0"/>
<path d="M317.209 484.191C317.776 489.271 318.057 494.063 317.496 499.136C317.496 499.983 318.617 499.983 318.904 499.136C319.465 494.063 319.185 488.984 318.337 483.911C318.337 483.063 316.929 483.344 317.209 484.191Z" fill="#E8C3D0"/>
<path d="M396.077 518.983C389.604 514.191 383.123 512.679 377.49 507.319C371.577 501.96 362.28 492.088 357.207 485.88C354.671 486.168 343.973 495.472 340.589 496.88C333.547 499.423 320.313 499.423 318.337 499.704C318.617 524.8 316.936 536.035 316.936 536.035C331.866 534.907 344.533 534.952 359.463 534.391C365.657 534.111 372.137 533.543 378.051 531.287C384.251 529.031 391.853 524.343 398.053 520.111L396.077 518.983Z" fill="#FFD5B6"/>
<path d="M315.68 532.647C315.112 536.031 314.264 539.695 313.424 543.079C313.143 543.927 314.552 544.207 314.552 543.366C315.392 539.982 316.24 536.311 316.801 532.927C317.088 532.079 315.68 531.799 315.68 532.647Z" fill="#E8C3D0"/>
<path d="M105.391 361.794C105.391 362.074 105.391 362.074 105.391 362.361C105.111 362.361 105.391 362.074 105.391 361.794Z" fill="white"/>
<path d="M338.901 498.008C345.942 503.367 350.166 512.111 349.886 520.855C349.886 521.703 351.294 521.703 351.294 520.855C351.294 511.551 347.07 502.807 339.748 497.167C339.181 496.599 338.34 497.447 338.901 498.008Z" fill="#EA9475"/>
<path d="M167.641 281.419C178.346 311.034 176.938 342.898 171.866 373.641C169.617 387.738 166.513 402.121 166.233 416.505C165.672 431.456 167.641 446.961 171.585 461.345C171.866 461.064 170.655 461.625 170.935 461.345H169.935H171.585C171.866 461.912 172.994 461.632 172.713 460.784C168.489 445.272 166.793 429.48 167.641 413.401C168.489 397.329 172.146 381.537 174.402 365.745C178.626 337.539 178.626 308.211 168.769 281.139C168.769 280.291 167.361 280.571 167.641 281.419Z" fill="#E8C3D0"/>
<path d="M301.998 346.282C299.462 348.258 297.493 350.794 295.525 353.05C294.957 353.898 293.269 355.306 293.269 356.434C293.269 358.13 295.805 360.946 296.365 362.074C303.126 372.514 310.167 382.946 316.088 394.226C323.97 408.89 326.786 424.969 331.859 440.761C337.211 458.248 345.38 473.76 357.494 487.576C364.535 495.752 372.417 503.087 380.306 510.703C387.628 517.471 399.236 520.391 408.246 524.623C409.094 524.903 409.654 523.775 408.814 523.495C392.756 516.16 386.935 517.535 363.968 492.936C350.733 479.112 340.868 463.888 334.675 445.84C329.89 431.456 327.634 416.225 321.433 402.409C316.368 391.129 309.887 380.69 303.126 370.258C300.59 366.306 298.054 362.362 295.525 358.41C294.397 356.722 294.397 357.002 295.237 355.594C296.365 352.49 300.59 349.106 303.126 347.13C303.694 346.85 302.846 345.722 301.998 346.282Z" fill="#E8C3D0"/>
<path d="M343.124 329.082C356.366 340.642 365.656 355.306 375.801 369.409C385.091 382.385 396.644 392.537 407.63 403.536C429.882 425.816 447.061 453.736 451.573 485.319C451.573 486.167 452.981 485.88 452.694 485.039C448.469 454.576 432.138 427.224 411.007 405.225C398.613 392.537 385.659 381.817 375.521 367.153C365.943 353.337 356.646 339.234 343.972 327.954C343.404 327.674 342.564 328.514 343.124 329.082Z" fill="#E8C3D0"/>
</svg>
