<svg width="1000" height="1000" viewBox="0 0 1000 1000" fill="none" xmlns="http://www.w3.org/2000/svg">
<path d="M608.687 380.171C599.535 326.483 576.562 302.082 576.562 302.082C576.562 302.082 438.504 300.864 435.452 305.134C378.728 387.285 401.958 442.27 382.458 474.77C362.957 507.27 358.601 506.249 372.457 513.27C379.977 517.08 387.453 516.695 393.957 511.332C401.644 504.995 407.801 493.03 407.801 486.114C407.801 486.114 402.654 508.253 410.447 518.041C420.442 530.593 432.603 534.931 449.957 531.27L453.145 516.212L454.457 531.27C521.458 576.77 559.457 534.27 564.457 534.27C569.457 534.27 564.457 494.27 570.957 501.77C570.957 501.77 580.316 531.103 593.957 534.27C610.565 538.125 631.296 521.509 634.957 519.27C645.957 509.27 618.853 440.16 608.687 380.171Z" fill="#A40391"/>
<path d="M603.603 412.301C601.572 425.718 593.436 435.687 585.509 434.463C577.577 433.244 572.697 421.452 574.728 408.03C576.764 394.608 584.895 384.645 592.827 385.864C600.754 387.082 605.634 398.879 603.603 412.301Z" fill="#FFD5B6"/>
<path d="M585.098 416.16H584.691C584.082 415.957 583.879 415.348 584.082 414.942C584.285 414.535 587.54 405.384 593.436 403.556C595.874 402.744 598.113 403.353 600.551 405.181C600.957 405.587 601.16 406.197 600.754 406.603C600.348 407.009 599.738 407.218 599.332 406.806C597.504 405.384 595.671 404.978 594.046 405.587C589.165 407.009 586.118 415.551 586.118 415.551C585.915 415.754 585.509 416.16 585.098 416.16Z" fill="#EA9475"/>
<path d="M541.384 470.051V532.478C541.384 555.254 523.493 573.556 501.535 573.556C479.576 573.556 461.884 555.254 461.884 532.478V470.051H541.384Z" fill="#FFD5B6"/>
<path d="M501.535 459.072C500.519 459.072 488.925 464.358 476.728 470.051H525.321C513.733 464.358 502.55 459.072 501.535 459.072Z" fill="#9D5038"/>
<path d="M525.524 470.051H476.931C471.847 472.489 466.561 474.931 461.884 477.166V499.942C461.884 499.942 485.879 519.056 516.785 519.056C524.712 519.056 532.847 517.837 541.384 514.791V478.186C536.707 475.744 531.014 472.9 525.524 470.051Z" fill="#F09C7C"/>
<path d="M583.676 400.707C583.676 402.405 583.645 404.103 583.582 405.796C583.514 407.494 583.421 409.187 583.29 410.874C583.165 412.562 583.004 414.249 582.811 415.926C582.618 417.603 582.395 419.275 582.139 420.942C581.884 422.603 581.598 424.259 581.28 425.905C580.962 427.556 580.613 429.187 580.238 430.812C579.858 432.437 579.447 434.051 579.004 435.645C578.566 437.244 578.092 438.827 577.592 440.395C577.092 441.963 576.561 443.515 576.004 445.051C575.447 446.582 574.858 448.098 574.243 449.598C573.624 451.093 572.978 452.572 572.306 454.025C571.634 455.483 570.936 456.916 570.212 458.327C569.483 459.739 568.733 461.124 567.952 462.489C567.171 463.853 566.369 465.187 565.54 466.499C564.707 467.812 563.853 469.098 562.978 470.353C562.098 471.614 561.197 472.843 560.275 474.041C559.348 475.244 558.4 476.41 557.431 477.551C556.462 478.692 555.473 479.801 554.462 480.874C553.452 481.952 552.421 482.999 551.368 484.009C550.322 485.02 549.249 485.994 548.165 486.937C547.077 487.884 545.973 488.791 544.853 489.66C543.728 490.535 542.592 491.369 541.436 492.171C540.285 492.973 539.118 493.733 537.936 494.463C536.754 495.187 535.556 495.874 534.348 496.525C533.139 497.171 531.921 497.785 530.691 498.353C529.457 498.926 528.217 499.457 526.967 499.952C525.712 500.442 524.457 500.895 523.186 501.312C521.915 501.723 520.645 502.093 519.358 502.426C518.077 502.754 516.79 503.046 515.493 503.296C514.202 503.546 512.905 503.749 511.603 503.916C510.301 504.082 508.999 504.207 507.691 504.291C506.384 504.374 505.077 504.416 503.77 504.416C502.462 504.416 501.155 504.374 499.848 504.291C498.546 504.207 497.238 504.082 495.936 503.916C494.639 503.749 493.337 503.546 492.046 503.296C490.754 503.046 489.462 502.754 488.181 502.426C486.9 502.093 485.624 501.723 484.353 501.312C483.087 500.895 481.827 500.442 480.577 499.952C479.322 499.457 478.082 498.926 476.853 498.353C475.618 497.785 474.4 497.171 473.191 496.525C471.983 495.874 470.79 495.187 469.608 494.463C468.426 493.733 467.254 492.973 466.103 492.171C464.952 491.369 463.811 490.535 462.691 489.66C461.566 488.791 460.462 487.884 459.379 486.937C458.29 485.994 457.223 485.02 456.171 484.009C455.118 482.999 454.087 481.952 453.077 480.874C452.066 479.801 451.077 478.692 450.108 477.551C449.139 476.41 448.191 475.244 447.27 474.041C446.342 472.843 445.441 471.614 444.566 470.353C443.686 469.098 442.832 467.812 442.004 466.499C441.171 465.187 440.368 463.853 439.587 462.489C438.811 461.124 438.056 459.739 437.332 458.327C436.603 456.916 435.905 455.483 435.233 454.025C434.561 452.572 433.915 451.093 433.301 449.598C432.681 448.098 432.098 446.582 431.535 445.051C430.978 443.515 430.447 441.963 429.947 440.395C429.447 438.827 428.978 437.244 428.535 435.645C428.092 434.051 427.686 432.437 427.306 430.812C426.926 429.187 426.577 427.556 426.259 425.905C425.941 424.259 425.655 422.603 425.4 420.942C425.145 419.275 424.921 417.603 424.728 415.926C424.535 414.249 424.379 412.562 424.249 410.874C424.118 409.187 424.025 407.494 423.962 405.796C423.895 404.103 423.863 402.405 423.863 400.707C423.863 399.009 423.895 397.317 423.962 395.619C424.025 393.926 424.118 392.233 424.249 390.541C424.379 388.853 424.535 387.171 424.728 385.489C424.921 383.812 425.145 382.14 425.4 380.473C425.655 378.812 425.941 377.155 426.259 375.509C426.577 373.864 426.926 372.228 427.306 370.603C427.686 368.978 428.092 367.369 428.535 365.77C428.978 364.171 429.447 362.588 429.947 361.02C430.447 359.452 430.978 357.9 431.535 356.369C432.098 354.832 432.681 353.317 433.301 351.822C433.915 350.322 434.561 348.848 435.233 347.39C435.905 345.937 436.603 344.499 437.332 343.093C438.056 341.681 438.811 340.291 439.587 338.926C440.368 337.567 441.171 336.228 442.004 334.916C442.832 333.603 443.686 332.317 444.566 331.062C445.441 329.801 446.342 328.577 447.27 327.374C448.191 326.176 449.139 325.004 450.108 323.864C451.077 322.723 452.066 321.619 453.077 320.541C454.087 319.463 455.118 318.421 456.171 317.41C457.223 316.395 458.29 315.421 459.379 314.478C460.462 313.535 461.566 312.624 462.691 311.754C463.811 310.879 464.952 310.046 466.103 309.244C467.254 308.447 468.426 307.681 469.608 306.957C470.79 306.228 471.983 305.541 473.191 304.895C474.4 304.244 475.618 303.634 476.853 303.062C478.082 302.489 479.322 301.957 480.577 301.463C481.827 300.973 483.087 300.52 484.353 300.108C485.624 299.697 486.9 299.322 488.181 298.994C489.462 298.66 490.754 298.369 492.046 298.119C493.337 297.874 494.639 297.666 495.936 297.499C497.238 297.332 498.546 297.207 499.848 297.124C501.155 297.041 502.462 296.999 503.77 296.999C505.077 296.999 506.384 297.041 507.691 297.124C508.999 297.207 510.301 297.332 511.603 297.499C512.905 297.666 514.202 297.874 515.493 298.119C516.79 298.369 518.077 298.66 519.358 298.994C520.645 299.322 521.915 299.697 523.186 300.108C524.457 300.52 525.712 300.973 526.967 301.463C528.217 301.957 529.457 302.489 530.691 303.062C531.921 303.634 533.139 304.244 534.348 304.895C535.556 305.541 536.754 306.228 537.936 306.957C539.118 307.681 540.285 308.447 541.436 309.244C542.592 310.046 543.728 310.879 544.853 311.754C545.973 312.624 547.077 313.535 548.165 314.478C549.249 315.421 550.322 316.395 551.368 317.41C552.421 318.421 553.452 319.463 554.462 320.541C555.473 321.619 556.462 322.723 557.431 323.864C558.4 325.004 559.348 326.176 560.275 327.374C561.197 328.577 562.098 329.801 562.978 331.062C563.853 332.317 564.707 333.603 565.54 334.916C566.369 336.228 567.171 337.567 567.952 338.926C568.733 340.291 569.483 341.681 570.212 343.093C570.936 344.499 571.634 345.937 572.306 347.39C572.983 348.848 573.624 350.322 574.243 351.822C574.858 353.317 575.447 354.832 576.004 356.369C576.566 357.9 577.092 359.452 577.592 361.02C578.092 362.588 578.566 364.171 579.004 365.77C579.447 367.369 579.858 368.978 580.238 370.603C580.613 372.228 580.962 373.864 581.28 375.509C581.598 377.155 581.884 378.812 582.139 380.473C582.395 382.14 582.618 383.812 582.811 385.489C583.004 387.171 583.165 388.853 583.29 390.541C583.421 392.233 583.514 393.926 583.582 395.619C583.645 397.317 583.676 399.009 583.676 400.707Z" fill="#FFD5B6"/>
<path d="M479.983 310.421C479.983 310.421 513.123 382.811 583.269 389.525C583.269 389.525 594.045 373.863 598.926 378.134C598.926 378.134 601.978 302.285 546.264 278.087C496.452 256.327 475.306 299.03 479.983 310.421Z" fill="#A40391"/>
<path d="M485.066 308.999C485.066 308.999 432.811 374.478 428.54 395.827C428.54 395.827 421.222 381.187 409.837 387.692C409.837 387.692 414.306 271.989 495.233 275.239C569.238 278.291 485.066 308.999 485.066 308.999Z" fill="#A40391"/>
<path d="M474.696 412.098C474.696 418.603 471.644 423.686 467.983 423.686C464.326 423.686 461.274 418.4 461.274 412.098C461.274 405.588 464.326 400.504 467.983 400.504C471.644 400.301 474.696 405.588 474.696 412.098Z" fill="#51392A"/>
<circle cx="471.957" cy="407.27" r="2" fill="#D9D9D9"/>
<path d="M545.858 412.098C545.858 418.603 542.811 423.686 539.15 423.686C535.488 423.686 532.441 418.4 532.441 412.098C532.441 405.588 535.488 400.504 539.15 400.504C542.811 400.301 545.858 405.588 545.858 412.098Z" fill="#51392A"/>
<path d="M506.618 445.041L500.519 444.838C494.618 443.004 491.165 436.905 492.79 430.806L498.077 411.483C498.28 410.874 498.889 410.671 499.295 410.874C499.905 411.077 500.113 411.483 499.905 412.098L494.618 431.416C493.196 436.296 496.045 441.379 500.926 442.801L506.618 443.004C507.228 443.004 507.634 443.41 507.634 444.02C507.634 444.634 507.025 445.041 506.618 445.041Z" fill="#EA9475"/>
<path d="M567.187 393.715C566.985 393.739 566.784 393.763 566.558 393.586C546.322 387.242 525.341 389.716 525.14 389.74C524.559 390.015 524.107 389.66 523.857 389.28C523.583 388.699 523.938 388.248 524.317 387.998C524.519 387.974 546.459 384.97 567.599 392.029C568.05 392.384 568.123 392.989 567.97 393.417C567.768 393.441 567.59 393.667 567.187 393.715Z" fill="#A8664C"/>
<path d="M440.574 393.897C440.372 393.874 439.99 393.627 439.811 393.403C439.452 392.954 439.52 392.348 440.17 392.012C461.396 377.803 483.216 387.604 483.418 387.626C484.001 387.896 484.135 388.524 483.888 388.905C483.619 389.488 482.991 389.622 482.609 389.375C482.407 389.353 461.35 380.051 441.229 393.561C441.005 393.74 440.781 393.92 440.574 393.897Z" fill="#A8664C"/>
<path d="M508.355 474.776C508.467 474.776 508.69 474.887 508.802 474.998C509.025 475.22 509.025 475.553 508.69 475.776C501.267 475.39 496.445 475.311 496.334 475.311C495.999 475.2 495.887 474.867 495.999 474.645C496.11 474.311 496.445 474.2 496.668 474.311C496.78 474.311 501.542 474.296 508.018 474.998C508.129 474.887 508.241 474.776 508.355 474.776Z" fill="#A8664C"/>
<path d="M664.598 618.296C660.124 599.587 611.327 577.624 576.561 555.254C566.598 548.749 547.28 538.785 542.197 528.207C542.197 528.207 529.796 539.801 501.738 539.801C472.66 539.801 461.275 527.801 461.275 527.801C457.619 538.379 442.978 550.577 433.827 555.051C397.431 573.353 346.4 589.421 341.113 619.718C335.218 654.082 356.16 711.228 369.577 751.692C389.301 811.072 397.634 853.978 397.634 853.978H603.4C603.4 853.978 615.395 812.697 636.134 764.91C655.452 720.785 674.968 661.608 664.598 618.296Z" fill="#E685B0"/>
<path d="M397.837 854.385V881.838L603.603 880.822V854.385H397.837Z" fill="#63403B"/>
<path d="M628.202 945.692C623.53 946.504 618.853 947.114 614.176 947.723C605.228 948.942 596.488 949.76 587.54 950.572C558.056 953.01 528.577 952.806 499.499 950.775C470.223 948.739 441.556 944.468 413.493 938.572C401.092 935.931 388.895 932.879 376.895 929.624C388.285 896.885 398.04 879.4 398.04 879.4H603.806C603.806 879.4 609.296 893.223 617.02 913.765C620.275 923.119 624.139 933.895 628.202 945.692Z" fill="#F2D3C9"/>
<path d="M499.296 949.145C498.483 949.145 497.874 948.535 497.874 947.723C497.671 918.239 499.092 895.666 501.738 880.416C501.941 879.603 502.551 879.192 503.363 879.192C504.176 879.4 504.582 880.009 504.582 880.822C501.941 895.869 500.519 918.239 500.723 947.52C500.723 948.535 500.113 949.145 499.296 949.145Z" fill="#EAC0B5"/>
<path d="M527.764 951.791C526.951 951.791 526.337 951.181 526.337 950.369C526.337 919.051 523.696 881.228 523.493 881.025C523.493 880.213 524.103 879.603 524.915 879.4C525.728 879.4 526.337 880.01 526.54 880.822C526.54 881.228 529.186 919.051 529.389 950.369C529.186 950.978 528.576 951.791 527.764 951.791Z" fill="#EAC0B5"/>
<path d="M413.696 937.353C412.884 937.353 412.274 936.541 412.274 935.728C412.681 930.436 412.884 925.962 413.087 923.119C413.29 919.457 413.29 919.051 413.493 918.848C413.696 918.035 414.509 917.629 415.326 917.832C416.139 918.035 416.545 918.848 416.342 919.457C416.342 919.864 416.139 921.285 416.139 923.119C415.936 925.962 415.733 930.436 415.326 935.728C414.92 936.744 414.306 937.353 413.696 937.353Z" fill="#EAC0B5"/>
<path d="M587.134 950.166C586.525 950.166 585.915 949.76 585.712 948.942C582.051 926.171 580.832 909.291 580.832 909.088C580.832 908.275 581.441 907.666 582.254 907.463C583.066 907.463 583.676 908.072 583.879 908.885C583.879 909.088 584.895 925.76 588.759 948.332C588.962 949.145 588.353 949.963 587.54 949.963L587.134 950.166Z" fill="#EAC0B5"/>
<path d="M482.218 854.181H532.848V879.4H482.218V854.181Z" fill="#EFAA7B"/>
<path d="M555.618 880.822C554.806 880.822 554.196 880.213 554.196 879.4V854.181C554.196 853.369 554.806 852.76 555.618 852.76C556.431 852.76 557.04 853.369 557.04 854.181V879.4C557.04 880.213 556.431 880.822 555.618 880.822Z" fill="#EAC0B5"/>
<path d="M459.446 880.822C458.634 880.822 458.024 880.213 458.024 879.4V854.181C458.024 853.369 458.634 852.76 459.446 852.76C460.259 852.76 460.868 853.369 460.868 854.181V879.4C460.868 880.213 460.259 880.822 459.446 880.822Z" fill="#EAC0B5"/>
<path d="M426.915 880.822C426.103 880.822 425.493 880.213 425.493 879.4V854.181C425.493 853.369 426.103 852.76 426.915 852.76C427.728 852.76 428.337 853.369 428.337 854.181V879.4C428.337 880.213 427.728 880.822 426.915 880.822Z" fill="#EAC0B5"/>
<path d="M588.962 880.822C588.149 880.822 587.54 880.213 587.54 879.4V854.181C587.54 853.369 588.149 852.76 588.962 852.76C589.774 852.76 590.384 853.369 590.384 854.181V879.4C590.384 880.213 589.571 880.822 588.962 880.822Z" fill="#EAC0B5"/>
<path d="M484.08 815.633C484.499 815.633 484.709 815.429 484.918 815.022C485.127 814.614 484.918 814.003 484.499 813.596C483.871 813.189 419.324 777.504 411.153 714.5C411.153 713.889 410.52 713.482 409.892 713.686C409.264 713.686 408.845 714.297 409.054 714.908C417.44 778.935 482.824 815.225 483.452 815.633H484.08Z" fill="#D8784E"/>
<path d="M504.582 566.442C471.644 566.442 448.467 547.53 448.264 547.322C447.858 546.916 447.858 546.306 448.061 545.9C448.467 545.494 449.077 545.494 449.483 545.697C449.889 546.103 500.926 587.384 558.462 545.9C558.874 545.494 559.483 545.697 559.889 546.103C560.296 546.509 560.092 547.119 559.686 547.53C539.962 561.765 521.051 566.442 504.582 566.442Z" fill="#D8784E"/>
<path d="M522.101 852.633C586.837 845.565 606.736 758.905 606.946 757.896C607.155 757.291 606.736 756.887 606.108 756.685C605.48 756.484 605.062 756.887 604.853 757.492C604.643 758.3 584.948 843.744 521.892 850.615C521.264 850.615 520.845 851.22 521.054 851.826C521.054 852.431 521.682 852.633 522.101 852.633Z" fill="#D8784E"/>
<path d="M462.29 324.249C462.29 324.249 471.441 369.593 484.863 378.134H516.379C516.379 378.134 474.899 339.296 479.983 308.384C483.233 288.457 462.29 324.249 462.29 324.249Z" fill="#A40391"/>
<path d="M479.374 311.64C479.374 311.64 481.202 356.582 553.379 381.186C553.379 381.186 489.541 360.447 483.64 309.811L483.03 302.082L479.374 311.64Z" fill="#A40391"/>
<path d="M403.53 412.098C405.566 425.515 413.697 435.28 421.629 434.056C429.556 432.837 434.436 421.041 432.405 407.624C430.368 394.202 422.238 384.442 414.306 385.66C406.176 387.082 401.499 398.879 403.53 412.098Z" fill="#FFD5B6"/>
<path d="M422.035 416.161C421.629 416.161 421.222 415.957 421.019 415.551C421.019 415.551 417.967 407.009 413.087 405.588C411.462 404.978 409.634 405.384 407.801 406.806C407.394 407.218 406.785 407.009 406.379 406.603C405.972 406.197 406.176 405.588 406.582 405.181C409.019 403.353 411.259 402.947 413.696 403.556C419.592 405.384 422.847 414.536 423.051 414.942C423.254 415.551 423.051 415.957 422.441 416.161H422.035Z" fill="#EA9475"/>
<path d="M686.759 881.838L676.598 935.317C660.535 939.588 644.27 943.046 628.202 945.489C623.53 946.301 618.853 946.91 614.176 947.52C614.988 935.317 615.801 924.541 616.613 916.608C616.613 915.796 616.816 914.78 617.02 913.562C619.259 897.494 626.171 861.301 626.171 861.301L615.801 802.124L637.353 774.265L680.457 784.431C682.493 817.171 686.759 881.838 686.759 881.838Z" fill="#FFD5B6"/>
<path d="M321 877.426L331.08 930.518C347.013 934.758 363.148 938.191 379.087 940.616C383.721 941.423 388.361 942.028 393 942.633C392.194 930.518 391.388 919.82 390.582 911.945C390.582 911.139 390.381 910.13 390.179 908.92C387.958 892.969 381.102 857.039 381.102 857.039L391.388 798.29L370.009 770.633L327.251 780.726C325.231 813.228 321 877.426 321 877.426Z" fill="#FFD5B6"/>
<path d="M663.582 615.244C663.582 615.244 687.983 671.166 686.759 822.66C686.759 822.66 675.78 826.728 651.181 826.728C628.202 826.728 616.207 820.832 616.207 820.832L600.145 820.426L663.582 615.244Z" fill="#E685B0"/>
<path d="M344.045 611.633C344.045 611.633 319.83 667.427 321.044 818.574C321.044 818.574 331.94 822.633 356.352 822.633C379.156 822.633 391.06 816.75 391.06 816.75L407 816.345L344.045 611.633Z" fill="#E685B0"/>
<path d="M339.402 802.633C360.489 802.633 388.608 799.025 390.169 798.813C390.754 798.813 391.144 798.177 390.949 797.541C390.949 796.9 390.364 796.476 389.779 796.688C389.194 796.688 338.427 803.269 322.221 799.025C321.636 798.813 321.246 799.237 321.051 799.872C320.856 800.508 321.246 800.932 321.831 801.144C325.932 802.209 332.179 802.633 339.402 802.633Z" fill="#D8784E"/>
<path d="M613.973 819.817C613.363 819.817 612.957 819.41 612.957 818.801C612.957 818.39 614.582 785.447 617.426 688.655C618.04 667.098 629.832 639.848 630.035 639.645C630.238 639.035 630.848 638.832 631.457 639.035C632.066 639.239 632.27 639.848 632.066 640.457C631.863 640.66 620.275 667.504 619.665 688.655C616.613 785.447 615.191 818.39 615.191 818.801C614.988 819.41 614.582 819.817 613.973 819.817Z" fill="#D8784E"/>
<path d="M390.015 818.49C389.406 818.49 389 818.084 389 817.475C389 817.063 390.625 784.12 393.469 687.329C394.083 665.771 385.875 638.521 386.078 638.318C386.281 637.709 386.89 637.506 387.5 637.709C388.109 637.912 388.312 638.521 388.109 639.131C387.906 639.334 396.318 666.178 395.708 687.329C392.656 784.12 391.234 817.063 391.234 817.475C391.031 818.084 390.625 818.49 390.015 818.49Z" fill="#D8784E"/>
<path d="M667.447 805.176C645.488 805.176 616.207 801.718 614.582 801.515C613.973 801.515 613.567 800.905 613.77 800.296C613.77 799.681 614.379 799.275 614.988 799.478C615.598 799.478 668.462 805.785 685.337 801.718C685.947 801.515 686.353 801.921 686.556 802.53C686.759 803.14 686.353 803.546 685.744 803.749C681.473 804.77 674.968 805.176 667.447 805.176Z" fill="#D8784E"/>
<path d="M479.374 312.655C478.967 312.655 478.353 312.249 478.353 311.843C478.353 311.639 474.697 285.405 499.905 275.645C500.519 275.442 500.926 275.645 501.129 276.259C501.332 276.869 501.129 277.275 500.519 277.478C476.728 286.629 479.983 310.421 480.186 311.436C480.389 312.046 479.983 312.655 479.374 312.655Z" fill="#E685B0"/>
<path d="M581.848 379.358C524.306 368.171 496.249 311.436 496.046 310.827C495.842 310.421 496.046 309.811 496.452 309.405C496.858 309.202 497.467 309.405 497.874 309.811C498.077 310.421 525.728 366.14 582.051 377.119C582.66 377.322 582.863 377.728 582.863 378.337C582.863 378.947 582.254 379.358 581.848 379.358Z" fill="#E685B0"/>
<path d="M409.837 375.291H409.634C409.019 375.088 408.816 374.681 409.019 374.067C409.837 371.02 430.368 298.827 468.191 289.473C468.801 289.27 469.207 289.676 469.41 290.291C469.613 290.9 469.207 291.306 468.598 291.509C431.999 300.457 411.259 373.864 411.056 374.681C410.65 374.884 410.243 375.291 409.837 375.291Z" fill="#E685B0"/>
<path d="M599.941 516.619H599.535C598.926 516.416 598.723 515.806 598.926 515.197C606.04 497.707 603.197 442.801 602.993 442.192C602.993 441.582 603.4 441.176 604.009 441.176C604.618 441.176 605.025 441.582 605.025 442.192C605.228 444.426 607.874 498.114 600.754 516.009C600.551 516.416 600.145 516.619 599.941 516.619Z" fill="#E685B0"/>
<path d="M596.691 369.801C596.285 369.801 595.671 369.39 595.671 368.983C592.218 347.025 576.764 325.062 576.561 324.858C576.155 324.452 576.358 323.843 576.764 323.437C577.171 323.03 577.78 323.233 578.186 323.64C578.389 323.843 594.046 346.207 597.707 368.78C597.707 369.187 597.504 369.593 596.691 369.801Z" fill="#E685B0"/>
<path d="M427.728 517.228C427.119 517.228 426.712 516.822 426.712 516.212C426.712 514.791 424.879 479.405 426.712 464.561C426.712 463.952 427.322 463.546 427.931 463.749C428.54 463.749 428.947 464.358 428.744 464.968C426.915 479.608 428.744 515.806 428.744 516.212C428.744 516.619 428.337 517.025 427.728 517.228Z" fill="#E685B0"/>
<ellipse cx="589.457" cy="442.77" rx="8.5" ry="13.5" fill="#D9D9D9"/>
<path d="M596.909 442.77C596.497 442.77 595.855 442.77 595.855 442.77C595.855 445.995 595.016 449.014 593.758 451.032C593.129 452.038 592.5 452.843 591.661 453.447C590.817 454.051 590.188 454.257 589.35 454.257C588.511 454.257 587.882 454.051 587.043 453.447C585.995 452.642 584.941 451.233 584.102 449.417C583.263 447.605 582.844 445.19 582.844 442.77C582.844 439.544 583.683 436.526 584.941 434.508C585.575 433.501 586.204 432.696 587.043 432.093C587.882 431.489 588.511 431.288 589.35 431.288C590.188 431.288 590.817 431.489 591.661 432.093C592.71 432.898 593.758 434.306 594.597 436.123C595.436 437.934 595.855 440.355 595.855 442.77H596.906H597.957C597.957 439.142 597.118 435.922 595.645 433.501C595.016 432.294 593.968 431.288 592.919 430.477C591.871 429.672 590.608 429.27 589.35 429.27C588.091 429.27 586.833 429.672 585.785 430.477C584.312 431.489 583.054 433.3 582.215 435.514C581.376 437.532 580.957 440.148 580.957 442.77C580.957 446.398 581.796 449.623 583.263 452.038C583.893 453.246 584.941 454.257 585.995 455.062C587.043 455.867 588.301 456.27 589.559 456.27C590.817 456.27 592.081 455.867 593.129 455.062C594.597 454.051 595.855 452.239 596.699 450.026C597.538 448.008 597.957 445.391 597.957 442.77C597.957 442.77 597.318 442.77 596.909 442.77Z" fill="#EAC354"/>
<ellipse cx="418.457" cy="442.77" rx="8.5" ry="13.5" fill="#D9D9D9"/>
<path d="M425.909 442.77C425.497 442.77 424.855 442.77 424.855 442.77C424.855 445.995 424.016 449.014 422.758 451.032C422.129 452.038 421.5 452.843 420.661 453.447C419.817 454.051 419.188 454.257 418.35 454.257C417.511 454.257 416.882 454.051 416.043 453.447C414.995 452.642 413.941 451.233 413.102 449.417C412.263 447.605 411.844 445.19 411.844 442.77C411.844 439.544 412.683 436.526 413.941 434.508C414.575 433.501 415.204 432.696 416.043 432.093C416.882 431.489 417.511 431.288 418.35 431.288C419.188 431.288 419.817 431.489 420.661 432.093C421.71 432.898 422.758 434.306 423.597 436.123C424.436 437.934 424.855 440.355 424.855 442.77H425.906H426.957C426.957 439.142 426.118 435.922 424.645 433.501C424.016 432.294 422.968 431.288 421.919 430.477C420.871 429.672 419.608 429.27 418.35 429.27C417.091 429.27 415.833 429.672 414.785 430.477C413.312 431.489 412.054 433.3 411.215 435.514C410.376 437.532 409.957 440.148 409.957 442.77C409.957 446.398 410.796 449.623 412.263 452.038C412.893 453.246 413.941 454.257 414.995 455.062C416.043 455.867 417.301 456.27 418.559 456.27C419.817 456.27 421.081 455.867 422.129 455.062C423.597 454.051 424.855 452.239 425.699 450.026C426.538 448.008 426.957 445.391 426.957 442.77C426.957 442.77 426.318 442.77 425.909 442.77Z" fill="#EAC354"/>
<circle cx="542.957" cy="407.27" r="2" fill="#D9D9D9"/>
</svg>
