<svg width="1000" height="1000" viewBox="0 0 1000 1000" fill="none" xmlns="http://www.w3.org/2000/svg">
<path d="M448.337 252.766C448.337 252.766 455.637 267.32 460.516 260.434C465.396 253.549 448.337 252.766 448.337 252.766Z" fill="#66A2AF"/>
<path d="M463.163 268.288C463.163 268.288 470.543 285.761 475.423 278.876C480.303 271.99 463.163 268.288 463.163 268.288Z" fill="#66A2AF"/>
<path d="M467.76 251.842C467.76 251.842 477.98 266.475 482.86 259.59C487.739 252.705 467.76 251.842 467.76 251.842Z" fill="#66A2AF"/>
<path d="M607.687 380.538C598.535 326.851 575.562 302.449 575.562 302.449C575.562 302.449 437.504 301.231 434.452 305.502C377.728 387.653 400.958 442.637 381.458 475.137C361.957 507.637 357.601 506.616 371.457 513.637C378.977 517.447 386.453 517.062 392.957 511.699C400.644 505.362 406.801 493.397 406.801 486.481C406.801 486.481 401.654 508.621 409.447 518.408C419.442 530.96 431.603 535.298 448.957 531.637L452.145 516.58L453.457 531.637C520.458 577.137 558.457 534.637 563.457 534.637C568.457 534.637 563.457 494.637 569.957 502.137C569.957 502.137 579.316 531.471 592.957 534.637C609.565 538.492 630.296 521.877 633.957 519.637C644.957 509.637 617.853 440.528 607.687 380.538Z" fill="#A40391"/>
<path d="M602.603 412.668C600.572 426.085 592.436 436.054 584.509 434.83C576.577 433.611 571.697 421.819 573.728 408.397C575.764 394.976 583.895 385.012 591.827 386.231C599.754 387.45 604.634 399.246 602.603 412.668Z" fill="#FFD5B6"/>
<path d="M584.098 416.528H583.691C583.082 416.324 582.879 415.715 583.082 415.309C583.285 414.903 586.54 405.752 592.436 403.923C594.874 403.111 597.113 403.72 599.551 405.548C599.957 405.955 600.16 406.564 599.754 406.97C599.348 407.377 598.738 407.585 598.332 407.173C596.504 405.752 594.671 405.345 593.046 405.955C588.165 407.377 585.118 415.918 585.118 415.918C584.915 416.121 584.509 416.528 584.098 416.528Z" fill="#EA9475"/>
<path d="M540.384 470.418V532.845C540.384 555.621 522.493 573.923 500.535 573.923C478.576 573.923 460.884 555.621 460.884 532.845V470.418H540.384Z" fill="#FFD5B6"/>
<path d="M272.405 663.804C272.405 663.804 260.816 629.236 278.91 565.991C288.467 532.439 315.915 595.278 315.915 595.278L305.952 653.434L272.405 663.804Z" fill="#D16A42"/>
<path d="M500.535 459.439C499.519 459.439 487.925 464.725 475.728 470.418H524.321C512.733 464.725 501.55 459.439 500.535 459.439Z" fill="#9D5038"/>
<path d="M524.524 470.418H475.931C470.847 472.856 465.561 475.298 460.884 477.533V500.309C460.884 500.309 484.879 519.423 515.785 519.423C523.712 519.423 531.847 518.205 540.384 515.158V478.554C535.707 476.111 530.014 473.267 524.524 470.418Z" fill="#F09C7C"/>
<path d="M582.676 401.075C582.676 402.772 582.645 404.47 582.582 406.163C582.514 407.861 582.421 409.554 582.29 411.241C582.165 412.929 582.004 414.616 581.811 416.293C581.618 417.97 581.395 419.642 581.139 421.309C580.884 422.97 580.598 424.627 580.28 426.272C579.962 427.924 579.613 429.554 579.238 431.179C578.858 432.804 578.447 434.418 578.004 436.012C577.566 437.611 577.092 439.194 576.592 440.762C576.092 442.33 575.561 443.882 575.004 445.418C574.447 446.95 573.858 448.465 573.243 449.965C572.624 451.46 571.978 452.939 571.306 454.392C570.634 455.851 569.936 457.283 569.212 458.694C568.483 460.106 567.733 461.491 566.952 462.856C566.171 464.22 565.369 465.554 564.54 466.866C563.707 468.179 562.853 469.465 561.978 470.72C561.098 471.981 560.197 473.21 559.275 474.408C558.348 475.611 557.4 476.778 556.431 477.918C555.462 479.059 554.473 480.168 553.462 481.241C552.452 482.319 551.421 483.366 550.368 484.377C549.322 485.387 548.249 486.361 547.165 487.304C546.077 488.252 544.973 489.158 543.853 490.028C542.728 490.903 541.592 491.736 540.436 492.538C539.285 493.34 538.118 494.101 536.936 494.83C535.754 495.554 534.556 496.241 533.348 496.892C532.139 497.538 530.921 498.153 529.691 498.72C528.457 499.293 527.217 499.825 525.967 500.319C524.712 500.809 523.457 501.262 522.186 501.679C520.915 502.09 519.645 502.46 518.358 502.793C517.077 503.121 515.79 503.413 514.493 503.663C513.202 503.913 511.905 504.116 510.603 504.283C509.301 504.45 507.999 504.575 506.691 504.658C505.384 504.741 504.077 504.783 502.77 504.783C501.462 504.783 500.155 504.741 498.848 504.658C497.546 504.575 496.238 504.45 494.936 504.283C493.639 504.116 492.337 503.913 491.046 503.663C489.754 503.413 488.462 503.121 487.181 502.793C485.9 502.46 484.624 502.09 483.353 501.679C482.087 501.262 480.827 500.809 479.577 500.319C478.322 499.825 477.082 499.293 475.853 498.72C474.618 498.153 473.4 497.538 472.191 496.892C470.983 496.241 469.79 495.554 468.608 494.83C467.426 494.101 466.254 493.34 465.103 492.538C463.952 491.736 462.811 490.903 461.691 490.028C460.566 489.158 459.462 488.252 458.379 487.304C457.29 486.361 456.223 485.387 455.171 484.377C454.118 483.366 453.087 482.319 452.077 481.241C451.066 480.168 450.077 479.059 449.108 477.918C448.139 476.778 447.191 475.611 446.27 474.408C445.342 473.21 444.441 471.981 443.566 470.72C442.686 469.465 441.832 468.179 441.004 466.866C440.171 465.554 439.368 464.22 438.587 462.856C437.811 461.491 437.056 460.106 436.332 458.694C435.603 457.283 434.905 455.851 434.233 454.392C433.561 452.939 432.915 451.46 432.301 449.965C431.681 448.465 431.098 446.95 430.535 445.418C429.978 443.882 429.447 442.33 428.947 440.762C428.447 439.194 427.978 437.611 427.535 436.012C427.092 434.418 426.686 432.804 426.306 431.179C425.926 429.554 425.577 427.924 425.259 426.272C424.941 424.627 424.655 422.97 424.4 421.309C424.145 419.642 423.921 417.97 423.728 416.293C423.535 414.616 423.379 412.929 423.249 411.241C423.118 409.554 423.025 407.861 422.962 406.163C422.895 404.47 422.863 402.772 422.863 401.075C422.863 399.377 422.895 397.684 422.962 395.986C423.025 394.293 423.118 392.601 423.249 390.908C423.379 389.22 423.535 387.538 423.728 385.856C423.921 384.179 424.145 382.507 424.4 380.84C424.655 379.179 424.941 377.522 425.259 375.877C425.577 374.231 425.926 372.595 426.306 370.97C426.686 369.345 427.092 367.736 427.535 366.137C427.978 364.538 428.447 362.955 428.947 361.387C429.447 359.819 429.978 358.267 430.535 356.736C431.098 355.2 431.681 353.684 432.301 352.189C432.915 350.689 433.561 349.215 434.233 347.757C434.905 346.304 435.603 344.866 436.332 343.46C437.056 342.049 437.811 340.658 438.587 339.293C439.368 337.934 440.171 336.595 441.004 335.283C441.832 333.97 442.686 332.684 443.566 331.429C444.441 330.168 445.342 328.944 446.27 327.741C447.191 326.543 448.139 325.371 449.108 324.231C450.077 323.09 451.066 321.986 452.077 320.908C453.087 319.83 454.118 318.788 455.171 317.778C456.223 316.762 457.29 315.788 458.379 314.845C459.462 313.903 460.566 312.991 461.691 312.121C462.811 311.246 463.952 310.413 465.103 309.611C466.254 308.814 467.426 308.049 468.608 307.325C469.79 306.595 470.983 305.908 472.191 305.262C473.4 304.611 474.618 304.002 475.853 303.429C477.082 302.856 478.322 302.325 479.577 301.83C480.827 301.34 482.087 300.887 483.353 300.476C484.624 300.064 485.9 299.689 487.181 299.361C488.462 299.028 489.754 298.736 491.046 298.486C492.337 298.241 493.639 298.033 494.936 297.866C496.238 297.7 497.546 297.575 498.848 297.491C500.155 297.408 501.462 297.366 502.77 297.366C504.077 297.366 505.384 297.408 506.691 297.491C507.999 297.575 509.301 297.7 510.603 297.866C511.905 298.033 513.202 298.241 514.493 298.486C515.79 298.736 517.077 299.028 518.358 299.361C519.645 299.689 520.915 300.064 522.186 300.476C523.457 300.887 524.712 301.34 525.967 301.83C527.217 302.325 528.457 302.856 529.691 303.429C530.921 304.002 532.139 304.611 533.348 305.262C534.556 305.908 535.754 306.595 536.936 307.325C538.118 308.049 539.285 308.814 540.436 309.611C541.592 310.413 542.728 311.246 543.853 312.121C544.973 312.991 546.077 313.903 547.165 314.845C548.249 315.788 549.322 316.762 550.368 317.778C551.421 318.788 552.452 319.83 553.462 320.908C554.473 321.986 555.462 323.09 556.431 324.231C557.4 325.371 558.348 326.543 559.275 327.741C560.197 328.944 561.098 330.168 561.978 331.429C562.853 332.684 563.707 333.97 564.54 335.283C565.369 336.595 566.171 337.934 566.952 339.293C567.733 340.658 568.483 342.049 569.212 343.46C569.936 344.866 570.634 346.304 571.306 347.757C571.983 349.215 572.624 350.689 573.243 352.189C573.858 353.684 574.447 355.2 575.004 356.736C575.566 358.267 576.092 359.819 576.592 361.387C577.092 362.955 577.566 364.538 578.004 366.137C578.447 367.736 578.858 369.345 579.238 370.97C579.613 372.595 579.962 374.231 580.28 375.877C580.598 377.522 580.884 379.179 581.139 380.84C581.395 382.507 581.618 384.179 581.811 385.856C582.004 387.538 582.165 389.22 582.29 390.908C582.421 392.601 582.514 394.293 582.582 395.986C582.645 397.684 582.676 399.377 582.676 401.075Z" fill="#FFD5B6"/>
<path d="M478.983 310.788C478.983 310.788 512.123 383.179 582.269 389.892C582.269 389.892 593.045 374.231 597.926 378.502C597.926 378.502 600.978 302.653 545.264 278.455C495.452 256.694 474.306 299.397 478.983 310.788Z" fill="#A40391"/>
<path d="M484.066 309.366C484.066 309.366 431.811 374.845 427.54 396.194C427.54 396.194 420.222 381.554 408.837 388.059C408.837 388.059 413.306 272.356 494.233 275.606C568.238 278.658 484.066 309.366 484.066 309.366Z" fill="#A40391"/>
<path d="M473.696 412.465C473.696 418.97 470.644 424.054 466.983 424.054C463.326 424.054 460.274 418.767 460.274 412.465C460.274 405.955 463.326 400.871 466.983 400.871C470.644 400.668 473.696 405.955 473.696 412.465Z" fill="#51392A"/>
<circle cx="470.957" cy="407.637" r="2" fill="#D9D9D9"/>
<path d="M544.858 412.465C544.858 418.97 541.811 424.054 538.15 424.054C534.488 424.054 531.441 418.767 531.441 412.465C531.441 405.955 534.488 400.871 538.15 400.871C541.811 400.668 544.858 405.955 544.858 412.465Z" fill="#51392A"/>
<path d="M505.618 445.408L499.519 445.205C493.618 443.371 490.165 437.272 491.79 431.174L497.077 411.851C497.28 411.241 497.889 411.038 498.295 411.241C498.905 411.444 499.113 411.851 498.905 412.465L493.618 431.783C492.196 436.663 495.045 441.746 499.926 443.168L505.618 443.371C506.228 443.371 506.634 443.778 506.634 444.387C506.634 445.002 506.025 445.408 505.618 445.408Z" fill="#EA9475"/>
<path d="M566.187 394.082C565.986 394.106 565.784 394.13 565.558 393.953C545.322 380.609 524.342 390.083 524.14 390.107C523.559 390.382 523.107 390.027 522.857 389.647C522.583 389.066 522.938 388.615 523.317 388.365C523.519 388.341 545.459 378.337 566.599 392.396C567.051 392.751 567.123 393.356 566.97 393.784C566.768 393.808 566.591 394.034 566.187 394.082Z" fill="#A8664C"/>
<path d="M439.574 394.264C439.372 394.241 438.99 393.994 438.811 393.77C438.452 393.321 438.52 392.716 439.17 392.379C460.396 378.17 482.216 387.971 482.418 387.993C483.001 388.263 483.135 388.891 482.888 389.272C482.619 389.855 481.991 389.99 481.609 389.743C481.407 389.72 460.35 380.418 440.229 393.928C440.005 394.108 439.781 394.287 439.574 394.264Z" fill="#A8664C"/>
<path d="M507.355 475.143C507.467 475.143 507.69 475.254 507.802 475.365C508.025 475.587 508.025 475.921 507.69 476.143C500.267 479.757 495.445 475.678 495.334 475.678C494.999 475.567 494.887 475.234 494.999 475.012C495.11 474.679 495.445 474.568 495.668 474.679C495.78 474.679 500.542 478.663 507.018 475.365C507.129 475.254 507.241 475.143 507.355 475.143Z" fill="#A8664C"/>
<path d="M663.598 618.663C659.124 599.955 610.327 577.991 575.561 555.621C565.598 549.116 546.28 539.153 541.197 528.574C541.197 528.574 528.796 540.168 500.738 540.168C471.66 540.168 460.275 528.168 460.275 528.168C456.619 538.746 441.978 550.944 432.827 555.418C396.431 573.72 345.4 589.788 340.113 620.085C334.218 654.449 355.16 711.595 368.577 752.059C388.301 811.439 396.634 854.345 396.634 854.345H602.4C602.4 854.345 614.395 813.064 635.134 765.278C654.452 721.153 673.968 661.976 663.598 618.663Z" fill="#E685B0"/>
<path d="M396.837 854.752V882.205L602.603 881.189V854.752H396.837Z" fill="#63403B"/>
<path d="M627.202 946.059C622.53 946.872 617.853 947.481 613.176 948.09C604.228 949.309 595.488 950.127 586.54 950.939C557.056 953.377 527.577 953.174 498.499 951.142C469.223 949.106 440.556 944.835 412.493 938.939C400.092 936.299 387.895 933.247 375.895 929.991C387.285 897.252 397.04 879.767 397.04 879.767H602.806C602.806 879.767 608.296 893.59 616.02 914.132C619.275 923.486 623.139 934.262 627.202 946.059Z" fill="#F2D3C9"/>
<path d="M498.296 949.512C497.483 949.512 496.874 948.903 496.874 948.09C496.671 918.606 498.092 896.033 500.738 880.783C500.941 879.97 501.551 879.559 502.363 879.559C503.176 879.767 503.582 880.377 503.582 881.189C500.941 896.236 499.519 918.606 499.723 947.887C499.723 948.903 499.113 949.512 498.296 949.512Z" fill="#EAC0B5"/>
<path d="M526.764 952.158C525.951 952.158 525.337 951.549 525.337 950.736C525.337 919.418 522.696 881.595 522.493 881.392C522.493 880.58 523.103 879.97 523.915 879.767C524.728 879.767 525.337 880.377 525.54 881.189C525.54 881.595 528.186 919.418 528.389 950.736C528.186 951.345 527.576 952.158 526.764 952.158Z" fill="#EAC0B5"/>
<path d="M412.696 937.72C411.884 937.72 411.274 936.908 411.274 936.095C411.681 930.804 411.884 926.33 412.087 923.486C412.29 919.824 412.29 919.418 412.493 919.215C412.696 918.403 413.509 917.996 414.326 918.199C415.139 918.403 415.545 919.215 415.342 919.824C415.342 920.231 415.139 921.653 415.139 923.486C414.936 926.33 414.733 930.804 414.326 936.095C413.92 937.111 413.306 937.72 412.696 937.72Z" fill="#EAC0B5"/>
<path d="M586.134 950.533C585.525 950.533 584.915 950.127 584.712 949.309C581.051 926.538 579.832 909.658 579.832 909.455C579.832 908.642 580.441 908.033 581.254 907.83C582.066 907.83 582.676 908.439 582.879 909.252C582.879 909.455 583.895 926.127 587.759 948.7C587.962 949.512 587.353 950.33 586.54 950.33L586.134 950.533Z" fill="#EAC0B5"/>
<path d="M481.218 854.549H531.848V879.767H481.218V854.549Z" fill="#EFAA7B"/>
<path d="M554.618 881.189C553.806 881.189 553.196 880.58 553.196 879.767V854.549C553.196 853.736 553.806 853.127 554.618 853.127C555.431 853.127 556.04 853.736 556.04 854.549V879.767C556.04 880.58 555.431 881.189 554.618 881.189Z" fill="#EAC0B5"/>
<path d="M458.446 881.189C457.634 881.189 457.024 880.58 457.024 879.767V854.549C457.024 853.736 457.634 853.127 458.446 853.127C459.259 853.127 459.868 853.736 459.868 854.549V879.767C459.868 880.58 459.259 881.189 458.446 881.189Z" fill="#EAC0B5"/>
<path d="M425.915 881.189C425.103 881.189 424.493 880.58 424.493 879.767V854.549C424.493 853.736 425.103 853.127 425.915 853.127C426.728 853.127 427.337 853.736 427.337 854.549V879.767C427.337 880.58 426.728 881.189 425.915 881.189Z" fill="#EAC0B5"/>
<path d="M587.962 881.189C587.149 881.189 586.54 880.58 586.54 879.767V854.549C586.54 853.736 587.149 853.127 587.962 853.127C588.774 853.127 589.384 853.736 589.384 854.549V879.767C589.384 880.58 588.571 881.189 587.962 881.189Z" fill="#EAC0B5"/>
<path d="M518.832 808.793C518.426 808.793 518.223 808.59 518.02 808.184C517.817 807.778 518.02 807.168 518.426 806.762C519.035 806.356 581.66 770.767 589.587 707.934C589.587 707.325 590.202 706.918 590.811 707.121C591.421 707.121 591.827 707.731 591.624 708.34C583.488 772.194 520.051 808.387 519.442 808.793H518.832Z" fill="#D8784E"/>
<path d="M503.582 566.809C470.644 566.809 447.467 547.897 447.264 547.689C446.858 547.283 446.858 546.673 447.061 546.267C447.467 545.861 448.077 545.861 448.483 546.064C448.889 546.47 499.926 587.752 557.462 546.267C557.874 545.861 558.483 546.064 558.889 546.47C559.296 546.877 559.092 547.486 558.686 547.897C538.962 562.132 520.051 566.809 503.582 566.809Z" fill="#D8784E"/>
<path d="M481.217 846.413C418.389 839.299 399.076 752.059 398.873 751.043C398.67 750.434 399.076 750.028 399.686 749.825C400.295 749.621 400.701 750.028 400.904 750.637C401.108 751.45 420.222 837.465 481.42 844.382C482.029 844.382 482.436 844.991 482.233 845.601C482.233 846.21 481.623 846.413 481.217 846.413Z" fill="#D8784E"/>
<path d="M461.29 324.616C461.29 324.616 470.441 369.96 483.863 378.502H515.379C515.379 378.502 473.899 339.663 478.983 308.752C482.233 288.824 461.29 324.616 461.29 324.616Z" fill="#A40391"/>
<path d="M478.374 312.007C478.374 312.007 480.202 356.949 552.379 381.554C552.379 381.554 488.541 360.814 482.64 310.179L482.03 302.449L478.374 312.007Z" fill="#A40391"/>
<path d="M402.53 412.465C404.566 425.882 412.697 435.647 420.629 434.423C428.556 433.205 433.436 421.408 431.405 407.991C429.368 394.569 421.238 384.809 413.306 386.028C405.176 387.449 400.499 399.246 402.53 412.465Z" fill="#FFD5B6"/>
<path d="M421.035 416.528C420.629 416.528 420.222 416.325 420.019 415.918C420.019 415.918 416.967 407.377 412.087 405.955C410.462 405.345 408.634 405.752 406.801 407.174C406.394 407.585 405.785 407.377 405.379 406.97C404.972 406.564 405.176 405.955 405.582 405.549C408.019 403.72 410.259 403.314 412.696 403.924C418.592 405.752 421.847 414.903 422.051 415.309C422.254 415.918 422.051 416.325 421.441 416.528H421.035Z" fill="#EA9475"/>
<path d="M398.061 572.298C398.061 572.298 379.15 560.908 346.009 551.147C313.884 541.793 220.759 404.33 220.759 404.33C220.759 404.33 241.092 368.944 246.785 357.559C265.29 319.939 313.884 211.35 313.884 211.35L285.212 194.673C285.212 194.673 205.103 311.6 180.098 352.475C175.014 360.814 163.426 379.929 155.493 393.345C150.004 402.496 153.868 419.783 164.238 437.475C188.431 477.944 247.801 575.751 280.337 617.439C324.457 673.767 346.822 689.022 346.822 689.022L398.061 572.298Z" fill="#FFD5B6"/>
<path d="M421.239 561.314C421.239 561.314 391.957 592.429 288.671 495.835C288.671 495.835 290.91 557.043 289.687 581.043C286.03 650.59 272.608 663.804 272.608 663.804L363.088 725.424L420.02 644.892L421.239 561.314Z" fill="#E685B0"/>
<path d="M274.233 210.127C274.233 210.127 274.64 195.892 275.457 185.319C276.473 174.746 287.249 162.949 289.89 154.205C292.535 145.257 320.187 142.616 337.265 147.496C354.343 152.58 364.713 154.408 364.713 154.408L325.067 196.502C325.067 196.502 310.426 207.689 306.358 215.824C302.296 223.955 298.431 235.752 298.431 235.752L274.233 210.127Z" fill="#FFD5B6"/>
<path d="M302.296 187.35C298.228 193.658 286.436 214.6 303.108 214.804C319.78 215.007 341.535 202.606 345.197 199.757C348.853 197.116 353.124 190.199 360.244 185.929C367.358 181.455 367.358 175.965 373.254 175.762C379.15 175.559 380.978 168.033 369.389 167.83C358.004 167.627 354.139 171.491 347.025 177.996C340.113 184.71 310.426 174.746 302.296 187.35Z" fill="#FFD5B6"/>
<path d="M377.322 228.022L375.488 227.21C366.342 248.564 345.4 261.168 323.645 261.168C316.118 261.168 308.598 259.746 301.275 256.491C279.926 247.34 267.322 226.397 267.322 204.637C267.322 197.116 268.743 189.59 271.999 182.267C281.15 160.918 302.092 148.309 323.848 148.309C331.368 148.309 338.895 149.731 346.212 152.986C367.561 162.137 380.165 183.085 380.165 204.84C380.165 212.366 378.743 219.887 375.488 227.21L377.322 228.022L379.15 228.835C382.608 220.908 384.233 212.772 384.233 204.84C384.233 181.455 370.608 159.085 347.837 149.325C339.91 145.871 331.775 144.241 323.848 144.241C300.462 144.241 278.098 157.866 268.337 180.642C264.884 188.575 263.254 196.705 263.254 204.637C263.254 228.022 276.879 250.392 299.65 260.153C307.582 263.611 315.712 265.236 323.645 265.236C347.025 265.236 369.389 251.611 379.15 228.835L377.322 228.022Z" fill="#CC814E"/>
<path d="M353.936 302.653C353.936 302.653 341.738 304.481 315.712 293.095C292.535 283.132 282.571 271.741 282.571 271.741L321.811 181.251L393.181 212.163L353.936 302.653Z" fill="#DB7649"/>
<path d="M393.181 212.163C392.16 214.6 375.285 209.72 355.566 201.179C335.842 192.642 320.796 183.694 321.811 181.048C322.832 178.611 339.707 183.491 359.426 192.028C379.15 200.569 394.4 209.517 393.181 212.163Z" fill="#B25A38"/>
<path d="M355.769 195.892C355.363 196.705 349.462 195.08 342.754 192.027C335.842 188.981 330.759 185.929 330.962 185.116C331.368 184.304 337.264 185.929 343.972 188.981C350.889 191.824 356.175 195.08 355.769 195.892Z" fill="#593514"/>
<path d="M366.546 266.251L437.301 250.595L438.723 258.934L354.14 294.923L366.546 266.251Z" fill="#DB7649"/>
<path d="M290.702 152.376C293.551 147.699 307.785 127.772 312.869 129.804C320.796 133.059 310.02 160.512 305.749 162.34C299.244 165.189 295.582 162.137 299.041 148.918L290.702 152.376Z" fill="#FFD5B6"/>
<path d="M307.176 170.475C308.801 171.897 319.17 162.34 321.405 157.46C321.608 157.257 321.202 157.866 320.998 158.069C318.358 163.965 314.493 169.054 319.17 171.288C323.847 173.319 332.587 162.137 336.248 156.241C339.91 150.34 341.129 150.548 341.129 150.548L343.16 150.751C343.16 150.751 332.181 164.58 342.551 162.543C353.123 160.512 360.243 153.595 360.243 153.595L364.306 154.205C364.306 154.205 367.358 150.137 365.733 147.09C364.103 144.038 359.426 140.376 356.379 141.194C353.327 142.21 351.498 142.616 351.498 142.616C351.498 142.616 355.16 136.517 350.077 132.652C344.993 128.788 339.301 131.632 336.655 134.277C336.655 134.277 330.353 128.382 326.894 130.21C323.441 132.246 314.493 142.21 311.238 150.34C308.394 158.475 303.108 167.22 307.176 170.475Z" fill="#FFD5B6"/>
<path d="M308.191 170.679C307.785 170.679 307.582 170.679 307.379 170.679C305.749 170.272 304.53 169.054 303.921 167.22C302.905 162.949 311.441 148.715 313.072 145.871C313.275 145.46 314.087 145.257 314.493 145.46C314.9 145.668 315.103 146.481 314.9 146.887C311.035 153.189 305.342 163.965 305.952 166.814C306.155 167.627 306.561 168.439 307.785 168.642C309.816 169.054 313.681 167.017 318.561 160.309C324.254 152.377 328.931 145.257 332.181 139.97C333.4 138.142 334.421 136.517 335.233 135.293C335.639 134.887 336.249 134.684 336.655 135.09C337.061 135.496 337.264 136.106 336.858 136.517C336.046 137.736 335.03 139.361 333.811 141.194C330.353 146.481 325.879 153.798 319.983 161.731C314.697 169.257 310.629 170.679 308.191 170.679Z" fill="#EA9475"/>
<path d="M319.983 172.913C319.577 172.913 319.17 172.913 318.764 172.71C317.748 172.304 316.931 171.491 316.524 170.476C315.103 166.408 319.78 158.679 320.389 157.866C320.592 157.46 321.405 157.257 321.811 157.46C322.217 157.663 322.42 158.476 322.217 158.882C320.795 160.918 317.545 167.017 318.561 169.866C318.764 170.476 319.17 170.679 319.577 170.882C323.441 172.304 334.827 157.866 339.097 152.377C339.707 151.564 340.316 150.752 340.722 150.137C344.993 144.647 351.295 142.007 351.702 141.804C352.311 141.601 352.717 141.804 353.123 142.413C353.327 143.022 353.123 143.429 352.514 143.835C352.514 143.835 346.415 146.481 342.347 151.564C341.941 152.174 341.332 152.783 340.722 153.595C333.196 162.95 325.066 172.913 319.983 172.913Z" fill="#EA9475"/>
<path d="M341.129 164.168C339.707 164.168 338.686 163.762 338.28 163.153C334.421 158.069 341.739 149.731 345.197 145.871C345.603 145.46 346.213 145.257 346.619 145.668C347.025 146.074 347.228 146.684 346.822 147.09L346.619 147.293C343.973 150.34 337.061 158.272 339.91 162.137C339.91 162.137 340.114 162.34 341.129 162.34C345.4 162.34 356.582 157.866 362.072 150.548C362.478 150.137 363.088 149.934 363.494 150.34C363.9 150.752 364.103 151.361 363.697 151.767C358.004 159.085 346.416 164.168 341.129 164.168Z" fill="#EA9475"/>
<path d="M301.275 163.965C300.665 163.965 299.853 163.762 299.244 163.559C293.348 161.121 298.634 147.496 299.244 146.074C299.447 145.46 300.056 145.257 300.462 145.46C301.072 145.668 301.275 146.278 301.072 146.684C299.447 150.955 296.806 160.309 300.056 161.528C304.124 163.153 307.582 155.835 307.785 155.632C307.988 155.226 308.598 154.814 309.207 155.226C309.816 155.429 310.02 156.038 309.613 156.647C309.207 157.054 305.952 163.965 301.275 163.965Z" fill="#EA9475"/>
<path d="M302.702 217.246H302.499C300.463 216.84 298.025 215.21 295.583 213.382C293.348 211.96 291.114 210.33 288.874 209.517C286.64 208.502 283.791 208.502 281.353 208.705C278.911 208.705 276.88 208.705 275.661 207.689C275.255 207.283 275.255 206.674 275.458 206.262C275.864 205.856 276.473 205.856 276.88 206.059C277.489 206.47 279.52 206.47 281.353 206.47C283.791 206.47 287.046 206.47 289.687 207.486C292.13 208.502 294.364 210.127 296.603 211.554C299.041 213.179 301.275 214.804 302.906 215.007C303.515 215.21 303.718 215.616 303.718 216.231C303.515 216.84 303.109 217.246 302.702 217.246Z" fill="#EA9475"/>
<path d="M300.26 202.403C299.65 202.403 299.244 201.996 299.244 201.382C299.041 192.642 306.973 182.47 318.765 181.455C319.374 181.455 319.781 181.861 319.781 182.47C319.781 183.085 319.374 183.491 318.765 183.491C307.176 184.304 300.869 194.47 301.072 201.382C301.275 201.996 300.869 202.403 300.26 202.403Z" fill="#EA9475"/>
<path d="M432.608 247.949L437.499 246.574L442.301 263.601L437.405 264.981L432.608 247.949Z" fill="#B25A38"/>
<path d="M685.759 882.205L675.598 935.684C659.535 939.955 643.27 943.413 627.202 945.856C622.53 946.668 617.853 947.278 613.176 947.887C613.988 935.684 614.801 924.908 615.613 916.976C615.613 916.163 615.816 915.147 616.02 913.929C618.259 897.861 625.171 861.668 625.171 861.668L614.801 802.491L636.353 774.632L679.457 784.799C681.493 817.538 685.759 882.205 685.759 882.205Z" fill="#FFD5B6"/>
<path d="M662.582 615.611C662.582 615.611 686.983 671.533 685.759 823.028C685.759 823.028 674.78 827.095 650.181 827.095C627.202 827.095 615.207 821.199 615.207 821.199L599.145 820.793L662.582 615.611Z" fill="#E685B0"/>
<path d="M612.973 820.184C612.363 820.184 611.957 819.778 611.957 819.168C611.957 818.757 613.582 785.814 616.426 689.022C617.04 667.465 628.832 640.215 629.035 640.012C629.238 639.403 629.848 639.199 630.457 639.403C631.066 639.606 631.27 640.215 631.066 640.824C630.863 641.028 619.275 667.871 618.665 689.022C615.613 785.814 614.191 818.757 614.191 819.168C613.988 819.778 613.582 820.184 612.973 820.184Z" fill="#D8784E"/>
<path d="M666.447 805.543C644.488 805.543 615.207 802.085 613.582 801.882C612.973 801.882 612.567 801.272 612.77 800.663C612.77 800.048 613.379 799.642 613.988 799.845C614.598 799.845 667.462 806.153 684.337 802.085C684.947 801.882 685.353 802.288 685.556 802.897C685.759 803.507 685.353 803.913 684.744 804.116C680.473 805.137 673.968 805.543 666.447 805.543Z" fill="#D8784E"/>
<path d="M312.103 241.726C312.499 241.892 312.874 242.09 313.228 242.33C313.588 242.564 313.916 242.835 314.218 243.137C314.52 243.439 314.785 243.767 315.025 244.121C315.265 244.481 315.463 244.856 315.629 245.246C315.791 245.642 315.916 246.048 315.999 246.47C316.082 246.887 316.124 247.309 316.124 247.741C316.124 248.168 316.082 248.59 315.999 249.007C315.916 249.429 315.791 249.835 315.629 250.231C315.463 250.621 315.265 250.996 315.025 251.356C314.785 251.71 314.52 252.038 314.218 252.34C313.916 252.642 313.588 252.913 313.228 253.147C312.874 253.387 312.499 253.585 312.103 253.752C311.713 253.913 311.306 254.038 310.884 254.121C310.468 254.205 310.041 254.246 309.614 254.246C309.187 254.246 308.765 254.205 308.348 254.121C307.926 254.038 307.52 253.913 307.124 253.752C306.733 253.585 306.358 253.387 305.999 253.147C305.645 252.913 305.317 252.642 305.015 252.34C304.713 252.038 304.442 251.71 304.207 251.356C303.968 250.996 303.77 250.621 303.603 250.231C303.442 249.835 303.317 249.429 303.233 249.007C303.15 248.59 303.108 248.168 303.108 247.741C303.108 247.309 303.15 246.887 303.233 246.47C303.317 246.048 303.442 245.642 303.603 245.246C303.77 244.856 303.968 244.481 304.207 244.121C304.442 243.767 304.713 243.439 305.015 243.137C305.317 242.835 305.645 242.564 305.999 242.33C306.358 242.09 306.733 241.892 307.124 241.726C307.52 241.564 307.926 241.439 308.348 241.356C308.765 241.272 309.187 241.231 309.614 241.231C310.041 241.231 310.468 241.272 310.884 241.356C311.306 241.439 311.713 241.564 312.103 241.726Z" fill="#E685B0"/>
<path d="M333.452 254.132C333.848 254.293 334.223 254.496 334.577 254.731C334.936 254.97 335.264 255.241 335.566 255.543C335.868 255.845 336.134 256.173 336.374 256.528C336.613 256.882 336.811 257.257 336.978 257.653C337.139 258.048 337.264 258.455 337.348 258.871C337.431 259.293 337.473 259.715 337.473 260.142C337.473 260.569 337.431 260.991 337.348 261.413C337.264 261.83 337.139 262.241 336.978 262.632C336.811 263.028 336.613 263.403 336.374 263.757C336.134 264.116 335.868 264.444 335.566 264.746C335.264 265.048 334.936 265.314 334.577 265.554C334.223 265.793 333.848 265.991 333.452 266.153C333.061 266.319 332.655 266.444 332.233 266.528C331.816 266.611 331.389 266.653 330.962 266.653C330.535 266.653 330.113 266.611 329.697 266.528C329.275 266.444 328.868 266.319 328.473 266.153C328.082 265.991 327.707 265.793 327.348 265.554C326.993 265.314 326.665 265.048 326.363 264.746C326.061 264.444 325.79 264.116 325.556 263.757C325.316 263.403 325.118 263.028 324.952 262.632C324.79 262.241 324.665 261.83 324.582 261.413C324.499 260.991 324.457 260.569 324.457 260.142C324.457 259.715 324.499 259.293 324.582 258.871C324.665 258.455 324.79 258.048 324.952 257.653C325.118 257.257 325.316 256.882 325.556 256.528C325.79 256.173 326.061 255.845 326.363 255.543C326.665 255.241 326.993 254.97 327.348 254.731C327.707 254.496 328.082 254.293 328.473 254.132C328.868 253.97 329.275 253.845 329.697 253.762C330.113 253.679 330.535 253.637 330.962 253.637C331.389 253.637 331.816 253.679 332.233 253.762C332.655 253.845 333.061 253.97 333.452 254.132Z" fill="#E685B0"/>
<path d="M362.071 265.845C362.071 266.272 362.03 266.694 361.946 267.116C361.863 267.533 361.738 267.944 361.576 268.335C361.41 268.731 361.212 269.106 360.972 269.46C360.738 269.819 360.467 270.147 360.165 270.449C359.863 270.752 359.535 271.017 359.181 271.257C358.821 271.496 358.446 271.694 358.056 271.856C357.66 272.022 357.254 272.147 356.832 272.231C356.415 272.314 355.993 272.356 355.566 272.356C355.139 272.356 354.712 272.314 354.295 272.231C353.873 272.147 353.467 272.022 353.076 271.856C352.681 271.694 352.306 271.496 351.951 271.257C351.592 271.017 351.264 270.752 350.962 270.449C350.66 270.147 350.394 269.819 350.155 269.46C349.915 269.106 349.717 268.731 349.556 268.335C349.389 267.944 349.264 267.533 349.181 267.116C349.097 266.694 349.056 266.272 349.056 265.845C349.056 265.418 349.097 264.996 349.181 264.574C349.264 264.158 349.389 263.752 349.556 263.356C349.717 262.96 349.915 262.585 350.155 262.231C350.394 261.877 350.66 261.548 350.962 261.246C351.264 260.944 351.592 260.673 351.951 260.434C352.306 260.199 352.681 259.996 353.076 259.835C353.467 259.673 353.873 259.548 354.295 259.465C354.712 259.382 355.139 259.34 355.566 259.34C355.993 259.34 356.415 259.382 356.832 259.465C357.254 259.548 357.66 259.673 358.056 259.835C358.446 259.996 358.821 260.199 359.181 260.434C359.535 260.673 359.863 260.944 360.165 261.246C360.467 261.548 360.738 261.877 360.972 262.231C361.212 262.585 361.41 262.96 361.576 263.356C361.738 263.752 361.863 264.158 361.946 264.574C362.03 264.996 362.071 265.418 362.071 265.845Z" fill="#E685B0"/>
<path d="M307.379 270.522C307.379 270.949 307.337 271.371 307.254 271.793C307.171 272.21 307.046 272.621 306.884 273.012C306.717 273.408 306.52 273.783 306.28 274.137C306.046 274.496 305.775 274.824 305.473 275.126C305.171 275.429 304.842 275.694 304.483 275.934C304.129 276.173 303.754 276.371 303.358 276.533C302.967 276.699 302.561 276.824 302.139 276.908C301.723 276.991 301.296 277.033 300.868 277.033C300.441 277.033 300.02 276.991 299.603 276.908C299.181 276.824 298.775 276.699 298.379 276.533C297.988 276.371 297.613 276.173 297.254 275.934C296.9 275.694 296.572 275.429 296.27 275.126C295.967 274.824 295.697 274.496 295.462 274.137C295.223 273.783 295.025 273.408 294.858 273.012C294.697 272.621 294.572 272.21 294.488 271.793C294.405 271.371 294.363 270.949 294.363 270.522C294.363 270.095 294.405 269.673 294.488 269.251C294.572 268.835 294.697 268.429 294.858 268.033C295.025 267.637 295.223 267.262 295.462 266.908C295.697 266.554 295.967 266.225 296.27 265.923C296.572 265.621 296.9 265.35 297.254 265.111C297.613 264.876 297.988 264.673 298.379 264.512C298.775 264.35 299.181 264.225 299.603 264.142C300.02 264.059 300.441 264.017 300.868 264.017C301.296 264.017 301.723 264.059 302.139 264.142C302.561 264.225 302.967 264.35 303.358 264.512C303.754 264.673 304.129 264.876 304.483 265.111C304.842 265.35 305.171 265.621 305.473 265.923C305.775 266.225 306.046 266.554 306.28 266.908C306.52 267.262 306.717 267.637 306.884 268.033C307.046 268.429 307.171 268.835 307.254 269.251C307.337 269.673 307.379 270.095 307.379 270.522Z" fill="#E685B0"/>
<path d="M328.728 282.726C328.728 283.153 328.686 283.574 328.603 283.996C328.519 284.413 328.394 284.819 328.233 285.215C328.066 285.611 327.868 285.986 327.629 286.34C327.394 286.694 327.123 287.022 326.821 287.324C326.519 287.627 326.191 287.897 325.832 288.137C325.478 288.371 325.103 288.574 324.707 288.736C324.316 288.897 323.91 289.022 323.488 289.106C323.071 289.189 322.644 289.231 322.217 289.231C321.79 289.231 321.368 289.189 320.951 289.106C320.53 289.022 320.123 288.897 319.728 288.736C319.337 288.574 318.962 288.371 318.603 288.137C318.248 287.897 317.92 287.627 317.618 287.324C317.316 287.022 317.045 286.694 316.811 286.34C316.571 285.986 316.373 285.611 316.207 285.215C316.045 284.819 315.92 284.413 315.837 283.996C315.754 283.574 315.712 283.153 315.712 282.726C315.712 282.298 315.754 281.877 315.837 281.455C315.92 281.038 316.045 280.627 316.207 280.236C316.373 279.84 316.571 279.465 316.811 279.111C317.045 278.752 317.316 278.423 317.618 278.121C317.92 277.819 318.248 277.554 318.603 277.314C318.962 277.074 319.337 276.877 319.728 276.715C320.123 276.548 320.53 276.423 320.951 276.34C321.368 276.257 321.79 276.215 322.217 276.215C322.644 276.215 323.071 276.257 323.488 276.34C323.91 276.423 324.316 276.548 324.707 276.715C325.103 276.877 325.478 277.074 325.832 277.314C326.191 277.554 326.519 277.819 326.821 278.121C327.123 278.423 327.389 278.752 327.629 279.111C327.868 279.465 328.066 279.84 328.233 280.236C328.394 280.627 328.519 281.038 328.603 281.455C328.686 281.877 328.728 282.298 328.728 282.726Z" fill="#E685B0"/>
<path d="M349.311 282.601C349.707 282.762 350.082 282.965 350.436 283.199C350.796 283.439 351.124 283.71 351.426 284.012C351.728 284.314 351.993 284.642 352.233 284.996C352.473 285.351 352.671 285.726 352.832 286.121C352.999 286.517 353.124 286.923 353.207 287.345C353.29 287.762 353.332 288.184 353.332 288.611C353.332 289.038 353.29 289.465 353.207 289.882C353.124 290.298 352.999 290.71 352.832 291.101C352.671 291.496 352.473 291.871 352.233 292.226C351.993 292.585 351.728 292.913 351.426 293.215C351.124 293.517 350.796 293.788 350.436 294.022C350.082 294.262 349.707 294.46 349.311 294.627C348.921 294.788 348.514 294.913 348.092 294.996C347.676 295.08 347.249 295.121 346.822 295.121C346.395 295.121 345.973 295.08 345.556 294.996C345.134 294.913 344.728 294.788 344.332 294.627C343.941 294.46 343.566 294.262 343.207 294.022C342.853 293.788 342.525 293.517 342.223 293.215C341.921 292.913 341.65 292.585 341.415 292.226C341.176 291.871 340.978 291.496 340.811 291.101C340.65 290.71 340.525 290.298 340.441 289.882C340.358 289.465 340.316 289.038 340.316 288.611C340.316 288.184 340.358 287.762 340.441 287.345C340.525 286.923 340.65 286.517 340.811 286.121C340.978 285.726 341.176 285.351 341.415 284.996C341.65 284.642 341.921 284.314 342.223 284.012C342.525 283.71 342.853 283.439 343.207 283.199C343.566 282.965 343.941 282.762 344.332 282.601C344.728 282.439 345.134 282.314 345.556 282.231C345.973 282.147 346.395 282.106 346.822 282.106C347.249 282.106 347.676 282.147 348.092 282.231C348.514 282.314 348.921 282.439 349.311 282.601Z" fill="#E685B0"/>
<path d="M478.374 313.022C477.967 313.022 477.353 312.616 477.353 312.21C477.353 312.007 473.697 285.772 498.905 276.012C499.519 275.809 499.926 276.012 500.129 276.626C500.332 277.236 500.129 277.642 499.519 277.845C475.728 286.996 478.983 310.788 479.186 311.804C479.389 312.413 478.983 313.022 478.374 313.022Z" fill="#E685B0"/>
<path d="M580.848 379.725C523.306 368.538 495.249 311.804 495.046 311.194C494.842 310.788 495.046 310.179 495.452 309.772C495.858 309.569 496.467 309.772 496.874 310.179C497.077 310.788 524.728 366.507 581.051 377.486C581.66 377.689 581.863 378.095 581.863 378.705C581.863 379.314 581.254 379.725 580.848 379.725Z" fill="#E685B0"/>
<path d="M408.837 375.658H408.634C408.019 375.455 407.816 375.049 408.019 374.434C408.837 371.387 429.368 299.194 467.191 289.84C467.801 289.637 468.207 290.043 468.41 290.658C468.613 291.267 468.207 291.673 467.598 291.877C430.999 300.825 410.259 374.231 410.056 375.049C409.65 375.252 409.243 375.658 408.837 375.658Z" fill="#E685B0"/>
<path d="M598.941 516.986H598.535C597.926 516.783 597.723 516.173 597.926 515.564C605.04 498.074 602.197 443.168 601.993 442.559C601.993 441.949 602.4 441.543 603.009 441.543C603.618 441.543 604.025 441.949 604.025 442.559C604.228 444.793 606.874 498.481 599.754 516.377C599.551 516.783 599.145 516.986 598.941 516.986Z" fill="#E685B0"/>
<path d="M595.691 370.168C595.285 370.168 594.671 369.757 594.671 369.351C591.218 347.392 575.764 325.429 575.561 325.226C575.155 324.819 575.358 324.21 575.764 323.804C576.171 323.397 576.78 323.601 577.186 324.007C577.389 324.21 593.046 346.575 596.707 369.147C596.707 369.554 596.504 369.96 595.691 370.168Z" fill="#E685B0"/>
<path d="M426.728 517.595C426.119 517.595 425.712 517.189 425.712 516.58C425.712 515.158 423.879 479.772 425.712 464.929C425.712 464.319 426.322 463.913 426.931 464.116C427.54 464.116 427.947 464.725 427.744 465.335C425.915 479.975 427.744 516.173 427.744 516.58C427.744 516.986 427.337 517.392 426.728 517.595Z" fill="#E685B0"/>
<path d="M410.055 632.897C409.649 632.897 409.446 632.694 409.243 632.491C400.092 617.236 346.618 575.345 346.212 574.939C345.805 574.533 345.602 573.923 346.009 573.517C346.415 573.111 347.024 572.908 347.43 573.314C349.67 575.142 401.717 616.017 411.071 631.47C411.274 631.882 411.274 632.491 410.665 632.897H410.055Z" fill="#D8784E"/>
<ellipse cx="588.457" cy="443.137" rx="8.5" ry="13.5" fill="#D9D9D9"/>
<path d="M595.909 443.137C595.497 443.137 594.855 443.137 594.855 443.137C594.855 446.362 594.016 449.381 592.758 451.399C592.129 452.405 591.5 453.21 590.661 453.814C589.817 454.418 589.188 454.624 588.35 454.624C587.511 454.624 586.882 454.418 586.043 453.814C584.995 453.009 583.941 451.6 583.102 449.784C582.263 447.972 581.844 445.557 581.844 443.137C581.844 439.912 582.683 436.893 583.941 434.875C584.575 433.869 585.204 433.064 586.043 432.46C586.882 431.856 587.511 431.655 588.35 431.655C589.188 431.655 589.817 431.856 590.661 432.46C591.71 433.265 592.758 434.674 593.597 436.49C594.436 438.302 594.855 440.722 594.855 443.137H595.906H596.957C596.957 439.509 596.118 436.289 594.645 433.869C594.016 432.661 592.968 431.655 591.919 430.845C590.871 430.039 589.608 429.637 588.35 429.637C587.091 429.637 585.833 430.039 584.785 430.845C583.312 431.856 582.054 433.667 581.215 435.881C580.376 437.899 579.957 440.515 579.957 443.137C579.957 446.765 580.796 449.99 582.263 452.405C582.893 453.613 583.941 454.624 584.995 455.429C586.043 456.234 587.301 456.637 588.559 456.637C589.817 456.637 591.081 456.234 592.129 455.429C593.597 454.418 594.855 452.607 595.699 450.393C596.538 448.375 596.957 445.759 596.957 443.137C596.957 443.137 596.318 443.137 595.909 443.137Z" fill="#EAC354"/>
<ellipse cx="417.457" cy="443.137" rx="8.5" ry="13.5" fill="#D9D9D9"/>
<path d="M424.909 443.137C424.497 443.137 423.855 443.137 423.855 443.137C423.855 446.362 423.016 449.381 421.758 451.399C421.129 452.405 420.5 453.21 419.661 453.814C418.817 454.418 418.188 454.624 417.35 454.624C416.511 454.624 415.882 454.418 415.043 453.814C413.995 453.009 412.941 451.6 412.102 449.784C411.263 447.972 410.844 445.557 410.844 443.137C410.844 439.912 411.683 436.893 412.941 434.875C413.575 433.869 414.204 433.064 415.043 432.46C415.882 431.856 416.511 431.655 417.35 431.655C418.188 431.655 418.817 431.856 419.661 432.46C420.71 433.265 421.758 434.674 422.597 436.49C423.436 438.302 423.855 440.722 423.855 443.137H424.906H425.957C425.957 439.509 425.118 436.289 423.645 433.869C423.016 432.661 421.968 431.655 420.919 430.845C419.871 430.039 418.608 429.637 417.35 429.637C416.091 429.637 414.833 430.039 413.785 430.845C412.312 431.856 411.054 433.667 410.215 435.881C409.376 437.899 408.957 440.515 408.957 443.137C408.957 446.765 409.796 449.99 411.263 452.405C411.893 453.613 412.941 454.624 413.995 455.429C415.043 456.234 416.301 456.637 417.559 456.637C418.817 456.637 420.081 456.234 421.129 455.429C422.597 454.418 423.855 452.607 424.699 450.393C425.538 448.375 425.957 445.759 425.957 443.137C425.957 443.137 425.318 443.137 424.909 443.137Z" fill="#EAC354"/>
<circle cx="541.957" cy="407.637" r="2" fill="#D9D9D9"/>
<path d="M497.89 273.916C497.89 273.916 530.218 246.056 511.108 242.395C501.957 240.364 497.89 273.916 497.89 273.916Z" fill="#6B7C25"/>
<path d="M499.317 273.306C499.317 273.306 460.682 255.411 465.156 274.322C467.192 283.473 499.317 273.306 499.317 273.306Z" fill="#6B7C25"/>
<path d="M529.812 288.15C528.999 287.947 528.796 287.541 528.796 286.931C540.181 219.213 556.853 200.708 557.463 199.895C557.874 199.489 558.483 199.489 558.89 199.895C559.296 200.301 559.296 200.911 558.89 201.317C558.687 201.52 541.812 220.228 530.624 287.135C530.827 287.744 530.421 288.15 529.812 288.15Z" fill="#7E9B45"/>
<path d="M575.561 193.796C569.665 201.723 561.936 205.791 558.076 202.947C554.212 200.098 555.837 191.556 561.733 183.629C567.629 175.697 575.358 171.629 579.222 174.478C582.879 177.119 581.254 185.864 575.561 193.796Z" fill="#EABD4E"/>
<path d="M576.374 203.353C567.223 206.812 558.483 205.994 556.65 201.52C555.025 197.046 561.124 190.744 570.275 187.286C579.426 183.833 588.165 184.645 589.999 189.119C591.624 193.39 585.525 199.895 576.374 203.353Z" fill="#F4CF64"/>
<path d="M569.462 186.473C569.462 196.233 565.598 204.369 560.921 204.369C556.243 204.369 552.379 196.437 552.379 186.676C552.379 176.916 556.243 168.78 560.921 168.78C565.598 168.78 569.462 176.713 569.462 186.473Z" fill="#F4CF64"/>
<path d="M541.196 287.744C540.587 287.744 540.181 287.338 540.181 286.728C539.978 276.76 547.504 256.426 547.707 255.614C547.91 255.004 548.519 254.801 548.926 255.004C549.535 255.208 549.738 255.817 549.535 256.223C549.535 256.426 542.014 276.968 542.014 286.525C542.217 287.338 541.811 287.744 541.196 287.744Z" fill="#7E9B45"/>
<path d="M556.395 248.42C554.103 254.938 549.822 259.487 547.014 258.411C544.149 257.466 543.715 251.317 546.124 244.849C548.416 238.331 552.697 233.782 555.504 234.859C558.37 235.804 558.804 241.953 556.395 248.42Z" fill="#E2171A"/>
<path d="M559.594 254.542C554.073 258.904 547.891 260.134 545.9 257.526C543.91 254.914 546.728 249.211 552.191 244.982C557.712 240.62 563.895 239.39 565.886 241.998C567.875 244.609 565.056 250.316 559.594 254.542Z" fill="#D60000"/>
<path d="M551.732 244.645C553.802 251.449 552.793 257.702 549.53 258.661C546.264 259.616 541.961 255.019 540.022 248.268C537.953 241.46 538.96 235.211 542.224 234.252C545.359 233.236 549.664 237.837 551.732 244.645Z" fill="#D60000"/>
<path d="M448.336 253.108C448.336 253.108 455.636 267.661 460.515 260.776C465.395 253.891 448.336 253.108 448.336 253.108Z" fill="#66A2AF"/>
<path d="M463.162 268.629C463.162 268.629 470.542 286.102 475.422 279.217C480.302 272.332 463.162 268.629 463.162 268.629Z" fill="#66A2AF"/>
<path d="M467.759 252.183C467.759 252.183 477.979 266.816 482.859 259.931C487.738 253.046 467.759 252.183 467.759 252.183Z" fill="#66A2AF"/>
<path d="M607.687 380.879C598.535 327.192 575.562 302.791 575.562 302.791C575.562 302.791 437.504 301.572 434.452 305.843C377.728 387.994 400.958 442.978 381.458 475.478C361.957 507.978 357.601 506.957 371.457 513.978C378.977 517.789 386.453 517.404 392.957 512.041C400.644 505.703 406.801 493.739 406.801 486.822C406.801 486.822 401.654 508.962 409.447 518.749C419.442 531.301 431.603 535.64 448.957 531.978L452.145 516.921L453.457 531.978C520.458 577.478 558.457 534.978 563.457 534.978C568.457 534.978 563.457 494.978 569.957 502.478C569.957 502.478 579.316 531.812 592.957 534.978C609.565 538.833 630.296 522.218 633.957 519.978C644.957 509.978 617.853 440.869 607.687 380.879Z" fill="#A40391"/>
<path d="M602.603 413.01C600.572 426.426 592.436 436.395 584.509 435.171C576.577 433.952 571.697 422.161 573.728 408.739C575.764 395.317 583.895 385.353 591.827 386.572C599.754 387.791 604.634 399.588 602.603 413.01Z" fill="#FFD5B6"/>
<path d="M584.098 416.869H583.691C583.082 416.666 582.879 416.056 583.082 415.65C583.285 415.244 586.54 406.093 592.436 404.265C594.874 403.452 597.113 404.062 599.551 405.89C599.957 406.296 600.16 406.905 599.754 407.312C599.348 407.718 598.738 407.926 598.332 407.515C596.504 406.093 594.671 405.687 593.046 406.296C588.165 407.718 585.118 416.26 585.118 416.26C584.915 416.463 584.509 416.869 584.098 416.869Z" fill="#EA9475"/>
<path d="M540.384 470.76V533.187C540.384 555.963 522.493 574.265 500.535 574.265C478.576 574.265 460.884 555.963 460.884 533.187V470.76H540.384Z" fill="#FFD5B6"/>
<path d="M272.405 664.145C272.405 664.145 260.816 629.577 278.91 566.332C288.467 532.78 315.915 595.619 315.915 595.619L305.952 653.775L272.405 664.145Z" fill="#D16A42"/>
<path d="M500.535 459.78C499.519 459.78 487.925 465.067 475.728 470.759H524.321C512.733 465.067 501.55 459.78 500.535 459.78Z" fill="#9D5038"/>
<path d="M524.524 470.76H475.931C470.847 473.197 465.561 475.64 460.884 477.874V500.65C460.884 500.65 484.879 519.765 515.785 519.765C523.712 519.765 531.847 518.546 540.384 515.499V478.895C535.707 476.452 530.014 473.608 524.524 470.76Z" fill="#F09C7C"/>
<path d="M582.676 401.416C582.676 403.114 582.645 404.812 582.582 406.504C582.514 408.202 582.421 409.895 582.29 411.583C582.165 413.27 582.004 414.958 581.811 416.635C581.618 418.312 581.395 419.984 581.139 421.65C580.884 423.312 580.598 424.968 580.28 426.614C579.962 428.265 579.613 429.895 579.238 431.52C578.858 433.145 578.447 434.76 578.004 436.353C577.566 437.952 577.092 439.536 576.592 441.103C576.092 442.671 575.561 444.223 575.004 445.76C574.447 447.291 573.858 448.806 573.243 450.306C572.624 451.801 571.978 453.28 571.306 454.734C570.634 456.192 569.936 457.624 569.212 459.036C568.483 460.447 567.733 461.833 566.952 463.197C566.171 464.562 565.369 465.895 564.54 467.208C563.707 468.52 562.853 469.806 561.978 471.062C561.098 472.322 560.197 473.551 559.275 474.749C558.348 475.952 557.4 477.119 556.431 478.26C555.462 479.4 554.473 480.51 553.462 481.583C552.452 482.661 551.421 483.708 550.368 484.718C549.322 485.728 548.249 486.702 547.165 487.645C546.077 488.593 544.973 489.499 543.853 490.369C542.728 491.244 541.592 492.077 540.436 492.879C539.285 493.681 538.118 494.442 536.936 495.171C535.754 495.895 534.556 496.583 533.348 497.234C532.139 497.879 530.921 498.494 529.691 499.062C528.457 499.635 527.217 500.166 525.967 500.661C524.712 501.15 523.457 501.603 522.186 502.02C520.915 502.431 519.645 502.801 518.358 503.135C517.077 503.463 515.79 503.754 514.493 504.004C513.202 504.254 511.905 504.458 510.603 504.624C509.301 504.791 507.999 504.916 506.691 504.999C505.384 505.083 504.077 505.124 502.77 505.124C501.462 505.124 500.155 505.083 498.848 504.999C497.546 504.916 496.238 504.791 494.936 504.624C493.639 504.458 492.337 504.254 491.046 504.004C489.754 503.754 488.462 503.463 487.181 503.135C485.9 502.801 484.624 502.431 483.353 502.02C482.087 501.603 480.827 501.15 479.577 500.661C478.322 500.166 477.082 499.635 475.853 499.062C474.618 498.494 473.4 497.879 472.191 497.234C470.983 496.583 469.79 495.895 468.608 495.171C467.426 494.442 466.254 493.681 465.103 492.879C463.952 492.077 462.811 491.244 461.691 490.369C460.566 489.499 459.462 488.593 458.379 487.645C457.29 486.702 456.223 485.728 455.171 484.718C454.118 483.708 453.087 482.661 452.077 481.583C451.066 480.51 450.077 479.4 449.108 478.26C448.139 477.119 447.191 475.952 446.27 474.749C445.342 473.551 444.441 472.322 443.566 471.062C442.686 469.806 441.832 468.52 441.004 467.208C440.171 465.895 439.368 464.562 438.587 463.197C437.811 461.833 437.056 460.447 436.332 459.036C435.603 457.624 434.905 456.192 434.233 454.734C433.561 453.28 432.915 451.801 432.301 450.306C431.681 448.806 431.098 447.291 430.535 445.76C429.978 444.223 429.447 442.671 428.947 441.103C428.447 439.536 427.978 437.952 427.535 436.353C427.092 434.76 426.686 433.145 426.306 431.52C425.926 429.895 425.577 428.265 425.259 426.614C424.941 424.968 424.655 423.312 424.4 421.65C424.145 419.984 423.921 418.312 423.728 416.635C423.535 414.958 423.379 413.27 423.249 411.583C423.118 409.895 423.025 408.202 422.962 406.504C422.895 404.812 422.863 403.114 422.863 401.416C422.863 399.718 422.895 398.025 422.962 396.327C423.025 394.635 423.118 392.942 423.249 391.249C423.379 389.562 423.535 387.879 423.728 386.197C423.921 384.52 424.145 382.848 424.4 381.181C424.655 379.52 424.941 377.864 425.259 376.218C425.577 374.572 425.926 372.937 426.306 371.312C426.686 369.687 427.092 368.077 427.535 366.478C427.978 364.879 428.447 363.296 428.947 361.728C429.447 360.161 429.978 358.609 430.535 357.077C431.098 355.541 431.681 354.025 432.301 352.53C432.915 351.03 433.561 349.556 434.233 348.098C434.905 346.645 435.603 345.208 436.332 343.801C437.056 342.39 437.811 340.999 438.587 339.635C439.368 338.275 440.171 336.937 441.004 335.624C441.832 334.312 442.686 333.025 443.566 331.77C444.441 330.51 445.342 329.286 446.27 328.083C447.191 326.885 448.139 325.713 449.108 324.572C450.077 323.431 451.066 322.327 452.077 321.249C453.087 320.171 454.118 319.129 455.171 318.119C456.223 317.103 457.29 316.129 458.379 315.187C459.462 314.244 460.566 313.333 461.691 312.463C462.811 311.588 463.952 310.754 465.103 309.952C466.254 309.155 467.426 308.39 468.608 307.666C469.79 306.937 470.983 306.249 472.191 305.603C473.4 304.952 474.618 304.343 475.853 303.77C477.082 303.197 478.322 302.666 479.577 302.171C480.827 301.681 482.087 301.228 483.353 300.817C484.624 300.405 485.9 300.03 487.181 299.702C488.462 299.369 489.754 299.077 491.046 298.827C492.337 298.583 493.639 298.374 494.936 298.208C496.238 298.041 497.546 297.916 498.848 297.833C500.155 297.749 501.462 297.708 502.77 297.708C504.077 297.708 505.384 297.749 506.691 297.833C507.999 297.916 509.301 298.041 510.603 298.208C511.905 298.374 513.202 298.583 514.493 298.827C515.79 299.077 517.077 299.369 518.358 299.702C519.645 300.03 520.915 300.405 522.186 300.817C523.457 301.228 524.712 301.681 525.967 302.171C527.217 302.666 528.457 303.197 529.691 303.77C530.921 304.343 532.139 304.952 533.348 305.603C534.556 306.249 535.754 306.937 536.936 307.666C538.118 308.39 539.285 309.155 540.436 309.952C541.592 310.754 542.728 311.588 543.853 312.463C544.973 313.333 546.077 314.244 547.165 315.187C548.249 316.129 549.322 317.103 550.368 318.119C551.421 319.129 552.452 320.171 553.462 321.249C554.473 322.327 555.462 323.431 556.431 324.572C557.4 325.713 558.348 326.885 559.275 328.083C560.197 329.286 561.098 330.51 561.978 331.77C562.853 333.025 563.707 334.312 564.54 335.624C565.369 336.937 566.171 338.275 566.952 339.635C567.733 340.999 568.483 342.39 569.212 343.801C569.936 345.208 570.634 346.645 571.306 348.098C571.983 349.556 572.624 351.03 573.243 352.53C573.858 354.025 574.447 355.541 575.004 357.077C575.566 358.609 576.092 360.161 576.592 361.728C577.092 363.296 577.566 364.879 578.004 366.478C578.447 368.077 578.858 369.687 579.238 371.312C579.613 372.937 579.962 374.572 580.28 376.218C580.598 377.864 580.884 379.52 581.139 381.181C581.395 382.848 581.618 384.52 581.811 386.197C582.004 387.879 582.165 389.562 582.29 391.249C582.421 392.942 582.514 394.635 582.582 396.327C582.645 398.025 582.676 399.718 582.676 401.416Z" fill="#FFD5B6"/>
<path d="M478.983 311.129C478.983 311.129 512.123 383.52 582.269 390.233C582.269 390.233 593.045 374.572 597.926 378.843C597.926 378.843 600.978 302.994 545.264 278.796C495.452 257.036 474.306 299.739 478.983 311.129Z" fill="#A40391"/>
<path d="M484.066 309.708C484.066 309.708 431.811 375.187 427.54 396.536C427.54 396.536 420.222 381.895 408.837 388.4C408.837 388.4 413.306 272.697 494.233 275.947C568.238 278.999 484.066 309.708 484.066 309.708Z" fill="#A40391"/>
<path d="M473.696 412.806C473.696 419.312 470.644 424.395 466.983 424.395C463.326 424.395 460.274 419.109 460.274 412.806C460.274 406.296 463.326 401.213 466.983 401.213C470.644 401.01 473.696 406.296 473.696 412.806Z" fill="#51392A"/>
<circle cx="470.957" cy="407.978" r="2" fill="#D9D9D9"/>
<path d="M544.858 412.806C544.858 419.312 541.811 424.395 538.15 424.395C534.488 424.395 531.441 419.109 531.441 412.806C531.441 406.296 534.488 401.213 538.15 401.213C541.811 401.01 544.858 406.296 544.858 412.806Z" fill="#51392A"/>
<path d="M505.618 445.749L499.519 445.546C493.618 443.713 490.165 437.614 491.79 431.515L497.077 412.192C497.28 411.583 497.889 411.379 498.295 411.583C498.905 411.786 499.113 412.192 498.905 412.806L493.618 432.124C492.196 437.004 495.045 442.088 499.926 443.51L505.618 443.713C506.228 443.713 506.634 444.119 506.634 444.728C506.634 445.343 506.025 445.749 505.618 445.749Z" fill="#EA9475"/>
<path d="M566.187 394.423C565.986 394.448 565.784 394.472 565.558 394.294C545.322 380.95 524.342 390.425 524.14 390.449C523.559 390.723 523.107 390.368 522.857 389.989C522.583 389.408 522.938 388.956 523.317 388.706C523.519 388.682 545.459 378.678 566.599 392.738C567.051 393.093 567.123 393.698 566.97 394.125C566.768 394.149 566.591 394.375 566.187 394.423Z" fill="#A8664C"/>
<path d="M439.574 394.605C439.372 394.583 438.99 394.336 438.811 394.111C438.452 393.663 438.52 393.057 439.17 392.721C460.396 378.511 482.216 388.312 482.418 388.335C483.001 388.604 483.135 389.232 482.888 389.613C482.619 390.196 481.991 390.331 481.609 390.084C481.407 390.061 460.35 380.759 440.229 394.269C440.005 394.449 439.781 394.628 439.574 394.605Z" fill="#A8664C"/>
<path d="M507.355 475.484C507.467 475.484 507.69 475.595 507.802 475.706C508.025 475.929 508.025 476.262 507.69 476.484C500.267 480.098 495.445 476.02 495.334 476.02C494.999 475.909 494.887 475.575 494.999 475.353C495.11 475.02 495.445 474.909 495.668 475.02C495.78 475.02 500.542 479.004 507.018 475.706C507.129 475.595 507.241 475.484 507.355 475.484Z" fill="#A8664C"/>
<path d="M663.598 619.004C659.124 600.296 610.327 578.332 575.561 555.963C565.598 549.457 546.28 539.494 541.197 528.916C541.197 528.916 528.796 540.51 500.738 540.51C471.66 540.51 460.275 528.51 460.275 528.51C456.619 539.088 441.978 551.286 432.827 555.76C396.431 574.062 345.4 590.129 340.113 620.426C334.218 654.791 355.16 711.937 368.577 752.4C388.301 811.78 396.634 854.687 396.634 854.687H602.4C602.4 854.687 614.395 813.405 635.134 765.619C654.452 721.494 673.968 662.317 663.598 619.004Z" fill="#E685B0"/>
<path d="M396.837 855.093V882.546L602.603 881.531V855.093H396.837Z" fill="#63403B"/>
<path d="M627.202 946.4C622.53 947.213 617.853 947.822 613.176 948.432C604.228 949.65 595.488 950.468 586.54 951.281C557.056 953.718 527.577 953.515 498.499 951.484C469.223 949.447 440.556 945.176 412.493 939.281C400.092 936.64 387.895 933.588 375.895 930.333C387.285 897.593 397.04 880.109 397.04 880.109H602.806C602.806 880.109 608.296 893.932 616.02 914.473C619.275 923.827 623.139 934.603 627.202 946.4Z" fill="#F2D3C9"/>
<path d="M498.296 949.853C497.483 949.853 496.874 949.244 496.874 948.431C496.671 918.947 498.092 896.374 500.738 881.124C500.941 880.312 501.551 879.9 502.363 879.9C503.176 880.108 503.582 880.718 503.582 881.53C500.941 896.577 499.519 918.947 499.723 948.228C499.723 949.244 499.113 949.853 498.296 949.853Z" fill="#EAC0B5"/>
<path d="M526.764 952.499C525.951 952.499 525.337 951.89 525.337 951.077C525.337 919.76 522.696 881.937 522.493 881.734C522.493 880.921 523.103 880.312 523.915 880.109C524.728 880.109 525.337 880.718 525.54 881.531C525.54 881.937 528.186 919.76 528.389 951.077C528.186 951.687 527.576 952.499 526.764 952.499Z" fill="#EAC0B5"/>
<path d="M412.696 938.062C411.884 938.062 411.274 937.249 411.274 936.437C411.681 931.145 411.884 926.671 412.087 923.827C412.29 920.166 412.29 919.76 412.493 919.556C412.696 918.744 413.509 918.338 414.326 918.541C415.139 918.744 415.545 919.556 415.342 920.166C415.342 920.572 415.139 921.994 415.139 923.827C414.936 926.671 414.733 931.145 414.326 936.437C413.92 937.452 413.306 938.062 412.696 938.062Z" fill="#EAC0B5"/>
<path d="M586.134 950.874C585.525 950.874 584.915 950.468 584.712 949.65C581.051 926.879 579.832 909.999 579.832 909.796C579.832 908.984 580.441 908.374 581.254 908.171C582.066 908.171 582.676 908.781 582.879 909.593C582.879 909.796 583.895 926.468 587.759 949.041C587.962 949.853 587.353 950.671 586.54 950.671L586.134 950.874Z" fill="#EAC0B5"/>
<path d="M481.218 854.89H531.848V880.109H481.218V854.89Z" fill="#EFAA7B"/>
<path d="M554.618 881.531C553.806 881.531 553.196 880.921 553.196 880.109V854.89C553.196 854.077 553.806 853.468 554.618 853.468C555.431 853.468 556.04 854.077 556.04 854.89V880.109C556.04 880.921 555.431 881.531 554.618 881.531Z" fill="#EAC0B5"/>
<path d="M458.446 881.531C457.634 881.531 457.024 880.921 457.024 880.109V854.89C457.024 854.077 457.634 853.468 458.446 853.468C459.259 853.468 459.868 854.077 459.868 854.89V880.109C459.868 880.921 459.259 881.531 458.446 881.531Z" fill="#EAC0B5"/>
<path d="M425.915 881.531C425.103 881.531 424.493 880.921 424.493 880.109V854.89C424.493 854.077 425.103 853.468 425.915 853.468C426.728 853.468 427.337 854.077 427.337 854.89V880.109C427.337 880.921 426.728 881.531 425.915 881.531Z" fill="#EAC0B5"/>
<path d="M587.962 881.531C587.149 881.531 586.54 880.921 586.54 880.109V854.89C586.54 854.077 587.149 853.468 587.962 853.468C588.774 853.468 589.384 854.077 589.384 854.89V880.109C589.384 880.921 588.571 881.531 587.962 881.531Z" fill="#EAC0B5"/>
<path d="M518.832 809.135C518.426 809.135 518.223 808.932 518.02 808.525C517.817 808.119 518.02 807.51 518.426 807.103C519.035 806.697 581.66 771.109 589.587 708.275C589.587 707.666 590.202 707.26 590.811 707.463C591.421 707.463 591.827 708.072 591.624 708.682C583.488 772.536 520.051 808.728 519.442 809.135H518.832Z" fill="#D8784E"/>
<path d="M503.582 567.15C470.644 567.15 447.467 548.239 447.264 548.03C446.858 547.624 446.858 547.015 447.061 546.609C447.467 546.202 448.077 546.202 448.483 546.405C448.889 546.812 499.926 588.093 557.462 546.609C557.874 546.202 558.483 546.405 558.889 546.812C559.296 547.218 559.092 547.827 558.686 548.239C538.962 562.473 520.051 567.15 503.582 567.15Z" fill="#D8784E"/>
<path d="M481.217 846.754C418.389 839.64 399.076 752.4 398.873 751.385C398.67 750.775 399.076 750.369 399.686 750.166C400.295 749.963 400.701 750.369 400.904 750.978C401.108 751.791 420.222 837.807 481.42 844.723C482.029 844.723 482.436 845.333 482.233 845.942C482.233 846.551 481.623 846.754 481.217 846.754Z" fill="#D8784E"/>
<path d="M461.29 324.957C461.29 324.957 470.441 370.301 483.863 378.843H515.379C515.379 378.843 473.899 340.004 478.983 309.093C482.233 289.166 461.29 324.957 461.29 324.957Z" fill="#A40391"/>
<path d="M478.374 312.348C478.374 312.348 480.202 357.291 552.379 381.895C552.379 381.895 488.541 361.155 482.64 310.52L482.03 302.791L478.374 312.348Z" fill="#A40391"/>
<path d="M402.53 412.806C404.566 426.223 412.697 435.989 420.629 434.765C428.556 433.546 433.436 421.749 431.405 408.332C429.368 394.911 421.238 385.15 413.306 386.369C405.176 387.791 400.499 399.588 402.53 412.806Z" fill="#FFD5B6"/>
<path d="M421.035 416.869C420.629 416.869 420.222 416.666 420.019 416.26C420.019 416.26 416.967 407.718 412.087 406.296C410.462 405.687 408.634 406.093 406.801 407.515C406.394 407.926 405.785 407.718 405.379 407.312C404.972 406.905 405.176 406.296 405.582 405.89C408.019 404.062 410.259 403.655 412.696 404.265C418.592 406.093 421.847 415.244 422.051 415.65C422.254 416.26 422.051 416.666 421.441 416.869H421.035Z" fill="#EA9475"/>
<path d="M398.061 572.64C398.061 572.64 379.15 561.249 346.009 551.489C313.884 542.134 220.759 404.671 220.759 404.671C220.759 404.671 241.092 369.285 246.785 357.9C265.29 320.28 313.884 211.692 313.884 211.692L285.212 195.015C285.212 195.015 205.103 311.942 180.098 352.817C175.014 361.155 163.426 380.27 155.493 393.687C150.004 402.838 153.868 420.124 164.238 437.817C188.431 478.285 247.801 576.093 280.337 617.78C324.457 674.108 346.822 689.364 346.822 689.364L398.061 572.64Z" fill="#FFD5B6"/>
<path d="M421.239 561.655C421.239 561.655 391.957 592.77 288.671 496.176C288.671 496.176 290.91 557.385 289.687 581.385C286.03 650.931 272.608 664.145 272.608 664.145L363.088 725.765L420.02 645.234L421.239 561.655Z" fill="#E685B0"/>
<path d="M274.233 210.468C274.233 210.468 274.64 196.233 275.457 185.661C276.473 175.088 287.249 163.291 289.89 154.546C292.535 145.598 320.187 142.957 337.265 147.838C354.343 152.921 364.713 154.749 364.713 154.749L325.067 196.843C325.067 196.843 310.426 208.03 306.358 216.166C302.296 224.296 298.431 236.093 298.431 236.093L274.233 210.468Z" fill="#FFD5B6"/>
<path d="M302.296 187.692C298.228 193.999 286.436 214.942 303.108 215.145C319.78 215.348 341.535 202.947 345.197 200.098C348.853 197.457 353.124 190.541 360.244 186.27C367.358 181.796 367.358 176.306 373.254 176.103C379.15 175.9 380.978 168.374 369.389 168.171C358.004 167.968 354.139 171.832 347.025 178.338C340.113 185.051 310.426 175.088 302.296 187.692Z" fill="#FFD5B6"/>
<path d="M377.322 228.364L375.488 227.551C366.342 248.905 345.4 261.51 323.645 261.51C316.118 261.51 308.598 260.088 301.275 256.833C279.926 247.681 267.322 226.739 267.322 204.978C267.322 197.458 268.743 189.931 271.999 182.609C281.15 161.26 302.092 148.65 323.848 148.65C331.368 148.65 338.895 150.072 346.212 153.327C367.561 162.478 380.165 183.426 380.165 205.181C380.165 212.708 378.743 220.228 375.488 227.551L377.322 228.364L379.15 229.176C382.608 221.249 384.233 213.114 384.233 205.181C384.233 181.796 370.608 159.426 347.837 149.666C339.91 146.213 331.775 144.583 323.848 144.583C300.462 144.583 278.098 158.208 268.337 180.984C264.884 188.916 263.254 197.046 263.254 204.978C263.254 228.364 276.879 250.734 299.65 260.494C307.582 263.952 315.712 265.577 323.645 265.577C347.025 265.577 369.389 251.952 379.15 229.176L377.322 228.364Z" fill="#CC814E"/>
<path d="M353.936 302.994C353.936 302.994 341.738 304.822 315.712 293.437C292.535 283.473 282.571 272.082 282.571 272.082L321.811 181.593L393.181 212.504L353.936 302.994Z" fill="#DB7649"/>
<path d="M393.181 212.504C392.16 214.942 375.285 210.062 355.566 201.52C335.842 192.983 320.796 184.036 321.811 181.39C322.832 178.952 339.707 183.832 359.426 192.369C379.15 200.911 394.4 209.858 393.181 212.504Z" fill="#B25A38"/>
<path d="M355.769 196.233C355.363 197.046 349.462 195.421 342.754 192.369C335.842 189.322 330.759 186.27 330.962 185.457C331.368 184.645 337.264 186.27 343.972 189.322C350.889 192.166 356.175 195.421 355.769 196.233Z" fill="#593514"/>
<path d="M366.546 266.593L437.301 250.937L438.723 259.275L354.14 295.265L366.546 266.593Z" fill="#DB7649"/>
<path d="M290.702 152.718C293.551 148.041 307.785 128.114 312.869 130.145C320.796 133.4 310.02 160.853 305.749 162.681C299.244 165.53 295.582 162.478 299.041 149.259L290.702 152.718Z" fill="#FFD5B6"/>
<path d="M307.176 170.817C308.801 172.239 319.17 162.681 321.405 157.801C321.608 157.598 321.202 158.207 320.998 158.41C318.358 164.306 314.493 169.395 319.17 171.629C323.847 173.66 332.587 162.478 336.248 156.582C339.91 150.681 341.129 150.89 341.129 150.89L343.16 151.093C343.16 151.093 332.181 164.921 342.551 162.884C353.123 160.853 360.243 153.936 360.243 153.936L364.306 154.546C364.306 154.546 367.358 150.478 365.733 147.431C364.103 144.379 359.426 140.718 356.379 141.535C353.327 142.551 351.498 142.957 351.498 142.957C351.498 142.957 355.16 136.858 350.077 132.994C344.993 129.129 339.301 131.973 336.655 134.619C336.655 134.619 330.353 128.723 326.894 130.551C323.441 132.588 314.493 142.551 311.238 150.681C308.394 158.817 303.108 167.561 307.176 170.817Z" fill="#FFD5B6"/>
<path d="M308.191 171.02C307.785 171.02 307.582 171.02 307.379 171.02C305.749 170.614 304.53 169.395 303.921 167.562C302.905 163.291 311.441 149.056 313.072 146.213C313.275 145.801 314.087 145.598 314.493 145.801C314.9 146.01 315.103 146.822 314.9 147.228C311.035 153.53 305.342 164.306 305.952 167.155C306.155 167.968 306.561 168.78 307.785 168.983C309.816 169.395 313.681 167.358 318.561 160.65C324.254 152.718 328.931 145.598 332.181 140.312C333.4 138.483 334.421 136.858 335.233 135.635C335.639 135.228 336.249 135.025 336.655 135.431C337.061 135.838 337.264 136.447 336.858 136.858C336.046 138.077 335.03 139.702 333.811 141.536C330.353 146.822 325.879 154.14 319.983 162.072C314.697 169.598 310.629 171.02 308.191 171.02Z" fill="#EA9475"/>
<path d="M319.983 173.254C319.577 173.254 319.17 173.254 318.764 173.051C317.748 172.645 316.931 171.833 316.524 170.817C315.103 166.749 319.78 159.02 320.389 158.208C320.592 157.801 321.405 157.598 321.811 157.801C322.217 158.004 322.42 158.817 322.217 159.223C320.795 161.26 317.545 167.359 318.561 170.208C318.764 170.817 319.17 171.02 319.577 171.223C323.441 172.645 334.827 158.208 339.097 152.718C339.707 151.905 340.316 151.093 340.722 150.478C344.993 144.989 351.295 142.348 351.702 142.145C352.311 141.942 352.717 142.145 353.123 142.754C353.327 143.364 353.123 143.77 352.514 144.176C352.514 144.176 346.415 146.822 342.347 151.905C341.941 152.515 341.332 153.124 340.722 153.937C333.196 163.291 325.066 173.254 319.983 173.254Z" fill="#EA9475"/>
<path d="M341.129 164.51C339.707 164.51 338.686 164.103 338.28 163.494C334.421 158.411 341.739 150.072 345.197 146.213C345.603 145.801 346.213 145.598 346.619 146.01C347.025 146.416 347.228 147.025 346.822 147.431L346.619 147.635C343.973 150.681 337.061 158.614 339.91 162.478C339.91 162.478 340.114 162.681 341.129 162.681C345.4 162.681 356.582 158.207 362.072 150.89C362.478 150.478 363.088 150.275 363.494 150.681C363.9 151.093 364.103 151.702 363.697 152.109C358.004 159.426 346.416 164.51 341.129 164.51Z" fill="#EA9475"/>
<path d="M301.275 164.306C300.665 164.306 299.853 164.103 299.244 163.9C293.348 161.463 298.634 147.838 299.244 146.416C299.447 145.801 300.056 145.598 300.462 145.801C301.072 146.01 301.275 146.619 301.072 147.025C299.447 151.296 296.806 160.65 300.056 161.869C304.124 163.494 307.582 156.176 307.785 155.973C307.988 155.567 308.598 155.155 309.207 155.567C309.816 155.77 310.02 156.379 309.613 156.989C309.207 157.395 305.952 164.306 301.275 164.306Z" fill="#EA9475"/>
<path d="M302.702 217.588H302.499C300.463 217.182 298.025 215.551 295.583 213.723C293.348 212.301 291.114 210.671 288.874 209.859C286.64 208.843 283.791 208.843 281.353 209.046C278.911 209.046 276.88 209.046 275.661 208.03C275.255 207.624 275.255 207.015 275.458 206.603C275.864 206.197 276.473 206.197 276.88 206.4C277.489 206.812 279.52 206.812 281.353 206.812C283.791 206.812 287.046 206.812 289.687 207.827C292.13 208.843 294.364 210.468 296.603 211.895C299.041 213.52 301.275 215.145 302.906 215.348C303.515 215.551 303.718 215.958 303.718 216.572C303.515 217.182 303.109 217.588 302.702 217.588Z" fill="#EA9475"/>
<path d="M300.26 202.744C299.65 202.744 299.244 202.338 299.244 201.723C299.041 192.983 306.973 182.812 318.765 181.796C319.374 181.796 319.781 182.202 319.781 182.812C319.781 183.426 319.374 183.832 318.765 183.832C307.176 184.645 300.869 194.812 301.072 201.723C301.275 202.338 300.869 202.744 300.26 202.744Z" fill="#EA9475"/>
<path d="M432.608 248.291L437.499 246.916L442.301 263.942L437.405 265.322L432.608 248.291Z" fill="#B25A38"/>
<path d="M685.759 882.546L675.598 936.025C659.535 940.296 643.27 943.754 627.202 946.197C622.53 947.01 617.853 947.619 613.176 948.228C613.988 936.025 614.801 925.249 615.613 917.317C615.613 916.504 615.816 915.489 616.02 914.27C618.259 898.202 625.171 862.01 625.171 862.01L614.801 802.833L636.353 774.973L679.457 785.14C681.493 817.879 685.759 882.546 685.759 882.546Z" fill="#FFD5B6"/>
<path d="M662.582 615.952C662.582 615.952 686.983 671.874 685.759 823.369C685.759 823.369 674.78 827.437 650.181 827.437C627.202 827.437 615.207 821.541 615.207 821.541L599.145 821.134L662.582 615.952Z" fill="#E685B0"/>
<path d="M612.973 820.525C612.363 820.525 611.957 820.119 611.957 819.51C611.957 819.098 613.582 786.155 616.426 689.364C617.04 667.806 628.832 640.556 629.035 640.353C629.238 639.744 629.848 639.541 630.457 639.744C631.066 639.947 631.27 640.556 631.066 641.166C630.863 641.369 619.275 668.213 618.665 689.364C615.613 786.155 614.191 819.098 614.191 819.51C613.988 820.119 613.582 820.525 612.973 820.525Z" fill="#D8784E"/>
<path d="M666.447 805.885C644.488 805.885 615.207 802.426 613.582 802.223C612.973 802.223 612.567 801.614 612.77 801.004C612.77 800.39 613.379 799.983 613.988 800.187C614.598 800.187 667.462 806.494 684.337 802.426C684.947 802.223 685.353 802.629 685.556 803.239C685.759 803.848 685.353 804.254 684.744 804.457C680.473 805.478 673.968 805.885 666.447 805.885Z" fill="#D8784E"/>
<path d="M312.103 242.067C312.499 242.233 312.874 242.431 313.228 242.671C313.588 242.905 313.916 243.176 314.218 243.478C314.52 243.78 314.785 244.108 315.025 244.463C315.265 244.822 315.463 245.197 315.629 245.588C315.791 245.983 315.916 246.39 315.999 246.812C316.082 247.228 316.124 247.65 316.124 248.082C316.124 248.51 316.082 248.931 315.999 249.348C315.916 249.77 315.791 250.176 315.629 250.572C315.463 250.963 315.265 251.338 315.025 251.697C314.785 252.051 314.52 252.379 314.218 252.681C313.916 252.983 313.588 253.254 313.228 253.489C312.874 253.728 312.499 253.926 312.103 254.093C311.713 254.254 311.306 254.379 310.884 254.463C310.468 254.546 310.041 254.588 309.614 254.588C309.187 254.588 308.765 254.546 308.348 254.463C307.926 254.379 307.52 254.254 307.124 254.093C306.733 253.926 306.358 253.728 305.999 253.489C305.645 253.254 305.317 252.983 305.015 252.681C304.713 252.379 304.442 252.051 304.207 251.697C303.968 251.338 303.77 250.963 303.603 250.572C303.442 250.176 303.317 249.77 303.233 249.348C303.15 248.931 303.108 248.51 303.108 248.082C303.108 247.65 303.15 247.228 303.233 246.812C303.317 246.39 303.442 245.983 303.603 245.588C303.77 245.197 303.968 244.822 304.207 244.463C304.442 244.108 304.713 243.78 305.015 243.478C305.317 243.176 305.645 242.905 305.999 242.671C306.358 242.431 306.733 242.233 307.124 242.067C307.52 241.905 307.926 241.78 308.348 241.697C308.765 241.614 309.187 241.572 309.614 241.572C310.041 241.572 310.468 241.614 310.884 241.697C311.306 241.78 311.713 241.905 312.103 242.067Z" fill="#E685B0"/>
<path d="M333.452 254.473C333.848 254.635 334.223 254.838 334.577 255.072C334.936 255.312 335.264 255.582 335.566 255.885C335.868 256.187 336.134 256.515 336.374 256.869C336.613 257.223 336.811 257.598 336.978 257.994C337.139 258.39 337.264 258.796 337.348 259.213C337.431 259.635 337.473 260.056 337.473 260.483C337.473 260.911 337.431 261.332 337.348 261.754C337.264 262.171 337.139 262.582 336.978 262.973C336.811 263.369 336.613 263.744 336.374 264.098C336.134 264.457 335.868 264.786 335.566 265.088C335.264 265.39 334.936 265.655 334.577 265.895C334.223 266.135 333.848 266.332 333.452 266.494C333.061 266.661 332.655 266.786 332.233 266.869C331.816 266.952 331.389 266.994 330.962 266.994C330.535 266.994 330.113 266.952 329.697 266.869C329.275 266.786 328.868 266.661 328.473 266.494C328.082 266.332 327.707 266.135 327.348 265.895C326.993 265.655 326.665 265.39 326.363 265.088C326.061 264.786 325.79 264.457 325.556 264.098C325.316 263.744 325.118 263.369 324.952 262.973C324.79 262.582 324.665 262.171 324.582 261.754C324.499 261.332 324.457 260.911 324.457 260.483C324.457 260.056 324.499 259.635 324.582 259.213C324.665 258.796 324.79 258.39 324.952 257.994C325.118 257.598 325.316 257.223 325.556 256.869C325.79 256.515 326.061 256.187 326.363 255.885C326.665 255.582 326.993 255.312 327.348 255.072C327.707 254.838 328.082 254.635 328.473 254.473C328.868 254.312 329.275 254.187 329.697 254.103C330.113 254.02 330.535 253.978 330.962 253.978C331.389 253.978 331.816 254.02 332.233 254.103C332.655 254.187 333.061 254.312 333.452 254.473Z" fill="#E685B0"/>
<path d="M362.071 266.187C362.071 266.614 362.03 267.036 361.946 267.457C361.863 267.874 361.738 268.286 361.576 268.676C361.41 269.072 361.212 269.447 360.972 269.801C360.738 270.161 360.467 270.489 360.165 270.791C359.863 271.093 359.535 271.358 359.181 271.598C358.821 271.838 358.446 272.036 358.056 272.197C357.66 272.364 357.254 272.489 356.832 272.572C356.415 272.655 355.993 272.697 355.566 272.697C355.139 272.697 354.712 272.655 354.295 272.572C353.873 272.489 353.467 272.364 353.076 272.197C352.681 272.036 352.306 271.838 351.951 271.598C351.592 271.358 351.264 271.093 350.962 270.791C350.66 270.489 350.394 270.161 350.155 269.801C349.915 269.447 349.717 269.072 349.556 268.676C349.389 268.286 349.264 267.874 349.181 267.457C349.097 267.036 349.056 266.614 349.056 266.187C349.056 265.76 349.097 265.338 349.181 264.916C349.264 264.499 349.389 264.093 349.556 263.697C349.717 263.301 349.915 262.926 350.155 262.572C350.394 262.218 350.66 261.89 350.962 261.588C351.264 261.286 351.592 261.015 351.951 260.775C352.306 260.541 352.681 260.338 353.076 260.176C353.467 260.015 353.873 259.89 354.295 259.806C354.712 259.723 355.139 259.681 355.566 259.681C355.993 259.681 356.415 259.723 356.832 259.806C357.254 259.89 357.66 260.015 358.056 260.176C358.446 260.338 358.821 260.541 359.181 260.775C359.535 261.015 359.863 261.286 360.165 261.588C360.467 261.89 360.738 262.218 360.972 262.572C361.212 262.926 361.41 263.301 361.576 263.697C361.738 264.093 361.863 264.499 361.946 264.916C362.03 265.338 362.071 265.76 362.071 266.187Z" fill="#E685B0"/>
<path d="M307.379 270.864C307.379 271.291 307.337 271.713 307.254 272.134C307.171 272.551 307.046 272.963 306.884 273.353C306.717 273.749 306.52 274.124 306.28 274.478C306.046 274.838 305.775 275.166 305.473 275.468C305.171 275.77 304.842 276.035 304.483 276.275C304.129 276.515 303.754 276.713 303.358 276.874C302.967 277.041 302.561 277.166 302.139 277.249C301.723 277.332 301.296 277.374 300.868 277.374C300.441 277.374 300.02 277.332 299.603 277.249C299.181 277.166 298.775 277.041 298.379 276.874C297.988 276.713 297.613 276.515 297.254 276.275C296.9 276.035 296.572 275.77 296.27 275.468C295.967 275.166 295.697 274.838 295.462 274.478C295.223 274.124 295.025 273.749 294.858 273.353C294.697 272.963 294.572 272.551 294.488 272.134C294.405 271.713 294.363 271.291 294.363 270.864C294.363 270.437 294.405 270.015 294.488 269.593C294.572 269.176 294.697 268.77 294.858 268.374C295.025 267.978 295.223 267.603 295.462 267.249C295.697 266.895 295.967 266.567 296.27 266.265C296.572 265.963 296.9 265.692 297.254 265.452C297.613 265.218 297.988 265.015 298.379 264.853C298.775 264.692 299.181 264.567 299.603 264.483C300.02 264.4 300.441 264.358 300.868 264.358C301.296 264.358 301.723 264.4 302.139 264.483C302.561 264.567 302.967 264.692 303.358 264.853C303.754 265.015 304.129 265.218 304.483 265.452C304.842 265.692 305.171 265.963 305.473 266.265C305.775 266.567 306.046 266.895 306.28 267.249C306.52 267.603 306.717 267.978 306.884 268.374C307.046 268.77 307.171 269.176 307.254 269.593C307.337 270.015 307.379 270.437 307.379 270.864Z" fill="#E685B0"/>
<path d="M328.728 283.067C328.728 283.494 328.686 283.916 328.603 284.338C328.519 284.754 328.394 285.161 328.233 285.556C328.066 285.952 327.868 286.327 327.629 286.681C327.394 287.036 327.123 287.364 326.821 287.666C326.519 287.968 326.191 288.239 325.832 288.478C325.478 288.713 325.103 288.916 324.707 289.077C324.316 289.239 323.91 289.364 323.488 289.447C323.071 289.53 322.644 289.572 322.217 289.572C321.79 289.572 321.368 289.53 320.951 289.447C320.53 289.364 320.123 289.239 319.728 289.077C319.337 288.916 318.962 288.713 318.603 288.478C318.248 288.239 317.92 287.968 317.618 287.666C317.316 287.364 317.045 287.036 316.811 286.681C316.571 286.327 316.373 285.952 316.207 285.556C316.045 285.161 315.92 284.754 315.837 284.338C315.754 283.916 315.712 283.494 315.712 283.067C315.712 282.64 315.754 282.218 315.837 281.796C315.92 281.379 316.045 280.968 316.207 280.577C316.373 280.181 316.571 279.806 316.811 279.452C317.045 279.093 317.316 278.765 317.618 278.463C317.92 278.161 318.248 277.895 318.603 277.655C318.962 277.416 319.337 277.218 319.728 277.056C320.123 276.89 320.53 276.765 320.951 276.681C321.368 276.598 321.79 276.556 322.217 276.556C322.644 276.556 323.071 276.598 323.488 276.681C323.91 276.765 324.316 276.89 324.707 277.056C325.103 277.218 325.478 277.416 325.832 277.655C326.191 277.895 326.519 278.161 326.821 278.463C327.123 278.765 327.389 279.093 327.629 279.452C327.868 279.806 328.066 280.181 328.233 280.577C328.394 280.968 328.519 281.379 328.603 281.796C328.686 282.218 328.728 282.64 328.728 283.067Z" fill="#E685B0"/>
<path d="M349.311 282.942C349.707 283.103 350.082 283.306 350.436 283.541C350.796 283.78 351.124 284.051 351.426 284.353C351.728 284.655 351.993 284.983 352.233 285.338C352.473 285.692 352.671 286.067 352.832 286.463C352.999 286.858 353.124 287.265 353.207 287.687C353.29 288.103 353.332 288.525 353.332 288.952C353.332 289.379 353.29 289.806 353.207 290.223C353.124 290.64 352.999 291.051 352.832 291.442C352.671 291.838 352.473 292.213 352.233 292.567C351.993 292.926 351.728 293.254 351.426 293.556C351.124 293.858 350.796 294.129 350.436 294.364C350.082 294.603 349.707 294.801 349.311 294.968C348.921 295.129 348.514 295.254 348.092 295.338C347.676 295.421 347.249 295.463 346.822 295.463C346.395 295.463 345.973 295.421 345.556 295.338C345.134 295.254 344.728 295.129 344.332 294.968C343.941 294.801 343.566 294.603 343.207 294.364C342.853 294.129 342.525 293.858 342.223 293.556C341.921 293.254 341.65 292.926 341.415 292.567C341.176 292.213 340.978 291.838 340.811 291.442C340.65 291.051 340.525 290.64 340.441 290.223C340.358 289.806 340.316 289.379 340.316 288.952C340.316 288.525 340.358 288.103 340.441 287.687C340.525 287.265 340.65 286.858 340.811 286.463C340.978 286.067 341.176 285.692 341.415 285.338C341.65 284.983 341.921 284.655 342.223 284.353C342.525 284.051 342.853 283.78 343.207 283.541C343.566 283.306 343.941 283.103 344.332 282.942C344.728 282.78 345.134 282.655 345.556 282.572C345.973 282.489 346.395 282.447 346.822 282.447C347.249 282.447 347.676 282.489 348.092 282.572C348.514 282.655 348.921 282.78 349.311 282.942Z" fill="#E685B0"/>
<path d="M478.374 313.364C477.967 313.364 477.353 312.957 477.353 312.551C477.353 312.348 473.697 286.114 498.905 276.353C499.519 276.15 499.926 276.353 500.129 276.968C500.332 277.577 500.129 277.983 499.519 278.187C475.728 287.338 478.983 311.129 479.186 312.145C479.389 312.754 478.983 313.364 478.374 313.364Z" fill="#E685B0"/>
<path d="M580.848 380.067C523.306 368.879 495.249 312.145 495.046 311.535C494.842 311.129 495.046 310.52 495.452 310.114C495.858 309.91 496.467 310.114 496.874 310.52C497.077 311.129 524.728 366.848 581.051 377.827C581.66 378.03 581.863 378.437 581.863 379.046C581.863 379.655 581.254 380.067 580.848 380.067Z" fill="#E685B0"/>
<path d="M408.837 375.999H408.634C408.019 375.796 407.816 375.39 408.019 374.775C408.837 371.728 429.368 299.536 467.191 290.181C467.801 289.978 468.207 290.385 468.41 290.999C468.613 291.609 468.207 292.015 467.598 292.218C430.999 301.166 410.259 374.572 410.056 375.39C409.65 375.593 409.243 375.999 408.837 375.999Z" fill="#E685B0"/>
<path d="M598.941 517.327H598.535C597.926 517.124 597.723 516.515 597.926 515.905C605.04 498.416 602.197 443.51 601.993 442.9C601.993 442.291 602.4 441.885 603.009 441.885C603.618 441.885 604.025 442.291 604.025 442.9C604.228 445.135 606.874 498.822 599.754 516.718C599.551 517.124 599.145 517.327 598.941 517.327Z" fill="#E685B0"/>
<path d="M595.691 370.51C595.285 370.51 594.671 370.098 594.671 369.692C591.218 347.734 575.764 325.77 575.561 325.567C575.155 325.161 575.358 324.551 575.764 324.145C576.171 323.739 576.78 323.942 577.186 324.348C577.389 324.551 593.046 346.916 596.707 369.489C596.707 369.895 596.504 370.301 595.691 370.51Z" fill="#E685B0"/>
<path d="M426.728 517.937C426.119 517.937 425.712 517.53 425.712 516.921C425.712 515.499 423.879 480.114 425.712 465.27C425.712 464.661 426.322 464.254 426.931 464.457C427.54 464.457 427.947 465.067 427.744 465.676C425.915 480.317 427.744 516.515 427.744 516.921C427.744 517.327 427.337 517.733 426.728 517.937Z" fill="#E685B0"/>
<path d="M410.055 633.239C409.649 633.239 409.446 633.035 409.243 632.832C400.092 617.577 346.618 575.687 346.212 575.28C345.805 574.874 345.602 574.265 346.009 573.858C346.415 573.452 347.024 573.249 347.43 573.655C349.67 575.483 401.717 616.358 411.071 631.812C411.274 632.223 411.274 632.832 410.665 633.239H410.055Z" fill="#D8784E"/>
<path d="M486.025 464.943C486.385 468.981 493.326 473.978 502.838 473.978C507.392 473.978 514.383 471.285 517.627 465.464C517.761 465.224 517.981 465.116 517.956 464.843C517.949 464.761 517.942 464.711 517.903 464.638C517.799 464.438 517.573 464.428 517.378 464.401C517.258 464.382 517.176 464.395 517.047 464.401C516.815 464.412 516.457 464.478 516.457 464.478C515.971 464.6 515.784 464.637 515.782 464.638C504.957 466.978 498.957 466.978 487.61 464.268C487.351 464.206 486.991 464.034 486.975 464.022C486.779 463.973 486.441 463.975 486.385 463.982C486.329 463.988 486.11 463.966 486.025 464.106C485.887 464.447 485.996 464.617 486.025 464.943Z" fill="#CB6039"/>
<ellipse cx="588.457" cy="443.478" rx="8.5" ry="13.5" fill="#D9D9D9"/>
<path d="M595.909 443.478C595.497 443.478 594.855 443.478 594.855 443.478C594.855 446.704 594.016 449.723 592.758 451.74C592.129 452.747 591.5 453.552 590.661 454.155C589.817 454.759 589.188 454.966 588.35 454.966C587.511 454.966 586.882 454.759 586.043 454.155C584.995 453.35 583.941 451.942 583.102 450.125C582.263 448.314 581.844 445.899 581.844 443.478C581.844 440.253 582.683 437.234 583.941 435.216C584.575 434.21 585.204 433.405 586.043 432.801C586.882 432.197 587.511 431.996 588.35 431.996C589.188 431.996 589.817 432.197 590.661 432.801C591.71 433.606 592.758 435.015 593.597 436.831C594.436 438.643 594.855 441.063 594.855 443.478H595.906H596.957C596.957 439.85 596.118 436.63 594.645 434.21C594.016 433.002 592.968 431.996 591.919 431.186C590.871 430.381 589.608 429.978 588.35 429.978C587.091 429.978 585.833 430.381 584.785 431.186C583.312 432.197 582.054 434.009 581.215 436.223C580.376 438.24 579.957 440.857 579.957 443.478C579.957 447.106 580.796 450.331 582.263 452.747C582.893 453.954 583.941 454.966 584.995 455.771C586.043 456.576 587.301 456.978 588.559 456.978C589.817 456.978 591.081 456.576 592.129 455.771C593.597 454.759 594.855 452.948 595.699 450.734C596.538 448.716 596.957 446.1 596.957 443.478C596.957 443.478 596.318 443.478 595.909 443.478Z" fill="#EAC354"/>
<ellipse cx="417.457" cy="443.478" rx="8.5" ry="13.5" fill="#D9D9D9"/>
<path d="M424.909 443.478C424.497 443.478 423.855 443.478 423.855 443.478C423.855 446.704 423.016 449.723 421.758 451.74C421.129 452.747 420.5 453.552 419.661 454.155C418.817 454.759 418.188 454.966 417.35 454.966C416.511 454.966 415.882 454.759 415.043 454.155C413.995 453.35 412.941 451.942 412.102 450.125C411.263 448.314 410.844 445.899 410.844 443.478C410.844 440.253 411.683 437.234 412.941 435.216C413.575 434.21 414.204 433.405 415.043 432.801C415.882 432.197 416.511 431.996 417.35 431.996C418.188 431.996 418.817 432.197 419.661 432.801C420.71 433.606 421.758 435.015 422.597 436.831C423.436 438.643 423.855 441.063 423.855 443.478H424.906H425.957C425.957 439.85 425.118 436.63 423.645 434.21C423.016 433.002 421.968 431.996 420.919 431.186C419.871 430.381 418.608 429.978 417.35 429.978C416.091 429.978 414.833 430.381 413.785 431.186C412.312 432.197 411.054 434.009 410.215 436.223C409.376 438.24 408.957 440.857 408.957 443.478C408.957 447.106 409.796 450.331 411.263 452.747C411.893 453.954 412.941 454.966 413.995 455.771C415.043 456.576 416.301 456.978 417.559 456.978C418.817 456.978 420.081 456.576 421.129 455.771C422.597 454.759 423.855 452.948 424.699 450.734C425.538 448.716 425.957 446.1 425.957 443.478C425.957 443.478 425.318 443.478 424.909 443.478Z" fill="#EAC354"/>
<circle cx="541.957" cy="407.978" r="2" fill="#D9D9D9"/>
</svg>
