<svg width="1000" height="1000" viewBox="0 0 1000 1000" fill="none" xmlns="http://www.w3.org/2000/svg">
<path d="M525.54 286.793C524.728 286.59 524.524 286.184 524.524 285.569C530.217 257.304 525.337 160.512 525.134 159.491C525.134 158.882 525.54 158.476 526.155 158.476C526.764 158.476 527.17 158.882 527.17 159.491C527.17 160.512 532.254 257.71 526.561 286.184C526.561 286.387 526.155 286.793 525.54 286.793Z" fill="#7E9B45"/>
<path d="M532.66 143.632C534.082 153.392 531.441 161.731 526.764 162.543C522.087 163.153 517.207 155.835 515.785 146.278C514.358 136.517 517.004 128.179 521.681 127.366C526.358 126.548 531.238 133.871 532.66 143.632Z" fill="#F4CF64"/>
<path d="M501.754 292.486C501.347 292.486 500.941 292.08 500.738 291.673C483.66 223.548 448.077 166.205 447.67 165.595C447.467 165.189 447.467 164.58 448.077 164.168C448.483 163.965 449.092 163.965 449.498 164.58C449.905 165.189 485.691 222.736 502.769 291.267C502.972 291.876 502.566 292.283 501.957 292.486H501.754Z" fill="#7E9B45"/>
<path d="M447.873 152.174C452.55 158.679 453.769 165.799 450.514 168.033C447.264 170.273 441.165 166.814 436.488 160.309C431.811 153.799 430.592 146.684 433.842 144.444C436.894 142.007 443.196 145.46 447.873 152.174Z" fill="#EABD4E"/>
<path d="M455.395 153.798C455.801 161.731 452.957 168.439 449.093 168.439C445.228 168.642 441.978 162.34 441.572 154.205C441.166 146.074 444.009 139.564 447.874 139.564C451.739 139.564 455.192 145.871 455.395 153.798Z" fill="#F4CF64"/>
<path d="M440.759 154.814C448.28 157.257 453.567 162.34 452.348 166.002C451.129 169.663 444.009 170.679 436.488 168.033C428.962 165.595 423.676 160.512 424.9 156.851C425.916 153.189 433.03 152.377 440.759 154.814Z" fill="#F4CF64"/>
<path d="M548.52 246.325C536.316 270.929 546.889 228.429 568.035 177.793C578.811 151.97 608.092 138.752 619.478 150.752C648.348 181.252 560.108 222.736 548.52 246.325Z" fill="#8CAD57"/>
<path d="M518.628 294.923C513.951 253.647 506.024 123.298 479.186 109.267C452.347 95.2359 451.128 149.324 469.222 189.184C490.165 235.548 518.831 297.366 518.628 294.923Z" fill="#8CAD57"/>
<path d="M548.52 132.653C559.702 112.111 597.317 98.4859 597.114 121.262C596.91 143.835 547.301 152.173 542.827 163.559C542.827 163.356 543.03 142.616 548.52 132.653Z" fill="#8CAD57"/>
<path d="M421.035 172.913C396.634 187.965 434.655 213.788 449.093 225.788C483.051 254.054 486.91 267.064 486.91 267.064C486.91 267.064 445.431 157.866 421.035 172.913Z" fill="#8CAD57"/>
<path d="M515.785 293.502C515.176 293.502 514.764 293.095 514.764 292.486C512.327 252.627 475.525 134.481 475.118 133.262C474.915 132.653 475.322 132.246 475.728 132.043C476.337 131.84 476.743 132.246 476.947 132.653C477.353 133.871 514.155 252.22 516.598 292.283C516.801 292.892 516.395 293.502 515.785 293.502Z" fill="#7E9B45"/>
<path d="M534.691 289.028C534.082 289.028 533.676 288.418 533.676 287.809C543.436 222.33 596.91 168.642 597.316 168.236C597.723 167.83 598.332 167.83 598.738 168.236C599.145 168.642 599.145 169.257 598.738 169.663C598.129 170.272 545.264 223.345 535.504 288.215C535.707 288.824 535.301 289.028 534.691 289.028Z" fill="#7E9B45"/>
<path d="M474.915 279.673C491.181 294.111 470.848 266.048 440.144 235.142C424.493 219.481 399.077 218.465 394.196 230.465C381.999 261.574 459.259 265.642 474.915 279.673Z" fill="#8CAD57"/>
<path d="M519.644 287.606C519.035 287.606 518.629 286.996 518.629 286.59C521.478 244.903 513.545 219.887 513.342 219.684C513.139 219.075 513.545 218.668 513.951 218.465C514.561 218.262 514.967 218.668 515.175 219.075C515.175 219.278 523.509 244.903 520.457 286.793C520.665 287.2 520.254 287.606 519.644 287.606Z" fill="#7E9B45"/>
<path d="M520.868 204.231C521.68 213.991 518.425 222.33 513.748 222.533C509.071 222.939 504.602 215.21 503.988 205.449C503.175 195.689 506.43 187.351 511.108 187.147C515.785 186.741 520.253 194.47 520.868 204.231Z" fill="#E2171A"/>
<path d="M527.983 210.736C523.306 219.481 515.988 224.564 511.921 222.33C507.853 220.09 508.259 211.147 512.936 202.606C517.613 193.861 524.931 188.778 528.999 191.012C533.066 193.252 532.66 202.2 527.983 210.736Z" fill="#D60000"/>
<path d="M511.718 202.403C518.223 209.924 520.458 218.465 516.801 221.517C513.14 224.564 505.01 221.111 498.702 213.585C492.197 206.059 489.963 197.522 493.619 194.47C497.077 191.418 505.213 194.877 511.718 202.403Z" fill="#D60000"/>
<path d="M497.483 307.126C497.077 307.126 496.874 306.923 496.671 306.72C470.239 262.184 415.546 238.798 415.14 238.595C414.53 238.392 414.327 237.783 414.53 237.173C414.733 236.564 415.343 236.361 415.952 236.564C416.562 236.767 471.864 260.356 498.499 305.501C498.702 305.908 498.702 306.517 498.093 306.923L497.483 307.126Z" fill="#7E9B45"/>
<path d="M497.89 286.793C497.483 286.793 497.077 286.59 496.874 286.184C485.285 256.085 434.452 196.502 433.843 195.892C433.436 195.486 433.436 194.877 434.046 194.47C434.452 194.064 435.067 194.064 435.473 194.674C436.082 195.283 487.114 255.272 498.702 285.569C498.905 286.184 498.702 286.59 498.093 286.793H497.89Z" fill="#7E9B45"/>
<path d="M521.478 282.929C520.868 282.929 520.462 282.319 520.462 281.71C536.316 144.241 551.363 136.517 569.056 127.366C570.478 126.548 572.103 125.736 573.728 124.923C574.139 124.72 574.748 124.72 575.155 125.33C575.358 125.736 575.358 126.345 574.748 126.752C573.118 127.569 571.696 128.382 570.071 129.194C552.993 137.939 538.353 145.663 522.696 281.913C522.493 282.522 521.884 282.929 521.478 282.929Z" fill="#7E9B45"/>
<path d="M569.462 300.215H569.056C568.441 300.012 568.238 299.397 568.65 298.788C569.056 297.976 603.618 223.752 662.379 245.715C662.988 245.918 663.191 246.528 662.988 246.934C662.785 247.543 662.176 247.746 661.769 247.543C604.634 226.194 570.884 298.788 570.478 299.601C570.275 300.012 569.868 300.215 569.462 300.215Z" fill="#6B7C25"/>
<path d="M575.155 288.012C575.155 288.012 616.634 297.772 608.499 280.08C604.634 271.538 575.155 288.012 575.155 288.012Z" fill="#6B7C25"/>
<path d="M576.374 288.824C576.374 288.824 568.035 246.934 555.431 261.777C549.332 268.897 576.374 288.824 576.374 288.824Z" fill="#6B7C25"/>
<path d="M589.999 267.272C589.999 267.272 624.968 280.08 619.681 263.814C617.244 255.882 589.999 267.272 589.999 267.272Z" fill="#6B7C25"/>
<path d="M591.014 267.882C591.014 267.882 588.165 230.668 575.561 242.257C569.462 247.746 591.014 267.882 591.014 267.882Z" fill="#6B7C25"/>
<path d="M609.515 251.611C609.515 251.611 638.593 270.522 637.369 254.663C636.556 247.137 609.515 251.611 609.515 251.611Z" fill="#6B7C25"/>
<path d="M610.124 252.627C610.124 252.627 615.41 218.262 601.587 225.991C594.874 229.856 610.124 252.627 610.124 252.627Z" fill="#6B7C25"/>
<path d="M650.79 243.069C650.79 243.069 678.035 264.83 678.035 248.767C678.238 241.241 650.79 243.069 650.79 243.069Z" fill="#6B7C25"/>
<path d="M632.488 242.46C632.488 242.46 649.978 267.679 654.249 254.257C656.077 247.95 632.488 242.46 632.488 242.46Z" fill="#6B7C25"/>
<path d="M632.697 243.476C632.697 243.476 648.551 217.043 634.525 218.871C627.816 219.684 632.697 243.476 632.697 243.476Z" fill="#6B7C25"/>
<path d="M646.316 243.475C646.316 243.475 667.259 230.059 656.483 226.194C651.4 224.361 646.316 243.475 646.316 243.475Z" fill="#6B7C25"/>
<path d="M497.89 273.575C497.89 273.575 530.218 245.715 511.108 242.054C501.957 240.022 497.89 273.575 497.89 273.575Z" fill="#6B7C25"/>
<path d="M499.317 272.965C499.317 272.965 460.682 255.069 465.156 273.981C467.192 283.132 499.317 272.965 499.317 272.965Z" fill="#6B7C25"/>
<path d="M481.014 252.83C481.014 252.83 505.212 224.767 488.128 223.955C480.201 223.548 481.014 252.83 481.014 252.83Z" fill="#6B7C25"/>
<path d="M482.03 252.22C482.03 252.22 446.452 241.85 452.754 257.71C455.801 265.033 482.03 252.22 482.03 252.22Z" fill="#6B7C25"/>
<path d="M461.29 235.752C461.29 235.752 480.608 208.705 465.358 209.314C458.04 209.72 461.29 235.752 461.29 235.752Z" fill="#6B7C25"/>
<path d="M462.311 235.142C462.311 235.142 429.78 228.835 436.488 242.257C439.738 248.767 462.311 235.142 462.311 235.142Z" fill="#6B7C25"/>
<path d="M427.337 218.871C427.337 218.871 400.092 199.96 400.905 215.007C401.311 222.33 427.337 218.871 427.337 218.871Z" fill="#6B7C25"/>
<path d="M438.723 223.548C438.723 223.548 452.145 197.116 438.723 199.757C432.421 200.975 438.723 223.548 438.723 223.548Z" fill="#6B7C25"/>
<path d="M439.535 222.939C439.535 222.939 409.852 221.72 417.779 232.7C421.441 237.986 439.535 222.939 439.535 222.939Z" fill="#6B7C25"/>
<path d="M505.212 281.095C504.806 281.095 504.603 280.892 504.4 280.689C503.988 280.283 469.832 230.262 423.676 219.074C423.066 218.871 422.863 218.465 422.863 217.856C423.066 217.246 423.473 217.043 424.082 217.043C471.051 228.429 505.618 279.064 506.025 279.47C506.431 279.877 506.228 280.486 505.822 280.892C505.618 281.095 505.415 281.095 505.212 281.095Z" fill="#6B7C25"/>
<path d="M529.812 287.809C528.999 287.606 528.796 287.2 528.796 286.59C540.181 218.871 556.853 200.366 557.463 199.554C557.874 199.147 558.483 199.147 558.89 199.554C559.296 199.96 559.296 200.569 558.89 200.976C558.687 201.179 541.812 219.887 530.624 286.793C530.827 287.403 530.421 287.809 529.812 287.809Z" fill="#7E9B45"/>
<path d="M575.561 193.455C569.665 201.382 561.936 205.45 558.076 202.606C554.212 199.757 555.837 191.215 561.733 183.288C567.629 175.356 575.358 171.288 579.222 174.137C582.879 176.778 581.254 185.522 575.561 193.455Z" fill="#EABD4E"/>
<path d="M576.374 203.012C567.223 206.47 558.483 205.653 556.65 201.179C555.025 196.705 561.124 190.403 570.275 186.944C579.426 183.491 588.165 184.304 589.999 188.778C591.624 193.049 585.525 199.554 576.374 203.012Z" fill="#F4CF64"/>
<path d="M569.462 186.132C569.462 195.892 565.598 204.028 560.921 204.028C556.243 204.028 552.379 196.095 552.379 186.335C552.379 176.574 556.243 168.439 560.921 168.439C565.598 168.439 569.462 176.371 569.462 186.132Z" fill="#F4CF64"/>
<path d="M541.196 287.403C540.587 287.403 540.181 286.996 540.181 286.387C539.978 276.418 547.504 256.085 547.707 255.272C547.91 254.663 548.519 254.46 548.926 254.663C549.535 254.866 549.738 255.476 549.535 255.882C549.535 256.085 542.014 276.627 542.014 286.184C542.217 286.996 541.811 287.403 541.196 287.403Z" fill="#7E9B45"/>
<path d="M607.687 380.538C598.535 326.851 575.562 302.449 575.562 302.449C575.562 302.449 437.504 301.231 434.452 305.502C377.728 387.653 400.958 442.637 381.458 475.137C361.957 507.637 357.601 506.616 371.457 513.637C378.977 517.447 386.453 517.062 392.957 511.699C400.644 505.362 406.801 493.397 406.801 486.481C406.801 486.481 401.654 508.621 409.447 518.408C419.442 530.96 431.603 535.298 448.957 531.637L452.145 516.58L453.457 531.637C520.458 577.137 558.457 534.637 563.457 534.637C568.457 534.637 563.457 494.637 569.957 502.137C569.957 502.137 579.316 531.471 592.957 534.637C609.565 538.492 630.296 521.877 633.957 519.637C644.957 509.637 617.853 440.528 607.687 380.538Z" fill="#A40391"/>
<path d="M602.603 412.668C600.572 426.085 592.436 436.054 584.509 434.83C576.577 433.611 571.697 421.819 573.728 408.397C575.764 394.976 583.895 385.012 591.827 386.231C599.754 387.45 604.634 399.246 602.603 412.668Z" fill="#FFD5B6"/>
<path d="M584.098 416.528H583.691C583.082 416.324 582.879 415.715 583.082 415.309C583.285 414.903 586.54 405.752 592.436 403.923C594.874 403.111 597.113 403.72 599.551 405.548C599.957 405.955 600.16 406.564 599.754 406.97C599.348 407.377 598.738 407.585 598.332 407.173C596.504 405.752 594.671 405.345 593.046 405.955C588.165 407.377 585.118 415.918 585.118 415.918C584.915 416.121 584.509 416.528 584.098 416.528Z" fill="#EA9475"/>
<path d="M540.384 470.418V532.845C540.384 555.621 522.493 573.923 500.535 573.923C478.576 573.923 460.884 555.621 460.884 532.845V470.418H540.384Z" fill="#FFD5B6"/>
<path d="M272.405 663.804C272.405 663.804 260.816 629.236 278.91 565.991C288.467 532.439 315.915 595.278 315.915 595.278L305.952 653.434L272.405 663.804Z" fill="#D16A42"/>
<path d="M500.535 459.439C499.519 459.439 487.925 464.725 475.728 470.418H524.321C512.733 464.725 501.55 459.439 500.535 459.439Z" fill="#9D5038"/>
<path d="M524.524 470.418H475.931C470.847 472.856 465.561 475.298 460.884 477.533V500.309C460.884 500.309 484.879 519.423 515.785 519.423C523.712 519.423 531.847 518.205 540.384 515.158V478.554C535.707 476.111 530.014 473.267 524.524 470.418Z" fill="#F09C7C"/>
<path d="M582.812 402.708C582.812 404.406 582.781 406.104 582.719 407.797C582.651 409.495 582.557 411.188 582.427 412.875C582.302 414.562 582.141 416.25 581.948 417.927C581.755 419.604 581.531 421.276 581.276 422.943C581.021 424.604 580.734 426.26 580.417 427.906C580.099 429.557 579.75 431.188 579.375 432.812C578.995 434.438 578.583 436.052 578.141 437.646C577.703 439.245 577.229 440.828 576.729 442.396C576.229 443.964 575.698 445.516 575.141 447.052C574.583 448.583 573.995 450.099 573.38 451.599C572.76 453.094 572.115 454.573 571.443 456.026C570.771 457.484 570.073 458.917 569.349 460.328C568.62 461.74 567.87 463.125 567.089 464.49C566.307 465.854 565.505 467.188 564.677 468.5C563.844 469.812 562.99 471.099 562.115 472.354C561.234 473.615 560.333 474.844 559.411 476.042C558.484 477.245 557.536 478.411 556.568 479.552C555.599 480.693 554.609 481.802 553.599 482.875C552.589 483.953 551.557 485 550.505 486.01C549.458 487.021 548.385 487.995 547.302 488.938C546.214 489.885 545.109 490.792 543.99 491.661C542.865 492.536 541.729 493.37 540.573 494.172C539.422 494.974 538.255 495.734 537.073 496.464C535.891 497.188 534.693 497.875 533.484 498.526C532.276 499.172 531.057 499.786 529.828 500.354C528.594 500.927 527.354 501.458 526.104 501.953C524.849 502.443 523.594 502.896 522.323 503.312C521.052 503.724 519.781 504.094 518.495 504.427C517.214 504.755 515.927 505.047 514.63 505.297C513.339 505.547 512.042 505.75 510.74 505.917C509.438 506.083 508.135 506.208 506.828 506.292C505.521 506.375 504.214 506.417 502.906 506.417C501.599 506.417 500.292 506.375 498.984 506.292C497.682 506.208 496.375 506.083 495.073 505.917C493.776 505.75 492.474 505.547 491.182 505.297C489.891 505.047 488.599 504.755 487.318 504.427C486.036 504.094 484.76 503.724 483.49 503.312C482.224 502.896 480.964 502.443 479.714 501.953C478.458 501.458 477.219 500.927 475.99 500.354C474.755 499.786 473.536 499.172 472.328 498.526C471.12 497.875 469.927 497.188 468.745 496.464C467.563 495.734 466.391 494.974 465.24 494.172C464.089 493.37 462.948 492.536 461.828 491.661C460.703 490.792 459.599 489.885 458.516 488.938C457.427 487.995 456.359 487.021 455.307 486.01C454.255 485 453.224 483.953 452.214 482.875C451.203 481.802 450.214 480.693 449.245 479.552C448.276 478.411 447.328 477.245 446.406 476.042C445.479 474.844 444.578 473.615 443.703 472.354C442.823 471.099 441.969 469.812 441.141 468.5C440.307 467.188 439.505 465.854 438.724 464.49C437.948 463.125 437.193 461.74 436.469 460.328C435.74 458.917 435.042 457.484 434.37 456.026C433.698 454.573 433.052 453.094 432.438 451.599C431.818 450.099 431.234 448.583 430.672 447.052C430.115 445.516 429.583 443.964 429.083 442.396C428.583 440.828 428.115 439.245 427.672 437.646C427.229 436.052 426.823 434.438 426.443 432.812C426.062 431.188 425.714 429.557 425.396 427.906C425.078 426.26 424.792 424.604 424.536 422.943C424.281 421.276 424.057 419.604 423.865 417.927C423.672 416.25 423.516 414.562 423.385 412.875C423.255 411.188 423.161 409.495 423.099 407.797C423.031 406.104 423 404.406 423 402.708C423 401.01 423.031 399.318 423.099 397.62C423.161 395.927 423.255 394.234 423.385 392.542C423.516 390.854 423.672 389.172 423.865 387.49C424.057 385.813 424.281 384.141 424.536 382.474C424.792 380.813 425.078 379.156 425.396 377.51C425.714 375.865 426.062 374.229 426.443 372.604C426.823 370.979 427.229 369.37 427.672 367.771C428.115 366.172 428.583 364.589 429.083 363.021C429.583 361.453 430.115 359.901 430.672 358.37C431.234 356.833 431.818 355.318 432.438 353.823C433.052 352.323 433.698 350.849 434.37 349.391C435.042 347.937 435.74 346.5 436.469 345.094C437.193 343.682 437.948 342.292 438.724 340.927C439.505 339.568 440.307 338.229 441.141 336.917C441.969 335.604 442.823 334.318 443.703 333.062C444.578 331.802 445.479 330.578 446.406 329.375C447.328 328.177 448.276 327.005 449.245 325.865C450.214 324.724 451.203 323.62 452.214 322.542C453.224 321.464 454.255 320.422 455.307 319.411C456.359 318.396 457.427 317.422 458.516 316.479C459.599 315.536 460.703 314.625 461.828 313.755C462.948 312.88 464.089 312.047 465.24 311.245C466.391 310.448 467.563 309.682 468.745 308.958C469.927 308.229 471.12 307.542 472.328 306.896C473.536 306.245 474.755 305.635 475.99 305.062C477.219 304.49 478.458 303.958 479.714 303.464C480.964 302.974 482.224 302.521 483.49 302.109C484.76 301.698 486.036 301.323 487.318 300.995C488.599 300.661 489.891 300.37 491.182 300.12C492.474 299.875 493.776 299.667 495.073 299.5C496.375 299.333 497.682 299.208 498.984 299.125C500.292 299.042 501.599 299 502.906 299C504.214 299 505.521 299.042 506.828 299.125C508.135 299.208 509.438 299.333 510.74 299.5C512.042 299.667 513.339 299.875 514.63 300.12C515.927 300.37 517.214 300.661 518.495 300.995C519.781 301.323 521.052 301.698 522.323 302.109C523.594 302.521 524.849 302.974 526.104 303.464C527.354 303.958 528.594 304.49 529.828 305.062C531.057 305.635 532.276 306.245 533.484 306.896C534.693 307.542 535.891 308.229 537.073 308.958C538.255 309.682 539.422 310.448 540.573 311.245C541.729 312.047 542.865 312.88 543.99 313.755C545.109 314.625 546.214 315.536 547.302 316.479C548.385 317.422 549.458 318.396 550.505 319.411C551.557 320.422 552.589 321.464 553.599 322.542C554.609 323.62 555.599 324.724 556.568 325.865C557.536 327.005 558.484 328.177 559.411 329.375C560.333 330.578 561.234 331.802 562.115 333.062C562.99 334.318 563.844 335.604 564.677 336.917C565.505 338.229 566.307 339.568 567.089 340.927C567.87 342.292 568.62 343.682 569.349 345.094C570.073 346.5 570.771 347.937 571.443 349.391C572.12 350.849 572.76 352.323 573.38 353.823C573.995 355.318 574.583 356.833 575.141 358.37C575.703 359.901 576.229 361.453 576.729 363.021C577.229 364.589 577.703 366.172 578.141 367.771C578.583 369.37 578.995 370.979 579.375 372.604C579.75 374.229 580.099 375.865 580.417 377.51C580.734 379.156 581.021 380.813 581.276 382.474C581.531 384.141 581.755 385.813 581.948 387.49C582.141 389.172 582.302 390.854 582.427 392.542C582.557 394.234 582.651 395.927 582.719 397.62C582.781 399.318 582.812 401.01 582.812 402.708Z" fill="#FFD5B6"/>
<path d="M478.983 310.788C478.983 310.788 512.123 383.179 582.269 389.892C582.269 389.892 593.045 374.231 597.926 378.502C597.926 378.502 600.978 302.653 545.264 278.455C495.452 256.694 474.306 299.397 478.983 310.788Z" fill="#A40391"/>
<path d="M484.066 309.366C484.066 309.366 431.811 374.845 427.54 396.194C427.54 396.194 420.222 381.554 408.837 388.059C408.837 388.059 413.306 272.356 494.233 275.606C568.238 278.658 484.066 309.366 484.066 309.366Z" fill="#A40391"/>
<path d="M473.696 412.465C473.696 418.97 470.644 424.054 466.983 424.054C463.326 424.054 460.274 418.767 460.274 412.465C460.274 405.955 463.326 400.871 466.983 400.871C470.644 400.668 473.696 405.955 473.696 412.465Z" fill="#51392A"/>
<circle cx="470.957" cy="407.637" r="2" fill="#D9D9D9"/>
<path d="M544.858 412.465C544.858 418.97 541.811 424.054 538.15 424.054C534.488 424.054 531.441 418.767 531.441 412.465C531.441 405.955 534.488 400.871 538.15 400.871C541.811 400.668 544.858 405.955 544.858 412.465Z" fill="#51392A"/>
<path d="M505.618 445.408L499.519 445.205C493.618 443.371 490.165 437.272 491.79 431.174L497.077 411.851C497.28 411.241 497.889 411.038 498.295 411.241C498.905 411.444 499.113 411.851 498.905 412.465L493.618 431.783C492.196 436.663 495.045 441.746 499.926 443.168L505.618 443.371C506.228 443.371 506.634 443.778 506.634 444.387C506.634 445.002 506.025 445.408 505.618 445.408Z" fill="#EA9475"/>
<path d="M566.187 394.082C565.986 394.106 565.784 394.13 565.558 393.953C545.322 380.609 524.342 390.083 524.14 390.107C523.559 390.382 523.107 390.027 522.857 389.647C522.583 389.066 522.938 388.615 523.317 388.365C523.519 388.341 545.459 378.337 566.599 392.396C567.051 392.751 567.123 393.356 566.97 393.784C566.768 393.808 566.591 394.034 566.187 394.082Z" fill="#A8664C"/>
<path d="M439.574 394.264C439.372 394.241 438.99 393.994 438.811 393.77C438.452 393.321 438.52 392.716 439.17 392.379C460.396 378.17 482.216 387.971 482.418 387.993C483.001 388.263 483.135 388.891 482.888 389.272C482.619 389.855 481.991 389.99 481.609 389.743C481.407 389.72 460.35 380.418 440.229 393.928C440.005 394.108 439.781 394.287 439.574 394.264Z" fill="#A8664C"/>
<path d="M663.598 618.663C659.124 599.955 610.327 577.991 575.561 555.621C565.598 549.116 546.28 539.153 541.197 528.574C541.197 528.574 528.796 540.168 500.738 540.168C471.66 540.168 460.275 528.168 460.275 528.168C456.619 538.746 441.978 550.944 432.827 555.418C396.431 573.72 345.4 589.788 340.113 620.085C334.218 654.449 355.16 711.595 368.577 752.059C388.301 811.439 396.634 854.345 396.634 854.345H602.4C602.4 854.345 614.395 813.064 635.134 765.278C654.452 721.153 673.968 661.976 663.598 618.663Z" fill="#E685B0"/>
<path d="M396.837 854.752V882.205L602.603 881.189V854.752H396.837Z" fill="#63403B"/>
<path d="M627.202 946.059C622.53 946.872 617.853 947.481 613.176 948.09C604.228 949.309 595.488 950.127 586.54 950.939C557.056 953.377 527.577 953.174 498.499 951.142C469.223 949.106 440.556 944.835 412.493 938.939C400.092 936.299 387.895 933.247 375.895 929.991C387.285 897.252 397.04 879.767 397.04 879.767H602.806C602.806 879.767 608.296 893.59 616.02 914.132C619.275 923.486 623.139 934.262 627.202 946.059Z" fill="#F2D3C9"/>
<path d="M498.296 949.512C497.483 949.512 496.874 948.903 496.874 948.09C496.671 918.606 498.092 896.033 500.738 880.783C500.941 879.97 501.551 879.559 502.363 879.559C503.176 879.767 503.582 880.377 503.582 881.189C500.941 896.236 499.519 918.606 499.723 947.887C499.723 948.903 499.113 949.512 498.296 949.512Z" fill="#EAC0B5"/>
<path d="M526.764 952.158C525.951 952.158 525.337 951.549 525.337 950.736C525.337 919.418 522.696 881.595 522.493 881.392C522.493 880.58 523.103 879.97 523.915 879.767C524.728 879.767 525.337 880.377 525.54 881.189C525.54 881.595 528.186 919.418 528.389 950.736C528.186 951.345 527.576 952.158 526.764 952.158Z" fill="#EAC0B5"/>
<path d="M412.696 937.72C411.884 937.72 411.274 936.908 411.274 936.095C411.681 930.804 411.884 926.33 412.087 923.486C412.29 919.824 412.29 919.418 412.493 919.215C412.696 918.403 413.509 917.996 414.326 918.199C415.139 918.403 415.545 919.215 415.342 919.824C415.342 920.231 415.139 921.653 415.139 923.486C414.936 926.33 414.733 930.804 414.326 936.095C413.92 937.111 413.306 937.72 412.696 937.72Z" fill="#EAC0B5"/>
<path d="M586.134 950.533C585.525 950.533 584.915 950.127 584.712 949.309C581.051 926.538 579.832 909.658 579.832 909.455C579.832 908.642 580.441 908.033 581.254 907.83C582.066 907.83 582.676 908.439 582.879 909.252C582.879 909.455 583.895 926.127 587.759 948.7C587.962 949.512 587.353 950.33 586.54 950.33L586.134 950.533Z" fill="#EAC0B5"/>
<path d="M481.218 854.549H531.848V879.767H481.218V854.549Z" fill="#EFAA7B"/>
<path d="M554.618 881.189C553.806 881.189 553.196 880.58 553.196 879.767V854.549C553.196 853.736 553.806 853.127 554.618 853.127C555.431 853.127 556.04 853.736 556.04 854.549V879.767C556.04 880.58 555.431 881.189 554.618 881.189Z" fill="#EAC0B5"/>
<path d="M458.446 881.189C457.634 881.189 457.024 880.58 457.024 879.767V854.549C457.024 853.736 457.634 853.127 458.446 853.127C459.259 853.127 459.868 853.736 459.868 854.549V879.767C459.868 880.58 459.259 881.189 458.446 881.189Z" fill="#EAC0B5"/>
<path d="M425.915 881.189C425.103 881.189 424.493 880.58 424.493 879.767V854.549C424.493 853.736 425.103 853.127 425.915 853.127C426.728 853.127 427.337 853.736 427.337 854.549V879.767C427.337 880.58 426.728 881.189 425.915 881.189Z" fill="#EAC0B5"/>
<path d="M587.962 881.189C587.149 881.189 586.54 880.58 586.54 879.767V854.549C586.54 853.736 587.149 853.127 587.962 853.127C588.774 853.127 589.384 853.736 589.384 854.549V879.767C589.384 880.58 588.571 881.189 587.962 881.189Z" fill="#EAC0B5"/>
<path d="M518.832 808.793C518.426 808.793 518.223 808.59 518.02 808.184C517.817 807.778 518.02 807.168 518.426 806.762C519.035 806.356 581.66 770.767 589.587 707.934C589.587 707.325 590.202 706.918 590.811 707.121C591.421 707.121 591.827 707.731 591.624 708.34C583.488 772.194 520.051 808.387 519.442 808.793H518.832Z" fill="#D8784E"/>
<path d="M503.582 566.809C470.644 566.809 447.467 547.897 447.264 547.689C446.858 547.283 446.858 546.673 447.061 546.267C447.467 545.861 448.077 545.861 448.483 546.064C448.889 546.47 499.926 587.752 557.462 546.267C557.874 545.861 558.483 546.064 558.889 546.47C559.296 546.877 559.092 547.486 558.686 547.897C538.962 562.132 520.051 566.809 503.582 566.809Z" fill="#D8784E"/>
<path d="M481.217 846.413C418.389 839.299 399.076 752.059 398.873 751.043C398.67 750.434 399.076 750.028 399.686 749.825C400.295 749.621 400.701 750.028 400.904 750.637C401.108 751.45 420.222 837.465 481.42 844.382C482.029 844.382 482.436 844.991 482.233 845.601C482.233 846.21 481.623 846.413 481.217 846.413Z" fill="#D8784E"/>
<path d="M461.29 324.616C461.29 324.616 470.441 369.96 483.863 378.502H515.379C515.379 378.502 473.899 339.663 478.983 308.752C482.233 288.824 461.29 324.616 461.29 324.616Z" fill="#A40391"/>
<path d="M478.374 312.007C478.374 312.007 480.202 356.949 552.379 381.554C552.379 381.554 488.541 360.814 482.64 310.179L482.03 302.449L478.374 312.007Z" fill="#A40391"/>
<path d="M402.53 412.465C404.566 425.882 412.697 435.647 420.629 434.423C428.556 433.205 433.436 421.408 431.405 407.991C429.368 394.569 421.238 384.809 413.306 386.028C405.176 387.449 400.499 399.246 402.53 412.465Z" fill="#FFD5B6"/>
<path d="M421.035 416.528C420.629 416.528 420.222 416.325 420.019 415.918C420.019 415.918 416.967 407.377 412.087 405.955C410.462 405.345 408.634 405.752 406.801 407.174C406.394 407.585 405.785 407.377 405.379 406.97C404.972 406.564 405.176 405.955 405.582 405.549C408.019 403.72 410.259 403.314 412.696 403.924C418.592 405.752 421.847 414.903 422.051 415.309C422.254 415.918 422.051 416.325 421.441 416.528H421.035Z" fill="#EA9475"/>
<path d="M398.061 572.298C398.061 572.298 379.15 560.908 346.009 551.147C313.884 541.793 220.759 404.33 220.759 404.33C220.759 404.33 241.092 368.944 246.785 357.559C265.29 319.939 313.884 211.35 313.884 211.35L285.212 194.673C285.212 194.673 205.103 311.6 180.098 352.475C175.014 360.814 163.426 379.929 155.493 393.345C150.004 402.496 153.868 419.783 164.238 437.475C188.431 477.944 247.801 575.751 280.337 617.439C324.457 673.767 346.822 689.022 346.822 689.022L398.061 572.298Z" fill="#FFD5B6"/>
<path d="M421.239 561.314C421.239 561.314 391.957 592.429 288.671 495.835C288.671 495.835 290.91 557.043 289.687 581.043C286.03 650.59 272.608 663.804 272.608 663.804L363.088 725.424L420.02 644.892L421.239 561.314Z" fill="#E685B0"/>
<path d="M274.233 210.127C274.233 210.127 274.64 195.892 275.457 185.319C276.473 174.746 287.249 162.949 289.89 154.205C292.535 145.257 320.187 142.616 337.265 147.496C354.343 152.58 364.713 154.408 364.713 154.408L325.067 196.502C325.067 196.502 310.426 207.689 306.358 215.824C302.296 223.955 298.431 235.752 298.431 235.752L274.233 210.127Z" fill="#FFD5B6"/>
<path d="M302.296 187.35C298.228 193.658 286.436 214.6 303.108 214.804C319.78 215.007 341.535 202.606 345.197 199.757C348.853 197.116 353.124 190.199 360.244 185.929C367.358 181.455 367.358 175.965 373.254 175.762C379.15 175.559 380.978 168.033 369.389 167.83C358.004 167.627 354.139 171.491 347.025 177.996C340.113 184.71 310.426 174.746 302.296 187.35Z" fill="#FFD5B6"/>
<path d="M377.322 228.022L375.488 227.21C366.342 248.564 345.4 261.168 323.645 261.168C316.118 261.168 308.598 259.746 301.275 256.491C279.926 247.34 267.322 226.397 267.322 204.637C267.322 197.116 268.743 189.59 271.999 182.267C281.15 160.918 302.092 148.309 323.848 148.309C331.368 148.309 338.895 149.731 346.212 152.986C367.561 162.137 380.165 183.085 380.165 204.84C380.165 212.366 378.743 219.887 375.488 227.21L377.322 228.022L379.15 228.835C382.608 220.908 384.233 212.772 384.233 204.84C384.233 181.455 370.608 159.085 347.837 149.325C339.91 145.871 331.775 144.241 323.848 144.241C300.462 144.241 278.098 157.866 268.337 180.642C264.884 188.575 263.254 196.705 263.254 204.637C263.254 228.022 276.879 250.392 299.65 260.153C307.582 263.611 315.712 265.236 323.645 265.236C347.025 265.236 369.389 251.611 379.15 228.835L377.322 228.022Z" fill="#CC814E"/>
<path d="M353.936 302.653C353.936 302.653 341.738 304.481 315.712 293.095C292.535 283.132 282.571 271.741 282.571 271.741L321.811 181.251L393.181 212.163L353.936 302.653Z" fill="#DB7649"/>
<path d="M393.181 212.163C392.16 214.6 375.285 209.72 355.566 201.179C335.842 192.642 320.796 183.694 321.811 181.048C322.832 178.611 339.707 183.491 359.426 192.028C379.15 200.569 394.4 209.517 393.181 212.163Z" fill="#B25A38"/>
<path d="M355.769 195.892C355.363 196.705 349.462 195.08 342.754 192.027C335.842 188.981 330.759 185.929 330.962 185.116C331.368 184.304 337.264 185.929 343.972 188.981C350.889 191.824 356.175 195.08 355.769 195.892Z" fill="#593514"/>
<path d="M366.546 266.251L437.301 250.595L438.723 258.934L354.14 294.923L366.546 266.251Z" fill="#DB7649"/>
<path d="M290.702 152.376C293.551 147.699 307.785 127.772 312.869 129.804C320.796 133.059 310.02 160.512 305.749 162.34C299.244 165.189 295.582 162.137 299.041 148.918L290.702 152.376Z" fill="#FFD5B6"/>
<path d="M307.176 170.475C308.801 171.897 319.17 162.34 321.405 157.46C321.608 157.257 321.202 157.866 320.998 158.069C318.358 163.965 314.493 169.054 319.17 171.288C323.847 173.319 332.587 162.137 336.248 156.241C339.91 150.34 341.129 150.548 341.129 150.548L343.16 150.751C343.16 150.751 332.181 164.58 342.551 162.543C353.123 160.512 360.243 153.595 360.243 153.595L364.306 154.205C364.306 154.205 367.358 150.137 365.733 147.09C364.103 144.038 359.426 140.376 356.379 141.194C353.327 142.21 351.498 142.616 351.498 142.616C351.498 142.616 355.16 136.517 350.077 132.652C344.993 128.788 339.301 131.632 336.655 134.277C336.655 134.277 330.353 128.382 326.894 130.21C323.441 132.246 314.493 142.21 311.238 150.34C308.394 158.475 303.108 167.22 307.176 170.475Z" fill="#FFD5B6"/>
<path d="M308.191 170.679C307.785 170.679 307.582 170.679 307.379 170.679C305.749 170.272 304.53 169.054 303.921 167.22C302.905 162.949 311.441 148.715 313.072 145.871C313.275 145.46 314.087 145.257 314.493 145.46C314.9 145.668 315.103 146.481 314.9 146.887C311.035 153.189 305.342 163.965 305.952 166.814C306.155 167.627 306.561 168.439 307.785 168.642C309.816 169.054 313.681 167.017 318.561 160.309C324.254 152.377 328.931 145.257 332.181 139.97C333.4 138.142 334.421 136.517 335.233 135.293C335.639 134.887 336.249 134.684 336.655 135.09C337.061 135.496 337.264 136.106 336.858 136.517C336.046 137.736 335.03 139.361 333.811 141.194C330.353 146.481 325.879 153.798 319.983 161.731C314.697 169.257 310.629 170.679 308.191 170.679Z" fill="#EA9475"/>
<path d="M319.983 172.913C319.577 172.913 319.17 172.913 318.764 172.71C317.748 172.304 316.931 171.491 316.524 170.476C315.103 166.408 319.78 158.679 320.389 157.866C320.592 157.46 321.405 157.257 321.811 157.46C322.217 157.663 322.42 158.476 322.217 158.882C320.795 160.918 317.545 167.017 318.561 169.866C318.764 170.476 319.17 170.679 319.577 170.882C323.441 172.304 334.827 157.866 339.097 152.377C339.707 151.564 340.316 150.752 340.722 150.137C344.993 144.647 351.295 142.007 351.702 141.804C352.311 141.601 352.717 141.804 353.123 142.413C353.327 143.022 353.123 143.429 352.514 143.835C352.514 143.835 346.415 146.481 342.347 151.564C341.941 152.174 341.332 152.783 340.722 153.595C333.196 162.95 325.066 172.913 319.983 172.913Z" fill="#EA9475"/>
<path d="M341.129 164.168C339.707 164.168 338.686 163.762 338.28 163.153C334.421 158.069 341.739 149.731 345.197 145.871C345.603 145.46 346.213 145.257 346.619 145.668C347.025 146.074 347.228 146.684 346.822 147.09L346.619 147.293C343.973 150.34 337.061 158.272 339.91 162.137C339.91 162.137 340.114 162.34 341.129 162.34C345.4 162.34 356.582 157.866 362.072 150.548C362.478 150.137 363.088 149.934 363.494 150.34C363.9 150.752 364.103 151.361 363.697 151.767C358.004 159.085 346.416 164.168 341.129 164.168Z" fill="#EA9475"/>
<path d="M301.275 163.965C300.665 163.965 299.853 163.762 299.244 163.559C293.348 161.121 298.634 147.496 299.244 146.074C299.447 145.46 300.056 145.257 300.462 145.46C301.072 145.668 301.275 146.278 301.072 146.684C299.447 150.955 296.806 160.309 300.056 161.528C304.124 163.153 307.582 155.835 307.785 155.632C307.988 155.226 308.598 154.814 309.207 155.226C309.816 155.429 310.02 156.038 309.613 156.647C309.207 157.054 305.952 163.965 301.275 163.965Z" fill="#EA9475"/>
<path d="M302.702 217.246H302.499C300.463 216.84 298.025 215.21 295.583 213.382C293.348 211.96 291.114 210.33 288.874 209.517C286.64 208.502 283.791 208.502 281.353 208.705C278.911 208.705 276.88 208.705 275.661 207.689C275.255 207.283 275.255 206.674 275.458 206.262C275.864 205.856 276.473 205.856 276.88 206.059C277.489 206.47 279.52 206.47 281.353 206.47C283.791 206.47 287.046 206.47 289.687 207.486C292.13 208.502 294.364 210.127 296.603 211.554C299.041 213.179 301.275 214.804 302.906 215.007C303.515 215.21 303.718 215.616 303.718 216.231C303.515 216.84 303.109 217.246 302.702 217.246Z" fill="#EA9475"/>
<path d="M300.26 202.403C299.65 202.403 299.244 201.996 299.244 201.382C299.041 192.642 306.973 182.47 318.765 181.455C319.374 181.455 319.781 181.861 319.781 182.47C319.781 183.085 319.374 183.491 318.765 183.491C307.176 184.304 300.869 194.47 301.072 201.382C301.275 201.996 300.869 202.403 300.26 202.403Z" fill="#EA9475"/>
<path d="M432.608 247.949L437.499 246.574L442.301 263.601L437.405 264.981L432.608 247.949Z" fill="#B25A38"/>
<path d="M685.759 882.205L675.598 935.684C659.535 939.955 643.27 943.413 627.202 945.856C622.53 946.668 617.853 947.278 613.176 947.887C613.988 935.684 614.801 924.908 615.613 916.976C615.613 916.163 615.816 915.147 616.02 913.929C618.259 897.861 625.171 861.668 625.171 861.668L614.801 802.491L636.353 774.632L679.457 784.799C681.493 817.538 685.759 882.205 685.759 882.205Z" fill="#FFD5B6"/>
<path d="M662.582 615.611C662.582 615.611 686.983 671.533 685.759 823.028C685.759 823.028 674.78 827.095 650.181 827.095C627.202 827.095 615.207 821.199 615.207 821.199L599.145 820.793L662.582 615.611Z" fill="#E685B0"/>
<path d="M612.973 820.184C612.363 820.184 611.957 819.778 611.957 819.168C611.957 818.757 613.582 785.814 616.426 689.022C617.04 667.465 628.832 640.215 629.035 640.012C629.238 639.403 629.848 639.199 630.457 639.403C631.066 639.606 631.27 640.215 631.066 640.824C630.863 641.028 619.275 667.871 618.665 689.022C615.613 785.814 614.191 818.757 614.191 819.168C613.988 819.778 613.582 820.184 612.973 820.184Z" fill="#D8784E"/>
<path d="M666.447 805.543C644.488 805.543 615.207 802.085 613.582 801.882C612.973 801.882 612.567 801.272 612.77 800.663C612.77 800.048 613.379 799.642 613.988 799.845C614.598 799.845 667.462 806.153 684.337 802.085C684.947 801.882 685.353 802.288 685.556 802.897C685.759 803.507 685.353 803.913 684.744 804.116C680.473 805.137 673.968 805.543 666.447 805.543Z" fill="#D8784E"/>
<path d="M312.103 241.726C312.499 241.892 312.874 242.09 313.228 242.33C313.588 242.564 313.916 242.835 314.218 243.137C314.52 243.439 314.785 243.767 315.025 244.121C315.265 244.481 315.463 244.856 315.629 245.246C315.791 245.642 315.916 246.048 315.999 246.47C316.082 246.887 316.124 247.309 316.124 247.741C316.124 248.168 316.082 248.59 315.999 249.007C315.916 249.429 315.791 249.835 315.629 250.231C315.463 250.621 315.265 250.996 315.025 251.356C314.785 251.71 314.52 252.038 314.218 252.34C313.916 252.642 313.588 252.913 313.228 253.147C312.874 253.387 312.499 253.585 312.103 253.752C311.713 253.913 311.306 254.038 310.884 254.121C310.468 254.205 310.041 254.246 309.614 254.246C309.187 254.246 308.765 254.205 308.348 254.121C307.926 254.038 307.52 253.913 307.124 253.752C306.733 253.585 306.358 253.387 305.999 253.147C305.645 252.913 305.317 252.642 305.015 252.34C304.713 252.038 304.442 251.71 304.207 251.356C303.968 250.996 303.77 250.621 303.603 250.231C303.442 249.835 303.317 249.429 303.233 249.007C303.15 248.59 303.108 248.168 303.108 247.741C303.108 247.309 303.15 246.887 303.233 246.47C303.317 246.048 303.442 245.642 303.603 245.246C303.77 244.856 303.968 244.481 304.207 244.121C304.442 243.767 304.713 243.439 305.015 243.137C305.317 242.835 305.645 242.564 305.999 242.33C306.358 242.09 306.733 241.892 307.124 241.726C307.52 241.564 307.926 241.439 308.348 241.356C308.765 241.272 309.187 241.231 309.614 241.231C310.041 241.231 310.468 241.272 310.884 241.356C311.306 241.439 311.713 241.564 312.103 241.726Z" fill="#E685B0"/>
<path d="M333.452 254.132C333.848 254.293 334.223 254.496 334.577 254.731C334.936 254.97 335.264 255.241 335.566 255.543C335.868 255.845 336.134 256.173 336.374 256.528C336.613 256.882 336.811 257.257 336.978 257.653C337.139 258.048 337.264 258.455 337.348 258.871C337.431 259.293 337.473 259.715 337.473 260.142C337.473 260.569 337.431 260.991 337.348 261.413C337.264 261.83 337.139 262.241 336.978 262.632C336.811 263.028 336.613 263.403 336.374 263.757C336.134 264.116 335.868 264.444 335.566 264.746C335.264 265.048 334.936 265.314 334.577 265.554C334.223 265.793 333.848 265.991 333.452 266.153C333.061 266.319 332.655 266.444 332.233 266.528C331.816 266.611 331.389 266.653 330.962 266.653C330.535 266.653 330.113 266.611 329.697 266.528C329.275 266.444 328.868 266.319 328.473 266.153C328.082 265.991 327.707 265.793 327.348 265.554C326.993 265.314 326.665 265.048 326.363 264.746C326.061 264.444 325.79 264.116 325.556 263.757C325.316 263.403 325.118 263.028 324.952 262.632C324.79 262.241 324.665 261.83 324.582 261.413C324.499 260.991 324.457 260.569 324.457 260.142C324.457 259.715 324.499 259.293 324.582 258.871C324.665 258.455 324.79 258.048 324.952 257.653C325.118 257.257 325.316 256.882 325.556 256.528C325.79 256.173 326.061 255.845 326.363 255.543C326.665 255.241 326.993 254.97 327.348 254.731C327.707 254.496 328.082 254.293 328.473 254.132C328.868 253.97 329.275 253.845 329.697 253.762C330.113 253.679 330.535 253.637 330.962 253.637C331.389 253.637 331.816 253.679 332.233 253.762C332.655 253.845 333.061 253.97 333.452 254.132Z" fill="#E685B0"/>
<path d="M362.071 265.845C362.071 266.272 362.03 266.694 361.946 267.116C361.863 267.533 361.738 267.944 361.576 268.335C361.41 268.731 361.212 269.106 360.972 269.46C360.738 269.819 360.467 270.147 360.165 270.449C359.863 270.752 359.535 271.017 359.181 271.257C358.821 271.496 358.446 271.694 358.056 271.856C357.66 272.022 357.254 272.147 356.832 272.231C356.415 272.314 355.993 272.356 355.566 272.356C355.139 272.356 354.712 272.314 354.295 272.231C353.873 272.147 353.467 272.022 353.076 271.856C352.681 271.694 352.306 271.496 351.951 271.257C351.592 271.017 351.264 270.752 350.962 270.449C350.66 270.147 350.394 269.819 350.155 269.46C349.915 269.106 349.717 268.731 349.556 268.335C349.389 267.944 349.264 267.533 349.181 267.116C349.097 266.694 349.056 266.272 349.056 265.845C349.056 265.418 349.097 264.996 349.181 264.574C349.264 264.158 349.389 263.752 349.556 263.356C349.717 262.96 349.915 262.585 350.155 262.231C350.394 261.877 350.66 261.548 350.962 261.246C351.264 260.944 351.592 260.673 351.951 260.434C352.306 260.199 352.681 259.996 353.076 259.835C353.467 259.673 353.873 259.548 354.295 259.465C354.712 259.382 355.139 259.34 355.566 259.34C355.993 259.34 356.415 259.382 356.832 259.465C357.254 259.548 357.66 259.673 358.056 259.835C358.446 259.996 358.821 260.199 359.181 260.434C359.535 260.673 359.863 260.944 360.165 261.246C360.467 261.548 360.738 261.877 360.972 262.231C361.212 262.585 361.41 262.96 361.576 263.356C361.738 263.752 361.863 264.158 361.946 264.574C362.03 264.996 362.071 265.418 362.071 265.845Z" fill="#E685B0"/>
<path d="M307.379 270.522C307.379 270.949 307.337 271.371 307.254 271.793C307.171 272.21 307.046 272.621 306.884 273.012C306.717 273.408 306.52 273.783 306.28 274.137C306.046 274.496 305.775 274.824 305.473 275.126C305.171 275.429 304.842 275.694 304.483 275.934C304.129 276.173 303.754 276.371 303.358 276.533C302.967 276.699 302.561 276.824 302.139 276.908C301.723 276.991 301.296 277.033 300.868 277.033C300.441 277.033 300.02 276.991 299.603 276.908C299.181 276.824 298.775 276.699 298.379 276.533C297.988 276.371 297.613 276.173 297.254 275.934C296.9 275.694 296.572 275.429 296.27 275.126C295.967 274.824 295.697 274.496 295.462 274.137C295.223 273.783 295.025 273.408 294.858 273.012C294.697 272.621 294.572 272.21 294.488 271.793C294.405 271.371 294.363 270.949 294.363 270.522C294.363 270.095 294.405 269.673 294.488 269.251C294.572 268.835 294.697 268.429 294.858 268.033C295.025 267.637 295.223 267.262 295.462 266.908C295.697 266.554 295.967 266.225 296.27 265.923C296.572 265.621 296.9 265.35 297.254 265.111C297.613 264.876 297.988 264.673 298.379 264.512C298.775 264.35 299.181 264.225 299.603 264.142C300.02 264.059 300.441 264.017 300.868 264.017C301.296 264.017 301.723 264.059 302.139 264.142C302.561 264.225 302.967 264.35 303.358 264.512C303.754 264.673 304.129 264.876 304.483 265.111C304.842 265.35 305.171 265.621 305.473 265.923C305.775 266.225 306.046 266.554 306.28 266.908C306.52 267.262 306.717 267.637 306.884 268.033C307.046 268.429 307.171 268.835 307.254 269.251C307.337 269.673 307.379 270.095 307.379 270.522Z" fill="#E685B0"/>
<path d="M328.728 282.726C328.728 283.153 328.686 283.574 328.603 283.996C328.519 284.413 328.394 284.819 328.233 285.215C328.066 285.611 327.868 285.986 327.629 286.34C327.394 286.694 327.123 287.022 326.821 287.324C326.519 287.627 326.191 287.897 325.832 288.137C325.478 288.371 325.103 288.574 324.707 288.736C324.316 288.897 323.91 289.022 323.488 289.106C323.071 289.189 322.644 289.231 322.217 289.231C321.79 289.231 321.368 289.189 320.951 289.106C320.53 289.022 320.123 288.897 319.728 288.736C319.337 288.574 318.962 288.371 318.603 288.137C318.248 287.897 317.92 287.627 317.618 287.324C317.316 287.022 317.045 286.694 316.811 286.34C316.571 285.986 316.373 285.611 316.207 285.215C316.045 284.819 315.92 284.413 315.837 283.996C315.754 283.574 315.712 283.153 315.712 282.726C315.712 282.298 315.754 281.877 315.837 281.455C315.92 281.038 316.045 280.627 316.207 280.236C316.373 279.84 316.571 279.465 316.811 279.111C317.045 278.752 317.316 278.423 317.618 278.121C317.92 277.819 318.248 277.554 318.603 277.314C318.962 277.074 319.337 276.877 319.728 276.715C320.123 276.548 320.53 276.423 320.951 276.34C321.368 276.257 321.79 276.215 322.217 276.215C322.644 276.215 323.071 276.257 323.488 276.34C323.91 276.423 324.316 276.548 324.707 276.715C325.103 276.877 325.478 277.074 325.832 277.314C326.191 277.554 326.519 277.819 326.821 278.121C327.123 278.423 327.389 278.752 327.629 279.111C327.868 279.465 328.066 279.84 328.233 280.236C328.394 280.627 328.519 281.038 328.603 281.455C328.686 281.877 328.728 282.298 328.728 282.726Z" fill="#E685B0"/>
<path d="M349.311 282.601C349.707 282.762 350.082 282.965 350.436 283.199C350.796 283.439 351.124 283.71 351.426 284.012C351.728 284.314 351.993 284.642 352.233 284.996C352.473 285.351 352.671 285.726 352.832 286.121C352.999 286.517 353.124 286.923 353.207 287.345C353.29 287.762 353.332 288.184 353.332 288.611C353.332 289.038 353.29 289.465 353.207 289.882C353.124 290.298 352.999 290.71 352.832 291.101C352.671 291.496 352.473 291.871 352.233 292.226C351.993 292.585 351.728 292.913 351.426 293.215C351.124 293.517 350.796 293.788 350.436 294.022C350.082 294.262 349.707 294.46 349.311 294.627C348.921 294.788 348.514 294.913 348.092 294.996C347.676 295.08 347.249 295.121 346.822 295.121C346.395 295.121 345.973 295.08 345.556 294.996C345.134 294.913 344.728 294.788 344.332 294.627C343.941 294.46 343.566 294.262 343.207 294.022C342.853 293.788 342.525 293.517 342.223 293.215C341.921 292.913 341.65 292.585 341.415 292.226C341.176 291.871 340.978 291.496 340.811 291.101C340.65 290.71 340.525 290.298 340.441 289.882C340.358 289.465 340.316 289.038 340.316 288.611C340.316 288.184 340.358 287.762 340.441 287.345C340.525 286.923 340.65 286.517 340.811 286.121C340.978 285.726 341.176 285.351 341.415 284.996C341.65 284.642 341.921 284.314 342.223 284.012C342.525 283.71 342.853 283.439 343.207 283.199C343.566 282.965 343.941 282.762 344.332 282.601C344.728 282.439 345.134 282.314 345.556 282.231C345.973 282.147 346.395 282.106 346.822 282.106C347.249 282.106 347.676 282.147 348.092 282.231C348.514 282.314 348.921 282.439 349.311 282.601Z" fill="#E685B0"/>
<path d="M478.374 313.022C477.967 313.022 477.353 312.616 477.353 312.21C477.353 312.007 473.697 285.772 498.905 276.012C499.519 275.809 499.926 276.012 500.129 276.626C500.332 277.236 500.129 277.642 499.519 277.845C475.728 286.996 478.983 310.788 479.186 311.804C479.389 312.413 478.983 313.022 478.374 313.022Z" fill="#E685B0"/>
<path d="M580.848 379.725C523.306 368.538 495.249 311.804 495.046 311.194C494.842 310.788 495.046 310.179 495.452 309.772C495.858 309.569 496.467 309.772 496.874 310.179C497.077 310.788 524.728 366.507 581.051 377.486C581.66 377.689 581.863 378.095 581.863 378.705C581.863 379.314 581.254 379.725 580.848 379.725Z" fill="#E685B0"/>
<path d="M408.837 375.658H408.634C408.019 375.455 407.816 375.049 408.019 374.434C408.837 371.387 429.368 299.194 467.191 289.84C467.801 289.637 468.207 290.043 468.41 290.658C468.613 291.267 468.207 291.673 467.598 291.877C430.999 300.825 410.259 374.231 410.056 375.049C409.65 375.252 409.243 375.658 408.837 375.658Z" fill="#E685B0"/>
<path d="M598.941 516.986H598.535C597.926 516.783 597.723 516.173 597.926 515.564C605.04 498.074 602.197 443.168 601.993 442.559C601.993 441.949 602.4 441.543 603.009 441.543C603.618 441.543 604.025 441.949 604.025 442.559C604.228 444.793 606.874 498.481 599.754 516.377C599.551 516.783 599.145 516.986 598.941 516.986Z" fill="#E685B0"/>
<path d="M595.691 370.168C595.285 370.168 594.671 369.757 594.671 369.351C591.218 347.392 575.764 325.429 575.561 325.226C575.155 324.819 575.358 324.21 575.764 323.804C576.171 323.397 576.78 323.601 577.186 324.007C577.389 324.21 593.046 346.575 596.707 369.147C596.707 369.554 596.504 369.96 595.691 370.168Z" fill="#E685B0"/>
<path d="M426.728 517.595C426.119 517.595 425.712 517.189 425.712 516.58C425.712 515.158 423.879 479.772 425.712 464.929C425.712 464.319 426.322 463.913 426.931 464.116C427.54 464.116 427.947 464.725 427.744 465.335C425.915 479.975 427.744 516.173 427.744 516.58C427.744 516.986 427.337 517.392 426.728 517.595Z" fill="#E685B0"/>
<path d="M410.055 632.897C409.649 632.897 409.446 632.694 409.243 632.491C400.092 617.236 346.618 575.345 346.212 574.939C345.805 574.533 345.602 573.923 346.009 573.517C346.415 573.111 347.024 572.908 347.43 573.314C349.67 575.142 401.717 616.017 411.071 631.47C411.274 631.882 411.274 632.491 410.665 632.897H410.055Z" fill="#D8784E"/>
<ellipse cx="588.457" cy="443.137" rx="8.5" ry="13.5" fill="#D9D9D9"/>
<path d="M595.909 443.137C595.497 443.137 594.855 443.137 594.855 443.137C594.855 446.362 594.016 449.381 592.758 451.399C592.129 452.405 591.5 453.21 590.661 453.814C589.817 454.418 589.188 454.624 588.35 454.624C587.511 454.624 586.882 454.418 586.043 453.814C584.995 453.009 583.941 451.6 583.102 449.784C582.263 447.972 581.844 445.557 581.844 443.137C581.844 439.912 582.683 436.893 583.941 434.875C584.575 433.869 585.204 433.064 586.043 432.46C586.882 431.856 587.511 431.655 588.35 431.655C589.188 431.655 589.817 431.856 590.661 432.46C591.71 433.265 592.758 434.674 593.597 436.49C594.436 438.302 594.855 440.722 594.855 443.137H595.906H596.957C596.957 439.509 596.118 436.289 594.645 433.869C594.016 432.661 592.968 431.655 591.919 430.845C590.871 430.039 589.608 429.637 588.35 429.637C587.091 429.637 585.833 430.039 584.785 430.845C583.312 431.856 582.054 433.667 581.215 435.881C580.376 437.899 579.957 440.515 579.957 443.137C579.957 446.765 580.796 449.99 582.263 452.405C582.893 453.613 583.941 454.624 584.995 455.429C586.043 456.234 587.301 456.637 588.559 456.637C589.817 456.637 591.081 456.234 592.129 455.429C593.597 454.418 594.855 452.607 595.699 450.393C596.538 448.375 596.957 445.759 596.957 443.137C596.957 443.137 596.318 443.137 595.909 443.137Z" fill="#EAC354"/>
<ellipse cx="417.457" cy="443.137" rx="8.5" ry="13.5" fill="#D9D9D9"/>
<path d="M424.909 443.137C424.497 443.137 423.855 443.137 423.855 443.137C423.855 446.362 423.016 449.381 421.758 451.399C421.129 452.405 420.5 453.21 419.661 453.814C418.817 454.418 418.188 454.624 417.35 454.624C416.511 454.624 415.882 454.418 415.043 453.814C413.995 453.009 412.941 451.6 412.102 449.784C411.263 447.972 410.844 445.557 410.844 443.137C410.844 439.912 411.683 436.893 412.941 434.875C413.575 433.869 414.204 433.064 415.043 432.46C415.882 431.856 416.511 431.655 417.35 431.655C418.188 431.655 418.817 431.856 419.661 432.46C420.71 433.265 421.758 434.674 422.597 436.49C423.436 438.302 423.855 440.722 423.855 443.137H424.906H425.957C425.957 439.509 425.118 436.289 423.645 433.869C423.016 432.661 421.968 431.655 420.919 430.845C419.871 430.039 418.608 429.637 417.35 429.637C416.091 429.637 414.833 430.039 413.785 430.845C412.312 431.856 411.054 433.667 410.215 435.881C409.376 437.899 408.957 440.515 408.957 443.137C408.957 446.765 409.796 449.99 411.263 452.405C411.893 453.613 412.941 454.624 413.995 455.429C415.043 456.234 416.301 456.637 417.559 456.637C418.817 456.637 420.081 456.234 421.129 455.429C422.597 454.418 423.855 452.607 424.699 450.393C425.538 448.375 425.957 445.759 425.957 443.137C425.957 443.137 425.318 443.137 424.909 443.137Z" fill="#EAC354"/>
<circle cx="541.957" cy="407.637" r="2" fill="#D9D9D9"/>
<path d="M556.395 248.079C554.103 254.597 549.822 259.146 547.014 258.07C544.149 257.125 543.715 250.975 546.124 244.508C548.416 237.99 552.697 233.441 555.504 234.517C558.37 235.462 558.804 241.612 556.395 248.079Z" fill="#E2171A"/>
<path d="M559.594 254.201C554.073 258.563 547.891 259.793 545.9 257.185C543.91 254.573 546.728 248.87 552.191 244.64C557.712 240.279 563.895 239.048 565.886 241.657C567.875 244.268 565.056 249.974 559.594 254.201Z" fill="#D60000"/>
<path d="M551.732 244.303C553.802 251.108 552.793 257.361 549.53 258.32C546.264 259.274 541.961 254.678 540.022 247.927C537.953 241.119 538.96 234.87 542.224 233.91C545.359 232.894 549.664 237.496 551.732 244.303Z" fill="#D60000"/>
<path d="M515.676 467.5C514 468 484.176 467 484.176 467C483.176 468.5 486.676 472.5 488.676 474C490.676 475.5 497.676 477.5 501.176 477.5C504.676 477.5 510.176 474.5 512.676 472.5C514.676 470.9 517.352 467 515.676 467.5Z" fill="#CB6039"/>
</svg>
