<svg width="400" height="400" viewBox="0 0 400 400" fill="none" xmlns="http://www.w3.org/2000/svg">
<path d="M296.179 244.236C302.374 233.325 305.394 220.64 303.466 208.134C302.297 200.405 297.774 192.352 288.977 192.599C278.182 192.932 269.803 205.114 263.019 212.083C252.642 222.739 241.917 233.24 227.265 237.437C218.638 239.954 206.581 246.002 202.98 255.992C199.968 264.386 203.654 273.625 211.607 277.737C221.24 282.608 233.879 281.601 244.101 279.75C255.655 277.652 266.961 273.036 276.502 266.152C281.357 262.628 285.88 258.346 289.736 253.56C291.579 255.155 293.5 256.751 295.343 258.346C297.101 259.856 299.617 258.423 299.199 256.077C298.525 252.042 297.519 248.101 296.179 244.236Z" fill="#FC5842"/>
<path d="M244.348 211.069C239.655 211.069 239.655 218.464 244.348 218.464C249.041 218.464 249.119 211.069 244.348 211.069Z" fill="#1D1F33"/>
<path d="M258.079 201.079C253.393 201.079 253.393 208.467 258.079 208.467C262.771 208.382 262.771 201.079 258.079 201.079Z" fill="#1D1F33"/>
<path d="M270.725 190.168C266.039 190.168 266.039 197.556 270.725 197.556C275.417 197.47 275.417 190.168 270.725 190.168Z" fill="#1D1F33"/>
<path d="M219.312 256.325C225.84 253.893 232.291 251.121 238.657 248.101C244.519 245.243 250.381 242.308 255.399 238.111C265.451 229.794 275.247 220.896 282.697 210.147C282.952 209.814 282.364 209.474 282.201 209.814C274.914 220.393 265.281 229.12 255.484 237.267C250.381 241.549 244.596 244.569 238.657 247.427C232.291 250.532 225.763 253.305 219.142 255.736C218.809 255.821 218.979 256.41 219.312 256.325Z" fill="white"/>
<path d="M281.442 224.76C282.782 223.08 284.122 221.399 285.376 219.634C285.632 219.301 285.043 218.968 284.881 219.301C283.618 220.981 282.364 222.662 281.024 224.257C280.776 224.59 281.194 225.008 281.442 224.76Z" fill="white"/>
<path d="M270.221 236.593C273.071 233.906 275.836 231.141 278.515 228.199C278.763 227.866 278.345 227.447 278.097 227.78C275.495 230.715 272.738 233.488 269.803 236.175C269.47 236.43 269.973 236.849 270.221 236.593Z" fill="white"/>
<path d="M242.343 255.659C250.211 251.88 257.575 247.094 264.444 241.634C264.777 241.379 264.282 240.961 264.026 241.216C257.242 246.676 249.878 251.376 242.087 255.155C241.669 255.233 242.002 255.821 242.343 255.659Z" fill="white"/>
<path d="M223.502 263.635C228.357 261.784 233.213 259.856 237.898 257.672C238.239 257.502 237.983 256.998 237.565 257.169C232.88 259.267 228.102 261.281 223.246 263.046C222.999 263.209 223.161 263.798 223.502 263.635Z" fill="white"/>
<path d="M349.605 153.98C340.312 148.768 329.006 150.286 322.059 158.51C313.347 168.841 314.354 182.695 316.027 195.201C317.537 206.624 318.791 216.281 310.25 225.178C304.388 231.304 297.356 236.09 290.069 240.295C280.358 245.917 269.385 252.716 265.869 263.294C263.855 267.492 263.189 271.859 265.118 276.142C270.136 287.479 284.121 283.785 292.33 278.999C316.7 264.89 341.566 246.676 355.219 221.399C365.681 202.086 373.216 167.16 349.605 153.98Z" fill="#FFDEB8"/>
<path d="M368.531 217.791C373.804 199.825 376.569 179.923 369.367 162.119C369.119 161.531 368.275 161.786 368.446 162.375C375.562 180.093 372.798 199.739 367.609 217.62C367.439 218.124 368.36 218.379 368.531 217.791Z" fill="#FFDEB8"/>
</svg>
