<svg width="400" height="400" viewBox="0 0 400 400" fill="none" xmlns="http://www.w3.org/2000/svg">
<path d="M259.507 54.8479C219.734 7.74895 144.199 25.5446 116.987 76.9338C108.445 91.6241 101.414 105.649 88.938 117.567C78.2203 127.727 66.4108 136.795 57.6213 148.806C16.0825 214.545 89.6892 326.298 167.563 300.944C250.547 265.004 328.088 135.114 259.507 54.8479Z" fill="#FFF4E8"/>
<path d="M296.097 148.883C295.594 147.458 296.43 140.574 296.849 138.057C297.189 135.455 297.608 132.931 297.855 130.329C298.111 128.145 297.693 126.387 297.019 124.288C296.771 123.444 294.007 116.142 292.667 118.658C291.831 120.168 292.667 122.19 293 123.7C293.255 125.039 293.588 126.472 293.503 127.897C293.418 129.237 292.915 130.329 292.164 131.335C292.334 128.904 292.334 126.472 291.993 124.033C291.66 121.516 290.653 119.162 289.484 116.901C288.81 115.638 288.23 114.376 287.471 113.121C286.89 112.115 286.301 110.852 285.38 110.179C284.962 109.931 284.714 109.761 284.458 109.761V109.675C284.21 109.002 283.87 107.662 283.119 107.406C280.942 106.57 281.113 111.1 281.113 112.03C281.361 117.737 283.119 123.444 282.112 129.074C281.949 126.472 281.616 123.862 280.772 121.431C280.269 119.835 279.432 118.325 278.596 116.815C278.178 116.056 277.76 115.305 277.342 114.546C277.009 113.873 276.676 113.036 276.002 112.618C275.251 112.115 274.577 112.533 274.329 113.369C273.911 114.802 274.329 116.56 274.662 117.907C275.336 121.013 276.25 124.118 276.505 127.223C276.42 128.571 276.335 129.825 276.335 131.173C276.25 133.519 276.172 135.788 276.002 138.142C275.413 137.802 274.832 137.469 274.244 137.05C272.734 136.044 271.65 134.526 270.558 133.101C269.721 131.924 268.885 130.755 267.793 129.74C267.042 129.074 265.873 128.067 264.781 128.23C261.931 128.656 265.532 133.945 266.206 134.952C268.297 138.475 270.395 142.084 272.571 145.615C273.655 147.288 274.832 148.883 276.25 150.316C278.093 152.159 280.942 155.187 280.942 155.187C280.942 155.187 296.097 185.582 302.378 200.443C291.745 194.139 278.263 188.85 267.545 182.81C255.906 176.258 246.776 172.231 234.974 168.452C234.974 168.452 234.974 193.132 235.477 206.32H236.817C237.901 204.299 239.071 202.286 240.496 200.443C262.52 210.936 285.38 219.586 308.829 226.215C313.684 227.562 318.54 228.902 323.898 228.313C330.179 227.562 332.022 219.919 331.271 215.636C326.748 192.04 296.353 149.642 296.097 148.883Z" fill="#FFC2B3"/>
<mask id="mask0_346_1895" style="mask-type:luminance" maskUnits="userSpaceOnUse" x="136" y="148" width="151" height="227">
<path d="M136.122 148.922H286.789V375H136.122V148.922Z" fill="white"/>
</mask>
<g mask="url(#mask0_346_1895)">
<path d="M252.723 295.818C248.875 289.359 244.77 282.978 241.417 276.256C237.654 268.698 235.555 260.977 236.895 252.498C238.157 244.521 240.836 237.048 240.836 228.902C240.914 220.925 239.326 213.12 238.157 205.228C236.647 195.657 235.307 170.295 234.804 168.452C234.804 168.452 228.19 164.673 223.916 162.574L175.438 149.727C167.059 149.224 157.519 150.145 157.519 150.145C158.355 159.214 157.937 168.367 156.179 177.265C154.754 184.653 151.904 193.721 145.624 198.507C145.957 210.68 145.539 224.457 145.88 236.708C146.213 249.137 146.213 261.481 144.455 273.825C142.859 285.58 140.436 297.25 138.925 309.083C137.415 321.179 135.239 349.809 136.494 375H286.216C283.033 345.945 267.545 320.42 252.723 295.818Z" fill="#BED1F7"/>
</g>
<path d="M301.371 199.939C302.796 202.789 304.554 205.391 306.653 207.916C306.9 208.249 307.404 207.745 307.148 207.412C305.143 204.973 303.47 202.371 302.045 199.599C301.712 199.18 301.123 199.513 301.371 199.939Z" fill="#FF7A5A"/>
<path d="M295.509 148.883C295.509 150.819 294.092 152.244 292.582 153.251C292.249 153.506 292.582 154.095 292.915 153.839C294.595 152.747 296.098 150.99 296.183 148.883C296.183 148.465 295.509 148.465 295.509 148.883Z" fill="#FF7A5A"/>
<path d="M275.166 138.142C278.348 139.823 281.616 141.581 283.87 144.523C284.126 144.856 284.714 144.523 284.458 144.183C282.197 141.162 278.852 139.312 275.499 137.554C275.081 137.298 274.748 137.887 275.166 138.142Z" fill="#FF7A5A"/>
<path d="M283.87 109.59C282.786 110.434 282.871 111.774 283.204 112.951C283.707 114.717 284.544 116.474 285.209 118.155C285.883 119.835 286.72 121.686 286.805 123.529C286.89 125.543 286.72 127.641 286.549 129.74C286.549 130.166 287.223 130.166 287.223 129.74C287.308 127.982 287.471 126.131 287.471 124.373C287.471 122.856 287.138 121.516 286.634 120.091C286.054 118.573 285.465 117.063 284.876 115.638C284.373 114.376 282.7 111.356 284.211 110.264C284.629 109.931 284.296 109.342 283.87 109.59Z" fill="#FF7A5A"/>
<path d="M233.883 254.093C226.851 260.219 217.551 262.24 208.598 263.75C197.71 265.508 186.822 266.77 175.857 267.444C175.439 267.444 175.439 268.11 175.857 268.032C187.078 267.273 198.291 266.011 209.35 264.168C218.224 262.658 227.354 260.559 234.301 254.426C234.634 254.263 234.216 253.838 233.883 254.093Z" fill="#84A2D9"/>
<path d="M201.311 271.052C208.675 270.634 215.963 269.542 223.079 267.862C223.497 267.777 223.335 267.188 222.917 267.273C215.792 268.954 208.59 270.046 201.311 270.464C200.893 270.464 200.893 271.052 201.311 271.052Z" fill="#84A2D9"/>
<path d="M162.955 150.316C163.544 169.041 165.387 193.217 147.219 204.888C146.879 205.143 147.219 205.647 147.552 205.391C165.89 193.636 164.218 169.289 163.544 150.316C163.629 149.975 162.955 149.975 162.955 150.316Z" fill="#84A2D9"/>
<path d="M182.555 166.268C194.272 176.761 211.355 176.591 224.589 169.118C224.922 168.956 224.589 168.367 224.256 168.615C211.278 175.925 194.527 176.088 182.973 165.85C182.718 165.509 182.3 166.013 182.555 166.268Z" fill="#84A2D9"/>
<path d="M198.717 65.4261C192.514 61.7322 184.561 62.4059 179.287 67.3621C176.608 69.8789 175.098 73.1546 173.928 76.5929C173.255 78.6915 172.589 80.7902 171.752 82.8114C170.916 84.7396 169.654 86.5052 168.484 88.3483C160.028 101.784 161.956 121.26 172.256 133.186C174.85 136.206 178.033 138.808 181.548 140.659C185.986 143.013 190.841 143.85 195.612 145.36C194.946 132.094 199.05 65.5965 198.717 65.4261Z" fill="#1D1F33"/>
<path d="M224.001 162.66C224.001 162.66 212.78 155.605 213.531 149.557L214.956 135.873C216.969 134.611 224.752 123.614 225.844 115.383C228.19 97.8347 195.534 84.0659 195.534 84.0659C175.601 87.2564 174.013 106.57 174.013 106.57C172.836 124.118 176.941 137.468 187.658 140.156L186.233 145.027C183.724 150.401 175.601 149.812 175.601 149.812C185.312 163.829 201.141 174.918 224.001 162.66Z" fill="#FFC2B3"/>
<path d="M208.343 133.604C208.343 133.604 200.637 140.744 191.848 140.744C190.423 140.744 188.998 140.574 187.496 140.156L186.737 142.673C189.331 143.517 191.763 144.02 194.024 144.02C199.553 144.02 204.238 141.163 208.343 133.604Z" fill="#FF886B"/>
<path d="M187.991 112.951C187.914 112.951 187.829 112.951 187.829 113.121C187.325 114.128 186.737 115.05 186.233 115.971C185.815 116.645 185.397 117.319 185.149 118.07C184.979 118.496 184.894 118.999 185.149 119.417C185.482 119.921 186.071 120.091 186.574 120.168C186.652 120.168 186.822 120.168 186.907 120.168C187.744 120.168 188.495 119.835 189.083 119.247C189.254 119.077 189.083 118.829 188.913 118.829C188.835 118.829 188.835 118.829 188.75 118.914C188.247 119.332 187.573 119.665 186.907 119.665C186.737 119.665 186.489 119.665 186.319 119.588C185.815 119.417 185.482 119.162 185.568 118.573C185.738 117.822 186.233 117.148 186.652 116.475C187.24 115.468 187.914 114.461 188.417 113.369C188.332 113.121 188.162 112.951 187.991 112.951Z" fill="#FF775D"/>
<path d="M193.102 105.145C193.435 104.301 193.939 103.465 194.272 103.635C196.951 104.471 200.389 106.988 201.814 108.583C204.997 112.277 205.16 113.284 204.571 112.951C202.565 111.689 200.552 110.179 197.873 108.498C195.696 107.073 192.932 105.478 193.102 105.145Z" fill="#1D1F33"/>
<path d="M274.662 162.071C272.819 158.462 269.303 156.356 266.206 154.01C262.775 151.408 260.591 148.217 259.174 144.097C256.913 137.213 256.41 129.407 250.795 124.203C247.612 121.26 243.516 119.162 241.835 114.879C240.333 110.938 240.836 106.57 241.084 102.458C241.417 97.8347 241.417 93.3045 240.163 88.7665C239.497 86.4201 238.575 84.1511 237.398 81.9673C235.811 77.5997 231.877 73.5728 226.766 70.4675C225.093 69.3756 223.335 68.454 221.407 67.6951C208.846 62.2356 193.017 62.073 187.573 72.9843C185.149 76.4303 195.364 84.0659 195.364 84.0659C202.233 102.706 213.113 110.264 215.792 113.121C215.963 115.468 215.963 117.822 215.715 120.168C215.297 125.125 213.701 129.74 212.447 134.526C210.433 141.999 210.186 150.649 216.133 156.108C219.316 159.043 224.752 160.476 228.694 162.156C232.961 163.914 237.313 165.68 241.921 166.439C244.182 166.772 246.443 166.772 248.704 167.02C251.299 167.275 253.56 168.111 255.821 169.289C259.004 170.969 262.187 172.982 265.788 173.401C268.8 173.741 272.231 173.153 274.244 170.636C276.505 168.111 276.087 164.758 274.662 162.071Z" fill="#1D1F33"/>
<path d="M213.283 114.376C212.865 115.05 212.532 115.809 212.362 116.645C211.773 119.835 213.198 123.785 216.381 124.373C216.969 124.451 217.473 124.451 218.054 124.373C220.733 123.947 223.916 122.19 224.419 118.829C225.093 114.631 223.079 111.689 219.811 111.1C217.388 110.597 214.708 112.192 213.283 114.376Z" fill="#FFC2B3"/>
<path d="M220.067 115.135C219.982 115.22 219.982 115.135 220.067 115.135C219.146 115.468 218.394 115.971 217.806 116.645C217.217 117.404 216.969 118.411 216.799 119.332C216.799 119.588 216.969 119.665 217.132 119.665C217.302 119.665 217.473 119.588 217.473 119.332C217.55 118.658 217.721 117.992 218.054 117.404H218.224C218.309 117.404 218.394 117.481 218.472 117.481H218.557L218.898 117.822L218.975 117.907L219.06 117.992V118.658L218.975 118.829V118.914L218.898 119.077L218.813 119.247C218.813 119.247 218.813 119.247 218.813 119.332L218.727 119.417L218.557 119.503L218.472 119.588C218.309 119.665 218.224 119.835 218.309 120.006C218.394 120.091 218.472 120.168 218.642 120.168C218.727 120.168 218.727 120.168 218.813 120.091C219.06 119.921 219.316 119.665 219.478 119.417C219.734 118.914 219.811 118.325 219.564 117.737C219.316 117.234 218.898 116.978 218.394 116.815C218.813 116.312 219.393 115.971 219.982 115.723C220.152 115.638 220.315 115.468 220.237 115.305C220.315 115.305 220.152 115.135 220.067 115.135Z" fill="#FF775D"/>
<path d="M195.364 114.043C195.193 114.802 195.612 115.553 196.285 115.638C196.874 115.723 197.54 115.22 197.625 114.461C197.795 113.71 197.377 112.951 196.703 112.866C196.037 112.781 195.449 113.284 195.364 114.043Z" fill="#0D0E17"/>
<path d="M179.953 111.526C179.79 112.277 180.209 113.036 180.875 113.121C181.463 113.207 182.137 112.695 182.214 111.944C182.385 111.185 181.967 110.434 181.293 110.349C180.712 110.179 180.038 110.682 179.953 111.526Z" fill="#0D0E17"/>
<path d="M183.725 101.196C180.875 101.025 176.856 102.202 175.013 103.209C174.594 103.465 174.517 103.465 174.517 103.465C174.261 103.968 174.099 105.648 174.099 105.648C175.516 105.308 177.026 104.804 178.784 104.471C181.216 103.968 184.398 103.379 184.398 103.046C184.313 102.202 184.058 101.196 183.725 101.196Z" fill="#1D1F33"/>
<path d="M180.371 125.039C182.137 125.628 188.162 126.89 189.672 127.138C189.672 127.138 188.247 124.536 185.482 123.862C182.633 123.281 180.371 125.039 180.371 125.039Z" fill="white"/>
<path d="M217.132 110.094C211.773 101.529 208.095 91.9571 206.252 81.9673C206.167 81.5491 205.578 81.7195 205.663 82.1377C207.506 92.2126 211.192 101.784 216.551 110.434C216.799 110.767 217.388 110.434 217.132 110.094Z" fill="#0D0E17"/>
<path d="M222.917 122.856C225.596 132.427 230.033 141.248 239.071 146.033C243.345 148.302 248.116 149.472 252.05 152.244C255.736 154.846 261.513 162.575 256.913 166.772C256.572 167.02 257.075 167.446 257.331 167.19C260.591 164.255 258.756 159.043 256.657 156.023C253.893 151.996 249.626 149.898 245.274 148.132C239.992 145.948 235.222 143.517 231.373 139.234C227.269 134.526 225.17 128.656 223.498 122.778C223.412 122.352 222.832 122.437 222.917 122.856Z" fill="#0D0E17"/>
<path d="M214.623 156.023C209.767 155.187 205.911 151.741 203.82 147.373C201.311 142.169 201.729 136.044 203.317 130.584C204.827 125.543 208.009 121.012 208.598 115.638C209.094 110.434 206.755 105.478 204.153 101.11C200.893 95.5734 196.703 90.0287 196.618 83.3147C196.618 82.4706 195.364 82.4706 195.364 83.3147C195.449 89.022 198.376 93.9781 201.311 98.7639C204.494 103.883 208.095 109.59 207.421 115.886C207.088 119.076 205.493 122.019 204.238 124.954C203.069 127.564 202.147 130.251 201.559 133.016C200.475 138.057 200.637 143.516 202.984 148.217C205.245 152.747 209.349 156.356 214.452 157.2C215.126 157.37 215.459 156.108 214.623 156.023Z" fill="#1D1F33"/>
<path d="M195.364 83.4773C194.357 82.1376 193.691 80.6275 193.017 79.0323C192.351 77.2667 191.848 75.5862 192.096 73.6579C192.514 70.2119 194.698 67.4473 197.455 65.5113C197.795 65.2635 197.455 64.7601 197.122 65.0079C194.272 67.0213 191.933 69.8789 191.515 73.4024C191.259 75.2532 191.592 77.0188 192.266 78.6915C192.932 80.4572 193.691 82.2228 194.775 83.8181C195.031 84.0659 195.611 83.7329 195.364 83.4773Z" fill="#0D0E17"/>
<path d="M173.928 81.4639C174.765 79.5357 176.105 77.8552 177.444 76.3451C178.784 74.7499 180.294 73.3172 181.967 72.0627C185.397 69.4607 189.502 67.8655 193.854 68.1984C194.272 68.1984 194.272 67.6099 193.854 67.6099C189.416 67.3621 185.15 68.9574 181.634 71.5593C179.953 72.8139 178.451 74.2465 177.111 75.7566C175.686 77.3519 174.261 79.1175 173.34 81.1309C173.255 81.4639 173.758 81.8046 173.928 81.4639Z" fill="#0D0E17"/>
<path d="M157.596 150.231C132.978 149.642 109.537 180.122 101.746 187.928C96.0547 193.636 88.179 201.449 81.9838 206.653C76.5398 211.269 71.5139 216.814 69.0901 223.698C67.247 228.987 66.581 236.545 73.1944 238.559C79.56 240.487 86.7541 238.644 92.4537 235.624C98.9819 232.178 105.347 226.47 110.118 220.926C116.313 213.708 136.161 191.793 141.016 185.412C143.03 190.871 145.709 198.592 145.709 198.592C162.204 185.156 157.596 150.231 157.596 150.231Z" fill="#FFC2B3"/>
<path d="M146.964 192.629H119.666C118.497 192.629 117.405 191.793 117.157 190.616L104.178 135.618C103.837 134.022 105.014 132.094 106.687 132.094H134.07C135.239 132.094 136.246 132.931 136.579 134.108L149.558 189.524C149.813 191.119 148.636 192.629 146.964 192.629Z" fill="#444978"/>
<path d="M145.88 194.062H118.574C117.405 194.062 116.313 193.217 116.065 192.04L104.093 136.632C103.76 135.037 104.929 133.519 106.602 133.519H132.893C134.07 133.519 135.077 134.363 135.41 135.54L148.389 190.948C148.722 192.544 147.552 194.062 145.88 194.062Z" fill="#1D1F33"/>
<path d="M140.095 184.908C138.422 184.908 135.077 186.922 133.148 187.843C130.213 189.191 126.953 189.439 123.77 189.864C125.699 186.837 128.796 184.405 131.809 182.639C133.652 181.547 139.514 178.612 140.683 177.265C142.526 175.166 141.357 173.323 139.173 173.486C137.415 173.571 130.384 176.762 128.626 177.683C125.528 179.364 122.516 181.214 119.581 183.313C121.509 180.711 123.267 177.35 125.776 175.422C127.457 174.16 134.821 171.728 136.161 170.381C137.082 169.459 137.756 168.112 137.082 167.105C136.246 165.765 134.403 165.928 133.063 166.354C130.972 167.02 125.699 169.203 123.77 170.295C121.757 171.387 117.157 174.074 115.562 175.67C114.555 172.231 112.882 168.956 112.379 165.424C113.974 161.901 118.745 159.043 117.908 154.846C116.816 149.812 110.118 158.037 109.119 159.214C107.779 160.809 105.595 162.908 105.1 165.006C104.844 166.098 105.348 167.19 105.595 168.197C106.013 169.544 106.439 170.969 106.772 172.309C107.191 173.904 106.772 175.166 106.354 176.676C105.936 178.272 105.433 179.867 105.015 181.462C104.093 184.49 103.086 187.425 101.917 190.283C100.91 191.46 99.8183 192.714 98.7341 193.891C98.7341 193.891 104.426 203.207 110.203 208.163C110.203 208.163 111.039 207.327 112.464 206.483C113.889 205.647 115.477 205.391 116.987 204.803C119.078 204.051 120.921 202.789 122.516 201.279C123.352 200.443 124.103 199.513 124.777 198.507C125.273 197.67 125.614 196.826 126.535 196.245C127.286 195.82 128.208 195.572 129.044 195.316C131.724 194.309 134.233 193.055 136.749 191.708C138.507 190.786 140.769 189.353 141.69 187.51C142.193 186.248 141.775 184.908 140.095 184.908Z" fill="#FFC2B3"/>
<path d="M102.839 189.779C92.539 199.095 82.1543 208.582 75.0376 220.678C74.782 221.096 75.3706 221.429 75.6184 221.011C82.6577 209.007 93.1198 199.513 103.334 190.197C103.59 189.942 103.172 189.524 102.839 189.779Z" fill="#FF7A5A"/>
<path d="M103.257 186.418C103.001 187.595 102.838 188.85 102.668 190.027C102.668 190.197 102.838 190.368 103.001 190.368C103.171 190.368 103.334 190.197 103.334 190.027C103.419 188.85 103.675 187.681 103.922 186.589C103.922 186.418 103.837 186.248 103.675 186.163C103.504 186.085 103.334 186.248 103.257 186.418Z" fill="#FF7A5A"/>
<path d="M112.72 206.32C116.15 205.228 120.588 204.222 122.764 201.031C123.856 199.351 124.437 197.415 126.28 196.408C128.038 195.486 130.051 195.068 131.979 194.48C132.397 194.309 132.227 193.721 131.809 193.806C130.051 194.309 128.293 194.728 126.698 195.486C124.94 196.245 124.018 197.5 123.097 199.18C122.098 201.031 120.921 202.371 119 203.292C116.987 204.299 114.726 204.973 112.55 205.647C112.046 205.817 112.217 206.483 112.72 206.32Z" fill="#FF7A5A"/>
<path d="M112.217 205.894C107.353 218.579 98.1458 229.49 86.9248 236.963C86.5918 237.219 86.9248 237.8 87.2578 237.552C98.6492 229.994 107.942 218.912 112.883 206.065C113.053 205.647 112.379 205.476 112.217 205.894Z" fill="#FF7A5A"/>
<path d="M112.634 205.647C110.118 205.817 107.694 205.391 105.433 204.299C105.014 204.137 104.674 204.725 105.1 204.888C107.438 205.98 110.04 206.483 112.634 206.32C113.053 206.32 113.053 205.562 112.634 205.647Z" fill="#FF7A5A"/>
<path d="M368.016 100.651C347.077 85.0344 336.032 104.808 350.705 123.313C353.587 128.996 351.612 136.299 351.94 142.068C353.175 155.735 368.26 152.08 373.123 142.068C380.624 130.099 379.885 109.395 368.016 100.651Z" fill="#FC5842"/>
<path d="M290.99 71.0264C308.074 80.598 336.455 86.8939 355.715 88.9073L339.476 130.129C316.7 127.697 293.585 123.167 273.404 111.83L290.99 71.0264Z" fill="#D7E6FF"/>
<path d="M354.964 88.9924C343.58 92.8567 332.188 96.628 320.797 100.492C319.21 100.996 317.537 101.584 315.942 102.087C315.523 102.258 315.694 102.846 316.112 102.676C327.496 98.8118 338.887 95.0327 350.278 91.1762C351.866 90.6728 353.539 90.0843 355.134 89.5809C355.552 89.4958 355.382 88.822 354.964 88.9924Z" fill="#BED1F7"/>
<path d="M316.275 102.173C308.995 93.1897 301.793 84.2067 294.506 75.3011C293.5 74.0466 292.415 72.6991 291.409 71.4446C291.161 71.1038 290.735 71.6072 290.99 71.8628C298.278 80.8458 305.48 89.8288 312.759 98.7267C313.766 99.9889 314.857 101.336 315.856 102.591C316.112 102.932 316.53 102.506 316.275 102.173Z" fill="#BED1F7"/>
<path d="M339.39 129.377C334.535 120.813 329.757 112.333 324.901 103.768C324.235 102.591 323.562 101.336 322.896 100.159C322.725 99.8185 322.137 100.159 322.392 100.492C327.248 109.057 332.018 117.537 336.874 126.102C337.547 127.279 338.213 128.533 338.887 129.71C339.057 130.051 339.638 129.71 339.39 129.377Z" fill="#BED1F7"/>
<path d="M273.992 111.915C285.128 107.88 296.179 103.853 307.315 99.8186C308.91 99.2378 310.497 98.6492 312.093 98.0607C312.426 97.8903 312.341 97.3018 311.922 97.4721C300.787 101.499 289.736 105.534 278.6 109.561C277.005 110.149 275.417 110.738 273.822 111.326C273.404 111.489 273.574 112.077 273.992 111.915Z" fill="#BED1F7"/>
<path d="M285.043 29.2942C272.9 25.6003 261.346 24.1754 248.453 24.005C236.14 23.8346 221.07 28.0319 215.796 34.1651C211.436 39.1987 210.77 45.7501 214.286 51.3723C218.894 58.5974 227.102 61.029 235.218 61.788C247.531 63.0502 258.249 64.8933 269.973 69.0905C273.992 70.5154 279.599 72.6218 285.376 73.9615C284.54 77.485 283.2 80.9311 281.357 84.2068C280.273 86.1351 282.03 88.2337 284.121 87.3973C290.069 85.1284 294.506 80.8459 297.185 75.4716C304.387 75.3012 310.583 72.6218 313.014 64.6455C318.118 48.1043 300.957 34.1651 285.043 29.2942Z" fill="#BED1F7"/>
<path d="M227.265 37.4409C252.472 34.8389 277.593 40.8792 300.616 50.869C300.957 51.0393 301.29 50.4508 300.957 50.3656C277.841 40.2907 252.557 34.2504 227.265 36.8523C226.847 36.8523 226.847 37.4409 227.265 37.4409Z" fill="white"/>
<path d="M226.181 43.9844C233.042 43.2333 239.996 43.1481 246.857 43.6515C247.275 43.6515 247.275 43.0629 246.857 43.0629C239.996 42.5596 233.042 42.6447 226.181 43.3959C225.763 43.3959 225.763 44.0696 226.181 43.9844Z" fill="white"/>
<path d="M241.584 51.1244C248.956 51.2947 256.235 52.2163 263.437 53.556C263.855 53.6412 264.026 53.0526 263.608 52.9674C256.32 51.5425 248.956 50.7062 241.584 50.5358C241.165 50.5358 241.165 51.1244 241.584 51.1244Z" fill="white"/>
<path d="M226.429 51.7129C229.279 51.3722 232.121 51.2096 234.885 51.1244C235.304 51.1244 235.304 50.4506 234.885 50.5358C232.036 50.621 229.194 50.7914 226.429 51.1244C226.096 51.1244 226.096 51.7981 226.429 51.7129Z" fill="white"/>
<path d="M283.371 51.2096C286.383 52.2163 289.481 53.3082 292.416 54.4853C292.749 54.6479 292.919 54.0593 292.578 53.8967C289.566 52.7196 286.553 51.6277 283.541 50.621C283.2 50.5358 283.038 51.1244 283.371 51.2096Z" fill="white"/>
<path d="M253.393 44.3253C261.347 45.332 269.222 47.0124 276.92 49.1963C277.338 49.2737 277.508 48.6851 277.09 48.6077C269.3 46.3387 261.432 44.6583 253.393 43.7367C252.975 43.6516 252.975 44.2401 253.393 44.3253Z" fill="white"/>
<path d="M290.154 61.2845C291.912 61.9582 293.755 62.6242 295.513 63.3831C295.846 63.5535 296.016 62.9649 295.675 62.7946C293.918 62.0357 292.074 61.3697 290.317 60.696C289.984 60.5256 289.821 61.1141 290.154 61.2845Z" fill="white"/>
<path d="M271.816 55.4921C275.58 56.4136 279.266 57.5055 282.867 58.6826C283.285 58.7678 283.37 58.1792 283.037 58.0941C279.351 56.917 275.665 55.8251 271.979 54.9035C271.646 54.7332 271.476 55.4069 271.816 55.4921Z" fill="white"/>
<path d="M195.701 46.5089C186.818 37.944 149.895 38.0292 145.876 38.1919C128.707 38.8656 112.042 41.8857 97.1427 51.2095C88.5159 56.5838 79.2231 64.808 78.6346 75.727C78.1312 85.8019 87.424 91.1763 96.2212 93.1897C107.442 95.7917 117.153 91.5093 126.949 86.3905C132.726 83.3626 138.503 80.4276 145.039 79.3357C151.738 78.1586 158.522 78.5768 165.298 78.329C176.023 77.9108 185.145 75.4714 193.184 67.9985C199.882 61.7026 203.235 53.8967 195.701 46.5089Z" fill="#FFDEB8"/>
<path d="M85.2479 36.9374C103.586 31.0597 122.76 28.2874 142.019 28.7056C142.608 28.7056 142.608 27.784 142.019 27.784C122.682 27.3659 103.423 30.2156 85.0001 36.0933C84.4116 36.1785 84.6594 37.1001 85.2479 36.9374Z" fill="#FFDEB8"/>
<path d="M110.958 46.1682C103.586 40.5461 91.0253 41.2973 82.654 43.3184C69.2569 46.5864 45.7229 58.427 38.521 70.4379C35.346 75.8122 35.8416 85.4613 46.1411 89.4107C60.2119 94.785 82.987 83.1148 99.0635 76.2304C100.821 78.4917 102.246 81.0162 103.338 83.7034C104.089 85.6316 106.854 85.9646 107.52 83.7034C108.697 79.8391 109.03 75.9749 108.612 72.0332C111.795 69.5938 114.644 67.3248 116.232 62.965C118.741 56.4135 116.232 50.2028 110.958 46.1682Z" fill="#FC5842"/>
<path d="M47.1479 74.7203C63.7278 63.2979 82.4838 55.1512 102.161 50.954C102.579 50.8688 102.417 50.2803 101.999 50.3655C82.236 54.6479 63.48 62.7094 46.8149 74.217C46.4819 74.3796 46.8149 74.9681 47.1479 74.7203Z" fill="white"/>
<path d="M49.8272 79.0803C58.7018 73.4581 68.0798 68.502 77.8837 64.4751C78.2167 64.3047 78.0463 63.7162 77.7133 63.8866C67.9172 67.9134 58.5392 72.8696 49.5794 78.4917C49.1612 78.7473 49.4942 79.2507 49.8272 79.0803Z" fill="white"/>
<path d="M81.6472 62.8798C85.163 61.4549 88.6865 60.1075 92.2797 58.8452C92.7057 58.7677 92.5353 58.094 92.1171 58.2644C88.5162 59.4337 85.0004 60.7812 81.4846 62.2913C81.0664 62.3764 81.2291 63.0502 81.6472 62.8798Z" fill="white"/>
<path d="M52.762 83.8661C56.6959 81.1789 60.8854 78.9177 65.3227 77.0669C65.6557 76.8965 65.4853 76.3157 65.1523 76.4783C60.715 78.3291 56.4404 80.6756 52.5064 83.3627C52.1734 83.5331 52.5064 84.1216 52.762 83.8661Z" fill="white"/>
</svg>
