<svg width="400" height="400" viewBox="0 0 400 400" fill="none" xmlns="http://www.w3.org/2000/svg">
<path d="M155.587 220.478C136.242 209.644 111.879 219.215 92.7054 208.722C69.3417 194.698 90.5216 169.089 92.2794 150.286C94.2077 129.377 74.2824 119.302 56.1072 125.265C52.4211 126.69 48.9053 128.456 45.3896 130.555C-3.25822 159.935 0.590543 232.063 51.3369 257.672C71.0144 267.577 93.4565 273.207 113.552 274.546C131.054 274.965 155.424 274.299 167.311 259.182C178.029 245.661 169.324 227.61 155.587 220.478Z" fill="#FFDEB8"/>
<path d="M21.3601 246.924C35.1754 265.734 56.7811 276.227 78.9677 281.772C79.5562 281.934 79.804 281.013 79.2232 280.842C57.3619 275.305 35.8414 264.975 22.1964 246.42C21.8634 246.002 21.0271 246.42 21.3601 246.924Z" fill="#FFDEB8"/>
<path d="M141.771 253.134C122.264 255.155 93.7044 249.696 75.204 243.989L73.8643 288.23C95.7178 294.952 118.741 299.985 141.771 297.554V253.134Z" fill="#D7E6FF"/>
<path d="M75.4518 244.825C84.4116 252.886 93.3714 260.863 102.331 268.924C103.586 270.101 104.84 271.185 106.18 272.363C106.521 272.618 106.939 272.2 106.606 271.944C97.6461 263.883 88.6863 255.907 79.7265 247.845C78.4642 246.676 77.2097 245.584 75.8699 244.407C75.6221 244.066 75.204 244.492 75.4518 244.825Z" fill="#BED1F7"/>
<path d="M106.521 272.362C116.735 266.988 126.949 261.614 137.164 256.247C138.589 255.488 140.099 254.729 141.524 253.978C141.857 253.808 141.524 253.219 141.183 253.475C130.968 258.849 120.754 264.224 110.54 269.59C109.115 270.349 107.605 271.108 106.18 271.859C105.847 272.029 106.18 272.533 106.521 272.362Z" fill="#BED1F7"/>
<path d="M74.6154 288.153C82.4059 282.275 90.1886 276.312 97.8938 270.434C98.9857 269.59 100.155 268.754 101.239 267.918C101.58 267.662 101.239 267.159 100.906 267.414C93.1235 273.292 85.3331 279.247 77.6278 285.125C76.5437 285.969 75.3666 286.805 74.2824 287.649C74.0269 287.812 74.3598 288.4 74.6154 288.153Z" fill="#BED1F7"/>
<path d="M141.686 297.05C133.059 288.904 124.355 280.757 115.728 272.618C114.559 271.441 113.305 270.349 112.127 269.172C111.88 268.924 111.376 269.342 111.709 269.59C120.336 277.737 129.04 285.884 137.667 294.03C138.844 295.2 140.099 296.292 141.268 297.469C141.601 297.724 142.019 297.298 141.686 297.05Z" fill="#BED1F7"/>
</svg>
