<svg width="400" height="400" viewBox="0 0 400 400" fill="none" xmlns="http://www.w3.org/2000/svg">
<path d="M368.016 100.651C347.077 85.0344 336.032 104.808 350.705 123.313C353.587 128.996 351.612 136.299 351.94 142.068C353.175 155.735 368.26 152.08 373.123 142.068C380.624 130.099 379.885 109.395 368.016 100.651Z" fill="#FC5842"/>
<path d="M339.979 198.144C306.401 191.593 267.039 202.427 243.257 227.448C228.102 244.151 226.181 275.391 246.695 288.486C276.835 316.279 330.431 328.119 366.936 306.452C406.88 276.397 388.038 207.46 339.979 198.144Z" fill="#FFF4E8"/>
<path d="M290.99 71.0264C308.074 80.598 336.455 86.8939 355.715 88.9073L339.476 130.129C316.7 127.697 293.585 123.167 273.404 111.83L290.99 71.0264Z" fill="#D7E6FF"/>
<path d="M354.964 88.9924C343.58 92.8567 332.188 96.628 320.797 100.492C319.21 100.996 317.537 101.584 315.942 102.087C315.523 102.258 315.694 102.846 316.112 102.676C327.496 98.8118 338.887 95.0327 350.278 91.1762C351.866 90.6728 353.539 90.0843 355.134 89.5809C355.552 89.4958 355.382 88.822 354.964 88.9924Z" fill="#BED1F7"/>
<path d="M316.275 102.173C308.995 93.1897 301.793 84.2067 294.506 75.3011C293.5 74.0466 292.415 72.6991 291.409 71.4446C291.161 71.1038 290.735 71.6072 290.99 71.8628C298.278 80.8458 305.48 89.8288 312.759 98.7267C313.766 99.9889 314.857 101.336 315.856 102.591C316.112 102.932 316.53 102.506 316.275 102.173Z" fill="#BED1F7"/>
<path d="M339.39 129.377C334.535 120.813 329.757 112.333 324.901 103.768C324.235 102.591 323.562 101.336 322.896 100.159C322.725 99.8185 322.137 100.159 322.392 100.492C327.248 109.057 332.018 117.537 336.874 126.102C337.547 127.279 338.213 128.533 338.887 129.71C339.057 130.051 339.638 129.71 339.39 129.377Z" fill="#BED1F7"/>
<path d="M273.992 111.915C285.128 107.88 296.179 103.853 307.315 99.8186C308.91 99.2378 310.497 98.6492 312.093 98.0607C312.426 97.8903 312.341 97.3018 311.922 97.4721C300.787 101.499 289.736 105.534 278.6 109.561C277.005 110.149 275.417 110.738 273.822 111.326C273.404 111.489 273.574 112.077 273.992 111.915Z" fill="#BED1F7"/>
<path d="M296.179 244.236C302.374 233.325 305.394 220.64 303.466 208.134C302.297 200.405 297.774 192.352 288.977 192.599C278.182 192.932 269.803 205.114 263.019 212.083C252.642 222.739 241.917 233.24 227.265 237.437C218.638 239.954 206.581 246.002 202.98 255.992C199.968 264.386 203.654 273.625 211.607 277.737C221.24 282.608 233.879 281.601 244.101 279.75C255.655 277.652 266.961 273.036 276.502 266.152C281.357 262.628 285.88 258.346 289.736 253.56C291.579 255.155 293.5 256.751 295.343 258.346C297.101 259.856 299.617 258.423 299.199 256.077C298.525 252.042 297.519 248.101 296.179 244.236Z" fill="#FC5842"/>
<path d="M244.348 211.069C239.655 211.069 239.655 218.464 244.348 218.464C249.041 218.464 249.119 211.069 244.348 211.069Z" fill="#1D1F33"/>
<path d="M258.079 201.079C253.393 201.079 253.393 208.467 258.079 208.467C262.771 208.382 262.771 201.079 258.079 201.079Z" fill="#1D1F33"/>
<path d="M270.725 190.168C266.039 190.168 266.039 197.556 270.725 197.556C275.417 197.47 275.417 190.168 270.725 190.168Z" fill="#1D1F33"/>
<path d="M219.312 256.325C225.84 253.893 232.291 251.121 238.657 248.101C244.519 245.243 250.381 242.308 255.399 238.111C265.451 229.794 275.247 220.896 282.697 210.147C282.952 209.814 282.364 209.474 282.201 209.814C274.914 220.393 265.281 229.12 255.484 237.267C250.381 241.549 244.596 244.569 238.657 247.427C232.291 250.532 225.763 253.305 219.142 255.736C218.809 255.821 218.979 256.41 219.312 256.325Z" fill="white"/>
<path d="M281.442 224.76C282.782 223.08 284.122 221.399 285.376 219.634C285.632 219.301 285.043 218.968 284.881 219.301C283.618 220.981 282.364 222.662 281.024 224.257C280.776 224.59 281.194 225.008 281.442 224.76Z" fill="white"/>
<path d="M270.221 236.593C273.071 233.906 275.836 231.141 278.515 228.199C278.763 227.866 278.345 227.447 278.097 227.78C275.495 230.715 272.738 233.488 269.803 236.175C269.47 236.43 269.973 236.849 270.221 236.593Z" fill="white"/>
<path d="M242.343 255.659C250.211 251.88 257.575 247.094 264.444 241.634C264.777 241.379 264.282 240.961 264.026 241.216C257.242 246.676 249.878 251.376 242.087 255.155C241.669 255.233 242.002 255.821 242.343 255.659Z" fill="white"/>
<path d="M223.502 263.635C228.357 261.784 233.213 259.856 237.898 257.672C238.239 257.502 237.983 256.998 237.565 257.169C232.88 259.267 228.102 261.281 223.246 263.046C222.999 263.209 223.161 263.798 223.502 263.635Z" fill="white"/>
<path d="M155.587 220.478C136.242 209.644 111.879 219.215 92.7054 208.722C69.3417 194.698 90.5216 169.089 92.2794 150.286C94.2077 129.377 74.2824 119.302 56.1072 125.265C52.4211 126.69 48.9053 128.456 45.3896 130.555C-3.25822 159.935 0.590543 232.063 51.3369 257.672C71.0144 267.577 93.4565 273.207 113.552 274.546C131.054 274.965 155.424 274.299 167.311 259.182C178.029 245.661 169.324 227.61 155.587 220.478Z" fill="#FFDEB8"/>
<path d="M21.3601 246.924C35.1754 265.734 56.7811 276.227 78.9677 281.772C79.5562 281.934 79.804 281.013 79.2232 280.842C57.3619 275.305 35.8414 264.975 22.1964 246.42C21.8634 246.002 21.0271 246.42 21.3601 246.924Z" fill="#FFDEB8"/>
<path d="M349.605 153.98C340.312 148.768 329.006 150.286 322.059 158.51C313.347 168.841 314.354 182.695 316.027 195.201C317.537 206.624 318.791 216.281 310.25 225.178C304.388 231.304 297.356 236.09 290.069 240.295C280.358 245.917 269.385 252.716 265.869 263.294C263.855 267.492 263.189 271.859 265.118 276.142C270.136 287.479 284.121 283.785 292.33 278.999C316.7 264.89 341.566 246.676 355.219 221.399C365.681 202.086 373.216 167.16 349.605 153.98Z" fill="#FFDEB8"/>
<path d="M368.531 217.791C373.804 199.825 376.569 179.923 369.367 162.119C369.119 161.531 368.275 161.786 368.446 162.375C375.562 180.093 372.798 199.739 367.609 217.62C367.439 218.124 368.36 218.379 368.531 217.791Z" fill="#FFDEB8"/>
<path d="M285.043 29.2942C272.9 25.6003 261.346 24.1754 248.453 24.005C236.14 23.8346 221.07 28.0319 215.796 34.1651C211.436 39.1987 210.77 45.7501 214.286 51.3723C218.894 58.5974 227.102 61.029 235.218 61.788C247.531 63.0502 258.249 64.8933 269.973 69.0905C273.992 70.5154 279.599 72.6218 285.376 73.9615C284.54 77.485 283.2 80.9311 281.357 84.2068C280.273 86.1351 282.03 88.2337 284.121 87.3973C290.069 85.1284 294.506 80.8459 297.185 75.4716C304.387 75.3012 310.583 72.6218 313.014 64.6455C318.118 48.1043 300.957 34.1651 285.043 29.2942Z" fill="#BED1F7"/>
<path d="M227.265 37.4409C252.472 34.8389 277.593 40.8792 300.616 50.869C300.957 51.0393 301.29 50.4508 300.957 50.3656C277.841 40.2907 252.557 34.2504 227.265 36.8523C226.847 36.8523 226.847 37.4409 227.265 37.4409Z" fill="white"/>
<path d="M226.181 43.9844C233.042 43.2333 239.996 43.1481 246.857 43.6515C247.275 43.6515 247.275 43.0629 246.857 43.0629C239.996 42.5596 233.042 42.6447 226.181 43.3959C225.763 43.3959 225.763 44.0696 226.181 43.9844Z" fill="white"/>
<path d="M241.584 51.1244C248.956 51.2947 256.235 52.2163 263.437 53.556C263.855 53.6412 264.026 53.0526 263.608 52.9674C256.32 51.5425 248.956 50.7062 241.584 50.5358C241.165 50.5358 241.165 51.1244 241.584 51.1244Z" fill="white"/>
<path d="M226.429 51.7129C229.279 51.3722 232.121 51.2096 234.885 51.1244C235.304 51.1244 235.304 50.4506 234.885 50.5358C232.036 50.621 229.194 50.7914 226.429 51.1244C226.096 51.1244 226.096 51.7981 226.429 51.7129Z" fill="white"/>
<path d="M283.371 51.2096C286.383 52.2163 289.481 53.3082 292.416 54.4853C292.749 54.6479 292.919 54.0593 292.578 53.8967C289.566 52.7196 286.553 51.6277 283.541 50.621C283.2 50.5358 283.038 51.1244 283.371 51.2096Z" fill="white"/>
<path d="M253.393 44.3253C261.347 45.332 269.222 47.0124 276.92 49.1963C277.338 49.2737 277.508 48.6851 277.09 48.6077C269.3 46.3387 261.432 44.6583 253.393 43.7367C252.975 43.6516 252.975 44.2401 253.393 44.3253Z" fill="white"/>
<path d="M290.154 61.2845C291.912 61.9582 293.755 62.6242 295.513 63.3831C295.846 63.5535 296.016 62.9649 295.675 62.7946C293.918 62.0357 292.074 61.3697 290.317 60.696C289.984 60.5256 289.821 61.1141 290.154 61.2845Z" fill="white"/>
<path d="M271.816 55.4921C275.58 56.4136 279.266 57.5055 282.867 58.6826C283.285 58.7678 283.37 58.1792 283.037 58.0941C279.351 56.917 275.665 55.8251 271.979 54.9035C271.646 54.7332 271.476 55.4069 271.816 55.4921Z" fill="white"/>
<path d="M195.701 46.5089C186.818 37.944 149.895 38.0292 145.876 38.1919C128.707 38.8656 112.042 41.8857 97.1427 51.2095C88.5159 56.5838 79.2231 64.808 78.6346 75.727C78.1312 85.8019 87.424 91.1763 96.2212 93.1897C107.442 95.7917 117.153 91.5093 126.949 86.3905C132.726 83.3626 138.503 80.4276 145.039 79.3357C151.738 78.1586 158.522 78.5768 165.298 78.329C176.023 77.9108 185.145 75.4714 193.184 67.9985C199.882 61.7026 203.235 53.8967 195.701 46.5089Z" fill="#FFDEB8"/>
<path d="M85.2479 36.9374C103.586 31.0597 122.76 28.2874 142.019 28.7056C142.608 28.7056 142.608 27.784 142.019 27.784C122.682 27.3659 103.423 30.2156 85.0001 36.0933C84.4116 36.1785 84.6594 37.1001 85.2479 36.9374Z" fill="#FFDEB8"/>
<path d="M141.771 253.134C122.264 255.155 93.7044 249.696 75.204 243.989L73.8643 288.23C95.7178 294.952 118.741 299.985 141.771 297.554V253.134Z" fill="#D7E6FF"/>
<path d="M75.4518 244.825C84.4116 252.886 93.3714 260.863 102.331 268.924C103.586 270.101 104.84 271.185 106.18 272.363C106.521 272.618 106.939 272.2 106.606 271.944C97.6461 263.883 88.6863 255.907 79.7265 247.845C78.4642 246.676 77.2097 245.584 75.8699 244.407C75.6221 244.066 75.204 244.492 75.4518 244.825Z" fill="#BED1F7"/>
<path d="M106.521 272.362C116.735 266.988 126.949 261.614 137.164 256.247C138.589 255.488 140.099 254.729 141.524 253.978C141.857 253.808 141.524 253.219 141.183 253.475C130.968 258.849 120.754 264.224 110.54 269.59C109.115 270.349 107.605 271.108 106.18 271.859C105.847 272.029 106.18 272.533 106.521 272.362Z" fill="#BED1F7"/>
<path d="M74.6154 288.153C82.4059 282.275 90.1886 276.312 97.8938 270.434C98.9857 269.59 100.155 268.754 101.239 267.918C101.58 267.662 101.239 267.159 100.906 267.414C93.1235 273.292 85.3331 279.247 77.6278 285.125C76.5437 285.969 75.3666 286.805 74.2824 287.649C74.0269 287.812 74.3598 288.4 74.6154 288.153Z" fill="#BED1F7"/>
<path d="M141.686 297.05C133.059 288.904 124.355 280.757 115.728 272.618C114.559 271.441 113.305 270.349 112.127 269.172C111.88 268.924 111.376 269.342 111.709 269.59C120.336 277.737 129.04 285.884 137.667 294.03C138.844 295.2 140.099 296.292 141.268 297.469C141.601 297.724 142.019 297.298 141.686 297.05Z" fill="#BED1F7"/>
<path d="M110.958 46.1682C103.586 40.5461 91.0253 41.2973 82.654 43.3184C69.2569 46.5864 45.7229 58.427 38.521 70.4379C35.346 75.8122 35.8416 85.4613 46.1411 89.4107C60.2119 94.785 82.987 83.1148 99.0635 76.2304C100.821 78.4917 102.246 81.0162 103.338 83.7034C104.089 85.6316 106.854 85.9646 107.52 83.7034C108.697 79.8391 109.03 75.9749 108.612 72.0332C111.795 69.5938 114.644 67.3248 116.232 62.965C118.741 56.4135 116.232 50.2028 110.958 46.1682Z" fill="#FC5842"/>
<path d="M47.1479 74.7203C63.7278 63.2979 82.4838 55.1512 102.161 50.954C102.579 50.8688 102.417 50.2803 101.999 50.3655C82.236 54.6479 63.48 62.7094 46.8149 74.217C46.4819 74.3796 46.8149 74.9681 47.1479 74.7203Z" fill="white"/>
<path d="M49.8272 79.0803C58.7018 73.4581 68.0798 68.502 77.8837 64.4751C78.2167 64.3047 78.0463 63.7162 77.7133 63.8866C67.9172 67.9134 58.5392 72.8696 49.5794 78.4917C49.1612 78.7473 49.4942 79.2507 49.8272 79.0803Z" fill="white"/>
<path d="M81.6472 62.8798C85.163 61.4549 88.6865 60.1075 92.2797 58.8452C92.7057 58.7677 92.5353 58.094 92.1171 58.2644C88.5162 59.4337 85.0004 60.7812 81.4846 62.2913C81.0664 62.3764 81.2291 63.0502 81.6472 62.8798Z" fill="white"/>
<path d="M52.762 83.8661C56.6959 81.1789 60.8854 78.9177 65.3227 77.0669C65.6557 76.8965 65.4853 76.3157 65.1523 76.4783C60.715 78.3291 56.4404 80.6756 52.5064 83.3627C52.1734 83.5331 52.5064 84.1216 52.762 83.8661Z" fill="white"/>
</svg>
