<svg width="400" height="300" viewBox="0 0 400 300" fill="none" xmlns="http://www.w3.org/2000/svg">
<path d="M354.835 286.221C325.384 292.766 23.5952 286.126 1.68583 282.853C-13.7511 280.47 81.2965 204.799 104.637 200.338C127.624 195.877 374.104 196.373 396.729 199.944C407.388 201.73 367.525 283.444 354.835 286.221Z" fill="#E69C2F"/>
<path d="M241.309 78.2659C251.758 69.7629 262.583 61.5509 272.651 52.673C278.489 47.5712 284.794 40.5813 284.044 32.1753C283.287 23.6789 274.817 22.0688 268.137 24.8104C260.132 28.0176 254.584 35.292 250.627 42.7539C245.732 51.8194 242.344 61.8354 241.031 72.1295C241.031 72.22 240.559 76.0027 240.462 77.8908C240.462 78.2659 240.934 78.5504 241.309 78.2659Z" fill="#A4C629"/>
<path d="M229.547 82.3266C229.075 79.9665 227.853 75.2462 227.853 75.0522C224.368 62.2105 218.251 50.0283 210.343 39.2622C203.948 30.4748 195.568 22.1658 184.744 19.5212C175.613 17.2516 165.171 20.8403 165.733 31.8003C166.296 42.657 175.613 50.5004 183.994 55.9772C198.484 65.5147 213.731 74.1082 228.603 83.0831C229.075 83.3677 229.638 82.8956 229.547 82.3266Z" fill="#A4C629"/>
<path d="M244.607 10.2615C233.213 6.20078 227.568 23.8662 226.437 31.8002C224.652 44.8294 226.346 58.2401 228.603 71.2758C229.638 76.9466 230.769 82.6109 232.935 88.0877C233.213 88.7473 234.06 88.4692 234.157 87.9002C237.546 71.2758 243.288 55.977 249.689 40.2966C253.355 31.5156 256.744 14.6067 244.607 10.2615Z" fill="#A4C629"/>
<path d="M226.722 110.564C225.875 106.316 223.805 102.824 221.542 99.4229C216.932 92.336 211.946 85.6306 205.448 80.1538C200.747 76.1901 188.507 65.6115 182.487 72.9764C176.745 80.0633 185.778 89.5038 191.429 92.808C196.977 96.1187 202.816 99.3259 208.649 102.158C214.488 104.9 220.98 106.413 225.59 111.23C226.062 111.793 226.819 111.23 226.722 110.564Z" fill="#A4C629"/>
<path d="M190.77 38.79C201.969 48.612 212.134 59.6626 220.98 71.7478C223.618 75.3365 226.159 79.0222 228.513 82.7079C228.7 82.9859 229.172 82.7079 228.978 82.4234C220.792 69.6722 211.287 57.768 200.463 47.0989C197.45 44.0793 194.346 41.2406 191.145 38.4085C190.861 38.221 190.486 38.596 190.77 38.79Z" fill="#858462"/>
<path d="M238.58 29.0584C234.345 43.8852 233.408 59.378 233.214 74.7738C233.123 79.2096 233.123 83.6518 233.214 88.0876C233.214 88.4691 233.783 88.4691 233.783 88.0876C233.783 72.6918 233.686 57.1084 236.324 41.9066C237.074 37.6518 238.018 33.4036 239.24 29.1554C239.143 28.7739 238.677 28.6833 238.58 29.0584Z" fill="#858462"/>
<path d="M195.005 84.0272C197.359 85.5403 199.712 87.1439 201.872 88.9415C203.948 90.6421 205.829 92.4332 207.711 94.2308C211.662 98.007 215.425 101.971 219.098 106.031C219.382 106.316 219.757 105.941 219.473 105.656C215.71 101.499 211.849 97.4379 207.802 93.5647C205.92 91.7736 203.948 89.976 201.872 88.2755C199.712 86.5749 197.449 85.0683 195.193 83.5552C195.005 83.3677 194.721 83.8397 195.005 84.0272Z" fill="#858462"/>
<path d="M265.027 38.221C254.39 49.4592 246.204 62.9669 241.122 77.6062C241.031 77.9812 241.497 78.0782 241.684 77.7937C246.767 63.2514 254.862 49.8407 265.499 38.6931C265.687 38.4086 265.312 37.9365 265.027 38.221Z" fill="#858462"/>
<path d="M337.829 183.857H334.441C332.941 183.857 331.809 185.274 332.184 186.69L339.62 221.542C339.808 222.583 340.842 223.43 341.877 223.43C343.293 223.43 344.328 222.202 344.231 220.785L340.183 185.933C339.995 184.801 339.058 183.857 337.829 183.857Z" fill="#9A4834"/>
<path d="M213.22 195.761H216.609C218.115 195.761 219.24 197.178 218.865 198.594L211.429 233.44C211.242 234.481 210.207 235.334 209.173 235.334C207.757 235.334 206.722 234.106 206.819 232.689L210.867 197.837C211.054 196.609 212.089 195.761 213.22 195.761Z" fill="#9A4834"/>
<path d="M299.149 200.482H295.761C294.254 200.482 293.129 201.898 293.504 203.314L300.843 238.166C301.03 239.201 302.065 240.055 303.1 240.055C304.516 240.055 305.55 238.826 305.453 237.41L301.405 202.558C301.315 201.426 300.28 200.482 299.149 200.482Z" fill="#9A4834"/>
<path d="M345.924 70.144H285.499C280.138 70.144 275.056 72.8792 272.418 77.509L272.327 77.6059C267.995 85.0679 266.398 93.9458 262.537 101.686C259.434 107.919 255.573 113.68 250.582 118.31C243.714 122.94 235.806 124.731 227.711 126.341C221.309 127.57 212.186 128.132 207.291 132.949C202.299 137.864 202.674 148.061 202.111 154.482C201.174 164.685 200.792 174.882 201.077 185.183C201.264 191.416 200.042 199.253 207.478 201.044C216.324 203.126 272.89 205.111 291.622 203.314C300.558 202.467 309.501 200.954 318.159 198.4C325.407 196.233 333.788 193.589 339.432 188.39C345.077 183.198 346.584 175.076 348.563 167.899C351.291 158.077 366.538 93.3768 364.844 85.3524V85.1584C362.775 76.3774 354.867 70.144 345.924 70.144Z" fill="#66A2AF"/>
<path d="M251.151 110.376C250.116 111.889 249.172 113.403 248.228 114.909C247.103 110.189 246.068 105.372 245.312 100.554C245.312 100.367 245.221 100.179 245.221 99.9918C245.499 99.4228 245.784 98.9508 246.068 98.3818C246.631 97.1532 246.728 96.1186 246.631 94.7931C246.534 93.377 246.443 92.0579 247.006 90.6418C247.575 89.2193 248.512 88.0877 249.547 86.9561C250.116 86.2966 250.769 85.3525 250.679 84.402C250.582 83.7425 250.116 83.458 249.456 83.6519C248.422 83.93 247.381 84.971 246.631 85.7276C245.881 86.4841 245.124 87.3312 244.465 88.1847C244.937 86.7686 245.784 85.54 246.728 84.402C247.29 83.7425 247.762 83.1799 248.325 82.6109C248.797 82.0419 249.456 81.5698 249.735 80.9103C250.019 80.1538 249.832 79.1192 248.984 78.9252C248.325 78.8347 247.575 79.1192 246.915 79.5912C247.381 78.8347 248.04 77.0371 246.631 76.8496C245.971 76.7526 245.221 77.3216 244.749 77.6966C244.562 77.8906 244.277 78.0781 244.09 78.2657C244.09 77.7936 243.993 77.4186 243.618 77.2246C243.243 77.0371 242.958 77.3216 242.68 77.4186C242.02 77.7936 241.451 78.1687 240.889 78.6407C239.757 79.4942 238.723 80.3413 237.785 81.2853C236.751 82.2359 235.716 83.0829 234.959 84.2145C233.55 86.3871 233.453 89.0317 233.737 91.4889C234.022 94.0365 234.869 96.4937 235.056 99.0413C235.056 99.7978 235.056 100.554 235.147 101.311C235.147 101.408 235.147 101.498 235.147 101.595C235.244 111.32 234.112 121.239 236.938 130.686C237.598 132.95 238.445 135.594 240.229 137.295C241.923 138.898 244.374 139.092 246.534 138.239C248.887 137.295 250.679 135.31 252.276 133.422C253.97 131.346 255.476 129.076 256.893 126.813C260.087 121.615 262.628 116.047 264.322 110.189H251.151V110.376Z" fill="#FBB99C"/>
<path d="M252.276 131.721C251.713 132.387 250.769 133.234 250.769 133.234C250.207 132.29 247.478 128.798 247.478 128.798C244.562 133.137 233.265 144.097 230.065 145.604C230.065 145.604 232.321 152.975 254.726 155.238C254.817 155.238 284.936 170.072 284.652 173.279C289.547 171.578 294.254 168.649 296.983 164.116C298.489 161.569 299.246 158.639 299.711 155.71C300.28 152.503 300.468 149.199 300.843 145.888C301.03 144 301.218 142.112 301.405 140.224L252.276 131.721Z" fill="#E685B0"/>
<path d="M312.139 90.0727L266.488 82.9858C263.669 83.2704 261.593 86.5745 258.49 91.3918C254.817 96.9656 252.935 103.58 248.609 108.676C252.185 111.23 256.233 113.021 260.468 113.875C260.087 116.519 259.621 119.164 258.587 121.711C257.268 124.925 252.463 130.964 252.185 131.721C251.901 132.29 267.62 131.915 274.681 139.467C276.841 141.828 279.666 143.528 282.207 145.416C285.311 147.776 288.893 149.574 292.657 150.421C294.441 150.803 296.135 150.99 297.927 151.178C299.905 151.365 303.669 153.26 303.669 153.066C307.057 143.056 304.516 132.387 305.55 122.086C312.986 121.996 320.61 119.539 320.61 119.539C320.235 114.909 318.256 96.9656 312.139 90.0727Z" fill="#FEF1EB"/>
<path d="M312.139 90.0727C306.397 85.3524 296.795 86.859 294.823 83.8393C293.879 82.2357 294.163 80.9102 294.726 79.119C294.726 79.119 297.08 73.3577 297.455 72.1292C297.83 70.9911 297.927 69.7626 297.739 68.631C297.642 67.9714 297.364 67.4994 297.08 66.9304C296.795 66.3679 296.607 65.7018 296.323 65.0423C295.857 63.9107 287.102 48.1399 286.346 47.1958C280.701 48.6119 274.771 58.6214 274.681 58.9059C272.702 67.0274 275.993 77.6965 280.888 78.453L280.041 81.0071C278.819 82.7077 266.398 82.8953 266.488 82.8953C270.911 89.3161 280.138 91.3917 283.999 91.8638C293.032 93.1893 312.139 90.0727 312.139 90.0727Z" fill="#FFD4C1"/>
<path d="M284.089 61.9257C283.901 61.4537 284.186 61.3567 285.124 61.3567C285.88 61.3567 287.102 61.6412 287.852 62.0227C289.643 62.6822 290.303 64.0013 289.831 63.7233C288.984 63.2513 288.324 62.8698 286.443 62.3977C285.408 62.1132 284.186 62.2102 284.089 61.9257Z" fill="#612E22"/>
<path d="M280.513 65.5145C280.326 65.896 280.138 66.368 279.951 66.7431C279.854 67.0276 279.666 67.3121 279.569 67.5966C279.479 67.7841 279.479 67.9716 279.569 68.1591C279.763 68.3467 280.041 68.4436 280.229 68.4436C280.61 68.4436 280.985 68.2561 281.263 67.9716C281.36 67.8746 281.173 67.6871 281.076 67.8746C280.798 68.1591 280.416 68.3467 280.041 68.2561C279.854 68.1591 279.666 68.0686 279.666 67.7841C279.666 67.4996 279.854 67.2151 280.041 66.9306C280.229 66.4586 280.513 66.0835 280.701 65.6115C280.798 65.424 280.61 65.327 280.513 65.5145Z" fill="#71382B"/>
<path d="M293.032 75.3369C293.032 75.3369 287.852 79.1196 283.527 79.1196C282.583 79.1196 281.735 78.9256 280.888 78.5506L280.416 79.9667C282.02 80.4387 283.339 80.7232 284.561 80.7232C288.046 80.7232 290.394 78.8351 293.032 75.3369Z" fill="#FF9075"/>
<path d="M279.763 72.1293C278.535 71.8448 277.972 70.9912 277.785 70.7132C277.785 70.6162 277.785 70.6162 277.875 70.6162C277.875 70.6162 279.104 71.0882 280.041 71.1852C280.985 71.3727 282.395 71.3727 282.395 71.3727C282.492 71.3727 282.492 71.4633 282.395 71.5603C282.11 71.7478 281.076 72.4073 279.763 72.1293Z" fill="white"/>
<path d="M280.416 61.0785C280.701 60.697 280.513 60.5095 279.569 60.225C278.819 60.0374 277.597 59.9405 276.75 60.0374C274.868 60.225 273.834 61.169 274.396 61.0785C275.334 60.8845 276.091 60.794 277.972 60.8845C279.104 60.8845 280.229 61.363 280.416 61.0785Z" fill="#612E22"/>
<path d="M286.443 66.4583C285.596 66.7428 284.561 66.5553 283.902 65.8958H283.805L283.714 65.9863L283.805 66.1738C284.374 66.6458 285.033 66.9303 285.783 66.9303C286.068 66.9303 286.352 66.9303 286.63 66.8398L286.727 66.6458C286.63 66.4583 286.54 66.4583 286.443 66.4583Z" fill="#1F1C1B"/>
<path d="M278.632 65.0423C277.785 65.3268 276.938 65.1393 276.278 64.4797H276.181L276.091 64.5703V64.7578C276.563 65.2298 277.222 65.5143 277.875 65.5143C278.16 65.5143 278.444 65.4238 278.722 65.3268L278.819 65.1393C278.819 65.0423 278.722 64.9518 278.632 65.0423Z" fill="#1F1C1B"/>
<path d="M331.525 70.0471C331.053 69.4845 330.49 69.0125 329.928 68.631C328.984 67.9714 328.421 67.2149 328.137 66.0833C327.665 64.2857 328.046 62.3976 327.859 60.6065C327.477 57.4898 324.936 55.6017 322.207 54.4637C318.728 53.0476 314.959 52.6726 312.23 49.8404C310.82 48.3273 309.598 46.8143 307.904 45.5857C306.488 44.4541 304.988 43.6006 303.294 42.8505C303.294 42.8505 302.447 42.3785 301.975 42.1845C298.489 40.4839 293.976 39.4494 290.019 40.3934C289.081 40.4839 288.234 40.6779 287.387 40.9624C286.631 40.4839 285.783 40.2059 284.936 40.1089C280.798 38.9773 275.806 41.7125 273.64 45.2107C272.043 47.8553 272.23 51.1595 270.536 53.8042C269.03 56.0738 266.864 57.8649 265.079 59.85C263.288 61.9256 262.253 64.0012 261.878 66.7429C261.503 69.672 260.184 72.6917 262.163 75.2458C264.044 77.6965 267.148 78.453 269.974 79.3065C271.758 79.7786 273.362 80.4381 275.056 81.1946C276.75 81.9512 279.291 81.6667 279.291 81.6667C280.798 81.2852 280.889 78.6405 280.889 78.6405C280.042 78.1685 278.722 77.3214 278.069 76.6619C275.334 73.9203 274.959 69.575 274.681 66.0833C274.584 64.6672 274.681 63.1542 274.869 61.8351C275.716 55.7893 281.264 51.8191 286.158 48.8899C285.88 52.5756 286.818 56.1643 288.797 59.281C289.359 60.225 289.928 61.0785 290.678 61.9256C291.15 62.4946 291.713 62.9666 292.282 63.4387C292.747 64.0012 293.219 64.6672 293.595 65.3268C294.254 66.9304 294.164 68.631 293.692 70.241C292.935 73.0732 291.622 75.7178 291.525 78.7375C291.525 81.0071 292.282 83.4578 294.164 84.8803C295.101 85.6304 296.136 85.9149 297.267 86.1994C298.677 86.5745 299.808 87.2405 300.753 88.372C301.503 89.2191 302.162 90.1632 303.197 90.7322C304.231 91.3012 305.363 91.5857 306.585 91.5857C309.598 91.6762 312.611 90.3571 315.618 91.3012C317.972 92.0577 320.138 93.4738 322.679 92.5298C324.658 91.8637 326.164 90.0726 326.539 88.0875C326.817 86.5745 326.727 85.2554 327.949 84.1238C328.796 83.2703 329.74 82.7077 330.4 81.6667C331.712 79.7786 331.712 77.3214 330.775 75.2458C330.303 74.0173 329.456 72.9762 328.609 72.1291C327.762 71.2756 326.727 70.5191 325.97 69.4845C324.089 67.0274 325.97 64.1952 325.22 61.4536C324.561 59.0934 322.492 57.4898 320.325 56.6363C317.694 55.5047 314.493 55.3172 312.327 53.2351C310.445 51.444 309.501 48.7994 307.904 46.8143C307.245 45.9672 306.397 45.3012 305.55 44.5511C307.717 45.8702 309.598 47.4738 311.292 49.4589C312.417 50.7845 313.646 51.8191 315.243 52.5756C316.653 53.2351 318.256 53.7072 319.763 54.1792C322.776 55.1232 326.442 56.5458 327.477 59.85C328.324 62.7791 326.817 66.5553 329.553 68.8185C330.962 70.0471 332.184 71.0881 332.844 72.8792C333.503 74.5798 333.594 76.4744 333.031 78.2655C332.941 78.453 333.316 78.55 333.316 78.3625C333.975 75.3363 333.316 72.2197 331.525 70.0471Z" fill="#612E22"/>
<path d="M286.255 48.5152C286.158 46.4396 286.442 44.3575 287.005 42.3789C287.102 42.1849 286.727 42.0943 286.727 42.2819C286.158 44.267 285.88 46.4396 285.97 48.5152C285.88 48.7997 286.255 48.7997 286.255 48.5152Z" fill="#472119"/>
<path d="M290.775 51.0629C291.241 54.089 293.407 56.3521 295.198 58.8093C297.364 61.6414 298.774 65.1396 298.586 68.7283C298.399 72.22 296.323 75.1492 295.76 78.5503C295.288 81.3825 296.135 84.0271 298.211 86.0122C298.399 86.1998 298.586 85.9152 298.489 85.7277C295.76 83.0831 295.67 79.5914 296.795 76.0932C297.83 73.1641 299.149 70.3319 298.961 67.1182C298.774 64.0986 297.552 61.1694 295.76 58.8093C293.976 56.3521 291.713 54.089 291.15 50.8753C291.053 50.6878 290.775 50.7848 290.775 51.0629Z" fill="#472119"/>
<path d="M301.877 60.6973C303.196 63.7235 303.946 67.1182 303.481 70.4288C303.099 73.4485 301.69 76.2807 302.065 79.4943C302.252 81.7639 303.384 83.8396 305.362 85.0681C307.716 86.5747 311.292 86.9562 312.326 89.9759C312.417 90.1634 312.702 90.0729 312.611 89.8854C311.854 87.6158 309.688 86.6717 307.619 85.8247C306.113 85.1587 304.515 84.4021 303.571 82.986C302.634 81.57 302.349 79.9664 302.349 78.2658C302.446 75.0521 303.856 72.1294 303.946 68.9158C304.043 65.9866 303.293 63.1544 302.162 60.5098C302.065 60.3223 301.787 60.5098 301.877 60.6973Z" fill="#472119"/>
<path d="M327.289 84.0271C326.63 81.4795 324.748 79.7789 322.304 79.1193C320.797 78.7378 319.194 78.6408 317.693 78.2658C315.999 77.7938 314.583 76.7527 313.646 75.2461C311.764 72.22 312.986 68.5408 312.986 65.2301C312.986 62.2104 311.57 59.8503 309.688 57.6777C309.501 57.4902 309.313 57.7682 309.41 57.9622C310.535 59.2813 311.667 60.6974 312.23 62.398C312.702 63.911 312.702 65.6116 312.611 67.1182C312.327 69.9568 311.855 72.8795 313.361 75.4337C314.771 77.7938 317.124 78.6408 319.666 79.0223C321.172 79.3069 322.679 79.4944 324.088 80.2509C325.595 81.098 326.539 82.5141 326.914 84.2146C327.011 84.3116 327.289 84.2146 327.289 84.0271Z" fill="#472119"/>
<path d="M283.152 43.8854C280.701 44.8295 278.444 46.3426 276.75 48.3277C274.772 50.5908 274.112 53.52 272.515 55.9771C271.668 57.3932 270.349 58.4342 269.127 59.4688C267.995 60.4128 266.961 61.5509 266.21 62.7794C264.607 65.2301 263.76 68.2562 264.419 71.0884C265.169 74.3926 267.711 76.6622 270.161 78.8348C270.349 79.0223 270.536 78.7378 270.446 78.5503C267.62 76.0932 264.704 73.358 264.516 69.2908C264.419 65.1396 266.961 61.7384 269.974 59.1907C271.196 58.1497 272.327 57.1087 273.174 55.602C274.022 53.992 274.584 52.2914 275.528 50.7848C277.222 47.6681 280.041 45.3985 283.339 44.1699C283.43 44.1699 283.339 43.7949 283.152 43.8854Z" fill="#472119"/>
<path d="M271.099 76.2805C269.314 72.8793 269.217 68.7281 270.724 65.1394C270.821 64.9519 270.536 64.7579 270.446 64.9519C268.842 68.6311 269.029 72.8793 270.821 76.3775C270.911 76.662 271.196 76.4745 271.099 76.2805Z" fill="#472119"/>
<path d="M306.96 83.2703C307.904 84.0268 309.029 84.3113 310.258 84.5959C311.48 84.8804 312.702 85.2554 313.833 85.8244C316.09 86.956 317.881 88.8441 318.819 91.2042C318.916 91.3917 319.194 91.3012 319.103 91.1137C318.256 88.8441 316.653 87.0465 314.583 85.8244C313.549 85.2554 312.417 84.7834 311.292 84.4019C309.876 84.0268 308.279 83.8393 307.147 82.8953C307.057 82.8953 306.772 83.0828 306.96 83.2703Z" fill="#472119"/>
<path d="M288.234 51.0625C288.796 53.8041 289.546 56.3518 291.435 58.4339C293.219 60.5095 295.76 62.3976 296.232 65.2298C296.232 65.4238 296.607 65.3268 296.517 65.1393C296.045 62.4946 293.976 60.697 292.282 58.9059C291.241 57.7679 290.393 56.6363 289.74 55.2202C289.171 53.8041 288.796 52.3881 288.512 50.875C288.512 50.7845 288.137 50.875 288.234 51.0625Z" fill="#472119"/>
<path d="M317.034 75.3364C318.915 76.8494 321.36 76.8494 323.623 77.3215C325.97 77.8905 328.421 79.2096 329.171 81.7637C329.268 81.9512 329.552 81.8542 329.455 81.6667C328.796 79.4941 326.914 78.078 324.935 77.4184C322.491 76.5649 319.478 76.9464 317.312 75.1488C317.034 74.9613 316.846 75.2458 317.034 75.3364Z" fill="#472119"/>
<path d="M272.418 69.1031C271.855 71.3727 271.946 73.7329 272.605 75.9055C273.174 77.6966 274.209 80.1537 276.181 80.7227C276.375 80.8133 276.465 80.4382 276.278 80.4382C274.299 79.7787 273.362 77.2246 272.793 75.4335C272.23 73.3578 272.23 71.1852 272.702 69.2001C272.793 69.0126 272.418 68.9156 272.418 69.1031Z" fill="#472119"/>
<path d="M303.481 95.0773C302.349 98.3815 302.446 101.783 302.634 105.184C302.821 108.773 303.293 112.458 303.856 116.047C303.856 116.234 304.231 116.137 304.14 115.95C303.571 112.361 303.196 108.773 302.912 105.184C302.724 101.783 302.537 98.3815 303.759 95.1743C303.856 94.9803 303.571 94.8898 303.481 95.0773Z" fill="#FF8E0B"/>
<path d="M274.396 138.711C279.951 135.219 282.867 129.27 285.499 123.412C285.596 123.225 285.311 123.037 285.221 123.225C282.679 128.986 279.763 134.935 274.299 138.336C274.021 138.62 274.209 138.899 274.396 138.711Z" fill="#FF8E0B"/>
<path d="M280.888 135.122C284.373 132.103 287.852 128.514 288.324 123.697C288.324 123.509 288.046 123.509 287.949 123.697C287.387 128.417 283.998 131.915 280.61 134.838C280.416 135.032 280.701 135.219 280.888 135.122Z" fill="#FF8E0B"/>
<path d="M235.716 111.793C233.828 108.87 231.856 106.031 229.78 103.296C228.086 101.027 226.204 98.5695 223.476 97.4379C220.935 96.4033 218.206 97.0629 216.137 98.7635C213.686 100.742 212.464 103.768 211.526 106.697C209.263 113.403 206.535 143.056 201.737 150.615C199.855 153.538 193.169 159.209 190.912 161.569C188.468 164.117 185.17 166.761 181.879 168.177C180.935 168.649 179.15 168.746 178.678 169.878C178.303 170.634 178.769 171.391 179.429 171.675C179.429 172.335 179.998 172.523 180.463 172.62C180.56 172.904 180.845 173.189 181.123 173.279C181.498 173.376 181.879 173.279 182.254 173.092C182.442 172.995 182.726 172.904 182.914 172.807C182.914 172.995 183.004 173.279 183.192 173.467C183.573 173.848 184.039 173.939 184.608 173.848C185.733 173.751 186.774 173.467 187.899 173.467C189.503 173.467 191.197 173.564 192.703 172.904C194.398 172.238 195.71 170.919 197.314 170.072C199.008 169.121 200.793 168.177 202.487 167.518C204.562 166.671 206.535 166.858 208.701 166.955C211.714 167.046 213.596 164.97 214.443 161.944C214.915 160.243 213.88 156.467 213.596 154.579C213.499 154.107 213.408 152.788 214.443 151.087C214.915 150.234 222.351 138.621 223.573 134.463C225.642 138.711 227.899 141.543 230.44 145.326C230.44 145.326 236.841 143.625 240.514 139.565C244.749 134.935 247.381 128.799 247.381 128.799C243.527 122.843 239.382 117.463 235.716 111.793Z" fill="#FFD4C1"/>
<path d="M283.152 96.5905L257.358 100.082L253.879 99.1381L232.606 98.3816L223.948 67.4994C223.948 67.4994 237.598 64.3827 247.29 68.3464H247.381C251.526 63.2511 273.265 62.8696 273.265 62.8696L283.152 96.5905Z" fill="#FFF7ED"/>
<path d="M223.947 134.463C226.773 126.341 229.217 117.554 227.051 108.961C226.961 108.773 226.676 108.87 226.773 109.058C228.842 117.651 226.392 126.244 223.663 134.366C223.572 134.56 223.947 134.65 223.947 134.463Z" fill="#71382B"/>
<path d="M260.559 113.59C260.184 109.245 260.469 104.996 261.406 100.742C261.406 100.554 261.128 100.464 261.128 100.651C260.184 104.899 259.899 109.245 260.281 113.59C260.281 113.777 260.656 113.777 260.559 113.59Z" fill="#FF8E0B"/>
<path d="M304.043 116.138C309.41 116.235 314.771 115.666 319.95 114.437C320.138 114.347 320.041 114.062 319.853 114.159C314.68 115.291 309.313 115.95 304.043 115.853C303.759 115.853 303.759 116.138 304.043 116.138Z" fill="#FF8E0B"/>
<path d="M251.526 104.9C254.254 106.413 257.08 107.829 260.087 108.398C260.281 108.398 260.371 108.113 260.184 108.113C257.17 107.544 254.351 106.128 251.713 104.615C251.526 104.525 251.338 104.803 251.526 104.9Z" fill="#FF8E0B"/>
<path d="M277.5 147.97C280.229 147.97 283.055 148.248 285.783 148.248C286.068 148.248 286.068 147.873 285.783 147.873C283.055 147.873 280.229 147.589 277.5 147.589C277.222 147.498 277.222 147.97 277.5 147.97Z" fill="#693628"/>
<path d="M250.769 133.422C253.407 136.254 255.289 139.655 256.983 143.056C257.08 143.341 257.455 143.056 257.358 142.869C255.573 139.468 253.692 135.976 251.054 133.137C250.866 132.95 250.582 133.234 250.769 133.422Z" fill="#693628"/>
<path d="M250.679 133.234C249.359 137.676 246.728 141.543 243.055 144.382C242.867 144.569 243.055 144.944 243.242 144.757C247.006 141.925 249.734 137.954 251.054 133.422C251.241 133.047 250.769 132.95 250.679 133.234Z" fill="#693628"/>
<path d="M281.833 148.061C283.339 149.386 284.277 151.365 285.124 153.162C286.068 155.051 286.727 157.036 287.29 159.021C288.325 163.081 288.512 167.33 287.95 171.487C287.95 171.765 288.325 171.862 288.325 171.578C288.984 167.33 288.797 163.081 287.665 158.924C287.193 156.939 286.443 154.96 285.596 153.065C284.749 151.177 283.714 149.102 282.111 147.686C281.923 147.589 281.645 147.873 281.833 148.061Z" fill="#693628"/>
<path d="M273.737 138.808C272.418 140.321 270.724 141.356 269.029 142.397C267.245 143.528 265.454 144.569 263.572 145.513C263.288 145.604 263.572 145.985 263.76 145.888C265.738 144.944 267.523 143.813 269.405 142.681C271.008 141.64 272.702 140.599 274.021 139.183C274.209 138.898 273.924 138.62 273.737 138.808Z" fill="#693628"/>
<path d="M283.526 97.4375L257.08 101.026L253.595 100.082L232.418 99.4226L223.76 68.4434L245.409 68.6309L249.075 68.0684L273.834 63.7231L283.526 97.4375Z" fill="#6F7F3F"/>
<path d="M320.235 119.636C320.235 119.636 314.021 120.58 310.257 120.58C304.794 116.519 297.927 112.077 292.088 108.016C292.088 108.016 289.546 104.143 288.893 102.915C287.949 100.936 286.63 99.3259 285.033 98.0068C284.186 97.2502 283.242 96.6812 282.207 96.1187C281.263 95.6466 280.229 94.9806 279.194 94.7026C278.632 94.6056 277.972 94.8901 278.069 95.5497C278.16 96.3062 279.479 96.9657 279.951 97.4378C281.548 98.7633 283.151 100.27 284.089 102.068C282.11 99.5199 279.382 97.5348 276.375 96.4937C275.806 96.3062 274.959 95.9247 274.396 96.3062C273.924 96.6812 273.924 97.2502 274.299 97.7223C274.112 97.7223 273.924 97.7223 273.737 97.7223C273.265 97.8193 272.89 98.0973 272.89 98.5693C272.793 99.1383 273.265 99.5199 273.549 99.8949C274.021 100.367 274.487 100.839 274.959 101.311C276.465 102.727 277.972 104.143 279.382 105.753C278.535 105.087 277.5 104.712 276.562 104.24C275.528 103.768 274.584 103.199 273.549 102.727C273.077 102.54 272.515 102.443 272.327 103.109C272.14 103.768 272.793 104.428 273.265 104.803C274.868 106.128 276.653 107.169 278.16 108.488C279.007 109.245 281.263 113.021 286.54 114.534C291.9 120.108 304.891 135.122 312.986 138.427C318.541 140.599 320.797 138.62 321.36 134.747C322.394 128.229 320.797 123.315 320.235 119.636Z" fill="#FFD4C1"/>
<path d="M310.348 120.955C312.889 123.128 315.43 125.682 316.277 128.986C316.374 129.173 316.653 129.076 316.562 128.889C315.618 125.488 313.077 122.94 310.536 120.67C310.445 120.58 310.161 120.767 310.348 120.955Z" fill="#71382B"/>
<path d="M286.818 114.534C288.137 114.159 289.359 113.403 290.303 112.361C290.491 112.174 290.206 111.986 290.019 112.077C289.081 113.118 287.949 113.778 286.63 114.159C286.54 114.25 286.63 114.631 286.818 114.534Z" fill="#71382B"/>
<path d="M274.3 97.7225C275.147 98.0976 275.806 98.6666 276.563 99.1386C277.313 99.7076 278.069 100.27 278.819 100.839C280.229 101.971 281.548 103.109 282.68 104.525C282.77 104.712 283.055 104.428 282.958 104.24C281.833 102.824 280.416 101.596 279.007 100.464C278.347 99.8952 277.597 99.4231 276.938 98.9511C276.181 98.3821 275.431 97.8195 274.584 97.438C274.3 97.3475 274.112 97.6255 274.3 97.7225Z" fill="#71382B"/>
<path d="M279.291 105.753L279.854 106.316V106.413L279.951 106.503L280.138 106.6L280.229 106.413C280.041 106.031 279.763 105.753 279.382 105.559L279.194 105.656C279.194 105.559 279.194 105.656 279.291 105.753Z" fill="#71382B"/>
<path d="M257.08 101.026C253.692 101.498 253.595 100.082 253.595 100.082L245.409 68.6309C245.409 68.6309 245.409 67.4993 249.075 67.9714L257.08 101.026Z" fill="#EB9A1A"/>
<path d="M255.198 73.1638L270.536 70.7131L273.362 80.4382L258.018 82.7078L255.198 73.1638Z" fill="#FFCB6B"/>
<path d="M317.971 198.4C325.22 196.234 333.594 193.589 339.245 188.39C344.89 183.198 346.396 175.077 348.375 167.899C351.104 158.077 366.351 93.3771 364.657 85.3526V85.1586C363.997 82.3265 362.775 79.7788 361.172 77.6062C359.477 78.8348 357.971 80.3414 356.846 82.2359L356.749 82.3265C352.423 89.7884 350.819 98.6664 346.959 106.413C343.855 112.646 339.995 118.407 335.01 123.037C328.136 127.66 320.235 129.458 312.139 131.062C305.738 132.29 296.607 132.859 291.712 137.676C286.727 142.584 287.102 152.788 286.54 159.209C285.596 169.406 285.221 179.609 285.499 189.903C285.596 194.624 284.936 200.294 287.852 203.599C289.171 203.502 290.393 203.411 291.525 203.314C300.371 202.467 309.313 201.044 317.971 198.4Z" fill="#66A2AF"/>
<path d="M322.019 129.077C325.88 127.661 329.83 126.245 333.316 124.072C336.891 121.809 339.62 118.783 341.786 115.194C344.23 111.133 346.494 106.885 348.466 102.54C350.257 98.5697 351.666 94.4184 353.173 90.3577C354.867 85.7279 356.846 81.0982 360.234 77.322C360.422 77.1345 360.137 76.85 359.95 77.0375C354.395 83.1803 352.61 91.4893 349.597 98.9512C347.806 103.387 345.549 107.732 343.196 111.89C340.939 115.854 338.585 119.727 334.822 122.468C330.962 125.398 326.352 127.098 321.832 128.702C321.644 128.799 321.735 129.174 322.019 129.077Z" fill="#189491"/>
<path d="M285.311 173.091C285.124 178.381 285.033 183.76 285.033 189.147C285.033 193.964 284.936 198.781 285.499 203.598C285.499 203.883 285.971 203.883 285.88 203.598C285.311 198.781 285.408 193.964 285.408 189.147C285.408 183.76 285.499 178.478 285.693 173.091C285.693 172.807 285.311 172.807 285.311 173.091Z" fill="#189491"/>
<path d="M211.429 166.671C215.664 167.427 219.997 167.99 224.42 168.274C224.698 168.274 224.698 167.899 224.42 167.899C220.087 167.615 215.852 167.143 211.617 166.289C211.339 166.199 211.242 166.671 211.429 166.671Z" fill="#189491"/>
<path d="M299.058 137.198C303.009 139.093 302.537 144.472 302.634 148.158C302.724 152.503 302.634 156.752 302.446 161.097C302.162 169.787 301.69 178.478 301.502 187.071C301.405 191.979 301.405 196.796 301.599 201.711C301.599 201.995 302.065 201.995 301.974 201.711C301.315 183.573 303.293 165.442 303.009 147.305C302.912 143.716 303.099 138.711 299.246 136.92C298.961 136.726 298.774 137.108 299.058 137.198Z" fill="#189491"/>
<path d="M211.339 166.483C210.019 178.096 209.922 189.903 211.145 201.523C211.145 201.801 211.617 201.801 211.526 201.523C210.298 189.903 210.395 178.096 211.714 166.483C211.804 166.198 211.339 166.198 211.339 166.483Z" fill="#189491"/>
<path d="M129.283 74.9617C135.963 70.7134 141.608 64.9521 145.753 58.2403C145.94 57.9622 145.468 57.6777 145.281 57.9622C141.142 64.5706 135.588 70.2414 128.999 74.4897C128.714 74.6772 128.999 75.1492 129.283 74.9617Z" fill="#D8D8D8"/>
<path d="M145.093 67.312C148.669 65.6115 151.967 63.3418 154.883 60.5097C155.167 60.2252 154.786 59.8501 154.508 60.1346C151.682 62.8698 148.384 65.1394 144.906 66.84C144.531 66.9305 144.809 67.4026 145.093 67.312Z" fill="#D8D8D8"/>
<path d="M140.198 140.883C147.919 141.64 155.355 144.382 161.659 148.914C161.944 149.102 162.222 148.63 161.944 148.442C155.542 143.909 148.009 141.071 140.198 140.321C139.823 140.321 139.823 140.883 140.198 140.883Z" fill="#D8D8D8"/>
<path d="M159.306 141.924C162.034 142.681 164.673 143.715 167.214 145.041C167.492 145.229 167.776 144.756 167.492 144.569C164.951 143.243 162.222 142.209 159.403 141.452C159.118 141.265 159.021 141.827 159.306 141.924Z" fill="#D8D8D8"/>
<path d="M113.377 287.037C105.378 281.658 95.9638 257.908 86.2711 257.339C79.0226 256.957 71.871 257.908 64.6225 257.623C62.1718 257.526 59.6307 257.436 57.374 256.395C55.9644 256.013 54.6453 255.263 53.8952 253.84C51.5415 249.308 55.2078 246.663 58.7836 246.003C61.4218 245.344 63.963 245.531 66.5041 244.303C67.0667 244.018 66.6011 243.171 66.0321 243.456C61.7968 245.441 51.5415 244.4 52.2916 251.952C52.8542 257.714 60.1997 258.38 64.6225 258.567C73.9402 259.039 78.8479 257.342 86.9047 257.963C96.8367 261.066 105.657 283.352 111.495 287.037H113.377Z" fill="#B8B8B8"/>
<path d="M128.624 244.212C128.624 248.079 114.502 251.293 97.0955 251.293C79.6822 251.293 65.5602 248.176 65.5602 244.212C65.5602 243.831 65.5602 240.714 65.5602 240.714H128.715C128.624 240.714 128.624 243.831 128.624 244.212Z" fill="#B8B8B8"/>
<path d="M128.624 240.714C128.624 244.587 114.502 247.801 97.0955 247.801C79.6822 247.801 65.5602 244.684 65.5602 240.714C65.5602 236.841 79.6822 233.634 97.0955 233.634C114.502 233.634 128.624 236.841 128.624 240.714Z" fill="#D8D8D8"/>
<path d="M114.974 122.184C113.28 119.636 111.683 116.991 109.892 114.631C109.892 114.631 107.163 115.006 103.684 115.478C103.115 121.143 100.483 126.626 101.706 132.29C102.643 136.726 105.941 139.468 110.267 140.321C114.411 141.071 119.584 140.696 120.625 135.782C121.563 130.687 117.612 126.057 114.974 122.184Z" fill="#66A2AF"/>
<path d="M120.432 86.7684C119.682 81.8541 114.502 81.1946 110.364 81.7572C106.032 82.3262 102.553 84.9708 101.421 89.316C100.012 94.9804 102.365 100.554 102.553 106.225C105.941 106.885 108.67 107.447 108.67 107.447C110.551 105.087 112.342 102.539 114.127 100.082C116.953 96.3059 121.188 91.7732 120.432 86.7684Z" fill="#66A2AF"/>
<path d="M132.103 109.432C131.165 99.0413 125.798 95.6466 123.07 95.7371C120.244 95.8341 116.481 98.6663 114.599 100.367C112.53 102.158 110.461 104.525 109.045 106.885C109.517 109.529 111.114 118.31 111.114 118.31C111.683 119.254 113.002 120.58 114.315 121.809C116.106 123.6 118.084 125.397 120.432 126.432C122.598 127.376 126.645 128.042 128.437 126.154C129.846 124.731 133.234 121.143 132.103 109.432Z" fill="#66A2AF"/>
<path d="M107.447 119.727L98.2203 120.199L96.9982 108.301L106.225 106.788C109.989 106.128 113.377 109.058 113.377 112.834C113.377 113.59 113.28 114.347 113.092 115.103C112.53 117.651 110.176 119.539 107.447 119.727Z" fill="#B8B8B8"/>
<path d="M113.189 143.153C107.92 143.153 102.837 140.127 98.7894 134.56C94.4571 128.701 91.8189 120.67 91.1658 111.986C90.5968 103.296 92.1034 94.9806 95.5887 88.5597C99.0674 82.0419 104.059 78.2657 109.614 77.8906C121.001 77.0371 131.353 91.1138 132.575 109.057C133.797 127.098 125.611 142.397 114.127 143.153C113.752 143.153 113.467 143.153 113.189 143.153ZM110.461 78.6407C110.176 78.6407 109.892 78.6407 109.614 78.6407C104.337 79.0222 99.6364 82.6109 96.2482 88.8442C92.86 95.1746 91.3533 103.296 91.9159 111.792C92.4785 120.295 95.1166 128.229 99.3519 133.894C103.49 139.564 108.67 142.487 113.94 142.112C124.861 141.356 132.762 126.432 131.54 108.96C130.506 91.9609 121.091 78.6407 110.461 78.6407Z" fill="#B8B8B8"/>
<path d="M115.349 142.959L115.259 142.112C132.672 140.884 137.754 124.072 136.72 108.676C136.06 99.7978 133.234 91.9609 128.715 86.5746C123.917 80.8133 117.425 78.0781 109.989 78.5502L109.892 77.6966C117.612 77.1341 124.292 80.0632 129.374 86.0121C134.081 91.5859 136.907 99.6103 137.567 108.585C138.976 128.701 130.409 141.925 115.349 142.959Z" fill="#B8B8B8"/>
<path d="M107.919 112.931C115.918 112.834 124.014 112.646 132.012 112.549C132.484 112.549 132.484 111.792 132.012 111.792C124.014 111.889 115.918 112.077 107.919 112.174C107.447 112.174 107.447 112.931 107.919 112.931Z" fill="#B8B8B8"/>
<path d="M107.635 109.904C115.446 107.732 123.354 105.656 131.165 103.484C131.637 103.387 131.443 102.637 130.978 102.727C123.167 104.9 115.259 106.975 107.448 109.148C106.879 109.342 107.163 110.092 107.635 109.904Z" fill="#B8B8B8"/>
<path d="M106.6 106.225C114.037 102.352 121.376 98.291 128.527 94.0363C128.902 93.7583 128.527 93.1892 128.152 93.3768C120.904 97.625 113.655 101.686 106.225 105.559C105.844 105.753 106.225 106.412 106.6 106.225Z" fill="#B8B8B8"/>
<path d="M104.906 103.859C110.551 97.1533 116.106 90.545 121.751 83.8396C122.035 83.4581 121.563 82.8955 121.188 83.2706C115.543 89.9759 109.989 96.5908 104.337 103.296C104.059 103.768 104.622 104.24 104.906 103.859Z" fill="#B8B8B8"/>
<path d="M103.303 102.824C106.128 94.7027 108.954 86.5748 111.773 78.4533C111.961 77.9813 111.211 77.7938 111.023 78.2658C108.198 86.3873 105.378 94.5087 102.553 102.637C102.456 103.109 103.115 103.296 103.303 102.824Z" fill="#B8B8B8"/>
<path d="M101.143 102.158C100.761 96.1188 100.296 90.0729 99.5393 84.0271C99.4488 83.5551 98.6922 83.5551 98.7892 84.0271C99.5393 90.0729 100.011 96.1188 100.386 102.158C100.386 102.637 101.143 102.637 101.143 102.158Z" fill="#B8B8B8"/>
<path d="M93.6101 93.6616C94.5542 96.5907 95.5888 99.6104 96.5264 102.54C96.7139 103.012 97.3734 102.824 97.2829 102.352C96.3388 99.4229 95.3043 96.4032 94.3602 93.4741C94.1727 93.0021 93.5131 93.1896 93.6101 93.6616Z" fill="#B8B8B8"/>
<path d="M107.92 115.853C115.446 118.595 123.07 121.142 130.693 123.697C131.165 123.884 131.353 123.128 130.881 122.94C123.257 120.392 115.634 117.748 108.107 115.103C107.635 115.006 107.448 115.763 107.92 115.853Z" fill="#B8B8B8"/>
<path d="M106.601 119.823C113.377 124.259 120.244 128.417 127.305 132.477C127.68 132.762 128.055 132.102 127.68 131.818C120.716 127.757 113.752 123.599 106.976 119.163C106.601 118.879 106.226 119.539 106.601 119.823Z" fill="#B8B8B8"/>
<path d="M104.906 122.655C109.892 128.701 115.634 134.178 121.279 139.655C121.66 140.036 122.126 139.467 121.848 139.092C116.196 133.609 110.551 128.132 105.469 122.086C105.184 121.808 104.622 122.28 104.906 122.655Z" fill="#B8B8B8"/>
<path d="M102.365 124.453C104.719 130.305 107.163 136.163 109.517 142.112C109.704 142.584 110.461 142.397 110.267 141.925C107.92 136.066 105.469 130.215 103.115 124.259C102.928 123.884 102.178 124.072 102.365 124.453Z" fill="#B8B8B8"/>
<path d="M122.035 83.6519C122.785 83.0828 123.542 82.7078 124.479 82.3263C124.951 82.1388 124.764 81.4792 124.292 81.5698C123.354 81.8543 122.507 82.3263 121.751 82.8953C121.279 83.2704 121.563 83.9299 122.035 83.6519Z" fill="#B8B8B8"/>
<path d="M128.624 93.946C129.943 93.377 131.353 93.002 132.859 92.7175C133.331 92.6205 133.137 91.9609 132.672 91.9609C131.165 92.1485 129.659 92.6205 128.249 93.1895C127.868 93.474 128.249 94.1336 128.624 93.946Z" fill="#B8B8B8"/>
<path d="M131.443 103.483C132.95 103.011 134.457 102.727 136.06 102.636C136.526 102.636 136.526 101.88 136.06 101.88C134.457 101.97 132.859 102.255 131.256 102.727C130.79 102.914 130.978 103.58 131.443 103.483Z" fill="#B8B8B8"/>
<path d="M132.291 112.549C133.894 112.459 135.491 112.459 137.095 112.646C137.567 112.737 137.567 111.987 137.095 111.89C135.491 111.702 133.894 111.605 132.291 111.793C131.825 111.89 131.825 112.646 132.291 112.549Z" fill="#B8B8B8"/>
<path d="M130.881 123.884C132.387 124.168 133.984 124.828 135.304 125.585C135.776 125.772 136.151 125.113 135.679 124.925C134.269 124.168 132.575 123.509 131.068 123.127C130.596 123.037 130.409 123.787 130.881 123.884Z" fill="#B8B8B8"/>
<path d="M127.589 132.762C128.624 133.331 129.471 133.991 130.318 134.747C130.693 135.122 131.165 134.56 130.881 134.178C130.034 133.331 129.096 132.575 127.964 132.006C127.589 131.818 127.208 132.478 127.589 132.762Z" fill="#B8B8B8"/>
<path d="M121.563 139.94C121.848 140.127 122.126 140.412 122.41 140.793C122.507 140.981 122.785 140.884 122.973 140.793C123.167 140.599 123.07 140.412 122.973 140.224C122.695 139.843 122.32 139.565 121.938 139.28C121.751 139.183 121.563 139.28 121.473 139.371C121.376 139.655 121.473 139.843 121.563 139.94Z" fill="#B8B8B8"/>
<path d="M97.0952 242.414C95.4011 242.414 94.082 241.095 94.082 239.395V123.509H100.102V239.395C100.011 241.095 98.6924 242.414 97.0952 242.414Z" fill="#B8B8B8"/>
<path d="M101.046 170.35H92.9506V162.985C92.9506 162.513 93.3256 162.138 93.7976 162.138H100.102C100.574 162.138 100.949 162.513 100.949 162.985V170.35H101.046Z" fill="#D8D8D8"/>
<path d="M112.058 134.935C103.872 134.935 96.5262 124.732 95.6791 111.793C95.2135 105.372 96.4356 99.2357 98.9768 94.4185C101.518 89.6012 105.281 86.769 109.42 86.4845C113.564 86.2 117.612 88.4696 120.903 92.9054C124.104 97.2506 126.083 103.199 126.555 109.62C127.02 116.048 125.798 122.184 123.257 127.001C120.716 131.819 116.953 134.651 112.808 134.935C112.53 134.935 112.245 134.935 112.058 134.935ZM110.079 87.2411C109.892 87.2411 109.614 87.2411 109.42 87.2411C105.566 87.5191 102.081 90.1638 99.6364 94.703C97.1857 99.3262 96.0606 105.282 96.4356 111.605C97.2827 124.169 104.247 133.991 111.961 133.991C112.155 133.991 112.433 133.991 112.62 133.991C116.481 133.707 119.966 131.062 122.41 126.529C124.861 121.899 125.986 115.951 125.611 109.62C125.139 103.387 123.257 97.5351 120.153 93.3774C117.237 89.4137 113.655 87.2411 110.079 87.2411Z" fill="#B8B8B8"/>
<path d="M100.574 125.682L83.5422 126.529L81.3761 104.997L98.3173 102.158C102.456 101.499 106.6 103.859 108.01 107.919C109.232 111.418 109.232 115.006 108.857 118.026C108.295 122.281 104.809 125.488 100.574 125.682Z" fill="#D8D8D8"/>
<path d="M86.646 115.666C87.2085 121.615 86.3615 126.244 83.4452 126.529C80.529 126.813 79.0224 122.281 78.3629 116.325C77.8003 110.376 78.7379 105.184 81.2791 104.997C84.1953 104.712 86.0834 109.717 86.646 115.666Z" fill="#D8D8D8"/>
<path d="M117.425 240.054C117.425 240.623 116.293 241.096 114.883 241.096C113.467 241.096 112.342 240.623 112.342 240.054C112.342 239.485 113.467 239.013 114.883 239.013C116.293 239.013 117.425 239.485 117.425 240.054Z" fill="#B8B8B8"/>
<path d="M84.3893 126.529H85.0424C87.3961 123.128 87.3961 118.783 86.8335 114.722C86.271 111.043 85.1394 107.17 82.1262 104.9L81.3761 104.997C83.8203 106.503 85.7989 110.758 86.3615 114.437C86.8335 118.595 86.9305 123.128 84.3893 126.529Z" fill="#B8B8B8"/>
<path d="M278.985 147.111C278.797 146.924 278.61 146.827 278.325 146.827C270.792 145.32 247.268 142.203 237.951 144.654C234.562 145.508 232.209 148.527 230.605 151.553C228.626 155.427 227.876 159.772 226.842 163.923C225.807 167.984 217.996 203.121 214.039 217.379C213.573 219.079 213.192 220.495 212.914 221.349C211.31 226.166 207.075 232.49 205.29 234.572C202.84 237.404 201.145 239.48 199.173 242.596C197.007 245.998 194.091 249.114 190.703 251.384C189.662 252.043 187.78 252.612 187.502 253.932C187.314 254.876 187.877 255.632 188.724 255.82C188.912 256.576 189.571 256.673 190.043 256.673C190.231 257.048 190.509 257.236 190.89 257.333C191.356 257.43 191.737 257.145 192.112 256.958C192.3 256.861 192.584 256.673 192.772 256.486C192.772 256.673 192.959 256.958 193.147 257.145C193.619 257.52 194.278 257.52 194.744 257.333C195.973 256.958 197.098 256.486 198.326 256.201C200.111 255.82 201.993 255.632 203.596 254.591C205.29 253.459 206.603 251.759 208.206 250.44C209.901 249.024 211.685 247.608 213.573 246.47C215.733 245.054 217.996 244.963 220.44 244.491C223.829 243.922 225.523 241.277 225.898 237.689C226.085 235.613 223.829 232.115 223.829 229.942C223.926 225.784 225.71 221.724 228.536 217.288C235.028 206.897 246.421 194.43 253.385 170.816C261.384 173.558 270.042 173.655 278.513 173.461C280.679 173.461 286.039 172.142 286.039 172.142C286.421 171.767 287.268 153.726 278.985 147.111Z" fill="#FFD4C1"/>
</svg>
