<svg width="400" height="300" viewBox="0 0 400 300" fill="none" xmlns="http://www.w3.org/2000/svg">
<path d="M317.727 262L306 264.557L310.858 286L321 283.725L317.727 262Z" fill="#FFDBD3"/>
<path d="M309.265 280.212C306.94 280.848 308.109 294.917 310.439 296.133C312.812 297.373 317.659 297.014 322.074 297.606C327.053 298.276 331.768 297.981 334.476 297.537C339.287 296.753 342.57 294.82 341.917 291.387C341.007 286.641 326.598 285.942 321.912 280.013C321.05 278.916 319.708 275.221 317.874 276.148C314.873 277.665 315.574 280.593 313.962 281.053C310.847 281.934 309.265 280.212 309.265 280.212Z" fill="#DF3220"/>
<mask id="mask0_366_3082" style="mask-type:luminance" maskUnits="userSpaceOnUse" x="307" y="275" width="35" height="24">
<path d="M307.693 275.281H341.625V298.371H307.693V275.281Z" fill="white"/>
</mask>
<g mask="url(#mask0_366_3082)">
<mask id="mask1_366_3082" style="mask-type:luminance" maskUnits="userSpaceOnUse" x="308" y="275" width="34" height="24">
<path d="M309.304 279.826C307.014 280.487 308.165 295.095 310.461 296.358C312.798 297.645 317.573 297.273 321.923 297.887C326.828 298.583 331.473 298.276 334.141 297.816C338.88 297.001 342.114 294.995 341.471 291.43C340.574 286.502 326.379 285.776 321.764 279.62C320.914 278.48 319.592 274.644 317.786 275.606C314.829 277.182 315.519 280.222 313.932 280.7C310.863 281.615 309.304 279.826 309.304 279.826Z" fill="white"/>
</mask>
<g mask="url(#mask1_366_3082)">
<path d="M309.304 279.826C307.014 280.487 308.165 295.095 310.461 296.358C312.798 297.645 317.573 297.273 321.923 297.887C326.828 298.583 331.473 298.276 334.141 297.816C338.88 297.001 342.114 294.995 341.471 291.43C340.574 286.502 326.379 285.776 321.764 279.62C320.914 278.48 319.592 274.644 317.786 275.606C314.829 277.182 315.519 280.222 313.932 280.7C310.863 281.615 309.304 279.826 309.304 279.826Z" fill="#DF3220"/>
</g>
</g>
<mask id="mask2_366_3082" style="mask-type:luminance" maskUnits="userSpaceOnUse" x="307" y="275" width="34" height="20">
<path d="M307.693 275.281H340.946V294.977H307.693V275.281Z" fill="white"/>
</mask>
<g mask="url(#mask2_366_3082)">
<mask id="mask3_366_3082" style="mask-type:luminance" maskUnits="userSpaceOnUse" x="308" y="275" width="34" height="24">
<path d="M309.304 279.826C307.014 280.487 308.165 295.095 310.461 296.358C312.798 297.645 317.573 297.273 321.923 297.887C326.828 298.583 331.473 298.276 334.141 297.816C338.88 297.001 342.114 294.995 341.471 291.43C340.574 286.502 326.379 285.776 321.764 279.62C320.914 278.48 319.592 274.644 317.786 275.606C314.829 277.182 315.519 280.222 313.932 280.7C310.863 281.615 309.304 279.826 309.304 279.826Z" fill="white"/>
</mask>
<g mask="url(#mask3_366_3082)">
<path d="M309.239 277.093C306.949 277.748 306.524 291.436 308.82 292.704C311.158 293.985 317.16 293.885 321.516 294.499C326.421 295.195 331.036 294.646 333.704 294.186C338.443 293.371 341.784 290.503 340.031 287.587L318.323 274.827C315.366 276.397 309.239 277.093 309.239 277.093Z" fill="#2E2122"/>
</g>
</g>
<path d="M242 261L253 261.128L252.564 284L243.039 283.809L242 261Z" fill="#FFDBD3"/>
<mask id="mask4_366_3082" style="mask-type:luminance" maskUnits="userSpaceOnUse" x="222" y="274" width="34" height="26">
<path d="M222.85 274.603H255.672V300H222.85V274.603Z" fill="white"/>
</mask>
<g mask="url(#mask4_366_3082)">
<path d="M252.449 277.371C254.822 277.554 256.628 292.097 254.633 293.797C252.608 295.526 247.851 296.122 243.714 297.604C239.045 299.268 234.436 299.9 231.732 299.988C226.928 300.142 223.351 298.831 223.269 295.207C223.157 290.196 236.914 286.632 240.196 279.673C240.804 278.392 241.329 274.361 243.289 274.939C246.5 275.89 246.435 279.012 248.093 279.154C251.28 279.431 252.449 277.371 252.449 277.371Z" fill="#DF3220"/>
</g>
<mask id="mask5_366_3082" style="mask-type:luminance" maskUnits="userSpaceOnUse" x="222" y="274" width="34" height="26">
<path d="M222.85 274.603H255.672V300H222.85V274.603Z" fill="white"/>
</mask>
<g mask="url(#mask5_366_3082)">
<mask id="mask6_366_3082" style="mask-type:luminance" maskUnits="userSpaceOnUse" x="223" y="274" width="33" height="26">
<path d="M252.449 277.371C254.822 277.554 256.628 292.097 254.633 293.797C252.608 295.526 247.851 296.122 243.714 297.604C239.045 299.268 234.436 299.9 231.732 299.988C226.928 300.142 223.351 298.831 223.269 295.207C223.157 290.196 236.914 286.632 240.196 279.673C240.804 278.392 241.329 274.361 243.289 274.939C246.5 275.89 246.435 279.012 248.093 279.154C251.28 279.431 252.449 277.371 252.449 277.371Z" fill="white"/>
</mask>
<g mask="url(#mask6_366_3082)">
<path d="M252.449 277.371C254.822 277.554 256.628 292.097 254.633 293.797C252.608 295.526 247.851 296.122 243.714 297.604C239.045 299.268 234.436 299.9 231.732 299.988C226.928 300.142 223.351 298.831 223.269 295.207C223.157 290.196 236.914 286.632 240.196 279.673C240.804 278.392 241.329 274.361 243.289 274.939C246.5 275.89 246.435 279.012 248.093 279.154C251.28 279.431 252.449 277.371 252.449 277.371Z" fill="#DF3220"/>
</g>
</g>
<mask id="mask7_366_3082" style="mask-type:luminance" maskUnits="userSpaceOnUse" x="223" y="274" width="33" height="24">
<path d="M223.528 274.603H255.671V297.013H223.528V274.603Z" fill="white"/>
</mask>
<g mask="url(#mask7_366_3082)">
<mask id="mask8_366_3082" style="mask-type:luminance" maskUnits="userSpaceOnUse" x="223" y="274" width="33" height="26">
<path d="M252.449 277.371C254.821 277.554 256.628 292.097 254.633 293.797C252.608 295.526 247.851 296.122 243.714 297.604C239.045 299.268 234.435 299.9 231.732 299.988C226.928 300.142 223.351 298.831 223.269 295.207C223.156 290.196 236.914 286.632 240.196 279.673C240.804 278.392 241.329 274.361 243.289 274.939C246.499 275.89 246.435 279.012 248.093 279.154C251.28 279.431 252.449 277.371 252.449 277.371Z" fill="white"/>
</mask>
<g mask="url(#mask8_366_3082)">
<path d="M251.959 274.68C254.338 274.863 257.501 288.184 255.506 289.884C253.476 291.613 247.574 292.723 243.436 294.198C238.768 295.863 234.135 296.258 231.431 296.347C226.621 296.5 222.779 294.358 223.906 291.153L242.61 274.284C245.821 275.229 251.959 274.68 251.959 274.68Z" fill="#2E2122"/>
</g>
</g>
<path d="M321.782 78C323.17 83.0061 322.017 89.2419 323.586 100.337C325.536 114.05 343.462 129.812 348 138.612L336.095 140C325.765 133.325 320.032 124.753 311.265 109.003C306.264 100.009 305.432 90.0967 306.299 82.4733L321.782 78Z" fill="#FFDBD3"/>
<path d="M252.617 144.239C244.927 151.553 233.631 169.451 228.954 182.995C220.761 206.743 231.393 249.139 239.214 274C239.214 274 252.505 273.56 256.903 269.247C256.903 269.247 247.745 231.674 250.871 196.076C251.717 186.477 273.486 161.78 277.849 162.635C286.978 164.417 304.051 272.828 304.051 272.828C311.83 275.817 320.977 271.867 320.977 271.867C321.539 246.261 311.594 181.325 309.924 142L252.617 144.239Z" fill="#66A2AF"/>
<path d="M271.291 48.5704C263.496 48.9301 258.511 49.6788 253.127 52.3907C244.44 56.7592 238 73.0602 238 73.0602C239.578 78.6138 251.414 81.8268 251.414 81.8268C251.414 81.8268 255.86 102.744 255.402 106.181C250.651 141.695 252.986 145.097 252.986 145.097C258.276 152.284 297.809 151.441 312.096 143.417C312.096 143.417 311.803 135.629 309.316 102.638C308.038 85.6589 306.055 83.2948 306.102 81.5733C306.102 81.5733 320.384 80.4473 323 76.9748C323 76.9748 323.006 64.1934 315.903 56.6354C307.967 48.1872 294.143 46.6249 287.034 46L271.291 48.5704Z" fill="#2E2122"/>
<path d="M39.595 239.927L44.818 215.217H83.182L88.405 239.927H39.595ZM87.5096 215.217H92.6969C94.0937 215.217 95.2278 214.235 95.2278 213.028V210.183C95.2278 208.976 94.0937 208 92.6969 208H34.9092C33.5064 208 32.3723 208.976 32.3723 210.183V213.028C32.3723 214.235 33.5064 215.217 34.9092 215.217H40.4904L27 279H31.3277L38.7533 243.89H89.2407L96.6664 279H101L87.5096 215.217Z" fill="#A35655"/>
<path d="M72 262.492L72.6941 279L81.6341 278.366L83 261L72 262.492Z" fill="#FFC9C5"/>
<path d="M120.171 263L116 280.086L125.345 281L132 264.41L120.171 263Z" fill="#FFC9C5"/>
<path d="M114.169 285.197L114.464 281.761C114.555 280.705 114.778 279.675 115.133 278.689L115.868 276.616L115.983 276.302C116.206 275.68 117.001 275.567 117.375 276.113L117.79 276.723C119.797 279.047 123.225 279.248 125.455 277.162L125.316 275.988C125.178 274.857 125.678 273.745 126.606 273.135C126.931 272.916 127.365 272.972 127.654 273.242C127.654 273.242 131.981 277.458 132.047 277.52L132.204 277.684C132.27 277.74 132.33 277.803 132.396 277.866L132.517 277.985L132.535 277.998L134.246 279.506L135.271 280.291L135.397 280.379C135.457 280.429 135.53 280.479 135.596 280.53L135.656 280.567C135.807 280.674 135.957 280.781 136.108 280.881L136.192 280.938C136.265 280.982 137.367 281.679 137.596 281.811L137.681 281.861C137.765 281.905 137.982 282.031 138.012 282.044C138.097 282.094 138.289 282.201 138.301 282.207C138.585 282.358 139.205 282.672 139.223 282.684C139.314 282.728 139.404 282.766 139.494 282.81L139.561 282.841C139.651 282.885 139.838 282.973 139.838 282.973C140.748 283.388 141.688 283.759 142.646 284.066L146.436 285.298C148.075 285.825 149.141 287.484 148.985 289.274L148.979 289.306L148.961 289.45C148.84 290.286 148.539 291.058 148.111 291.724L148.075 291.812H148.045C147.123 293.163 145.629 294.042 143.959 293.998C143.845 293.998 143.724 293.992 143.61 293.98L116.7 291.442C115.163 291.297 114.079 290.317 114 288.778C113.994 288.552 114.091 288.231 114.296 288.219L114.169 286.843C114.121 286.29 114.121 285.744 114.169 285.197Z" fill="#2E2122"/>
<mask id="mask9_366_3082" style="mask-type:luminance" maskUnits="userSpaceOnUse" x="7" y="111" width="119" height="83">
<path d="M7.29761 111.963H125.73V193.554H7.29761V111.963Z" fill="white"/>
</mask>
<g mask="url(#mask9_366_3082)">
<path d="M67.6705 115.711C60.7886 114.118 49.2795 111.485 36.4482 113.173C26.4205 114.495 9.19213 119.193 7.90546 127.958C7.40378 131.405 9.36919 136.811 15.6727 141.226C24.2544 147.246 27.5242 186.732 37.6404 191.335C52.3309 198.017 92.3002 185.244 92.3002 185.244C95.2099 184.294 88.3752 162.196 90.4469 160.243C93.4275 157.433 96.048 155.303 96.048 155.303C94.6905 160.792 93.7285 179.596 103.361 185.433C110.077 189.512 124.963 184.377 125.216 179.702C125.216 179.702 122.436 172.891 119.184 173.233C117.638 173.399 115.425 173.086 114.84 172.147C111.695 167.036 116.835 146.621 107.51 130.242C106.985 129.322 101.98 122.074 93.091 117.936C89.473 116.254 85.7842 116.437 81.4638 116.626C77.5271 116.797 73.0651 116.962 67.6705 115.711Z" fill="#2E2122"/>
</g>
<path d="M67.5989 75.4298C67.5989 74.9054 67.6347 74.3749 67.6823 73.8565C67.7477 73.0729 67.8489 72.2832 67.9858 71.5117C68.1584 70.5773 68.4382 69.6792 69.1584 69.0342C69.7595 68.4917 70.5333 68.1662 71.3011 67.9371C72.069 67.702 72.9142 67.6357 73.6344 67.256C74.3188 66.8943 74.7652 66.2553 75.1997 65.6344C75.6819 64.9352 76.1937 64.3143 76.9556 63.9225C77.6996 63.5428 78.5448 63.38 79.3722 63.386C80.2293 63.3981 81.0447 63.591 81.8363 63.8683C80.7054 63.7055 79.6459 63.7839 78.646 64.037C75.4438 64.8629 75.9199 68.0577 71.4976 68.6303C68.212 69.0523 68.3846 72.4098 67.5989 75.4298ZM99.4009 68.6846C97.7522 66.8943 95.4904 65.2788 93.0738 64.8327C93.8 64.7845 94.5023 64.8629 95.2166 65.1402C96.157 65.5018 97.0082 66.0865 97.7581 66.7617C98.3831 67.3343 98.9247 67.9853 99.4009 68.6846ZM64.3074 88.0342C62.7659 90.2826 60.9921 98.3479 62.6944 102.037C64.1825 105.274 72.9677 105.732 75.1759 104.026C79.271 100.868 77.8782 84.2366 83.5446 81.9641C86.6218 80.7283 89.6871 82.2956 92.6334 83.8629C95.2285 85.2432 97.7224 86.6176 100.05 86.0992C101.8 85.7014 102.817 84.4174 102.436 82.2715C102.484 82.4523 102.526 82.6271 102.55 82.814C102.675 83.7363 102.758 84.9479 102.109 85.7014C101.544 86.3705 100.603 86.5935 99.7759 86.4307C99.5259 86.3886 99.4902 86.7743 99.7342 86.8226C100.567 86.9793 101.484 86.7864 102.139 86.2198C102.907 85.5627 103.026 84.5802 102.996 83.6157C102.978 83.0551 102.925 82.4885 102.764 81.946C102.603 81.4155 102.335 80.9273 102.186 80.3908C102.133 80.2039 102.103 80.017 102.079 79.8242C102.198 78.2207 102.936 76.5691 102.52 74.6703C102.228 73.3321 101.734 72.024 101.032 70.8305C100.627 69.9323 100.157 69.0643 99.5794 68.2566C98.4009 66.5989 96.7046 65.0799 94.7107 64.5675C93.5857 64.2782 92.5262 64.4831 91.4132 64.7061L91.312 64.7242L91.2049 64.7303C88.8955 64.9352 87.6455 66.623 87.0979 66.2252C86.3837 65.7008 85.6933 65.2788 85.0207 64.9352L84.979 64.899C83.0446 63.8803 80.9792 62.8254 78.7293 63.0244C77.9198 63.0967 77.1163 63.3378 76.4259 63.7839C75.7057 64.242 75.2355 64.9051 74.7533 65.5983C74.5093 65.9419 74.2593 66.2855 73.9439 66.5688C73.551 66.9124 73.0868 67.0872 72.5868 67.2138C71.7594 67.4127 70.9381 67.5875 70.1643 67.9371C69.4619 68.2566 68.8072 68.7147 68.3608 69.3537C67.8608 70.071 67.6882 70.9571 67.5454 71.807C67.3073 73.2778 67.0871 74.8632 67.2656 76.346L67.2954 76.4304C66.9859 77.2683 66.5633 78.0459 65.9086 78.6909C63.8491 80.7042 66.2954 85.1528 64.3074 88.0342Z" fill="#5F2227"/>
<path d="M88.7279 104.754L87.8978 112.444C87.8224 113.155 88.1068 113.86 88.6756 114.332C90.1964 115.592 93 116.947 93 116.947C93 116.947 87.9443 117.23 80.4391 116.486C70.9023 115.537 68 114.854 68 114.854C68 114.854 71.0416 114.56 73.613 112.944C74.1238 112.622 74.4488 112.089 74.5068 111.506L75.4182 103L88.7279 104.754Z" fill="#FFC9C5"/>
<path d="M85.7006 112C79.6766 112 75.9281 109.224 75 105.865L75.2036 103.834L75.2934 103L89 105.144L88.2994 111.833C87.3892 111.946 86.5269 112 85.7006 112Z" fill="#FDB9AA"/>
<path d="M73.1214 87.2987C73.2149 87.311 73.3083 87.3232 73.3959 87.3477L73.9273 81.848C74.6807 74.0298 81.1162 68.3038 88.2935 69.0685C95.4765 69.8271 100.686 76.7827 99.9265 84.607L97.8125 92.9269C97.427 96.5974 96.2474 100.09 94.1333 102.99C91.5404 106.563 91.7097 108.478 86.7808 107.897C82.5359 107.397 78.3714 104.961 75.5682 103.199C74.5347 101.324 72.8937 96.1353 72.8937 93.4652C71.0249 92.9575 70.0613 91.7829 70.0029 90.0761C69.9212 87.7392 71.5622 87.1336 73.1214 87.2987Z" fill="#FFC9C5"/>
<path d="M82.4085 87.5623C83.6687 87.2085 86.0403 87.4161 87.9041 87.7302C88.7079 87.8646 89.13 86.6339 88.1851 86.3026C86.4247 85.6984 83.8913 85.9102 82.8705 86.3904C81.7999 86.8878 81.308 87.8773 82.4085 87.5623Z" fill="#5F2227"/>
<path d="M89.0022 70.1961C89.0585 71.367 89.7286 72.8992 91.1418 73.5884C92.9661 74.4716 94.1316 73.9296 95.2183 74.853C95.9559 75.4752 95.7757 75.8432 96.7498 77.2215C97.5831 78.4058 98.2981 78.6735 98.9963 79.376C101.164 81.5505 100.533 86.0134 100.663 86C100.804 85.9866 101.857 80.4934 99.3341 75.3146C97.9941 72.5714 94.9255 68.4297 91.8456 69.0654C90.4042 69.3598 88.9347 68.9516 89.0022 70.1961Z" fill="#5F2227"/>
<path d="M99.0862 88.597C97.9559 88.1523 95.7434 88.1877 93.9951 88.3572C93.2427 88.4371 92.9429 87.1763 93.8464 86.9223C95.5147 86.443 97.8455 86.8428 98.7599 87.3943C99.7081 87.9702 100.083 88.9917 99.0862 88.597Z" fill="#5F2227"/>
<path d="M88.8309 70.6634C88.7579 68.7265 87.4004 65.9623 85.3795 65.2183C80.1628 63.3071 69.1025 74.3255 70.0582 83.4071C70.2773 85.4979 72.9557 88.9292 72.9557 88.9292C74.2096 89.2434 76.2001 88.4866 76.8149 87.159C77.6549 85.344 76.4618 84.2537 77.1984 82.1821C77.8497 80.335 78.8967 80.8866 79.9985 78.7894C81.3316 76.2496 80.4428 75.1529 81.5203 73.8958C82.9325 72.2476 85.4099 73.03 87.09 72.8568C86.9256 73.3314 86.8343 73.8317 86.8039 74.3384C86.7613 75.1657 86.9439 75.9995 86.81 76.8268C86.6882 77.59 86.3169 78.3148 85.7691 78.8343C85.2882 79.296 84.6856 79.5718 84.2108 80.0336C83.7786 80.4505 83.5351 80.9764 83.4316 81.5793C83.2064 82.8363 83.6508 84.4269 82.7499 85.4594C81.7211 86.6395 80.1324 87.3066 78.7263 86.4279C78.5132 86.2996 78.2758 86.6331 78.4949 86.7678C79.1706 87.1911 79.9559 87.3579 80.7289 87.2103C81.5142 87.0564 82.1777 86.5626 82.7681 86.0174C83.249 85.5685 83.5351 85.0362 83.6508 84.3756C83.7664 83.6893 83.7177 82.9966 83.7481 82.3104C83.7847 81.5793 83.9308 80.8738 84.4603 80.3543C84.9595 79.8668 85.6047 79.5846 86.0978 79.0844C86.5908 78.5841 86.95 77.9492 87.1265 77.2501C87.3396 76.3971 87.1874 75.5505 87.1874 74.6847C87.1874 74.0305 87.3091 73.3763 87.5465 72.7799C87.9361 72.6837 88.2587 72.4977 88.4839 72.177C88.6848 71.9076 88.7944 71.5292 88.8248 71.0931L88.9161 71.0161C89.0805 70.9135 88.977 70.7019 88.8309 70.6634Z" fill="#5F2227"/>
<path d="M95 92.5045C95.0044 92.7788 95.2301 93 95.5044 93C95.7788 92.9956 96 92.7699 96 92.4956C95.9956 92.2213 95.7699 91.9956 95.4956 92.0001C95.2212 92.0045 95 92.2257 95 92.5045Z" fill="#2E2122"/>
<path d="M87 91.5022C87.0044 91.7822 87.2301 92.0044 87.5044 91.9999C87.7787 91.9999 88.0044 91.7689 87.9999 91.4933C87.9955 91.2178 87.7743 90.9956 87.4955 91.0001C87.2212 91.0001 87 91.2267 87 91.5022Z" fill="#2E2122"/>
<path d="M92.3857 94.1162C92.4778 94.7073 92.616 95.2927 92.7619 95.8838C92.8695 96.3011 92.9923 96.7242 93 97.1531C93 97.4081 92.9386 97.6921 92.6468 97.8543C92.3242 98.034 91.8404 98.0224 91.4718 97.9529C90.8114 97.8254 90.32 97.4602 90.0205 97.014C89.913 96.8517 90.2585 96.7358 90.366 96.8981C90.6579 97.3269 91.18 97.6747 91.8404 97.7095C92.2167 97.7326 92.5392 97.6573 92.6084 97.3559C92.6928 96.9444 92.5316 96.4866 92.4317 96.0867C92.2705 95.4492 92.1092 94.8059 92.0171 94.1626C91.9863 93.9829 92.3626 93.9307 92.3857 94.1162Z" fill="#FF7A5A"/>
<path d="M71.365 90.9869C71.644 90.8458 72.016 90.8126 72.3803 90.8251C72.233 90.5926 71.9462 90.3893 71.6052 90.2274C71.5122 90.1859 71.4735 90.1112 71.551 90.0531C71.6207 90.0033 71.7835 89.9784 71.8765 90.024C72.3493 90.2481 72.7135 90.5179 72.8918 90.8417C73.0778 91.1945 73.0003 91.568 72.8376 91.9167C72.7678 92.0744 72.3338 91.9872 72.4035 91.8295C72.5198 91.5888 72.5663 91.3314 72.5043 91.0824H72.4888L72.4035 91.0741L72.2175 91.07H72.171L72.0935 91.0741L71.9385 91.0907H71.9307L71.9152 91.0949L71.861 91.1073L71.7602 91.1364L71.7447 91.1405L71.6982 91.1613L71.644 91.1903L71.582 91.2318L71.551 91.2567V91.2609L71.5045 91.3148L71.4812 91.3563V91.3605L71.4735 91.3771L71.4657 91.4062V91.4975L71.489 91.5597L71.5122 91.6178L71.52 91.6261L71.5355 91.651L71.5897 91.7091L71.6207 91.734L71.6285 91.7382C71.706 91.7922 71.706 91.8669 71.5975 91.9167C71.5122 91.9582 71.3495 91.954 71.2719 91.9001C71.1402 91.8005 71.0472 91.6884 71.0162 91.568C70.9542 91.3563 71.0704 91.1364 71.365 90.9869Z" fill="#FF7A5A"/>
<path d="M90.8994 100.974C92.5228 101.089 93.5627 100.801 93.9495 100.535C94.0193 100.49 94.0256 100.444 93.9115 100.435C93.9115 100.435 92.0979 100.471 90.9692 100.389C89.7897 100.298 88.1029 100 88.1029 100C87.9951 99.9959 87.9761 100.028 88.0268 100.083C88.3058 100.394 89.1682 100.855 90.8994 100.974Z" fill="#FF7A5A"/>
<path d="M149.342 169.691C149.165 169.51 149.051 169.259 149.051 168.979L149 154.98C149 154.426 149.433 153.989 149.969 154C150.51 154.012 150.943 154.467 150.943 155.021L151 169.026C151.006 169.568 150.567 170.011 150.031 170C149.764 169.994 149.519 169.877 149.342 169.691Z" fill="#CB7E60"/>
<path d="M153.335 170.656C153.157 170.447 153.046 170.167 153.046 169.853L153 154.106C153 153.483 153.431 152.994 153.975 153C154.513 153.018 154.954 153.524 154.954 154.147L155 169.9C155 170.517 154.563 171.011 154.025 171C153.756 170.994 153.508 170.86 153.335 170.656Z" fill="#CB7E60"/>
<path d="M157.321 170.651C157.144 170.45 157.034 170.167 157.034 169.856L157 154.1C156.995 153.479 157.435 152.989 157.981 153C158.526 153.011 158.966 153.523 158.971 154.144L159 169.9C159.005 170.515 158.565 171.011 158.019 171C157.746 170.989 157.502 170.864 157.321 170.651Z" fill="#CB7E60"/>
<path d="M146 166.992L160.028 169.882C162.36 170.396 164.742 169.19 165.588 167.044L165.618 166.952C166.821 163.797 169.976 165.204 170 162.072C170.03 158.974 166.851 160.295 165.709 157.122L165.672 157.03C164.869 154.873 162.506 153.627 160.161 154.1L146.006 156.973L146 166.992Z" fill="#B4716F"/>
<path d="M10.0019 162.312C9.90613 173.746 13.4307 189.82 30.4314 191.822C41.819 193.159 45.5351 186.587 51.4534 184.246C57.3656 181.912 59.8669 185.081 68.1129 185.32C78.4294 185.618 86.8729 177.645 86.9986 162.931C87.1243 148.216 78.8124 140.109 68.4899 140.237C60.2439 140.342 57.6887 143.477 51.8124 141.043C45.9421 138.609 42.3337 131.978 30.9281 133.134C13.8915 134.862 10.0976 150.878 10.0019 162.312Z" fill="#FFC668"/>
<path d="M54.0792 152C59.605 152.046 64.0449 156.558 63.9997 162.076C63.9544 167.601 59.441 172.045 53.9152 172C48.395 171.949 43.9551 167.437 44.0003 161.918C44.0456 156.394 48.559 151.955 54.0792 152Z" fill="#2E2122"/>
<path d="M32 169.452L32.1598 153.508C32.1667 152.665 33 151.989 34.0139 152L36.1804 152.012C37.1943 152.017 38.0137 152.706 37.9998 153.543L37.8401 169.492C37.8401 170.329 37.0068 171.006 35.993 171L33.8264 170.983C32.8056 170.977 31.9931 170.289 32 169.452Z" fill="#2E2122"/>
<path d="M145.994 167L104.146 166.893L101.081 166.871L94.0051 166.815L90.9343 166.792L80.7936 166.713L73.7177 166.657L70.6529 166.635L62 166.567C62.8391 165.152 63.3211 163.528 63.339 161.792C63.3509 160.062 62.8986 158.421 62.0833 157L70.7362 157.067L73.8011 157.09L80.8769 157.14L91.0176 157.225L94.0884 157.247L104.229 157.326L146 157.242L145.994 167Z" fill="#B4716F"/>
<path d="M45.1286 193.883C43.4077 213.623 59.5143 208.899 60.2745 215.855C63.2978 243.555 71.8844 262.176 71.8844 262.176C75.2495 263.808 83.9245 262.176 83.9245 262.176C92.1752 224.917 88.0499 212.561 88.0499 212.561C93.9079 214.65 117.452 221.058 119.078 226.481C123.363 240.746 120.705 263.024 120.705 263.024C123.593 265.873 131.773 266 131.773 266C140.778 253.356 147.272 220.487 144.249 212.244C138.821 197.471 102.247 186.142 92.8412 185C92.8412 185 82.5573 187.486 80.7068 186.673C75.0668 184.192 67.1638 185.629 63.6455 189.828L45.1286 193.883Z" fill="#E685B0"/>
<mask id="mask10_366_3082" style="mask-type:luminance" maskUnits="userSpaceOnUse" x="68" y="273" width="17" height="19">
<path d="M68.922 273.245H84.9345V291.583H68.922V273.245Z" fill="white"/>
</mask>
<g mask="url(#mask10_366_3082)">
<mask id="mask11_366_3082" style="mask-type:luminance" maskUnits="userSpaceOnUse" x="69" y="273" width="16" height="19">
<path d="M84.5568 289.045C83.0694 292.958 70.1732 291.754 69.2525 287.77C68.8571 286.035 69.4178 284.436 70.309 282.931C71.4422 281.012 71.6252 279.053 72.1505 277.223C72.7997 274.969 75.4734 273.281 77.97 273.57C80.2482 273.83 82.4497 276.155 82.6268 278.663C82.7625 280.623 82.8569 281.195 83.7895 283.757C84.4623 285.61 85.3594 286.938 84.5568 289.045Z" fill="white"/>
</mask>
<g mask="url(#mask11_366_3082)">
<path d="M84.5568 289.045C83.0694 292.958 70.1732 291.754 69.2525 287.77C68.8571 286.035 69.4178 284.436 70.309 282.931C71.4422 281.012 71.6252 279.053 72.1505 277.223C72.7997 274.969 75.4734 273.281 77.97 273.57C80.2482 273.83 82.4497 276.155 82.6268 278.663C82.7625 280.623 82.8569 281.195 83.7895 283.757C84.4623 285.61 85.3594 286.938 84.5568 289.045Z" fill="#2E2122"/>
</g>
</g>
<path d="M42.7781 139C46.9335 140.69 51.4244 141.311 52.8429 141.884C57.3985 143.715 58.2873 144.86 61.9777 147.346C73.0136 154.793 70.3768 159.023 67.4162 158.347C66.0919 158.047 56.1801 152.743 55.6033 153.326C55.0383 153.899 62.5192 160.13 61.5657 160.86C60.3532 161.776 57.3632 158.047 50.3473 153.931C43.4903 149.908 41.5421 148.535 40 146.349L42.7781 139Z" fill="#FFC9C5"/>
<path d="M15 141.374C22.2516 144.926 43.5544 149 43.5544 149C46.4013 146.926 47 139.506 47 139.506C36.5533 130.511 34.9588 131.863 33.6575 131.588C31.617 131.164 24.7931 129.732 19.4108 133.84C18.3662 134.636 15 141.374 15 141.374Z" fill="#2E2122"/>
<path d="M38.9168 133C38.6657 132.829 38.4272 132.666 38.2012 132.524C36.2365 130.732 34.0709 129.318 31.8049 128.045C29.3067 126.652 26.7394 125.436 24.1156 124.384C23.9335 124.313 23.9837 124 24.1469 124C24.1658 124 24.1909 124.007 24.2097 124.014C26.8586 125.073 29.4573 126.303 31.9744 127.718C34.4601 129.111 36.8203 130.682 38.9419 132.716C39.0424 132.808 38.9984 132.936 38.9168 133Z" fill="#979091"/>
<path d="M97.1483 155C97.0386 155 96.9445 154.842 97.0386 154.73C98.9505 152.47 100.533 149.888 101.74 147.082C101.766 147.023 101.803 147 101.845 147C101.939 147 102.038 147.117 101.986 147.247C100.768 150.07 99.1647 152.676 97.2423 154.953C97.211 154.988 97.1796 155 97.1483 155Z" fill="#979091"/>
<path d="M60.1129 213C60.0522 213 59.9916 212.955 60.001 212.855C60.1362 211.091 60.2667 209.327 60.4019 207.557C60.8635 201.714 61.3391 195.749 62.7518 190.106C62.7705 190.028 62.8171 190 62.8684 190C62.943 190 63.0222 190.072 62.9942 190.184C62.6259 191.653 62.3275 193.155 62.0804 194.663C61.0826 200.657 60.7143 206.778 60.2527 212.855C60.2481 212.955 60.1781 213 60.1129 213Z" fill="#C05850"/>
<path d="M88.8074 212C88.7375 212 88.6804 211.965 88.6677 211.889C88.4581 210.592 88.2231 209.301 87.9754 208.009C87.1943 203.908 86.3116 199.818 85.1748 195.792C84.6223 193.835 84.019 191.884 83.2379 189.996C82.7044 188.711 82.1074 187.28 81.0469 186.275C80.9326 186.158 81.0469 186 81.1802 186C81.2184 186 81.2565 186.012 81.2946 186.047C82.4885 187.186 83.1426 188.828 83.7205 190.289C85.3336 194.338 86.337 198.603 87.2642 202.815C87.9183 205.795 88.5153 208.792 88.9979 211.801C89.017 211.924 88.9026 212 88.8074 212Z" fill="#C05850"/>
<path d="M118.143 224C118.063 224 117.99 223.951 118.001 223.857C118.063 222.89 118.453 221.995 118.793 221.099C119.121 220.247 119.426 219.374 119.907 218.593C120.811 217.115 122.298 215.94 123.774 215.022C123.802 215.005 123.825 215 123.853 215C123.983 215 124.068 215.192 123.927 215.28C122.502 216.165 121.049 217.313 120.172 218.742C119.692 219.522 119.386 220.401 119.064 221.253C118.736 222.093 118.363 222.945 118.306 223.857C118.295 223.951 118.216 224 118.143 224Z" fill="#C05850"/>
<path d="M119.168 226C119.04 226 118.933 225.782 119.051 225.636C119.581 225.005 120.24 224.666 120.883 224.342C121.626 223.962 122.391 223.663 123.167 223.445C124.223 223.146 125.284 223 126.351 223C126.853 223 127.356 223.032 127.853 223.097C128.043 223.121 128.049 223.534 127.87 223.534C127.864 223.534 127.859 223.534 127.853 223.534C127.351 223.469 126.848 223.437 126.345 223.437C125.357 223.437 124.374 223.566 123.407 223.825C122.704 224.011 122.011 224.261 121.335 224.577C120.626 224.908 119.849 225.248 119.263 225.951C119.235 225.992 119.201 226 119.168 226Z" fill="#C05850"/>
<path d="M110.147 179C110.059 179 109.976 178.893 110.007 178.728C110.707 175.601 111.881 172.605 113.786 171.025C113.812 171.008 113.832 171 113.853 171C113.983 171 114.066 171.296 113.931 171.412C112.088 172.934 110.957 175.823 110.282 178.852C110.256 178.959 110.199 179 110.147 179Z" fill="#979091"/>
<path d="M70.3121 161C69.896 161 69.896 160.092 70.3121 160.092C75.5914 160.084 80.8706 160.084 86.1558 160.076C95.5788 160.059 105.002 160.05 114.425 160.042C123.842 160.025 133.271 160.008 142.688 160C143.104 160 143.104 160.908 142.688 160.908C137.409 160.916 132.123 160.924 126.844 160.933C117.421 160.941 107.998 160.958 98.5752 160.966C89.1581 160.983 79.7351 160.992 70.3121 161Z" fill="#A36261"/>
<path d="M70.3078 164C69.8974 164 69.8974 163.092 70.3078 163.084C75.5148 163.076 80.7276 163.076 85.9345 163.067C95.2284 163.059 104.522 163.042 113.816 163.034C123.104 163.025 132.398 163.008 141.692 163C142.103 163 142.103 163.908 141.692 163.908C136.485 163.916 131.272 163.924 126.065 163.924C116.772 163.941 107.478 163.95 98.1837 163.966C88.8898 163.975 79.5959 163.983 70.3078 164Z" fill="#A36261"/>
<path d="M119.484 179.31C124.102 183.873 128.866 178.394 131.524 172.4C132.835 169.438 134.291 166.243 130.971 162.402C129.702 160.933 127.964 160.199 127.398 160.852C126.49 161.913 130.141 165.697 129.142 166.676C128.836 166.984 124.331 157.921 122.388 159.107C120.783 160.092 125.805 166.017 125.215 166.45C124.614 166.877 120.813 160.08 119.453 161.128C117.926 162.321 122.9 167.956 122.058 168.641C121.27 169.287 117.421 163.921 116.242 164.944C115.231 165.829 117.667 167.04 118.401 170.436C118.503 170.887 118.744 171.082 118.846 174.653C118.918 177.139 118.84 178.67 119.484 179.31Z" fill="#FFC9C5"/>
<path d="M287.989 51.1241L285.118 31.6074C285.118 31.6074 285.202 26.9637 284.846 24.5278C283.35 14.4545 272.721 6.85299 264.583 8.1429C256.27 9.46282 251.552 18.3962 253.398 28.4096C255.129 37.769 263.642 47.3444 270.657 45.7305L271.713 53.7039C271.774 54.1599 272.117 54.5259 272.57 54.6099C274.82 55.0239 281.703 55.8818 287.495 52.18C287.851 51.9521 288.05 51.5381 287.989 51.1241Z" fill="#FFDBD3"/>
<path d="M262.236 35C261.901 35 261.541 34.9324 261.294 34.7665C261.022 34.5883 260.982 34.2995 261.006 34.0415C261.03 33.6298 261.166 33.2243 261.278 32.8249C261.445 32.2596 261.613 31.6882 261.733 31.1106C261.749 31.0307 261.821 31 261.893 31C262.005 31 262.117 31.0614 262.093 31.1659C261.965 31.7988 261.781 32.4132 261.597 33.0399C261.485 33.427 261.326 33.851 261.373 34.2565C261.413 34.576 261.773 34.6928 262.157 34.7112C262.189 34.7174 262.212 34.7174 262.244 34.7174C262.876 34.7174 263.363 34.3856 263.651 33.9739C263.683 33.9186 263.747 33.894 263.803 33.894C263.93 33.894 264.05 33.9923 263.978 34.1029C263.675 34.5453 263.187 34.8955 262.524 34.9816C262.428 34.9939 262.332 35 262.236 35Z" fill="#FF2A00"/>
<path d="M268 28.5023C267.991 28.7819 267.536 29.0047 266.995 28.9999C266.436 28.9999 265.991 28.7725 266 28.4976C266 28.2227 266.446 28 267.005 28C267.555 28.0047 268 28.2275 268 28.5023Z" fill="#2E2122"/>
<path d="M259 30.5048C259 30.7809 258.772 31.0047 258.498 30.9999C258.223 30.9999 258 30.7761 258 30.4952C258.005 30.2191 258.227 29.9953 258.502 30.0001C258.777 30.0001 259.005 30.2286 259 30.5048Z" fill="#2E2122"/>
<path d="M263.266 22.9229C262.682 22.6025 263.088 22.0457 264.204 21.5624C265.644 20.932 268.148 20.5013 270.926 22.1455C271.103 22.2505 270.933 22.4501 270.719 22.3924C269.833 22.135 268.525 21.8986 266.863 22.0141C265.393 22.1087 263.982 23.3116 263.266 22.9229Z" fill="#FF4876"/>
<path d="M271.324 48L271 45.6253C278.411 43.1084 281 36 281 36C280.857 41.2286 278.229 45.9254 271.324 48Z" fill="#E5BDB4"/>
<path d="M285.352 32.9419C289.738 30.9746 290.486 20.7521 289.756 16.1357C288.895 10.6804 286.444 4.17516 282.64 2.02082C277.281 -1.00853 272.491 -0.000753399 268.871 1.00702C266.96 1.53806 265.376 2.0691 264.2 2.00876C256.378 1.62858 248.461 4.07861 247.037 14.4943C246.414 19.0866 253.856 23.2806 253.856 23.2806C254.42 21.1142 258.99 17.1495 261.844 15.84C262.984 15.321 268.717 22.0254 277.239 25.3384C277.465 25.4289 281.34 29.9548 281.34 29.9548C283.269 33.6721 285.352 32.9419 285.352 32.9419Z" fill="#FF4876"/>
<path d="M283 25.5314C282.994 28.0165 281.413 30.0156 279.479 29.9999C277.544 29.9842 275.988 27.9538 276 25.4686C276.012 22.9835 277.593 20.9844 279.527 21.0001C281.462 21.0158 283.018 23.0462 283 25.5314Z" fill="#FFDBD3"/>
<path d="M280.408 28C280.336 28 280.265 27.9606 280.222 27.8817C280.136 27.7337 280.165 27.5464 280.258 27.428L280.272 27.4181L280.301 27.359L280.379 27.2308L280.408 27.1716L280.465 27.0138L280.522 26.7771L280.529 26.6391L280.536 26.5602V26.5108L280.529 26.3925L280.507 26.2446L280.5 26.2347L280.486 26.1558L280.436 26.0375L280.429 26.0079L280.4 25.9487L280.343 25.8698L280.251 25.7712L280.186 25.712L280.037 25.6233L279.965 25.5937L279.922 25.5838L279.737 25.5542L279.644 25.5444H279.637C279.487 26.1558 279.445 26.8067 279.466 27.4576C279.473 27.6844 279.33 27.8225 279.202 27.8225C279.102 27.8225 279.009 27.7436 279.009 27.5562C278.974 26.6292 279.031 25.6726 279.345 24.8343C279.637 24.0552 280.087 23.4734 280.629 23.0296C280.657 23.0099 280.686 23 280.714 23C280.807 23 280.9 23.0888 280.935 23.1972C280.993 23.3649 280.928 23.5325 280.821 23.6213C280.429 23.9369 280.079 24.3807 279.844 24.9231C280.208 24.9822 280.565 25.1696 280.786 25.6036C281.021 26.0572 281.057 26.6489 280.921 27.1617C280.843 27.4576 280.714 27.714 280.55 27.931C280.507 27.9803 280.458 28 280.408 28Z" fill="#FF2A00"/>
<path d="M258.945 24.8735C259.168 24.024 258.701 23.2918 257.839 23.0672C256.723 22.7646 255.039 23.3504 254.014 27.6072C253.948 27.8805 254.131 28.1344 254.237 27.9196C254.668 27.0116 255.363 25.9279 256.413 25.2347C257.342 24.6196 258.666 25.9181 258.945 24.8735Z" fill="#FF4876"/>
<path d="M262.116 39C261.79 39 261.465 38.9701 261.134 38.9045C260.939 38.8627 260.969 38.5761 261.146 38.5761C261.158 38.5761 261.17 38.5761 261.181 38.5761C261.495 38.6418 261.808 38.6776 262.122 38.6776C263.475 38.6776 264.776 38.0925 265.704 37.0537C265.74 37.0179 265.781 37 265.823 37C265.947 37 266.065 37.1373 265.959 37.2567C264.965 38.3672 263.57 39 262.116 39Z" fill="#FF2A00"/>
<path d="M268.946 21.3917C269.032 21.2719 269.14 21.1675 269.275 21.0792C269.356 21.0288 269.552 21.1867 269.505 21.2521C269.502 21.2564 269.499 21.2608 269.496 21.2651C269.366 21.3468 269.257 21.4439 269.174 21.5593C268.814 22.058 268.884 22.8373 269.376 23.7122C269.393 23.7437 269.394 23.7681 269.383 23.7834C269.35 23.8291 269.221 23.8022 269.165 23.7017C268.639 22.766 268.559 21.9274 268.946 21.3917Z" fill="#FFDBD3"/>
<path d="M285.734 68H281.013C280.908 68 280.808 68.0611 280.767 68.1649L274.346 82.2628C274.258 82.4461 274.393 82.666 274.587 82.666H277.771C277.894 82.666 277.976 82.7943 277.923 82.9164L272.018 95.7499C271.93 95.9393 272.182 96.0981 272.306 95.927L283.957 79.8256C284.092 79.6424 283.963 79.3736 283.74 79.3736H280.28C280.069 79.3736 279.94 79.1415 280.046 78.9521L285.962 68.4215C286.068 68.2382 285.939 68 285.734 68Z" fill="#F4CF64"/>
<path d="M262.641 162.433C262.641 162.433 269.242 158.114 275.743 160.857C280.549 162.889 288.826 165.36 294.92 165.378C297.081 165.383 298.84 163.636 298.84 161.473C298.846 159.613 297.565 158.055 295.835 157.646C295.835 157.646 291.749 156.728 289.671 150.128C288.142 145.264 294.188 144.369 294.188 144.369C294.188 144.369 294.465 134.392 294.4 134.392C288.331 134.078 292.328 130.423 292.328 130.423C296.597 126.116 303.575 125.802 303.575 125.802C306.451 125.92 308.877 123.681 308.996 120.795C309.114 117.904 306.882 115.475 304.006 115.357C303.162 115.321 292.9 114.96 281.139 117.454C281.139 117.454 270.641 119.664 264.436 114.586C264.43 114.58 259.842 111.156 254.788 110.321C240.913 108.028 227.422 118.254 224.541 133.794C221.665 149.34 230.545 164.033 244.367 166.616C250.844 167.818 257.363 166.136 262.641 162.433Z" fill="#DF3220"/>
<path d="M289.923 157.858C290.25 156.967 289.472 156.005 288.793 155.379C288.512 155.173 288.219 154.942 287.933 154.695L287.927 154.689C285.96 152.977 283.947 150.221 283.871 146.053V146.048C283.929 142.896 286.124 141.644 288.231 140.8C288.272 139.242 288.448 137.578 288.477 135.949C285.644 135.11 285.351 132.006 285.369 131.061C285.392 129.716 286.142 128.559 286.744 127.845C287.429 126.894 287.716 125.974 287.716 125.974C287.716 125.974 289.817 118.566 280.131 123.979C280.131 123.979 270.175 130.849 259.926 127.609C259.926 127.638 245.416 121.075 244.784 147.281C244.784 147.281 244.187 153.366 240.798 157.162C240.798 157.162 239.113 158.673 240.64 159.481C241.881 160.007 243.18 160.408 244.533 160.662C249.759 161.642 255.039 160.491 259.663 157.233C259.663 157.233 267.225 152.345 274.424 155.397C277.731 156.802 282.443 158.283 286.75 159.003C289.694 159.346 289.899 157.882 289.923 157.858Z" fill="white"/>
<path d="M254.161 151.921C255.312 153.116 255.273 155.015 254.079 156.166C252.884 157.311 250.985 157.273 249.834 156.078C248.689 154.883 248.727 152.989 249.922 151.839C251.117 150.688 253.011 150.727 254.161 151.921Z" fill="#2E2122"/>
<path d="M248.441 157.611C249.208 158.41 249.183 159.674 248.383 160.441C247.59 161.207 246.326 161.182 245.559 160.389C244.792 159.59 244.817 158.326 245.617 157.559C246.41 156.792 247.674 156.818 248.441 157.611Z" fill="#2E2122"/>
<path d="M241 145.653L241.267 132.233C241.295 130.983 242.364 129.973 243.638 130.001L244.718 130.022C245.998 130.044 247.022 131.092 247 132.342L246.727 145.767C246.705 147.017 245.636 148.021 244.362 148L243.277 147.978C242.002 147.956 240.978 146.908 241 145.653Z" fill="#2E2122"/>
<path d="M360.888 144.362L361 138.798L281.435 135C280.43 134.984 280.165 135.721 280.153 136.437L280 143.52C279.989 144.235 280.312 144.983 281.23 145L360.888 144.362Z" fill="#DF3220"/>
<mask id="mask12_366_3082" style="mask-type:luminance" maskUnits="userSpaceOnUse" x="360" y="134" width="33" height="21">
<path d="M360.629 134.037H392.418V154.27H360.629V134.037Z" fill="white"/>
</mask>
<g mask="url(#mask12_366_3082)">
<path d="M392.253 150.375C392.294 150.286 392.324 150.192 392.341 150.097C392.389 149.832 392.412 149.566 392.418 149.306C392.489 145.671 388.647 143.918 388.481 143.847L367.582 134.551C367.139 134.356 366.626 134.468 366.301 134.822L364.359 136.965L362.17 136.924C361.556 136.918 361.048 137.402 361.037 138.016L360.913 144.154V144.16C360.901 144.779 361.391 145.287 362.004 145.299L362.117 145.293L364.501 145.322C367.417 152.08 372.835 152.346 373.106 152.375C374.245 152.493 375.107 152.187 375.225 152.151C381.936 150.127 382.798 151.224 383.193 151.52C383.335 151.626 383.512 151.779 383.459 152.11C383.293 153.143 383.577 153.78 384.35 153.863C390.034 154.477 391.763 151.679 392.253 150.375Z" fill="#FFC668"/>
</g>
<path d="M374.553 132.511C373.942 131.846 372.933 131.828 372.293 132.47C371.783 132.981 371.677 133.764 371.963 134.394L370.095 138.501C369.748 139.307 370.454 139.843 370.561 139.896C371.06 140.149 371.66 139.925 371.895 139.407L373.768 135.306C374.037 135.241 374.295 135.106 374.508 134.888C375.148 134.247 375.164 133.182 374.553 132.511Z" fill="#CB7E60"/>
<path d="M380.555 135.454C379.944 134.867 378.928 134.847 378.294 135.408C377.784 135.861 377.677 136.545 377.963 137.101L376.095 140.689C375.748 141.43 376.454 141.857 376.561 141.909C377.06 142.13 377.655 141.934 377.896 141.476L379.77 137.894C380.039 137.832 380.297 137.719 380.51 137.528C381.144 136.967 381.167 136.036 380.555 135.454Z" fill="#CB7E60"/>
<path d="M386.553 138.453C385.941 137.867 384.926 137.846 384.291 138.412C383.781 138.86 383.674 139.544 383.96 140.1L382.092 143.682C381.755 144.485 382.445 144.861 382.557 144.912C383.057 145.128 383.657 144.933 383.893 144.475L385.767 140.893C386.037 140.836 386.295 140.718 386.508 140.527C387.148 139.966 387.165 139.035 386.553 138.453Z" fill="#CB7E60"/>
<path d="M305.79 82C305.721 82 305.658 81.9509 305.642 81.8465C305.286 79.01 304.93 76.1736 304.5 73.3494C304.075 70.5989 303.539 67.8729 303.056 65.1347C302.132 59.8793 301.479 54.4458 302.567 49.1535C302.594 49.043 302.663 49 302.732 49C302.844 49 302.96 49.1044 302.929 49.264C301.813 54.6668 302.552 60.2169 303.513 65.5645C303.99 68.2597 304.511 70.9427 304.92 73.6502C305.323 76.3393 305.663 79.0346 305.998 81.7299C306.019 81.8895 305.897 82 305.79 82Z" fill="#979091"/>
<path d="M251.177 82C251.094 82 251.017 81.9507 250.987 81.846C248.384 72.5297 251.159 62.7143 256.609 55.0924C256.65 55.0308 256.716 55 256.781 55C256.93 55 257.072 55.154 256.959 55.3081C251.581 62.8375 248.806 72.5112 251.385 81.7289C251.427 81.8953 251.302 82 251.177 82Z" fill="#979091"/>
<path d="M277.499 58C276.313 58 275.109 57.8634 273.947 57.6812C272.54 57.4535 271.204 57.038 270.072 56.1898C269.904 56.0645 270.06 55.8653 270.234 55.8653C270.276 55.8653 270.329 55.8767 270.371 55.9108C271.629 56.8558 273.216 57.2087 274.78 57.3966C275.708 57.5104 276.636 57.5844 277.559 57.5844C278.241 57.5844 278.918 57.5446 279.601 57.4478C282.733 56.9981 285.812 56.1385 288.747 55.0171C288.777 55.0057 288.801 55 288.825 55C289.016 55 289.082 55.3131 288.861 55.3985C285.692 56.611 282.278 57.6015 278.87 57.9374C278.415 57.9772 277.96 58 277.499 58Z" fill="#979091"/>
<path d="M251.804 192C251.729 192 251.66 191.961 251.633 191.867C250.976 189.415 249.741 187.168 248.053 185.334C247.925 185.195 248.053 185 248.192 185C248.235 185 248.277 185.017 248.32 185.056C250.051 186.94 251.318 189.248 251.991 191.761C252.034 191.905 251.916 192 251.804 192Z" fill="#FFE3B4"/>
<path d="M250.78 195C250.72 195 250.655 194.971 250.614 194.903C249.849 193.669 248.593 192.754 247.148 192.394C246.911 192.337 246.982 192 247.201 192C247.219 192 247.236 192.006 247.254 192.006C248.801 192.4 250.152 193.377 250.969 194.703C251.064 194.857 250.922 195 250.78 195Z" fill="#FFE3B4"/>
<path d="M305.821 162C305.805 162 305.788 162 305.772 161.995C303.659 161.485 301.708 160.555 300.06 159.281C299.92 159.172 300.049 159 300.201 159C300.244 159 300.287 159.014 300.325 159.048C301.925 160.283 303.821 161.18 305.869 161.676C306.08 161.728 306.015 162 305.821 162Z" fill="#FFE3B4"/>
<path d="M301.817 168C301.718 168 301.607 167.938 301.59 167.824C301.351 165.902 300.814 164.021 300.015 162.218C299.957 162.088 300.079 162 300.202 162C300.283 162 300.371 162.036 300.406 162.119C301.216 163.953 301.747 165.87 301.998 167.824C302.015 167.943 301.922 168 301.817 168Z" fill="#FFE3B4"/>
<path d="M257.337 137.638C267.916 138.076 278.502 138.513 289.082 138.95C299.668 139.393 310.253 139.83 320.833 140.261C326.769 140.509 332.698 140.757 338.634 141C339.102 141.017 339.131 140.379 338.663 140.362C328.084 139.924 317.498 139.487 306.912 139.05C296.332 138.613 285.747 138.176 275.167 137.739C269.231 137.491 263.296 137.248 257.366 137C256.898 136.983 256.869 137.621 257.337 137.638Z" fill="#2E2122"/>
<path d="M257.343 140.612C268.054 140.923 278.764 141.234 289.48 141.54C300.19 141.851 310.906 142.162 321.617 142.474C327.622 142.649 333.633 142.824 339.633 143C340.106 143.011 340.13 142.394 339.657 142.383C328.946 142.072 318.236 141.766 307.52 141.455C296.81 141.144 286.094 140.832 275.383 140.521C269.378 140.346 263.373 140.17 257.367 140C256.894 139.983 256.87 140.595 257.343 140.612Z" fill="#2E2122"/>
<path d="M355.599 142.069C357.058 143.051 354.453 149.676 349.147 151.504C344.945 152.945 340.429 151.052 337.897 148.33C337.505 147.907 333.863 143.985 335.358 140.57C337.01 136.807 343.896 135.984 346.597 138.265C348.569 139.929 348.617 141.84 349.618 143.656C351.131 146.419 354.091 141.052 355.599 142.069Z" fill="#FFDBD3"/>
<path d="M237.382 73C233.694 77.2056 227.892 87.8236 228.002 90.3327C228.762 107.582 243.61 120.745 248.208 132.994C248.623 134.115 248.634 138.149 250.945 141.868C254.039 146.863 258.781 150.79 261.426 148.156C263.327 146.264 255.992 135.509 257.047 134.542C257.663 133.979 261.466 138.368 261.973 136.304C262.18 135.456 261.184 132.715 259.236 130.977C257.64 129.554 255.837 128.854 255.543 128.587C250.438 123.889 240.943 98.2694 242.371 95.1137C244.63 90.137 249.389 87.3194 250.305 81.1206C250.305 81.1206 247.171 80.3258 242.268 77.6743C238.638 75.7049 237.382 73 237.382 73Z" fill="#FFDBD3"/>
<path d="M281.15 29C281.15 28.9172 281.083 28.85 281 28.85C280.917 28.85 280.85 28.9172 280.85 29H281.15ZM282.15 29.2V29.05H281.85V29.2H282.15ZM280.85 29C280.85 29.1772 280.876 29.4458 280.959 29.6758C281.038 29.8948 281.197 30.15 281.5 30.15V29.85C281.403 29.85 281.312 29.7719 281.241 29.5742C281.174 29.3875 281.15 29.1562 281.15 29H280.85ZM281.5 30.15C281.775 30.15 281.944 29.9825 282.036 29.7892C282.124 29.6025 282.15 29.3774 282.15 29.2H281.85C281.85 29.356 281.826 29.5308 281.764 29.6608C281.706 29.7841 281.625 29.85 281.5 29.85V30.15Z" fill="#FFF700"/>
</svg>
