<svg width="400" height="400" viewBox="0 0 400 400" fill="none" xmlns="http://www.w3.org/2000/svg">
<path d="M274.849 245.72C264.739 228.777 266.51 205.251 255.026 193.632C246.63 185.158 236.12 183.559 222.463 180.408L175.734 179.09C162.312 181.152 155.229 182.241 147.974 187.22C135.177 195.975 132.89 218.189 128.265 237.361C127.177 241.887 124.495 246.007 124.495 246.007C137.292 253.788 156.37 252.074 156.37 252.074C149.573 276.517 153.568 302.272 158.14 304.965C159.625 305.824 160.88 306.793 172.937 307.137C174.995 307.194 177.276 306.85 179.963 306.507C182.76 306.105 186.015 305.767 189.844 305.876C189.729 310.402 193.729 314.121 198.812 314.293C203.896 314.465 208.068 310.918 208.239 306.449C214.807 306.678 222.463 309.199 226.578 309.428C238.917 310.173 238.63 308.512 238.63 308.512C253.427 296.548 243.26 252.59 243.26 252.59C262.338 250.184 274.849 245.72 274.849 245.72Z" fill="#99D6D4"/>
<path d="M199.615 295.689C199.443 295.689 199.271 295.689 199.099 295.689C194.13 295.918 190.13 299.699 189.333 304.564C189.276 304.85 189.5 305.022 189.729 305.022C189.958 305.022 190.187 304.908 190.245 304.621C190.932 300.152 194.818 296.72 199.328 296.605C199.385 296.605 199.443 296.605 199.5 296.605C201.729 296.605 204.068 297.35 205.557 299.012C207.213 300.84 207.781 303.361 208.125 305.767C208.182 305.991 208.297 306.105 208.526 306.105C208.812 306.105 209.099 305.876 209.042 305.538C208.698 302.845 207.953 300.038 205.953 298.095C204.354 296.434 201.958 295.689 199.615 295.689Z" fill="#97D3D1"/>
<mask id="mask0_333_3795" style="mask-type:luminance" maskUnits="userSpaceOnUse" x="156" y="89" width="86" height="85">
<path d="M156.656 89.6836H241.203V173.824H156.656V89.6836Z" fill="white"/>
</mask>
<g mask="url(#mask0_333_3795)">
<mask id="mask1_333_3795" style="mask-type:luminance" maskUnits="userSpaceOnUse" x="156" y="90" width="85" height="84">
<path d="M240.057 141.6C239.833 149.1 239.604 167.642 240.974 173.022C241.26 173.996 234.859 173.079 230.693 172.512C230.177 172.454 229.547 165.757 229.089 165.699C228.177 165.585 227.719 172.111 227.432 172.111C216.75 172.168 199.443 170.449 199.443 170.449C199.443 170.449 186.073 172.283 173.224 171.079C173.052 171.079 172.536 166.616 171.964 166.673C171.62 166.73 171.281 171.251 170.823 171.309C166.135 171.882 156.484 173.366 156.885 172.168C158.312 168.043 160.823 146.637 160.995 139.366C161.281 130.324 164.937 119.22 167.625 110.173C172.422 94.319 188.359 87.5638 202.297 91.1732C202.469 91.2305 202.698 91.2305 202.87 91.1732C218.349 89.2253 229.146 95.9805 233.203 109.199C236.344 119.163 240.401 131.012 240.057 141.6Z" fill="white"/>
</mask>
<g mask="url(#mask1_333_3795)">
<path d="M240.057 141.6C239.833 149.1 239.604 167.642 240.974 173.022C241.26 173.996 234.859 173.079 230.693 172.512C230.177 172.454 229.547 165.928 229.089 165.871C228.177 165.757 227.719 172.111 227.432 172.111C216.75 172.168 199.443 170.449 199.443 170.449C199.443 170.449 186.073 172.283 173.224 171.079C173.052 171.079 172.536 166.616 171.964 166.673C171.62 166.73 171.281 171.251 170.823 171.309C166.135 171.882 156.484 173.366 156.885 172.168C158.312 168.043 160.823 146.637 160.995 139.366C161.281 130.324 164.937 119.22 167.625 110.173C172.422 94.319 188.359 87.5638 202.297 91.1732C202.469 91.2305 202.698 91.2305 202.87 91.1732C218.349 89.2253 229.146 95.9805 233.203 109.199C236.344 119.163 240.401 131.012 240.057 141.6Z" fill="#33210A"/>
</g>
</g>
<path d="M222.463 180.408C222.463 180.408 215.38 179.491 213.552 177.777C212.182 176.517 211.042 175.027 211.094 173.137L211.437 160.262L189.333 159.402L188.932 172.454C188.875 174.34 187.786 176.116 186.13 176.975C181.906 179.147 175.792 179.033 175.792 179.033C179.963 182.298 187.729 190.71 200.64 190.538C215.38 190.423 222.463 180.408 222.463 180.408Z" fill="#FFC9A5"/>
<path d="M189.219 161.861L189.161 164.725C192.646 167.184 196.531 168.444 200.469 168.444C204.01 168.444 207.667 167.47 211.266 165.527L211.38 162.147C207.896 163.923 204.01 164.84 199.958 164.84C199.615 164.84 199.328 164.84 198.984 164.84C195.786 164.725 192.417 163.694 189.219 161.861Z" fill="#FF9177"/>
<path d="M226.578 131.355C226.406 131.355 226.177 131.355 226.005 131.355L226.292 121.277C226.693 106.97 215.265 95.0065 200.812 94.6055C186.302 94.2044 174.25 105.48 173.849 119.793L173.562 129.866C173.505 129.866 173.39 129.866 173.333 129.866C170.193 129.751 167.568 132.215 167.453 135.361C167.338 138.449 169.849 141.085 172.995 141.142C173.109 141.142 173.281 141.142 173.39 141.142C177.849 155.449 189.104 164.553 198.927 164.84C211.208 165.298 222.177 157.397 225.489 142.574C225.719 142.632 225.948 142.632 226.234 142.632C229.375 142.746 232.005 140.283 232.12 137.137C232.234 134.043 229.719 131.47 226.578 131.355Z" fill="#FFC9A5"/>
<path d="M191.443 136.564C191.443 137.366 190.76 138.048 190.016 137.996C189.219 137.996 188.646 137.309 188.646 136.449C188.646 135.647 189.333 134.96 190.073 135.017C190.875 135.017 191.443 135.704 191.443 136.564Z" fill="#33210A"/>
<path d="M212.182 137.137C212.182 137.939 211.495 138.621 210.755 138.564C209.953 138.564 209.38 137.881 209.38 137.022C209.38 136.22 210.068 135.533 210.812 135.59C211.609 135.647 212.182 136.335 212.182 137.137Z" fill="#33210A"/>
<path d="M206.125 129.236C205.781 128.605 205.672 127.46 207.385 127.23C208.927 127.001 213.323 128.033 215.094 128.835C219.094 130.611 219.151 132.725 218.292 132.215C216.411 131.184 214.068 131.012 211.266 130.553C209.323 130.21 206.469 129.923 206.125 129.236Z" fill="#33210A"/>
<path d="M229.432 135.189C229.375 135.189 229.375 135.189 229.318 135.246C228.693 135.647 228.234 136.22 227.948 136.908C227.661 137.652 227.661 138.449 227.719 139.251C227.719 139.366 227.891 139.48 228.005 139.48H228.062C228.234 139.423 228.292 139.309 228.234 139.137C228.177 138.564 228.177 137.996 228.292 137.48H228.349H228.406C228.463 137.48 228.521 137.48 228.578 137.48H228.635C228.693 137.48 228.75 137.48 228.807 137.538H228.864L228.979 137.595L229.036 137.652L229.146 137.767L229.203 137.824L229.26 137.881L229.318 137.996V138.048L229.375 138.163V138.506L229.318 138.678V138.736L229.26 138.793L229.203 138.908L229.088 139.022C228.979 139.137 228.979 139.309 229.088 139.423C229.146 139.48 229.203 139.48 229.318 139.48C229.375 139.48 229.432 139.48 229.489 139.423C229.833 139.079 229.948 138.621 229.891 138.105C229.833 137.595 229.489 137.251 229.036 137.022C228.807 136.965 228.635 136.908 228.406 136.908C228.635 136.392 229.036 135.991 229.489 135.704C229.604 135.647 229.661 135.475 229.604 135.361C229.604 135.246 229.547 135.189 229.432 135.189Z" fill="#FF836A"/>
<path d="M170.594 133.47C170.479 133.47 170.422 133.527 170.364 133.585C170.307 133.699 170.364 133.871 170.479 133.928C170.88 134.272 171.281 134.73 171.453 135.189H171.396C170.995 135.189 170.594 135.303 170.307 135.59C169.963 135.934 169.849 136.449 169.963 136.908C170.021 137.194 170.135 137.423 170.307 137.595C170.364 137.652 170.422 137.652 170.479 137.652C170.536 137.652 170.594 137.652 170.651 137.595C170.765 137.48 170.765 137.309 170.651 137.194L170.594 137.137L170.536 137.079L170.479 136.965V136.908V136.85C170.479 136.85 170.479 136.85 170.479 136.908L170.422 136.793V136.392C170.422 136.335 170.479 136.22 170.479 136.163L170.536 136.105L170.594 135.991L170.708 135.876L170.823 135.819L170.88 135.762C170.937 135.762 170.995 135.704 171.052 135.704H171.224C171.281 135.704 171.281 135.704 171.338 135.704C171.396 135.704 171.396 135.704 171.453 135.704H171.562C171.677 136.277 171.62 136.793 171.562 137.366C171.562 137.538 171.62 137.652 171.734 137.71H171.792C171.906 137.71 172.021 137.652 172.078 137.538C172.25 136.736 172.25 135.934 172.021 135.189C171.792 134.501 171.338 133.928 170.708 133.47C170.708 133.47 170.651 133.47 170.594 133.47Z" fill="#FF836A"/>
<path d="M199.614 140.454C199.5 140.454 199.385 140.512 199.328 140.684C198.984 142.001 198.583 143.262 198.187 144.517C197.901 145.434 197.557 146.35 197.443 147.267C197.385 147.84 197.385 148.47 197.844 148.928C198.245 149.329 198.812 149.444 199.385 149.444C199.5 149.444 199.672 149.444 199.786 149.444C200.927 149.329 201.844 148.585 202.469 147.668C202.64 147.439 202.411 147.21 202.182 147.21C202.073 147.21 202.015 147.267 201.958 147.324C201.385 148.184 200.469 148.814 199.443 148.814C199.385 148.814 199.328 148.814 199.271 148.814C198.64 148.756 198.13 148.527 198.073 147.84C198.073 146.923 198.474 145.949 198.755 145.09C199.213 143.72 199.672 142.345 200.015 140.913C200.015 140.626 199.786 140.454 199.614 140.454Z" fill="#FF836A"/>
<path d="M195.729 128.72C196.13 128.147 196.359 127.059 194.703 126.543C193.214 126.09 188.703 126.6 186.875 127.116C182.646 128.376 182.359 130.439 183.276 130.095C185.276 129.293 187.62 129.465 190.474 129.35C192.417 129.293 195.271 129.35 195.729 128.72Z" fill="#33210A"/>
<path d="M226.177 130.439C227.036 123.798 230.693 84.6471 192.818 92.6575C168.937 97.694 173.562 129.866 173.562 129.866C192.073 129.579 195.443 106.34 195.958 104.736C197.5 107.027 200.354 108.173 202.755 109.428C206.354 111.319 210.125 113.152 213.38 115.553C216.807 118.017 218.463 121.965 220.635 125.46C221.552 126.944 222.463 128.548 223.552 129.98C224.177 130.84 225.036 131.413 226.005 131.413C226.292 131.355 226.292 130.439 226.177 130.439ZM222.005 125.918C221.036 124.428 220.12 122.882 219.266 121.335C217.667 118.59 216.125 116.241 213.437 114.413C210.526 112.408 207.385 110.746 204.24 109.09C202.073 107.944 199.213 106.913 197.443 105.022C221.609 112.98 224.865 123.798 225.891 130.382C224.12 130.21 222.807 127.23 222.005 125.918Z" fill="#33210A"/>
<path d="M157.338 250.699C159.453 241.428 160.88 231.98 161.51 222.48C161.854 217.73 161.911 213.038 161.911 208.283C161.911 203.475 162.198 198.324 165.739 194.72C166.135 194.319 165.51 193.631 165.109 194.033C162.198 196.949 161.224 200.96 161.052 204.965C160.765 210.001 160.995 215.038 160.713 220.074C160.14 230.267 158.713 240.454 156.427 250.413C156.312 250.986 157.224 251.272 157.338 250.699Z" fill="#8AC1BF"/>
<path d="M243.943 250.986C244.344 242.001 243.828 232.954 242.745 223.97C242.229 219.673 241.146 215.668 239.547 211.663C238.062 207.767 236.344 203.991 235.26 199.928C235.088 199.355 234.234 199.585 234.349 200.158C235.375 203.991 236.917 207.595 238.344 211.262C239.943 215.324 241.146 219.329 241.713 223.684C242.859 232.725 243.318 241.887 242.974 250.986C243.031 251.559 243.943 251.559 243.943 250.986Z" fill="#8AC1BF"/>
<path d="M245.656 243.944C254.172 243.256 262.453 241.027 270.62 238.678C271.193 238.506 270.964 237.647 270.396 237.819C262.281 240.111 254.115 242.397 245.656 243.085C245.089 243.085 245.089 244.001 245.656 243.944Z" fill="#8AC1BF"/>
<path d="M129.693 238.392C138.031 242.855 147.573 243.543 156.885 243.772C157.453 243.772 157.51 242.855 156.885 242.855C147.745 242.626 138.375 241.944 130.146 237.59C129.693 237.361 129.177 238.163 129.693 238.392Z" fill="#8AC1BF"/>
<path d="M194.245 307.366C195.443 305.48 197.385 304.105 199.557 303.533C200.87 303.189 202.182 303.189 203.5 303.647C204.755 304.105 205.953 304.736 207.099 305.48C207.609 305.767 208.068 305.022 207.552 304.678C206.297 303.876 204.927 303.131 203.5 302.673C202.125 302.272 200.698 302.272 199.271 302.616C196.87 303.189 194.76 304.793 193.385 306.85C193.099 307.366 193.901 307.824 194.245 307.366Z" fill="#8AC1BF"/>
<path d="M167.281 297.465C162.312 293.288 158.312 288.079 155.625 282.184C155.396 281.668 154.599 282.069 154.828 282.642C157.51 288.59 161.568 293.918 166.594 298.095C167.052 298.439 167.74 297.866 167.281 297.465Z" fill="#8AC1BF"/>
<path d="M178.651 294.204C175.052 284.871 174.365 274.626 176.708 264.84C176.823 264.267 175.964 263.981 175.849 264.553C173.448 274.454 174.135 284.871 177.792 294.371C177.964 294.944 178.875 294.715 178.651 294.204Z" fill="#8AC1BF"/>
<path d="M229.489 297.809C231.088 293.059 232.406 288.194 233.547 283.324C233.661 282.751 232.802 282.47 232.687 283.038C231.547 287.965 230.234 292.772 228.635 297.522C228.463 298.095 229.318 298.382 229.489 297.809Z" fill="#8AC1BF"/>
<path d="M217.094 295.116C221.838 285.215 224.234 274.397 224.12 263.408C224.12 262.835 223.208 262.777 223.208 263.408C223.38 274.225 221.036 284.928 216.354 294.658C216.068 295.173 216.807 295.689 217.094 295.116Z" fill="#8AC1BF"/>
<path d="M173.333 186.647C179.505 193.46 188.302 197.121 197.385 197.809C206.354 198.496 216.469 196.835 223.437 190.881C223.891 190.48 223.266 189.855 222.807 190.194C216.01 196.032 206.068 197.522 197.385 196.892C188.531 196.204 180.021 192.6 173.963 186.017C173.62 185.559 172.937 186.189 173.333 186.647Z" fill="#8AC1BF"/>
<path d="M250 229.866C250.172 228.434 250.401 227.001 250.573 225.626C250.63 225.397 250.344 225.168 250.115 225.168C249.828 225.168 249.656 225.34 249.656 225.626C249.484 227.059 249.255 228.491 249.083 229.866C249.026 230.095 249.313 230.324 249.542 230.324C249.828 230.324 250 230.152 250 229.866Z" fill="#8AC1BF"/>
<path d="M246.916 222.137C248 216.069 249.083 209.772 247.599 203.647C247.484 203.074 246.573 203.303 246.745 203.876C248.172 209.829 247.14 215.954 246.057 221.908C245.943 222.423 246.802 222.71 246.916 222.137Z" fill="#8AC1BF"/>
<path d="M156.885 231.637C156.484 225.741 156.427 219.845 156.599 213.949C156.599 213.376 155.682 213.319 155.682 213.949C155.453 219.845 155.568 225.741 155.969 231.637C156.026 232.152 156.943 232.21 156.885 231.637Z" fill="#8AC1BF"/>
<path d="M148.771 223.34C149.115 228.09 149.969 232.725 151.344 237.246C151.516 237.819 152.37 237.59 152.255 237.017C150.943 232.553 150.083 227.975 149.687 223.34C149.687 222.767 148.771 222.71 148.771 223.34Z" fill="#8AC1BF"/>
<path d="M219.896 217.329C221.667 221.048 222.807 225.053 223.265 229.178C223.323 229.751 224.234 229.809 224.177 229.178C223.719 224.881 222.578 220.762 220.693 216.871C220.463 216.355 219.667 216.814 219.896 217.329Z" fill="#8AC1BF"/>
<path d="M174.193 226.142C176.651 221.22 178.932 216.126 181.047 211.033C181.276 210.46 180.422 210.23 180.193 210.746C178.135 215.783 175.849 220.762 173.448 225.626C173.167 226.199 173.906 226.658 174.193 226.142Z" fill="#8AC1BF"/>
<path d="M146.37 248.579L146.427 248.522V248.579H146.37Z" fill="#8AC1BF"/>
<path d="M164.937 148.642L197.385 152.074L200.698 152.131L236.745 152.704L233.833 212.694L199.729 209.772L195.729 209.371L160.823 205.194L164.937 148.642Z" fill="#F9E7CF"/>
<path d="M163.797 149.444L196.984 152.876L200.411 152.991L237.26 153.564L234.349 213.548L199.5 210.632L195.385 210.23L159.568 207.48L163.797 149.444Z" fill="#FFBF6A"/>
<path d="M199.5 210.631L195.385 210.23L196.984 152.876L200.411 152.991L199.5 210.631Z" fill="#FFA732"/>
<mask id="mask2_333_3795" style="mask-type:luminance" maskUnits="userSpaceOnUse" x="52" y="344" width="295" height="7">
<path d="M52 344.965H347V350.298H52V344.965Z" fill="white"/>
</mask>
<g mask="url(#mask2_333_3795)">
<path d="M52 345.548H346.943V350.298H52V345.548Z" fill="#774F45"/>
</g>
<mask id="mask3_333_3795" style="mask-type:luminance" maskUnits="userSpaceOnUse" x="52" y="288" width="295" height="59">
<path d="M52 288.965H347V346.298H52V288.965Z" fill="white"/>
</mask>
<g mask="url(#mask3_333_3795)">
<path d="M347 345.548H52L84.276 288.991H323.464L347 345.548Z" fill="#9E695C"/>
</g>
<path d="M267.078 248.006C267.078 248.006 260.568 249.668 256.224 250.527C251.656 251.387 243.26 252.59 243.26 252.59C243.432 258.199 242.688 263.006 242.688 263.006C238.458 256.366 224.292 234.1 222.464 219.845C221.891 215.439 227.266 210.517 227.547 201.699C227.661 198.783 228.12 195.918 226.693 192.887C222.177 183.501 208.297 178.121 206.984 179.319C205.839 180.35 207.896 181.783 207.896 181.783C206.927 181.381 204.984 180.694 204.411 181.381C203.271 182.699 205.896 184.642 207.781 186.762C210.01 189.34 211.667 191.34 211.495 191.626C211.094 192.256 200.87 186.934 199.958 188.194C199.099 189.397 200.354 191.053 200.354 191.053C199.443 191.168 198.583 191.512 198.87 192.772C199.214 194.204 202.526 196.434 206.698 199.642C208.469 201.017 210.01 203.303 210.354 206.168C210.755 209.658 208.641 210.975 208.583 214.866C208.526 218.418 210.469 220.876 210.87 222.079C213.781 230.439 226.75 291.855 242.115 295.345C255.37 298.267 264.797 275.543 267.078 248.006Z" fill="#FFC9A5"/>
<mask id="mask4_333_3795" style="mask-type:luminance" maskUnits="userSpaceOnUse" x="132" y="180" width="73" height="119">
<path d="M132.661 180.121H204.641V298.038H132.661V180.121Z" fill="white"/>
</mask>
<g mask="url(#mask4_333_3795)">
<mask id="mask5_333_3795" style="mask-type:luminance" maskUnits="userSpaceOnUse" x="132" y="180" width="73" height="118">
<path d="M132.833 249.553C132.833 249.553 139.344 251.329 144.146 251.788C148.771 252.189 156.427 252.017 156.427 252.017C157.854 255.85 158.713 260.314 158.713 260.314C163.281 253.902 176.766 234.329 179.448 220.189C180.25 215.84 175.219 210.632 175.391 201.757C175.448 198.84 175.104 195.975 176.766 193.059C181.792 183.96 196.016 179.376 197.213 180.637C198.302 181.725 196.187 183.043 196.187 183.043C197.156 182.699 199.156 182.126 199.672 182.814C200.698 184.189 198.016 185.96 196.016 188.022C193.615 190.423 191.844 192.371 192.016 192.658C192.187 192.944 194.588 192.085 197.156 191.168C200.073 190.194 203.271 189.168 203.729 189.855C204.526 191.111 203.156 192.658 203.156 192.658C204.068 192.829 204.927 193.23 204.526 194.434C204.125 195.809 200.698 197.866 196.302 200.845C194.417 202.1 192.818 204.277 192.302 207.142C191.672 210.574 193.729 212.064 193.557 215.954C193.385 219.501 191.328 221.85 190.875 223.053C187.448 231.236 175.849 294.944 160.312 297.579C146.943 299.814 133.578 277.199 132.833 249.553Z" fill="white"/>
</mask>
<g mask="url(#mask5_333_3795)">
<path d="M132.833 249.553C132.833 249.553 139.344 251.329 144.146 251.788C148.771 252.189 156.427 252.017 156.427 252.017C157.854 255.85 158.713 260.314 158.713 260.314C163.281 253.902 176.766 234.329 179.448 220.189C180.25 215.84 175.219 210.632 175.391 201.757C175.448 198.84 175.109 195.975 176.766 193.059C181.792 183.96 196.016 179.376 197.213 180.637C198.302 181.725 196.187 183.043 196.187 183.043C197.156 182.699 199.156 182.126 199.672 182.814C200.698 184.189 198.016 185.96 196.016 188.022C193.615 190.423 191.844 192.371 192.016 192.658C192.359 193.288 202.87 188.538 203.729 189.913C204.526 191.168 203.156 192.715 203.156 192.715C204.068 192.887 204.927 193.288 204.526 194.491C204.125 195.866 200.698 197.923 196.302 200.902C194.417 202.158 192.818 204.335 192.302 207.199C191.672 210.632 193.729 212.121 193.557 216.012C193.385 219.559 191.328 221.908 190.875 223.111C187.448 231.293 175.849 295.001 160.312 297.637C146.943 299.814 133.578 277.199 132.833 249.553Z" fill="#FFC9A5"/>
</g>
</g>
<mask id="mask6_333_3795" style="mask-type:luminance" maskUnits="userSpaceOnUse" x="148" y="259" width="12" height="21">
<path d="M148.958 259.632H159.625V279.632H148.958V259.632Z" fill="white"/>
</mask>
<g mask="url(#mask6_333_3795)">
<mask id="mask7_333_3795" style="mask-type:luminance" maskUnits="userSpaceOnUse" x="132" y="180" width="73" height="118">
<path d="M132.833 249.553C132.833 249.553 139.344 251.329 144.146 251.788C148.771 252.189 156.427 252.017 156.427 252.017C157.854 255.85 158.713 260.314 158.713 260.314C163.281 253.902 176.766 234.329 179.448 220.189C180.25 215.84 175.219 210.632 175.391 201.757C175.448 198.84 175.104 195.975 176.766 193.059C181.792 183.96 196.016 179.376 197.213 180.637C198.302 181.725 196.187 183.043 196.187 183.043C197.156 182.699 199.156 182.126 199.672 182.814C200.698 184.189 198.016 185.96 196.016 188.022C193.615 190.423 191.844 192.371 192.016 192.658C192.187 192.944 194.588 192.085 197.156 191.168C200.073 190.194 203.271 189.168 203.729 189.855C204.526 191.111 203.156 192.658 203.156 192.658C204.068 192.829 204.927 193.23 204.526 194.434C204.125 195.809 200.698 197.866 196.302 200.845C194.417 202.1 192.818 204.277 192.302 207.142C191.672 210.574 193.729 212.064 193.557 215.954C193.385 219.501 191.328 221.85 190.875 223.053C187.448 231.236 175.849 294.944 160.312 297.579C146.943 299.814 133.578 277.199 132.833 249.553Z" fill="white"/>
</mask>
<g mask="url(#mask7_333_3795)">
<path d="M158.141 260.256C153.172 264.783 150.141 271.246 149.969 278.001C149.969 278.402 150.599 278.46 150.599 278.001C150.771 271.418 153.74 265.126 158.599 260.715C158.937 260.486 158.484 259.97 158.141 260.256Z" fill="#F78C77"/>
</g>
</g>
<mask id="mask8_333_3795" style="mask-type:luminance" maskUnits="userSpaceOnUse" x="182" y="182" width="15" height="11">
<path d="M182.292 182.298H196.958V192.965H182.292V182.298Z" fill="white"/>
</mask>
<g mask="url(#mask8_333_3795)">
<mask id="mask9_333_3795" style="mask-type:luminance" maskUnits="userSpaceOnUse" x="132" y="180" width="73" height="118">
<path d="M132.833 249.553C132.833 249.553 139.344 251.329 144.146 251.788C148.771 252.189 156.427 252.017 156.427 252.017C157.854 255.85 158.713 260.314 158.713 260.314C163.281 253.902 176.766 234.329 179.448 220.189C180.25 215.84 175.219 210.632 175.391 201.757C175.448 198.84 175.104 195.975 176.766 193.059C181.792 183.96 196.016 179.376 197.213 180.637C198.302 181.725 196.187 183.043 196.187 183.043C197.156 182.699 199.156 182.126 199.672 182.814C200.698 184.189 198.016 185.96 196.016 188.022C193.615 190.423 191.844 192.371 192.016 192.658C192.187 192.944 194.588 192.085 197.156 191.168C200.073 190.194 203.271 189.168 203.729 189.855C204.526 191.111 203.156 192.658 203.156 192.658C204.068 192.829 204.927 193.23 204.526 194.434C204.125 195.809 200.698 197.866 196.302 200.845C194.417 202.1 192.818 204.277 192.302 207.142C191.672 210.574 193.729 212.064 193.557 215.954C193.385 219.501 191.328 221.85 190.875 223.053C187.448 231.236 175.849 294.944 160.312 297.579C146.943 299.814 133.578 277.199 132.833 249.553Z" fill="white"/>
</mask>
<g mask="url(#mask9_333_3795)">
<path d="M183.505 192.199C185.219 190.309 187.448 188.996 189.5 187.621C190.588 186.876 191.672 186.131 192.818 185.444C193.844 184.756 194.875 184.017 196.016 183.501C196.417 183.329 196.073 182.756 195.729 182.928C194.588 183.444 193.557 184.189 192.531 184.871C191.385 185.673 190.187 186.418 189.047 187.22C186.99 188.595 184.76 189.913 183.104 191.741C182.76 192.027 183.219 192.543 183.505 192.199Z" fill="#F78C77"/>
</g>
</g>
<mask id="mask10_333_3795" style="mask-type:luminance" maskUnits="userSpaceOnUse" x="184" y="191" width="9" height="6">
<path d="M184.958 191.632H192.958V196.965H184.958V191.632Z" fill="white"/>
</mask>
<g mask="url(#mask10_333_3795)">
<mask id="mask11_333_3795" style="mask-type:luminance" maskUnits="userSpaceOnUse" x="132" y="180" width="73" height="118">
<path d="M132.833 249.553C132.833 249.553 139.344 251.329 144.146 251.788C148.771 252.189 156.427 252.017 156.427 252.017C157.854 255.85 158.713 260.314 158.713 260.314C163.281 253.902 176.766 234.329 179.448 220.189C180.25 215.84 175.219 210.632 175.391 201.757C175.448 198.84 175.104 195.975 176.766 193.059C181.792 183.96 196.016 179.376 197.213 180.637C198.302 181.725 196.187 183.043 196.187 183.043C197.156 182.699 199.156 182.126 199.672 182.814C200.698 184.189 198.016 185.96 196.016 188.022C193.615 190.423 191.844 192.371 192.016 192.658C192.187 192.944 194.588 192.085 197.156 191.168C200.073 190.194 203.271 189.168 203.729 189.855C204.526 191.111 203.156 192.658 203.156 192.658C204.068 192.829 204.927 193.23 204.526 194.434C204.125 195.809 200.698 197.866 196.302 200.845C194.417 202.1 192.818 204.277 192.302 207.142C191.672 210.574 193.729 212.064 193.557 215.954C193.385 219.501 191.328 221.85 190.875 223.053C187.448 231.236 175.849 294.944 160.312 297.579C146.943 299.814 133.578 277.199 132.833 249.553Z" fill="white"/>
</mask>
<g mask="url(#mask11_333_3795)">
<path d="M186.015 195.918C187.958 195.006 189.901 194.09 191.844 193.23C192.245 193.059 191.901 192.486 191.557 192.658C189.614 193.517 187.62 194.434 185.734 195.35C185.333 195.522 185.677 196.09 186.015 195.918Z" fill="#F78C77"/>
</g>
</g>
<mask id="mask12_333_3795" style="mask-type:luminance" maskUnits="userSpaceOnUse" x="188" y="191" width="16" height="12">
<path d="M188.958 191.632H203.625V202.298H188.958V191.632Z" fill="white"/>
</mask>
<g mask="url(#mask12_333_3795)">
<mask id="mask13_333_3795" style="mask-type:luminance" maskUnits="userSpaceOnUse" x="132" y="180" width="73" height="118">
<path d="M132.833 249.553C132.833 249.553 139.344 251.329 144.146 251.788C148.771 252.189 156.427 252.017 156.427 252.017C157.854 255.85 158.713 260.314 158.713 260.314C163.281 253.902 176.766 234.329 179.448 220.189C180.25 215.84 175.219 210.632 175.391 201.757C175.448 198.84 175.104 195.975 176.766 193.059C181.792 183.96 196.016 179.376 197.213 180.637C198.302 181.725 196.187 183.043 196.187 183.043C197.156 182.699 199.156 182.126 199.672 182.814C200.698 184.189 198.016 185.96 196.016 188.022C193.615 190.423 191.844 192.371 192.016 192.658C192.187 192.944 194.588 192.085 197.156 191.168C200.073 190.194 203.271 189.168 203.729 189.855C204.526 191.111 203.156 192.658 203.156 192.658C204.068 192.829 204.927 193.23 204.526 194.434C204.125 195.809 200.698 197.866 196.302 200.845C194.417 202.1 192.818 204.277 192.302 207.142C191.672 210.574 193.729 212.064 193.557 215.954C193.385 219.501 191.328 221.85 190.875 223.053C187.448 231.236 175.849 294.944 160.312 297.579C146.943 299.814 133.578 277.199 132.833 249.553Z" fill="white"/>
</mask>
<g mask="url(#mask13_333_3795)">
<path d="M189.958 201.132C193.615 197.465 198.302 195.178 202.927 193.116C203.328 192.944 202.984 192.371 202.641 192.543C197.901 194.605 193.214 196.949 189.5 200.616C189.219 200.96 189.672 201.418 189.958 201.132Z" fill="#F78C77"/>
</g>
</g>
<path d="M243.26 263.694C247.542 267.241 250.172 272.564 250.344 278.173C250.344 278.574 251.026 278.632 250.969 278.173C250.797 272.392 248.172 266.897 243.713 263.236C243.375 263.007 242.917 263.408 243.26 263.694Z" fill="#F78C77"/>
<path d="M200.583 190.48C201.099 190.309 201.614 190.137 202.182 190.027C202.469 189.97 202.755 189.97 202.984 190.027C203.156 190.085 203.443 190.137 203.557 190.251C203.786 190.538 203.729 191.111 203.614 191.454C203.5 191.855 203.213 192.256 202.87 192.486C202.755 192.6 202.755 192.829 202.87 192.944C202.984 193.059 203.213 193.059 203.328 192.944C203.786 192.6 204.125 192.142 204.297 191.569C204.469 191.053 204.469 190.309 204.182 189.855C203.844 189.34 203.042 189.225 202.469 189.283C201.786 189.34 201.156 189.512 200.526 189.741C200.354 189.798 200.245 189.97 200.297 190.137C200.245 190.423 200.411 190.538 200.583 190.48Z" fill="#F78C77"/>
<path d="M203.271 193.059C203.557 193.23 203.844 193.402 204.01 193.689C204.182 193.975 204.24 194.319 204.068 194.605C203.953 194.892 203.729 195.178 203.557 195.465C203.385 195.694 203.156 195.918 202.87 196.09C202.526 196.319 202.812 196.892 203.156 196.663C203.5 196.434 203.844 196.147 204.068 195.809C204.297 195.465 204.583 195.064 204.698 194.663C204.87 194.204 204.812 193.746 204.526 193.345C204.297 192.944 203.896 192.658 203.5 192.428C203.271 192.314 202.927 192.887 203.271 193.059Z" fill="#F78C77"/>
<path d="M203.786 192.944C205.896 193.918 208.068 194.949 209.781 196.605C210.068 196.892 210.583 196.434 210.239 196.147C208.469 194.434 206.297 193.402 204.125 192.371C203.786 192.199 203.443 192.772 203.786 192.944Z" fill="#F78C77"/>
<path d="M208.411 182.355C211.323 184.413 213.839 186.991 215.781 190.027C216.01 190.366 216.578 190.085 216.354 189.741C214.411 186.59 211.839 183.902 208.755 181.783C208.411 181.611 208.068 182.126 208.411 182.355Z" fill="#F78C77"/>
<path d="M223.552 224.882C223.667 228.663 222.521 232.382 221.036 235.762C220.292 237.418 219.495 239.079 218.521 240.569C218.01 241.314 217.437 242.283 216.693 242.855C216.521 242.97 216.24 243.257 216.01 243.142C215.838 243.027 215.838 242.283 215.838 242.116C215.838 241.6 215.953 241.085 216.068 240.569C216.24 239.996 215.38 239.71 215.208 240.283C214.922 241.199 214.583 244.975 216.578 244.116C217.437 243.772 218.182 242.626 218.75 241.887C219.495 240.913 220.068 239.824 220.635 238.736C222.807 234.501 224.635 229.751 224.463 224.939C224.463 224.314 223.552 224.314 223.552 224.882Z" fill="#33210A"/>
<path d="M264.052 121.449C263.823 121.163 263.594 120.819 263.422 120.423C262.854 121.564 261.88 122.251 260.568 122.595C259.313 122.881 258.224 122.767 257.198 122.251C256.224 121.736 255.599 120.934 255.313 119.85C254.969 118.475 255.255 117.329 256.057 116.355C256.854 115.381 258.224 114.699 260.109 114.184L261.651 113.783L261.479 113.038C261.313 112.465 261.083 112.006 260.682 111.72C260.281 111.434 259.766 111.376 259.141 111.548C258.568 111.663 258.167 111.949 257.88 112.293C257.599 112.637 257.542 113.038 257.656 113.553L254.281 114.355C254.115 113.611 254.172 112.866 254.453 112.121C254.74 111.376 255.255 110.746 256 110.173C256.74 109.6 257.656 109.199 258.682 108.975C260.224 108.574 261.594 108.689 262.682 109.256C263.766 109.829 264.51 110.803 264.854 112.236L266.224 117.73C266.51 118.934 266.906 119.793 267.422 120.366L267.479 120.538L264.052 121.449ZM260.682 119.736C261.198 119.621 261.594 119.392 261.995 119.048C262.339 118.704 262.625 118.361 262.74 117.902L262.224 115.725L260.969 116.012C259.255 116.413 258.51 117.215 258.682 118.418L258.74 118.647C258.854 119.048 259.083 119.392 259.427 119.564C259.708 119.85 260.167 119.85 260.682 119.736Z" fill="#4792A3"/>
<path d="M293.016 173.996C293.588 176.001 293.646 177.72 293.073 179.09C292.557 180.465 291.531 181.382 289.99 181.84C288.615 182.241 287.417 182.012 286.276 181.21L286.505 182.585L283.474 183.444L278.333 165.642L281.703 164.668L283.531 171.079C284.047 169.934 284.901 169.189 286.161 168.845C287.703 168.387 289.073 168.616 290.219 169.475C291.417 170.335 292.271 171.824 292.901 173.824L293.016 173.996ZM289.588 174.741C289.245 173.48 288.729 172.626 288.161 172.168C287.588 171.71 286.901 171.595 286.104 171.824C285.016 172.111 284.448 172.793 284.276 173.767L285.703 178.746C286.391 179.491 287.245 179.72 288.333 179.434C289.417 179.147 289.99 178.408 289.99 177.204C290.047 176.574 289.875 175.772 289.588 174.741Z" fill="#FFBF6A"/>
<path d="M316.094 149.501C316.667 149.611 317.125 149.559 317.521 149.329C317.922 149.1 318.208 148.757 318.323 148.241L321.12 148.871C320.948 149.611 320.552 150.298 320.036 150.814C319.463 151.329 318.838 151.73 318.036 151.902C317.234 152.074 316.437 152.074 315.578 151.902C313.979 151.559 312.838 150.757 312.151 149.501C311.469 148.298 311.297 146.751 311.755 144.975L311.812 144.803C312.208 143.09 312.953 141.829 314.151 140.97C315.297 140.168 316.667 139.939 318.266 140.283C319.693 140.626 320.724 141.257 321.349 142.23C322.036 143.204 322.208 144.402 321.922 145.72L319.12 145.09C319.234 144.517 319.177 144.001 318.896 143.548C318.609 143.09 318.208 142.803 317.635 142.689C316.953 142.517 316.38 142.689 315.864 143.09C315.411 143.491 315.01 144.288 314.781 145.434L314.724 145.72C314.437 146.866 314.437 147.725 314.667 148.355C314.896 148.986 315.411 149.387 316.094 149.501Z" fill="#F4827C"/>
<path d="M79.7083 142.173C79.1927 140.454 79.1354 138.965 79.5937 137.767C80.0469 136.507 80.9635 135.704 82.276 135.303C83.3646 134.96 84.3333 135.132 85.3021 135.704L83.5885 130.095L86.5052 129.178L91.2448 144.746L88.6198 145.548L88.1042 144.402C87.6458 145.548 86.8489 146.293 85.7031 146.637C84.3906 147.038 83.25 146.809 82.1614 146.064C81.0781 145.262 80.276 143.944 79.7083 142.173ZM82.7344 141.486C83.0208 142.517 83.4739 143.262 83.9896 143.663C84.5052 144.116 85.1354 144.23 85.8177 144.001C86.7344 143.72 87.2448 143.147 87.3594 142.288L86.0469 137.939C85.4739 137.309 84.7344 137.079 83.8177 137.366C82.3906 137.824 81.9896 139.194 82.7344 141.486Z" fill="#99D6D4"/>
<path d="M117.354 111.892L110.156 109.09L108.271 113.954L116.724 117.272L115.583 120.309L103.297 115.553L110.38 97.2408L122.609 101.991L121.406 105.022L112.953 101.762L111.297 106.111L118.495 108.918L117.354 111.892Z" fill="#FFBF6A"/>
<path d="M297.755 106.97L296.557 111.605L293.87 110.918L297.302 97.7513L302.443 99.069C303.412 99.2982 304.271 99.7565 304.896 100.272C305.526 100.845 305.984 101.475 306.214 102.277C306.438 103.022 306.438 103.876 306.214 104.736C305.87 106.053 305.182 106.913 304.099 107.428C303.01 107.944 301.698 108.001 300.156 107.6L297.755 106.97ZM298.328 104.793L300.729 105.423C301.469 105.595 302.042 105.595 302.5 105.366C302.953 105.137 303.297 104.678 303.412 104.048C303.583 103.418 303.526 102.85 303.24 102.335C302.953 101.819 302.5 101.475 301.813 101.303L299.297 100.673L298.328 104.793Z" fill="#FFBF6A"/>
<path d="M117.807 176.173C117.469 177.663 116.953 178.918 116.265 179.892C115.526 180.866 114.667 181.611 113.698 182.069L115.864 184.699L113.354 186.074L110.552 182.585C110.156 182.585 109.755 182.527 109.354 182.413C108.042 182.126 106.953 181.553 106.042 180.694C105.125 179.835 104.557 178.746 104.213 177.434C103.927 176.116 103.927 174.741 104.213 173.194L104.385 172.397C104.729 170.85 105.297 169.533 106.156 168.444C106.953 167.355 107.984 166.616 109.125 166.215C110.271 165.814 111.526 165.757 112.838 166.043C114.151 166.329 115.297 166.902 116.151 167.757C117.068 168.616 117.635 169.704 117.922 171.022C118.208 172.34 118.208 173.767 117.864 175.314L117.807 176.173ZM114.609 174.741C114.953 173.079 114.953 171.767 114.552 170.736C114.151 169.762 113.411 169.132 112.265 168.845C111.182 168.616 110.213 168.845 109.469 169.59C108.667 170.335 108.099 171.48 107.755 173.137L107.583 173.939C107.239 175.543 107.239 176.918 107.64 177.949C108.042 178.975 108.781 179.605 109.927 179.835C111.01 180.064 111.984 179.835 112.724 179.09C113.526 178.35 114.094 177.147 114.437 175.486L114.609 174.741Z" fill="#F4827C"/>
<path d="M155.797 77.0898L156.312 80.8086L158.885 80.4648L159.281 83.444L156.713 83.7878L157.797 91.3451C157.854 91.9128 158.026 92.3138 158.312 92.4857C158.542 92.7148 158.995 92.7721 159.568 92.6576C160.026 92.6003 160.427 92.4857 160.766 92.3711L161.224 95.4648C160.484 95.8086 159.682 96.0378 158.828 96.1523C155.969 96.5534 154.37 95.3503 153.854 92.4857L152.713 84.3034L150.484 84.5898L150.083 81.6107L152.312 81.3242L151.797 77.6055L155.797 77.0898Z" fill="#4792A3"/>
<path d="M232.464 70.9648L231.49 72.5117L232.349 76.6315L228.75 77.3763L224.75 58.3138L228.292 57.5117L230.521 68.1055L231.031 67.0742L233.604 62.3242L237.948 61.4076L234.234 68.0482L241.203 74.7409L237.089 75.6003L232.464 70.9648Z" fill="#99D6D4"/>
<path d="M302.786 291.97L292.729 266.439C292.672 266.21 292.672 266.095 292.672 265.866L293.016 261.46L293.417 261.173L296.5 263.694C296.672 263.809 296.729 263.923 296.786 264.152L306.839 289.678L302.786 291.97Z" fill="#E47974"/>
<path d="M311.922 287.048L320.948 261.001C321.062 260.829 321.12 260.715 321.234 260.543L324.208 257.913L324.604 258.085L325.12 262.491C325.177 262.663 325.12 262.835 325.063 263.007L316.036 289.048L311.922 287.048Z" fill="#9E695C"/>
<path d="M306.214 261.345L301.698 261.918L304.443 290.079L308.552 289.506L306.214 261.345Z" fill="#814F35"/>
<path d="M306.213 261.345L304.615 258.486C304.385 258.772 304.156 258.944 303.812 259.059C303.469 259.059 303.182 258.944 302.953 258.715L301.755 261.918L306.213 261.345Z" fill="#FFBF6A"/>
<path d="M303.755 259.059C304.099 259.059 304.385 258.829 304.557 258.486L303.812 257.111C303.698 256.882 303.469 256.939 303.411 257.168L302.896 258.715C303.068 258.944 303.411 259.059 303.755 259.059Z" fill="#4792A3"/>
<path d="M305.984 284.585L312.896 287.22L322.609 250.47L315.75 247.897L305.984 284.585Z" fill="#99D6D4"/>
<path d="M318.437 248.923L308.724 285.616L310.208 286.189L319.922 249.496L318.437 248.923Z" fill="#68ADB7"/>
<path d="M325.979 279.72L322.552 314.637H297.755L294.443 279.72C294.385 278.918 294.958 278.288 295.755 278.288H324.661C325.406 278.288 326.036 278.975 325.979 279.72Z" fill="#FFBF6A"/>
<path d="M297.755 314.694C297.755 316.069 303.297 317.215 310.151 317.215C317.01 317.215 322.552 316.069 322.552 314.694C322.552 313.319 317.01 312.173 310.151 312.173C303.297 312.173 297.755 313.319 297.755 314.694Z" fill="#FFBF6A"/>
<path d="M116.667 339.71L66.5677 339.939C63.7656 339.996 61.4844 337.704 61.4844 334.954C61.4844 332.21 63.7083 329.975 66.4531 329.975L116.094 329.689L131.406 311.434V320.876L116.667 339.71Z" fill="#4792A3"/>
<path d="M116.208 338.335L67.1925 339.079C64.9113 339.137 63.0259 337.246 63.0259 334.954C63.0259 332.668 64.854 330.835 67.1405 330.835L116.323 330.777L131.406 313.262V319.616L116.208 338.335Z" fill="#F9E7CF"/>
<path d="M116.151 329.631L65.9947 330.262C63.1978 330.319 60.9114 328.033 60.9114 325.283C60.9114 322.538 63.1405 320.303 65.8801 320.303H116.151L131.974 301.814V310.631L116.151 329.631Z" fill="#F4827C"/>
<path d="M116.266 328.09L67.0833 328.548C64.7969 328.605 62.9688 327.574 62.9688 325.283C62.9688 322.996 64.9687 321.564 67.25 321.564L116.208 321.621L132.089 303.303V309.199L116.266 328.09Z" fill="#F9E7CF"/>
<path d="M116.609 320.59L66.453 320.647C63.651 320.647 61.427 318.355 61.427 315.611C61.4843 312.861 63.7083 310.632 66.453 310.689L116.724 311.262L131.635 294.09L131.521 302.329L116.609 320.59Z" fill="#99D6D4"/>
<path d="M116.552 319.673L67.5364 319.788C65.2551 319.788 63.427 317.897 63.427 315.611C63.427 313.319 65.3124 311.548 67.5937 311.548L116.781 312.116L131.635 295.288L131.578 301.298L116.552 319.673Z" fill="#F9E7CF"/>
<path d="M84.2187 294.033L63.2551 311.772L116.781 311.262L131.693 294.033H84.2187Z" fill="#99D6D4"/>
<path d="M115.75 311.204L65.5937 310.574C62.7968 310.517 60.5676 308.225 60.6822 305.423C60.7395 302.673 63.026 300.496 65.8228 300.553L116.036 301.871L131.177 284.871L130.948 293.116L115.75 311.204Z" fill="#FFBF6A"/>
<path d="M115.698 310.23L66.6821 309.715C64.3957 309.658 62.5676 307.767 62.6248 305.48C62.6821 303.189 64.5676 301.413 66.854 301.47L116.036 302.73L131.12 286.074L130.948 292.085L115.698 310.23Z" fill="#F9E7CF"/>
<path d="M83.7603 284.184L62.5676 301.642L116.036 301.814L131.177 284.871L83.7603 284.184Z" fill="#FFBF6A"/>
<path d="M115.641 301.069L69.0782 300.496C66.5104 300.439 64.4532 298.324 64.5104 295.746C64.5677 293.173 66.6823 291.168 69.25 291.225L115.865 292.428L129.922 276.689L129.807 284.298L115.641 301.069Z" fill="#4792A3"/>
<path d="M115.64 300.21L70.1665 299.756C68.0519 299.756 66.3384 297.98 66.3957 295.861C66.453 293.746 68.2238 292.085 70.2811 292.142L115.979 293.288L129.979 277.829L129.807 283.381L115.64 300.21Z" fill="#F9E7CF"/>
<path d="M85.9323 276.001L66.2812 292.256L115.922 292.428L129.979 276.631L85.9323 276.001Z" fill="#4792A3"/>
<path d="M115.411 291.397L73.8801 290.882C71.5937 290.824 69.7656 288.934 69.8228 286.647C69.8801 284.355 71.7656 282.527 74.052 282.585L115.698 283.668L128.266 269.59L128.094 276.402L115.411 291.397Z" fill="#9E695C"/>
<path d="M115.411 290.652L74.7915 290.194C72.9061 290.194 71.3644 288.59 71.4217 286.704C71.479 284.814 73.0207 283.324 74.9061 283.382L115.64 284.413L128.151 270.621L128.036 275.6L115.411 290.652Z" fill="#F9E7CF"/>
<path d="M88.901 269.074L71.3645 283.496L115.641 283.668L128.208 269.59L88.901 269.074Z" fill="#9E695C"/>
<path d="M114.724 283.267L74.9635 282.809C72.7343 282.809 71.0208 280.98 71.0781 278.746C71.1353 276.574 72.9635 274.798 75.1353 274.855L115.01 275.887L127.005 262.434L126.833 268.96L114.724 283.267Z" fill="#F4827C"/>
<path d="M114.724 282.527L75.8229 282.126C73.9948 282.126 72.5677 280.579 72.6198 278.803C72.6771 277.027 74.1667 275.6 75.9375 275.658L114.953 276.631L126.948 263.408L126.833 268.158L114.724 282.527Z" fill="#F9E7CF"/>
<path d="M89.3592 261.861L72.5103 275.715L114.953 275.887L126.948 262.376L89.3592 261.861Z" fill="#F4827C"/>
<path d="M304.838 302.272H278.333L282.734 335.928C282.849 336.788 283.531 337.418 284.333 337.418H298.901C299.698 337.418 300.385 336.788 300.5 335.928L304.838 302.272Z" fill="#4792A3"/>
<path d="M302.099 297.064H281.078C280.792 297.064 280.505 297.293 280.448 297.637L279.474 302.73H303.641L302.672 297.637C302.672 297.293 302.443 297.064 302.099 297.064Z" fill="#F4827C"/>
<path d="M305.641 305.538H277.594C277.078 305.538 276.677 305.079 276.677 304.506V301.814C276.677 301.241 277.078 300.783 277.594 300.783H305.641C306.156 300.783 306.552 301.241 306.552 301.814V304.506C306.609 305.079 306.156 305.538 305.641 305.538Z" fill="#F4827C"/>
<path d="M281.416 331.751L278.677 310.632C278.62 310.116 278.963 309.715 279.422 309.715H303.927C304.385 309.715 304.724 310.173 304.666 310.632L301.927 331.751C301.87 332.152 301.583 332.439 301.182 332.439H282.219C281.76 332.439 281.474 332.152 281.416 331.751Z" fill="#F4E0BA"/>
<path d="M255.771 336.215L243.031 304.22L192.187 305.71L184.818 336.902L255.771 336.215Z" fill="#F4E0BA"/>
<path d="M249.828 330.376L237.089 298.382L181.505 299.585L174.078 330.835L249.828 330.376Z" fill="#F4E0BA"/>
<path d="M251.37 332.095L238.63 300.095L187.786 301.585L180.422 332.783L251.37 332.095Z" fill="#F9E7CF"/>
<path d="M176.823 307.251C176.651 307.824 177.047 308.454 177.734 308.569L197.271 313.262C197.385 313.262 197.443 313.262 197.557 313.262L199.786 312.861L199.901 312.689L198.245 311.376C198.187 311.319 198.13 311.262 198.015 311.262L178.364 306.506C177.677 306.335 176.989 306.678 176.823 307.251Z" fill="#F4827C"/>
<path d="M167.281 307.996C166.88 308.454 166.995 309.142 167.51 309.6L183.219 322.079C183.333 322.137 183.391 322.194 183.505 322.194L185.677 322.767L185.849 322.652L184.932 320.762C184.875 320.647 184.875 320.59 184.76 320.533L168.937 307.939C168.422 307.538 167.682 307.538 167.281 307.996Z" fill="#FFBF6A"/>
<path d="M189.333 68.2773C189.844 66.8451 190.359 65.7565 190.99 65.0117C191.557 64.2669 192.531 63.5221 193.786 62.8346L197.042 61.1784C198.474 60.3763 199.385 59.2878 199.844 57.9701C200.245 56.7148 200.245 55.569 199.844 54.5951C199.385 53.6211 198.526 52.9336 197.271 52.5326C196.016 52.1315 194.927 52.1315 193.901 52.5326C192.932 52.9336 192.245 53.6784 191.901 54.8242L188.474 53.6784C189.161 51.6732 190.417 50.3034 192.188 49.5586C193.958 48.8138 196.016 48.8138 198.245 49.5586C200.526 50.3034 202.125 51.5586 203.042 53.2201C203.896 54.8815 204.01 56.8294 203.271 59.0013C202.583 61.1211 200.87 62.9492 198.188 64.3242L195.5 65.6419C194.302 66.3294 193.328 67.5898 192.76 69.4753L189.333 68.2773ZM187.276 74.0586C187.448 73.4857 187.786 73.0846 188.245 72.7982C188.703 72.5117 189.276 72.5117 189.958 72.7409C190.646 72.9701 191.047 73.3138 191.276 73.8294C191.5 74.3451 191.5 74.8555 191.328 75.3711C191.161 75.944 190.818 76.3451 190.359 76.5742C189.901 76.8034 189.333 76.8607 188.646 76.6315C187.958 76.4023 187.563 76.0586 187.333 75.6003C187.104 75.1419 187.104 74.6263 187.276 74.0586Z" fill="#FFBF6A"/>
<path d="M280.62 144.517C281.193 143.777 281.703 143.204 282.219 142.861C282.734 142.517 283.417 142.288 284.276 142.059L286.505 141.658C287.474 141.428 288.276 140.97 288.729 140.225C289.245 139.538 289.417 138.85 289.359 138.22C289.302 137.595 288.901 137.022 288.219 136.506C287.531 136.048 286.901 135.819 286.219 135.876C285.531 135.934 285.016 136.277 284.62 136.85L282.792 135.533C283.531 134.501 284.563 133.871 285.76 133.756C286.958 133.642 288.161 133.986 289.359 134.845C290.615 135.704 291.302 136.736 291.531 137.939C291.76 139.079 291.474 140.283 290.615 141.428C289.818 142.574 288.443 143.319 286.62 143.663L284.792 143.944C283.932 144.116 283.13 144.746 282.448 145.72L280.62 144.517ZM278.333 147.611C278.563 147.324 278.792 147.152 279.135 147.038C279.474 146.98 279.818 147.038 280.161 147.324C280.505 147.553 280.734 147.897 280.734 148.184C280.792 148.527 280.677 148.814 280.448 149.158C280.219 149.444 279.99 149.611 279.646 149.725C279.307 149.783 278.964 149.668 278.62 149.444C278.276 149.215 278.047 148.928 278.047 148.585C278.047 148.184 278.104 147.897 278.333 147.611Z" fill="#99D6D4"/>
<path d="M133.12 75.7148C132.661 74.8554 132.375 74.1731 132.26 73.5429C132.146 72.97 132.203 72.2252 132.432 71.3086L133.005 69.0742C133.234 68.0481 133.12 67.1888 132.661 66.444C132.26 65.6992 131.693 65.2409 131.062 65.069C130.432 64.8971 129.75 65.0117 129.005 65.4127C128.266 65.8138 127.807 66.3294 127.578 66.9596C127.349 67.5898 127.406 68.22 127.807 68.845L125.865 69.9909C125.234 68.845 125.12 67.7044 125.521 66.5013C125.922 65.3554 126.776 64.3815 128.036 63.6367C129.349 62.8919 130.604 62.6679 131.75 62.9492C132.891 63.2356 133.802 63.9804 134.547 65.2409C135.234 66.444 135.406 67.9909 134.948 69.8763L134.432 71.6523C134.26 72.5117 134.432 73.4856 135.062 74.569L133.12 75.7148ZM134.948 79.095C134.776 78.7513 134.719 78.4648 134.776 78.1211C134.833 77.7773 135.062 77.4909 135.464 77.319C135.859 77.0898 136.203 77.0325 136.49 77.1471C136.833 77.2617 137.062 77.4909 137.234 77.7773C137.401 78.1211 137.458 78.4075 137.401 78.7513C137.344 79.095 137.12 79.3242 136.719 79.5534C136.318 79.7825 135.974 79.8398 135.687 79.7252C135.349 79.6679 135.12 79.4388 134.948 79.095Z" fill="#E47974"/>
<path d="M126.094 154.079C126.266 152.934 126.495 152.074 126.833 151.444C127.177 150.814 127.75 150.126 128.547 149.444L130.661 147.783C131.578 146.98 132.089 146.064 132.26 145.033C132.375 144.059 132.203 143.204 131.807 142.574C131.349 141.944 130.604 141.543 129.635 141.428C128.661 141.314 127.865 141.486 127.177 141.887C126.495 142.345 126.151 142.975 126.036 143.829L123.406 143.491C123.635 141.944 124.323 140.798 125.521 139.939C126.719 139.137 128.208 138.85 129.922 139.079C131.693 139.309 133.063 139.996 133.917 141.085C134.776 142.173 135.12 143.548 134.891 145.262C134.661 146.923 133.693 148.47 131.922 149.897L130.146 151.215C129.349 151.902 128.891 152.934 128.661 154.423L126.094 154.079ZM125.406 158.6C125.464 158.142 125.635 157.798 125.922 157.569C126.208 157.283 126.604 157.225 127.12 157.283C127.635 157.34 128.036 157.569 128.208 157.855C128.432 158.199 128.49 158.543 128.49 159.001C128.432 159.46 128.266 159.803 127.979 160.033C127.693 160.262 127.292 160.376 126.776 160.319C126.266 160.262 125.922 160.09 125.693 159.746C125.406 159.402 125.349 159.059 125.406 158.6Z" fill="#4792A3"/>
<path d="M268.224 82.8138C267.938 81.6107 267.823 80.6367 267.88 79.8398C267.938 79.095 268.224 78.1784 268.792 77.0898L270.224 74.5117C270.792 73.3138 270.964 72.1679 270.677 71.0794C270.396 70.0482 269.88 69.2461 269.193 68.845C268.453 68.3919 267.594 68.3346 266.511 68.6159C265.479 68.9023 264.74 69.4179 264.224 70.1054C263.766 70.7929 263.651 71.6523 263.88 72.569L261.083 73.3138C260.682 71.6523 260.912 70.1627 261.766 68.9023C262.625 67.5898 263.995 66.6732 265.823 66.1575C267.708 65.6419 269.365 65.7565 270.677 66.5013C271.995 67.2461 272.906 68.5065 273.422 70.2773C273.88 72.0534 273.537 74.0013 272.391 76.1732L271.193 78.2357C270.677 79.2669 270.62 80.5221 271.021 82.069L268.224 82.8138ZM269.365 87.6784C269.25 87.22 269.25 86.819 269.479 86.4179C269.651 86.0169 270.052 85.7929 270.563 85.6211C271.136 85.4492 271.594 85.5065 271.938 85.7357C272.276 85.9596 272.563 86.3034 272.677 86.7617C272.792 87.22 272.734 87.6211 272.563 88.0221C272.391 88.4232 271.995 88.6523 271.422 88.8242C270.849 88.9961 270.448 88.9388 270.052 88.7096C269.766 88.4804 269.479 88.1367 269.365 87.6784Z" fill="#F4827C"/>
</svg>
