<svg width="400" height="400" viewBox="0 0 400 400" fill="none" xmlns="http://www.w3.org/2000/svg">
<path d="M316.702 85.2447C309.694 69.8294 292.601 67.1704 277.519 65.5531C266.065 64.3296 254.647 62.779 243.502 59.7747C233.363 57.0369 223.575 53.1603 213.489 50.259C194.979 44.9288 170.545 33.7534 155.438 48.0966C148.436 54.7412 147.922 73.1063 146.244 82.3373C145.202 88.0552 144.384 93.8094 143.663 99.5757C143.118 100.957 142.567 102.326 142.016 103.707C139.09 111.084 135.359 119.861 138.115 127.874C140.296 134.24 146.056 137.651 152.24 139.359C161.393 141.884 171.06 142.557 180.309 144.822C201.442 149.995 220.225 159.341 239.668 168.778C255.156 176.289 275.817 184.429 292.91 177.221C299.876 174.284 303.395 168.202 305.26 161.17C307.671 152.054 309.264 142.999 312.377 134.041C317.744 118.595 323.959 101.205 316.702 85.2447Z" fill="black"/>
<path d="M271.268 151.854C263.139 148.002 254.781 144.592 246.325 141.521C241.437 139.746 236.506 138.093 231.558 136.5C231.582 136.427 231.612 136.366 231.636 136.294C236.912 122.06 241.419 107.553 245.677 92.9856C258.348 95.6386 270.977 98.4551 283.237 102.701C284.648 103.192 286.053 103.713 287.452 104.24C286.18 108.365 284.866 112.477 283.509 116.572C280.614 125.336 277.567 134.047 274.515 142.763C273.455 145.797 272.37 148.832 271.268 151.854ZM229.656 135.876C223.744 134.004 217.808 132.229 211.854 130.521C199.146 126.875 186.281 123.513 174.143 118.189C173.973 118.11 173.803 118.026 173.634 117.953C178.292 104.421 183.295 91.0049 188.625 77.7218C195.355 80.3324 202.199 82.628 209.14 84.5965C220.522 87.825 232.121 90.1569 243.702 92.5737C242.279 97.4436 240.837 102.307 239.335 107.159C236.349 116.808 233.169 126.403 229.656 135.876ZM274.999 147.408C279.978 133.338 284.933 119.237 289.33 104.967C299.046 108.776 308.392 113.519 317.217 119.098C317.405 118.425 317.58 117.747 317.756 117.069C308.937 111.538 299.615 106.844 289.918 103.046C290.796 100.151 291.662 97.2498 292.492 94.3363C294.812 86.1774 296.865 77.9459 298.579 69.6416C297.955 69.4175 297.319 69.2116 296.677 69.0117C294.358 80.2536 291.384 91.3441 288.04 102.332C276.562 98.0069 264.635 95.0329 252.667 92.4344C250.522 91.968 248.378 91.5137 246.234 91.0655C246.731 89.3635 247.221 87.6614 247.712 85.9533C249.959 78.1215 252.533 70.2352 254.278 62.2338C253.618 62.1066 252.963 61.9854 252.309 61.8522C250.795 68.618 248.675 75.2747 246.785 81.9133C245.949 84.8328 245.101 87.7402 244.259 90.6536C234.592 88.6366 224.919 86.6741 215.361 84.2089C206.548 81.9314 197.862 79.1573 189.376 75.8804C190.43 73.2637 191.472 70.6471 192.556 68.0425C195.536 60.8588 198.625 53.7175 201.811 46.6186C201.175 46.4127 200.539 46.2128 199.903 46.019C195.597 55.6497 191.46 65.3592 187.511 75.1414C185.167 74.2147 182.835 73.2577 180.521 72.2522C170.218 67.7639 160.26 62.5185 150.714 56.5946C150.502 57.2428 150.308 57.903 150.12 58.5814C161.768 65.7651 174.04 71.9372 186.753 76.9949C185.1 81.1137 183.477 85.2446 181.89 89.3877C178.364 98.5702 175.015 107.813 171.811 117.111C161.75 112.465 152.271 106.614 143.615 99.7029C143.361 100.351 143.1 100.993 142.846 101.635C150.678 107.838 159.145 113.216 168.128 117.596C169.133 118.092 170.151 118.546 171.169 119.007C168.588 126.56 166.093 134.15 163.718 141.769C164.391 141.884 165.063 141.993 165.735 142.109C168.043 134.695 170.43 127.311 172.937 119.964L172.98 119.831C183.204 124.301 193.913 127.505 204.652 130.552C212.775 132.865 220.891 135.234 228.953 137.778C226.549 144.144 223.998 150.455 221.236 156.676C220.831 157.578 220.407 158.469 219.995 159.371C220.594 159.65 221.2 159.922 221.8 160.201C225.065 153.036 228.069 145.749 230.849 138.377C244.381 142.72 257.73 147.627 270.59 153.726C269.057 157.839 267.452 161.915 265.653 165.913C263.951 169.699 262.073 173.418 259.978 177.003C260.632 177.203 261.286 177.397 261.946 177.573C266.138 170.298 269.439 162.491 272.389 154.592C272.776 154.78 273.164 154.956 273.545 155.143C282.976 159.783 292.086 165.095 300.627 171.213C301.026 170.692 301.408 170.153 301.759 169.596C292.716 163.127 283.079 157.578 273.079 152.739C273.733 150.964 274.369 149.183 274.999 147.408Z" fill="black"/>
<path d="M268.906 149.656C265.968 137.445 264.339 124.973 262.424 112.574C260.626 100.945 259.154 88.4549 254.568 77.5219C251.431 70.0354 246.167 64.6082 237.821 63.7299C224.913 62.361 211 66.6313 198.577 69.5023C183.604 72.967 108.09 79.5692 85.5153 82.7128C71.584 84.6511 57.2832 84.0757 54.709 101.296C53.1099 112.047 56.2717 123.313 58.5189 133.738C61.3899 147.039 62.565 160.425 63.2373 173.987C63.7825 184.829 62.8315 197.319 66.5566 207.689C69.4822 215.829 76.5266 221.184 84.6431 223.631C95.885 227.023 107.908 224.582 119.265 223.134C132.361 221.462 145.505 220.106 158.667 219.076C171.829 218.04 185.021 217.319 198.219 216.926C203.21 216.774 208.232 216.774 213.247 216.774C221.236 216.78 229.232 216.78 237.166 216.169C255.949 214.721 276.689 205.211 276.689 183.563C276.689 171.928 271.583 160.813 268.906 149.656Z" fill="#C3D1E2"/>
<path d="M108.508 281.312C111.458 279.968 121.01 271.597 123.009 269.277C127.11 264.534 135.499 255.297 135.499 255.297C136.583 264.389 144.378 269.513 141.653 300.156H242.503C241.358 287.333 239.983 242.069 240.401 229.167C243.793 225.206 260.898 200.523 255.768 176.283C253.818 167.064 244.793 162.666 235.113 160.819C223.569 158.608 212.987 161.994 201.781 157.197L147.443 186.004C134.584 191.898 132.434 202.013 129.357 208.076C127.309 212.122 125.008 215.914 122.476 219.566C120.101 217.889 115.752 213.394 115.752 213.394C107.279 227.198 93.0627 238.137 89.3073 254.534C87.6658 261.712 88.0413 270.319 91.6029 276.909C95.0433 283.269 102.354 284.111 108.508 281.312Z" fill="#97A7C1"/>
<path d="M113.433 141.86C117.2 149.777 124.317 155.446 130.641 159.953C138.339 165.44 146.662 168.312 153.797 166.749L156.129 172.545C157.425 175.78 156.317 179.414 153.549 181.528C151.901 182.782 149.787 184.302 147.443 186.004C158.418 193.182 174.246 190.983 185.33 185.144C191.684 181.801 196.378 176.228 198.365 169.311C198.753 167.954 199.025 166.579 199.225 165.198C187.25 160.674 183.204 156.718 181.902 153.538L177.062 141.721C178.074 138.929 177.153 122.362 171.962 113.562C160.878 94.7967 140.065 84.8025 124.226 92.3557C106 101.048 104.008 120.557 112.809 140.497C113.009 140.964 113.433 141.86 113.433 141.86Z" fill="#FFD3C8"/>
<path d="M143.628 121.342C144.706 121.687 144.506 122.42 143.016 123.934C141.726 125.248 139.467 126.799 137.698 127.671C133.749 129.628 130.411 128.907 131.671 128.519C133.785 127.865 135.42 127.175 139.109 124.721C141.12 123.383 142.901 121.111 143.628 121.342Z" fill="black"/>
<path d="M113.578 141.323C113.62 142.443 114.341 142.492 116.103 141.577C117.63 140.79 119.598 139.148 120.87 137.791C123.184 135.32 123.445 131.928 122.887 132.734C121.7 134.478 121.004 135.49 117.824 138.161C116.085 139.621 113.553 140.566 113.578 141.323Z" fill="black"/>
<path d="M135.432 147.293C135.311 147.293 135.189 147.281 135.074 147.251C134.596 147.136 134.311 146.688 134.123 146.264C133.82 145.579 133.657 144.846 133.475 144.126C133.221 143.102 132.96 142.078 132.633 141.073C132.573 140.879 132.724 140.758 132.882 140.758C132.991 140.758 133.094 140.812 133.136 140.94C133.487 142.036 133.76 143.15 134.045 144.265C134.22 144.968 134.372 145.755 134.765 146.379C134.941 146.663 135.195 146.766 135.474 146.766C135.674 146.766 135.892 146.712 136.104 146.621C136.958 146.258 137.334 145.379 137.352 144.489C137.352 144.325 137.479 144.241 137.612 144.241C137.739 144.241 137.873 144.325 137.867 144.489C137.854 145.398 137.527 146.276 136.782 146.827C136.413 147.094 135.91 147.293 135.432 147.293Z" fill="#FF775D"/>
<path d="M154.923 169.559L153.797 166.749C165.542 164.175 168.728 141.273 168.728 141.273C169.412 155.101 167.407 166.222 154.923 169.559Z" fill="#FF9177"/>
<path d="M210.642 154.871C206.639 149.195 201.502 144.616 197.044 139.34C192.356 133.786 189.006 127.287 185.99 120.721C180.617 109.031 175.929 96.3715 166.244 87.4434C157.17 79.0665 144.899 76.686 133.039 79.545C125.104 81.4651 116.594 85.7474 110.622 92.0104C108.835 93.7731 107.308 95.7295 106.164 97.8858C105.304 99.3698 104.589 100.933 104.032 102.568C97.0962 102.495 93.5043 111.151 93.4317 116.511C93.3832 120.576 94.3645 124.543 94.9217 128.547C95.5032 132.726 95.5577 136.96 96.648 141.055C98.459 147.911 102.432 154.241 108.035 158.626C114.038 163.327 121.131 165.295 128.678 165.198C133.687 165.132 137.988 165.919 141.925 169.22C145.153 171.928 147.552 175.477 149.569 179.142C149.793 179.541 150.405 179.263 150.302 178.833C147.322 166.519 133.657 162.945 125.038 155.719C119.913 151.412 115.588 146.179 112.76 140.182C111.736 137.548 109.755 132.108 108.381 126.154C107.417 122.005 108.132 118.02 109.38 114.664C111.5 117.432 115.031 118.813 118.484 119.425C124.48 120.497 130.701 119.909 136.625 121.484C142.149 122.962 146.861 126.736 149.248 131.981C151.725 137.426 151.18 143.805 152.718 149.547C154.39 155.761 157.31 161.564 161.235 166.658C161.495 166.985 162.113 166.821 161.968 166.349C160.726 162.26 158.903 158.384 157.546 154.338C156.837 152.206 156.268 150.025 156.026 147.784C155.771 145.422 155.959 143.041 155.892 140.667C155.862 139.28 155.692 137.911 155.462 136.56C157.915 143.138 159.66 150.08 162.301 156.543C162.604 157.276 162.919 158.008 163.246 158.729C164.936 164.865 166.759 170.94 170.587 176.155C174.354 181.298 179.473 185.326 185.469 187.531C185.857 187.67 186.129 187.125 185.857 186.858C182.931 183.975 180.763 180.51 179.442 176.682L179.515 176.719C179.842 176.979 180.151 177.258 180.49 177.512C184.415 180.395 188.806 182.315 193.507 183.515C198.982 184.914 204.688 185.707 209.485 188.912C209.891 189.184 210.242 188.609 209.97 188.282C209.703 187.961 209.437 187.634 209.17 187.307C210.897 188.815 212.423 190.523 213.707 192.485C213.943 192.843 214.61 192.625 214.44 192.176C213.925 190.85 213.344 189.554 212.708 188.288C214.652 190.698 216.602 193.109 218.547 195.52C218.819 195.853 218.535 194 218.456 193.642C218.02 191.595 218.117 191.122 217.263 189.257C218.735 191.401 220.055 193.648 221.194 196.017C221.4 196.441 221.06 194.26 220.97 193.836C220.091 189.626 219.171 187.634 216.469 184.375C219.746 186.792 222.702 189.269 225.488 192.267C225.767 192.57 225.379 190.493 225.282 190.117C222.108 177.003 218.48 165.973 210.642 154.871Z" fill="black"/>
<path d="M143.239 148.547C143.633 148.547 144.003 148.59 144.342 148.662C144.56 148.711 144.851 148.856 144.851 148.856C144.851 148.856 141.41 149.777 139.417 150.964C137.503 152.097 134.99 154.677 134.99 154.677C134.99 154.677 135.002 154.356 135.026 154.126C135.153 152.817 136.504 151.158 138.618 149.965C140.405 148.965 141.961 148.547 143.239 148.547Z" fill="#FF7E5E"/>
<path d="M138.224 135.216C139.884 135.064 141.459 134.174 142.458 132.823C142.628 132.593 143.009 132.817 142.834 133.047C141.737 134.537 140.041 135.488 138.206 135.652C137.927 135.682 137.946 135.24 138.224 135.216Z" fill="black"/>
<path d="M122.354 143.562C124.014 143.417 125.589 142.527 126.588 141.176C126.758 140.946 127.14 141.17 126.964 141.4C125.861 142.89 124.172 143.841 122.336 144.004C122.052 144.035 122.07 143.593 122.354 143.562Z" fill="black"/>
<path d="M155.59 136.681C155.275 130.255 154.463 123.077 149.163 118.698C143.639 114.137 136.28 115.209 129.665 114.288C125.965 113.78 122.233 112.611 119.671 109.746C119.502 109.558 119.217 109.836 119.387 110.03C123.578 114.712 130.295 114.84 136.104 115.179C139.69 115.391 143.403 115.742 146.619 117.474C149.805 119.182 152.089 122.066 153.355 125.421C154.699 129.007 155.008 132.884 155.19 136.681C155.202 136.936 155.602 136.936 155.59 136.681Z" fill="#8C7BB4"/>
<path d="M179.848 176.379C175.191 169.88 171.435 162.666 169.509 154.883C167.553 146.942 167.656 138.608 165.233 130.77C163.858 126.318 161.496 122.362 159.024 118.45C158.885 118.231 158.54 118.437 158.679 118.655C160.938 122.235 163.161 125.851 164.524 129.879C165.869 133.841 166.505 137.996 167.05 142.127C167.571 146.094 168.007 150.08 168.891 153.986C169.739 157.748 171.023 161.406 172.634 164.907C174.524 169.02 176.868 172.903 179.497 176.579C179.649 176.791 179.994 176.585 179.848 176.379Z" fill="#8C7BB4"/>
<path d="M109.356 114.107C107.654 113.004 106.515 111.296 105.649 109.503C104.662 107.468 103.777 105.178 104.135 102.877C104.177 102.622 103.796 102.513 103.753 102.768C103.384 105.13 104.22 107.432 105.225 109.54C106.134 111.46 107.339 113.277 109.15 114.452C109.368 114.591 109.574 114.246 109.356 114.107Z" fill="#8C7BB4"/>
<path d="M209.286 187.04C207.614 184.514 205.131 182.812 202.52 181.371C199.594 179.759 196.602 178.318 193.816 176.452C187.753 172.4 182.562 166.918 179.806 160.086C179.709 159.85 179.321 159.953 179.418 160.195C181.993 166.579 186.65 171.819 192.205 175.816C195.064 177.882 198.147 179.505 201.26 181.152C204.174 182.691 207.081 184.435 208.94 187.24C209.08 187.452 209.431 187.252 209.286 187.04Z" fill="#8C7BB4"/>
<path d="M212.974 188.179C210.497 183.115 206.257 179.281 201.787 175.974C199.285 174.132 196.638 172.473 194.488 170.201C192.38 167.972 190.757 165.356 189.509 162.557C189.406 162.327 189.061 162.527 189.164 162.763C190.315 165.344 191.787 167.766 193.664 169.892C195.663 172.152 198.116 173.823 200.551 175.574C205.349 179.02 209.988 182.982 212.629 188.379C212.744 188.609 213.089 188.403 212.974 188.179Z" fill="#8C7BB4"/>
<path d="M217.548 189.263C216.3 186.737 215.052 184.199 213.514 181.825C211.981 179.475 210.158 177.464 208.026 175.641C205.785 173.727 203.78 171.764 202.151 169.287C200.582 166.912 199.334 164.35 198.092 161.8C197.977 161.57 197.632 161.776 197.747 162C198.965 164.508 200.188 167.015 201.714 169.353C203.241 171.691 205.082 173.654 207.202 175.465C209.461 177.385 211.442 179.402 213.078 181.891C214.658 184.296 215.93 186.889 217.202 189.469C217.311 189.699 217.657 189.499 217.548 189.263Z" fill="#8C7BB4"/>
<path d="M216.803 184.139C215.512 182.025 215.264 179.463 214.386 177.173C213.58 175.065 212.496 173.072 211.321 171.146C208.85 167.088 205.979 163.242 204.228 158.784C204.131 158.548 203.743 158.65 203.84 158.893C205.561 163.284 208.359 167.088 210.812 171.08C212.084 173.151 213.271 175.289 214.107 177.573C214.937 179.814 215.197 182.279 216.457 184.339C216.597 184.563 216.942 184.357 216.803 184.139Z" fill="#8C7BB4"/>
<path d="M98.9195 116.227C101.936 124.816 99.816 134.168 102.408 142.835C104.68 150.431 110.41 156.839 117.999 159.359C120.192 160.086 122.427 160.389 124.723 160.534C127.339 160.698 129.992 160.801 132.415 161.915C132.651 162.024 132.851 161.679 132.615 161.57C128.823 159.813 124.547 160.474 120.549 159.632C116.449 158.772 112.621 156.73 109.58 153.859C106.576 151.019 104.335 147.402 103.032 143.484C101.639 139.304 101.433 134.876 101.27 130.503C101.088 125.658 100.93 120.745 99.3072 116.124C99.2224 115.881 98.8347 115.984 98.9195 116.227Z" fill="#8C7BB4"/>
<path d="M129.702 159.099C126.746 157.869 123.56 157.275 120.653 155.907C118.351 154.822 116.219 153.369 114.353 151.636C110.537 148.087 107.854 143.417 106.794 138.311C106.746 138.056 106.358 138.165 106.412 138.414C107.479 143.586 110.21 148.329 114.075 151.921C115.958 153.678 118.115 155.156 120.453 156.252C123.39 157.639 126.607 158.239 129.599 159.486C129.835 159.583 129.938 159.196 129.702 159.099Z" fill="#8C7BB4"/>
<path d="M135.723 255.079C134.814 249.513 134.287 243.886 134.16 238.247C134.045 232.886 134.826 227.374 133.899 222.062C133.857 221.814 133.469 221.917 133.512 222.171C134.008 224.994 133.93 227.859 133.833 230.712C133.736 233.48 133.706 236.236 133.784 239.004C133.93 244.425 134.463 249.834 135.335 255.188C135.377 255.443 135.765 255.334 135.723 255.079Z" fill="#79849D"/>
<path d="M131.028 226.611C131.949 227.204 132.918 227.713 133.924 228.137C134.021 228.18 134.136 228.168 134.196 228.071C134.245 227.986 134.22 227.834 134.123 227.792C133.118 227.368 132.149 226.859 131.228 226.272C131.01 226.126 130.81 226.478 131.028 226.611Z" fill="#79849D"/>
<path d="M133.73 241.009C129.696 252.85 122.318 264.032 111.882 271.149C111.664 271.294 111.87 271.639 112.082 271.494C122.609 264.316 130.047 253.062 134.117 241.112C134.202 240.869 133.814 240.76 133.73 241.009Z" fill="#79849D"/>
<path d="M108.441 223.897C114.989 232.111 124.275 237.368 133.869 241.251C134.111 241.348 134.214 240.96 133.978 240.869C124.438 237.005 115.231 231.772 108.726 223.619C108.562 223.413 108.278 223.697 108.441 223.897Z" fill="#79849D"/>
<path d="M110.349 225.654C112.645 222.183 114.941 218.712 117.236 215.242C117.375 215.024 117.03 214.824 116.891 215.036C114.595 218.507 112.3 221.977 110.004 225.454C109.859 225.666 110.204 225.866 110.349 225.654Z" fill="#79849D"/>
<path d="M113.208 228.555C115.934 225.393 118.26 221.911 120.132 218.179C120.247 217.949 119.901 217.743 119.786 217.974C117.933 221.68 115.631 225.133 112.924 228.271C112.754 228.464 113.039 228.749 113.208 228.555Z" fill="#79849D"/>
<path d="M116.752 231.457C117.969 229.73 119.174 227.992 120.362 226.241C120.943 225.381 121.524 224.515 122.1 223.649C122.633 222.856 123.202 222.08 123.56 221.19C123.657 220.948 123.269 220.851 123.178 221.081C122.815 222.001 122.191 222.807 121.646 223.619C121.064 224.485 120.489 225.345 119.901 226.205C118.75 227.901 117.581 229.579 116.406 231.257C116.255 231.469 116.606 231.669 116.752 231.457Z" fill="#79849D"/>
<path d="M120.38 234.103C122.585 230.79 124.705 227.423 126.734 224C126.867 223.782 126.522 223.576 126.388 223.8C124.365 227.223 122.239 230.59 120.035 233.904C119.889 234.116 120.234 234.315 120.38 234.103Z" fill="#79849D"/>
<path d="M124.729 236.557C126.625 233.195 128.351 229.748 129.914 226.229C130.016 225.993 129.671 225.787 129.568 226.023C128.006 229.549 126.279 232.995 124.383 236.351C124.256 236.581 124.601 236.781 124.729 236.557Z" fill="#79849D"/>
<path d="M132.591 227.459C131.277 231.16 129.677 234.746 127.812 238.198C127.685 238.422 128.03 238.628 128.157 238.398C130.041 234.915 131.652 231.293 132.979 227.568C133.063 227.32 132.676 227.217 132.591 227.459Z" fill="#79849D"/>
<path d="M131.852 240.167C132.627 238.228 133.402 236.284 134.178 234.346C134.275 234.11 133.887 234.001 133.796 234.243C133.015 236.181 132.239 238.119 131.464 240.058C131.367 240.3 131.755 240.403 131.852 240.167Z" fill="#79849D"/>
<path d="M149.436 196.768C152.67 198.694 156.323 199.657 160.023 200.184C163.876 200.723 167.789 200.88 171.665 200.565C178.879 199.972 185.966 197.67 191.793 193.303C194.737 191.104 197.28 188.415 199.273 185.326C199.413 185.108 199.067 184.908 198.928 185.12C190.963 197.488 175.548 201.541 161.616 199.984C157.449 199.518 153.276 198.585 149.642 196.422C149.417 196.289 149.218 196.634 149.436 196.768Z" fill="#79849D"/>
<path d="M184.464 215.06C182.035 208.064 179.382 201.28 176.953 194.284C174.845 188.233 173.125 181.795 168.951 176.785C165.166 172.243 160.054 169.147 154.693 166.815C148.442 164.096 142.434 161.406 136.806 157.512C133.681 155.349 130.701 152.987 127.83 150.51C126.219 149.117 124.293 146.663 122.076 145.84C121.119 144.459 119.114 142.151 117.472 143.017C115.28 144.18 117.945 147.13 118.726 148.22C122.924 154.035 127.363 159.329 132.724 164.108C135.541 166.622 137.994 169.305 140.168 172.4C142.052 175.077 143.79 177.857 145.856 180.395C147.764 182.746 149.969 184.938 152.609 186.452C153.875 187.179 155.262 187.549 156.547 188.215C158.533 189.239 159.29 191.437 160.175 193.37C163.742 201.153 165.566 218.416 165.566 218.416C171.265 218.652 184.464 215.06 184.464 215.06Z" fill="#FFD3C8"/>
<path d="M146.595 176.174C144.445 173.987 142.028 172.079 139.968 169.802C138.054 167.676 136.686 165.404 134.299 163.744C130.937 161.419 128.018 158.753 125.165 155.967C122.633 153.042 120.398 149.85 118.139 146.706C117.351 145.61 116.576 144.471 115.601 143.526C114.838 142.787 113.705 141.866 112.578 141.848C111.53 141.83 111.119 142.702 111.258 143.629C111.409 144.616 111.948 145.531 112.615 146.282C112.385 146.657 112.318 147.197 112.463 147.778C113.057 150.152 115.092 152.624 116.455 154.61C118.012 156.882 119.683 159.068 121.367 161.243C124.947 165.871 128.63 170.48 131.325 175.695C133.039 179.014 135.032 183.23 134.238 187.046C133.481 190.686 131.101 194.181 129.09 197.252C125.189 203.212 120.592 208.688 117.491 215.139C117.491 215.139 121.652 220.209 130.859 226.429C130.859 226.429 138.285 213.546 142.022 207.477C145.305 202.146 149.835 196.822 151.495 190.686C153.028 185.023 150.538 180.159 146.595 176.174Z" fill="#FFD3C8"/>
<path d="M184.458 215.272C186.323 221.468 189.152 227.18 192.623 232.632C194.403 235.424 196.166 238.228 197.347 241.336C198.553 244.504 199.213 247.841 199.358 251.221C199.37 251.481 199.77 251.481 199.758 251.221C199.625 248.041 199.037 244.891 197.977 241.887C196.887 238.828 195.27 236.048 193.537 233.316C189.891 227.574 186.814 221.699 184.839 215.163C184.767 214.915 184.379 215.018 184.458 215.272Z" fill="#79849D"/>
<path d="M168.364 227.689C174.918 226.853 181.774 226.665 187.698 223.388C187.922 223.261 187.722 222.916 187.498 223.043C181.641 226.284 174.845 226.459 168.364 227.283C168.109 227.32 168.109 227.719 168.364 227.689Z" fill="#79849D"/>
<path d="M167.843 218.67C168.594 221.487 169.485 224.261 170.521 226.98C170.611 227.217 170.999 227.114 170.908 226.871C169.872 224.152 168.982 221.378 168.231 218.561C168.164 218.319 167.777 218.422 167.843 218.67Z" fill="#79849D"/>
<path d="M171.09 218.252C171.81 221.075 172.604 223.885 173.452 226.671C173.525 226.92 173.912 226.811 173.84 226.569C172.986 223.776 172.198 220.972 171.477 218.143C171.411 217.901 171.023 218.004 171.09 218.252Z" fill="#79849D"/>
<path d="M174.385 217.634C175.136 220.554 175.966 223.461 176.868 226.338C176.947 226.581 177.329 226.478 177.256 226.229C176.353 223.352 175.524 220.451 174.773 217.531C174.706 217.283 174.318 217.386 174.385 217.634Z" fill="#79849D"/>
<path d="M177.462 217.029C178.261 219.924 179.127 222.807 180.054 225.666C180.133 225.908 180.521 225.805 180.442 225.563C179.509 222.698 178.649 219.821 177.849 216.92C177.783 216.671 177.395 216.774 177.462 217.029Z" fill="#79849D"/>
<path d="M180.727 216.265C181.199 217.731 181.672 219.191 182.144 220.651C182.592 222.032 183.089 223.413 183.331 224.848C183.38 225.109 183.761 224.994 183.725 224.745C183.477 223.31 182.98 221.929 182.532 220.542C182.059 219.082 181.587 217.622 181.108 216.162C181.036 215.92 180.648 216.023 180.727 216.265Z" fill="#79849D"/>
<path d="M157.813 190.39C157.007 193.255 156.632 196.217 156.698 199.184C156.704 199.439 157.104 199.445 157.098 199.184C157.031 196.253 157.401 193.327 158.194 190.499C158.267 190.25 157.879 190.147 157.813 190.39Z" fill="#79849D"/>
<path d="M153.155 189.118C152.228 191.898 151.707 194.787 151.598 197.713C151.592 197.973 151.992 197.973 152.004 197.713C152.107 194.823 152.628 191.97 153.542 189.227C153.627 188.984 153.239 188.875 153.155 189.118Z" fill="#79849D"/>
<path d="M177.48 188.833C179.152 191.807 180.418 194.993 181.235 198.306C181.296 198.555 181.683 198.445 181.623 198.197C180.793 194.854 179.515 191.637 177.825 188.633C177.698 188.403 177.353 188.609 177.48 188.833Z" fill="#79849D"/>
<path d="M181.266 187.506C182.816 190.511 184.046 193.666 184.93 196.925C184.997 197.173 185.384 197.071 185.318 196.822C184.421 193.527 183.174 190.341 181.605 187.3C181.49 187.07 181.144 187.276 181.266 187.506Z" fill="#79849D"/>
<path d="M185.863 187.712C187.371 189.857 188.649 192.152 189.673 194.563C189.77 194.799 190.115 194.599 190.018 194.363C188.994 191.952 187.716 189.651 186.208 187.506C186.063 187.294 185.718 187.5 185.863 187.712Z" fill="#79849D"/>
<path d="M188.649 183.569C190.745 185.738 192.641 188.088 194.307 190.602C194.452 190.814 194.797 190.614 194.658 190.396C192.968 187.864 191.054 185.477 188.934 183.291C188.752 183.103 188.474 183.388 188.649 183.569Z" fill="#79849D"/>
<path d="M195.076 184.46C195.942 185.32 196.669 186.307 197.232 187.397C197.353 187.621 197.699 187.422 197.577 187.191C197.002 186.083 196.251 185.059 195.361 184.175C195.173 183.993 194.888 184.278 195.076 184.46Z" fill="#79849D"/>
<path d="M116.909 144.78C116.818 144.259 117.042 143.611 117.479 143.302C117.999 142.932 118.678 143.108 119.199 143.393C120.265 143.968 120.949 145.016 121.597 146.009C121.731 146.215 122.064 146.021 121.931 145.816C121.161 144.634 120.277 143.296 118.872 142.829C118.248 142.623 117.563 142.672 117.073 143.138C116.625 143.568 116.431 144.277 116.54 144.883C116.582 145.125 116.952 145.022 116.909 144.78Z" fill="#FF7A5A"/>
<path d="M121.834 146.046C124.111 146.342 125.674 148.414 127.236 149.898C128.86 151.449 130.562 152.926 132.318 154.326C135.765 157.063 139.435 159.511 143.294 161.624C147.516 163.932 151.986 165.677 156.341 167.7C160.49 169.626 164.288 171.982 167.437 175.344C171.072 179.22 173.07 183.975 174.924 188.887C175.009 189.118 175.384 189.021 175.293 188.79C173.706 184.575 172.047 180.317 169.194 176.779C166.389 173.302 162.84 170.504 158.867 168.493C154.318 166.185 149.508 164.435 144.978 162.085C140.701 159.862 136.637 157.239 132.857 154.265C130.828 152.66 128.878 150.958 127.018 149.165C125.51 147.699 124.038 145.943 121.834 145.658C121.591 145.628 121.591 146.009 121.834 146.046Z" fill="#FF7A5A"/>
<path d="M113.838 142.381C119.55 146.966 122.252 154.126 127.697 158.971C129.211 160.322 130.859 161.515 132.452 162.775C134.148 164.108 135.759 165.549 137.303 167.058C140.35 170.014 143.257 173.121 146.195 176.186C147.825 177.882 149.478 179.62 150.605 181.71C151.701 183.733 151.962 185.944 151.804 188.221C151.786 188.463 152.167 188.463 152.186 188.221C152.319 186.374 152.204 184.526 151.525 182.794C150.883 181.122 149.817 179.656 148.666 178.306C145.85 174.992 142.676 171.928 139.629 168.832C136.558 165.701 133.263 162.975 129.841 160.256C126.685 157.754 124.256 154.804 121.973 151.509C119.641 148.141 117.339 144.701 114.111 142.109C113.917 141.951 113.644 142.224 113.838 142.381Z" fill="#FF7A5A"/>
<path d="M151.895 186.089C152.858 186.87 153.979 187.446 155.148 187.846C156.401 188.27 157.48 189.015 158.315 190.038C158.473 190.232 158.739 189.959 158.588 189.772C157.825 188.833 156.837 188.088 155.711 187.64C155.081 187.391 154.445 187.197 153.839 186.883C153.252 186.574 152.682 186.234 152.167 185.823C151.974 185.665 151.701 185.938 151.895 186.089Z" fill="#FF7A5A"/>
<path d="M134.402 186.937C135.735 188.512 137.703 189.463 139.763 189.548C140.011 189.56 140.011 189.178 139.763 189.166C137.8 189.081 135.941 188.161 134.669 186.664C134.511 186.477 134.239 186.749 134.402 186.937Z" fill="#FF7A5A"/>
<path d="M112.79 146.403C114.704 144.035 117.872 149.51 118.684 150.819C119.986 152.908 121.216 155.034 122.615 157.064C125.359 161.049 128.509 164.744 131.979 168.106C132.155 168.281 132.428 168.009 132.246 167.839C128.145 163.853 124.499 159.408 121.428 154.574C120.017 152.345 118.775 149.995 117.145 147.905C116.207 146.694 114.062 144.216 112.518 146.13C112.366 146.324 112.633 146.597 112.79 146.403Z" fill="#FF7A5A"/>
<path d="M158.455 190.135C160.775 190.347 163.191 190.214 165.245 189.002C165.463 188.875 165.269 188.548 165.051 188.669C163.058 189.85 160.708 189.953 158.455 189.747C158.206 189.723 158.212 190.111 158.455 190.135Z" fill="#FF7A5A"/>
<path d="M165.293 218.688C168.891 229.149 171.853 239.821 174.173 250.639C176.045 259.368 177.856 270.918 188.038 273.578C192.865 274.831 198.226 274.595 202.884 272.808C207.263 271.124 211.079 268.272 214.374 264.976C219.571 259.767 223.799 253.541 228.111 247.599C230.552 244.237 232.963 240.863 235.313 237.435C237.082 234.855 238.899 232.25 240.389 229.488C240.51 229.264 240.165 229.058 240.044 229.288C237.148 234.661 233.351 239.628 229.801 244.576C225.925 249.979 222.072 255.467 217.814 260.573C214.652 264.371 211.103 267.932 206.815 270.452C202.429 273.038 197.62 274.214 192.532 273.85C189.861 273.662 187.129 273.202 184.785 271.833C182.841 270.7 181.236 269.059 179.97 267.205C177.105 263.02 176.099 257.95 175.094 253.074C172.683 241.39 169.557 229.87 165.675 218.579C165.596 218.343 165.202 218.446 165.293 218.688Z" fill="#79849D"/>
<path d="M194.725 235.678C196.166 230.845 199.909 227.326 203.501 224C207.457 220.348 211 216.465 214.174 212.116C215.834 209.833 217.408 207.489 218.971 205.139C220.54 202.788 222.133 200.45 223.508 197.979C226.215 193.091 227.445 187.537 230.268 182.709C233.139 177.797 237.494 173.854 242.624 171.413C242.854 171.304 242.648 170.958 242.418 171.067C237.966 173.187 234.096 176.422 231.243 180.456C227.984 185.053 226.682 190.547 224.289 195.58C223.029 198.24 221.424 200.723 219.795 203.176C218.238 205.526 216.682 207.882 215.058 210.19C211.781 214.848 208.177 219.13 203.998 223.001C200.103 226.605 195.906 230.318 194.343 235.575C194.264 235.824 194.652 235.927 194.725 235.678Z" fill="#79849D"/>
<mask id="mask0_333_3948" style="mask-type:luminance" maskUnits="userSpaceOnUse" x="44" y="247" width="265" height="113">
<path d="M44 247.362H308.84V360H44V247.362Z" fill="white"/>
</mask>
<g mask="url(#mask0_333_3948)">
<path d="M251.134 346.802C259.529 345.778 267.524 342.537 273.999 337.098C277.361 334.275 280.456 331.126 283.212 327.649C289.948 319.133 294.23 308.848 296.992 298.418C298.197 293.881 299.027 289.338 299.488 284.674C299.942 280.101 300.215 275.516 300.729 270.955C301.644 262.753 303.249 253.965 308.61 247.429C306.671 247.447 304.733 247.508 302.795 247.629C301.438 247.714 300.075 247.829 298.706 247.956C288.906 249.664 279.414 253.147 270.819 258.205C263.945 262.251 257.96 267.302 252.418 273.014C249.559 275.964 246.47 279.023 242.418 280.186C237.724 281.536 232.781 280.234 228.196 279.065C210.558 274.559 192.271 273.184 174.167 275.249C165.293 276.261 156.516 278.06 147.97 280.658C139.102 283.348 130.659 287.806 121.488 289.417C111.773 291.131 101.645 290.168 91.8993 289.253C86.0482 288.702 80.2092 287.993 74.3823 287.206C69.9364 286.243 65.4783 285.358 61.0082 284.747C55.8173 284.044 50.5779 283.723 45.3446 284.044C45.0236 284.062 44.7631 284.323 44.745 284.644C44.6965 285.419 44.6541 286.194 44.6117 286.97C42.8794 319.508 67.9617 347.631 100.47 349.988C100.646 350 100.815 350.012 100.991 350.024C117.993 351.32 134.705 354.839 151.543 357.335C167.855 359.752 184.5 361.236 200.884 358.631C209.334 357.292 217.517 354.761 225.712 352.374C234.035 349.939 242.406 347.862 251.037 346.814L251.134 346.802Z" fill="black"/>
</g>
<mask id="mask1_333_3948" style="mask-type:luminance" maskUnits="userSpaceOnUse" x="46" y="251" width="260" height="109">
<path d="M46.1565 251.166H305.799V360H46.1565V251.166Z" fill="white"/>
</mask>
<g mask="url(#mask1_333_3948)">
<path d="M280.329 282.609C283.673 278.084 286.792 273.396 290.33 269.017C293.564 265.013 297.192 261.36 301.135 258.047C302.05 257.278 302.983 256.539 303.922 255.806C304.437 254.425 305.036 253.074 305.727 251.778C301.959 254.492 298.337 257.429 295 260.67C291.19 264.383 287.87 268.526 284.733 272.814C281.462 277.284 278.373 281.888 274.848 286.164C271.88 289.774 268.615 293.136 265.108 296.231C263.382 297.757 261.595 299.211 259.759 300.598C258.136 297.079 256.428 293.596 254.659 290.156C252.436 285.843 250.098 281.585 247.712 277.357C247.137 277.799 246.537 278.205 245.925 278.581C250.207 286.194 254.326 293.947 257.991 301.894C252.8 305.65 247.252 308.908 241.485 311.689C224.241 320.005 205.234 324.154 186.233 325.729C184.488 314.372 182.895 302.985 181.478 291.579C180.775 285.97 180.127 280.343 179.503 274.722C178.788 274.777 178.08 274.831 177.365 274.898C179.255 291.943 181.478 308.951 184.076 325.905C161.199 327.57 138.188 325.668 115.637 321.713C111.385 320.968 107.157 320.132 102.936 319.26C102.711 314.087 102.542 308.915 102.427 303.742C102.318 299.187 102.275 294.638 102.245 290.077C101.524 290.035 100.803 289.986 100.083 289.932C100.131 299.562 100.349 309.187 100.755 318.806C82.9351 315.014 65.3453 310.187 47.9009 304.971C47.374 304.814 46.847 304.656 46.314 304.493C46.526 305.323 46.7561 306.146 46.9984 306.964C64.782 312.276 82.6928 317.201 100.852 321.035C101.282 330.514 101.863 339.993 102.633 349.455C102.651 349.691 102.675 349.921 102.693 350.151C103.432 350.218 104.165 350.284 104.898 350.357C104.111 340.744 103.475 331.12 103.039 321.483C104.45 321.774 105.855 322.077 107.272 322.355C129.999 326.801 153.191 329.4 176.366 328.503C179.049 328.4 181.732 328.249 184.409 328.049C185.185 333.046 185.984 338.049 186.82 343.04C187.759 348.625 188.74 354.203 189.758 359.77C190.485 359.727 191.211 359.691 191.932 359.637C190.012 349.073 188.207 338.485 186.56 327.873C203.247 326.48 219.831 323.124 235.355 316.771C243.654 313.366 251.613 309.133 258.899 303.899C263.061 313.148 266.604 322.652 269.099 332.507C269.693 334.845 270.208 337.195 270.674 339.563C271.328 339.115 271.964 338.655 272.588 338.176C270.057 325.905 265.829 314.045 260.668 302.603C268.209 296.915 274.708 290.204 280.329 282.609Z" fill="#020A15"/>
</g>
<path d="M69.3189 86.2744C64.2794 103.682 67.9924 121.866 71.4267 139.189C73.2499 148.396 75.0065 157.651 75.4184 167.046C75.8242 176.495 75.0731 185.95 75.5092 195.399C75.9332 204.587 77.5383 213.915 82.1175 222.014C82.2629 222.274 82.6687 222.038 82.5233 221.777C73.5649 205.932 76.3572 187.119 75.9696 169.741C75.5637 151.539 69.9306 134.113 67.9681 116.106C66.8839 106.19 66.9748 96.0445 69.7671 86.3955C69.8519 86.1109 69.4037 85.9897 69.3189 86.2744Z" fill="#A5B3BF"/>
<path d="M123.281 172.285C111.215 170.183 100.095 163.648 92.2507 154.259C90.0217 151.588 88.0774 148.687 86.442 145.616C86.3027 145.349 85.8968 145.585 86.0422 145.846C91.8207 156.7 101.536 165.259 112.936 169.832C116.231 171.152 119.659 172.121 123.154 172.733C123.451 172.782 123.572 172.333 123.281 172.285Z" fill="#A5B3BF"/>
<path d="M122.972 177.355C116.685 178.342 110.343 178.93 103.983 179.129C103.686 179.142 103.68 179.608 103.983 179.596C110.386 179.396 116.77 178.796 123.099 177.803C123.39 177.754 123.269 177.312 122.972 177.355Z" fill="#A5B3BF"/>
<path d="M212.878 150.704C212.944 147.427 211.26 144.574 209.413 141.981C207.281 138.995 205.07 136.064 203.041 132.999C198.958 126.839 195.403 120.255 193.398 113.107C192.235 108.988 191.629 104.736 191.72 100.46C191.726 100.157 191.26 100.157 191.254 100.46C190.933 115.258 198.855 128.359 207.305 139.892C209.655 143.096 212.502 146.506 212.411 150.704C212.405 151.006 212.872 151.006 212.878 150.704Z" fill="#A5B3BF"/>
<path d="M215.682 154.102C217.554 147.578 216.863 140.77 216.13 134.125C216.1 133.835 215.634 133.829 215.664 134.125C216.391 140.721 217.093 147.493 215.234 153.974C215.149 154.265 215.603 154.386 215.682 154.102Z" fill="#A5B3BF"/>
<path d="M226.67 157.221C234.713 155.894 242.884 156.446 250.971 157.021C251.273 157.039 251.267 156.573 250.971 156.555C242.836 155.979 234.635 155.434 226.548 156.767C226.252 156.815 226.379 157.263 226.67 157.221Z" fill="#A5B3BF"/>
<path d="M247.954 260.022C252.14 260.222 256.277 260.93 260.292 262.148C260.716 262.275 260.898 261.609 260.474 261.482C256.404 260.252 252.2 259.537 247.954 259.337C247.512 259.313 247.512 259.998 247.954 260.022Z" fill="#E8E8E8"/>
<path d="M316.702 85.1805C309.694 69.7652 292.601 67.1061 277.519 65.4889C266.065 64.2654 254.647 62.7148 243.502 59.7105C233.363 56.9727 223.575 53.0961 213.489 50.1948C194.979 44.8645 170.545 33.6892 155.438 48.0324C148.436 54.677 147.922 73.0421 146.244 82.2731C145.202 87.991 144.384 93.7452 143.663 99.5115C143.118 100.893 142.567 102.261 142.016 103.642C139.09 111.02 135.359 119.797 138.115 127.81C140.296 134.176 146.056 137.586 152.24 139.294C161.393 141.82 171.06 142.493 180.309 144.758C201.442 149.931 220.225 159.277 239.668 168.714C255.156 176.224 275.817 184.365 292.91 177.157C299.876 174.22 303.395 168.138 305.26 161.106C307.671 151.99 309.264 142.935 312.377 133.976C317.744 118.531 323.959 101.141 316.702 85.1805Z" fill="#66A2AF"/>
<path d="M271.268 151.79C263.139 147.938 254.781 144.528 246.325 141.457C241.437 139.682 236.506 138.028 231.558 136.435C231.582 136.363 231.612 136.302 231.636 136.23C236.912 121.995 241.419 107.489 245.677 92.9214C258.348 95.5744 270.977 98.3909 283.237 102.637C284.648 103.128 286.053 103.648 287.452 104.175C286.18 108.3 284.866 112.413 283.509 116.508C280.614 125.272 277.567 133.982 274.515 142.698C273.455 145.733 272.37 148.768 271.268 151.79ZM229.656 135.812C223.744 133.94 217.808 132.165 211.854 130.457C199.146 126.811 186.281 123.449 174.143 118.125C173.973 118.046 173.803 117.961 173.634 117.889C178.292 104.357 183.295 90.9407 188.625 77.6575C195.355 80.2681 202.199 82.5638 209.14 84.5323C220.522 87.7608 232.121 90.0927 243.702 92.5095C242.279 97.3794 240.837 102.243 239.335 107.095C236.349 116.744 233.169 126.338 229.656 135.812ZM274.999 147.344C279.978 133.274 284.933 119.173 289.33 104.902C299.046 108.712 308.392 113.455 317.217 119.033C317.405 118.361 317.58 117.683 317.756 117.004C308.937 111.474 299.615 106.78 289.918 102.982C290.796 100.087 291.662 97.1856 292.492 94.2721C294.812 86.1132 296.865 77.8817 298.579 69.5774C297.955 69.3533 297.319 69.1473 296.677 68.9475C294.358 80.1894 291.384 91.2799 288.04 102.267C276.562 97.9427 264.635 94.9687 252.667 92.3702C250.522 91.9038 248.378 91.4495 246.234 91.0013C246.731 89.2993 247.221 87.5972 247.712 85.8891C249.959 78.0573 252.533 70.171 254.278 62.1696C253.618 62.0424 252.963 61.9212 252.309 61.788C250.795 68.5537 248.675 75.2105 246.785 81.849C245.949 84.7686 245.101 87.676 244.259 90.5894C234.592 88.5724 224.919 86.6099 215.361 84.1447C206.548 81.8672 197.862 79.0931 189.376 75.8162C190.43 73.1995 191.472 70.5829 192.556 67.9783C195.536 60.7946 198.625 53.6533 201.811 46.5544C201.175 46.3485 200.539 46.1486 199.903 45.9548C195.597 55.5855 191.46 65.295 187.511 75.0772C185.167 74.1505 182.835 73.1935 180.521 72.188C170.218 67.6997 160.26 62.4543 150.714 56.5304C150.502 57.1785 150.308 57.8388 150.12 58.5172C161.768 65.7009 174.04 71.873 186.753 76.9307C185.1 81.0495 183.477 85.1804 181.89 89.3235C178.364 98.506 175.015 107.749 171.811 117.047C161.75 112.401 152.271 106.55 143.615 99.6387C143.361 100.287 143.1 100.929 142.846 101.571C150.678 107.773 159.145 113.152 168.128 117.531C169.133 118.028 170.151 118.482 171.169 118.943C168.588 126.496 166.093 134.085 163.718 141.705C164.391 141.82 165.063 141.929 165.735 142.044C168.043 134.63 170.43 127.247 172.937 119.9L172.98 119.766C183.204 124.237 193.913 127.441 204.652 130.487C212.775 132.801 220.891 135.17 228.953 137.714C226.549 144.08 223.998 150.391 221.236 156.612C220.831 157.514 220.407 158.405 219.995 159.307C220.594 159.586 221.2 159.858 221.8 160.137C225.065 152.971 228.069 145.685 230.849 138.313C244.381 142.656 257.73 147.562 270.59 153.662C269.057 157.775 267.452 161.851 265.653 165.849C263.951 169.634 262.073 173.353 259.978 176.939C260.632 177.139 261.286 177.333 261.946 177.509C266.138 170.234 269.439 162.426 272.389 154.528C272.776 154.716 273.164 154.891 273.545 155.079C282.976 159.719 292.086 165.031 300.627 171.149C301.026 170.628 301.408 170.089 301.759 169.531C292.716 163.062 283.079 157.514 273.079 152.675C273.733 150.9 274.369 149.119 274.999 147.344Z" fill="#FEF1EB"/>
<path d="M268.906 149.591C265.968 137.38 264.339 124.909 262.424 112.51C260.626 100.88 259.154 88.3907 254.568 77.4577C251.431 69.9711 246.167 64.544 237.821 63.6657C224.913 62.2968 211 66.5671 198.577 69.4381C183.604 72.9028 108.09 79.505 85.5153 82.6486C71.584 84.5869 57.2832 84.0115 54.709 101.232C53.1099 111.983 56.2717 123.249 58.5189 133.673C61.3899 146.975 62.565 160.361 63.2373 173.923C63.7825 184.765 62.8315 197.255 66.5566 207.624C69.4822 215.765 76.5266 221.12 84.6431 223.567C95.885 226.959 107.908 224.518 119.265 223.07C132.361 221.398 145.505 220.041 158.667 219.012C171.829 217.976 185.021 217.255 198.219 216.861C203.21 216.71 208.232 216.71 213.247 216.71C221.236 216.716 229.232 216.716 237.166 216.104C255.949 214.657 276.689 205.147 276.689 183.499C276.689 171.863 271.583 160.749 268.906 149.591Z" fill="#C3D1E2"/>
<path d="M108.508 281.248C111.458 279.903 121.01 271.533 123.009 269.213C127.11 264.47 135.499 255.233 135.499 255.233C136.583 264.325 144.378 269.449 141.653 300.092H242.503C241.358 287.269 239.983 242.004 240.401 229.103C243.793 225.141 260.898 200.459 255.768 176.218C253.818 166.999 244.793 162.602 235.113 160.755C223.569 158.544 212.987 161.93 201.781 157.133L147.443 185.94C134.584 191.834 132.434 201.949 129.357 208.012C127.309 212.058 125.008 215.85 122.476 219.502C120.101 217.824 115.752 213.33 115.752 213.33C107.279 227.134 93.0627 238.073 89.3073 254.47C87.6658 261.647 88.0413 270.255 91.6029 276.845C95.0433 283.205 102.354 284.047 108.508 281.248Z" fill="#E1E1E1"/>
<path d="M113.433 141.796C117.2 149.713 124.317 155.382 130.641 159.889C138.339 165.376 146.662 168.247 153.797 166.685L156.129 172.481C157.425 175.716 156.317 179.35 153.549 181.464C151.901 182.718 149.787 184.238 147.443 185.94C158.418 193.118 174.246 190.919 185.33 185.08C191.684 181.736 196.378 176.164 198.365 169.247C198.753 167.89 199.025 166.515 199.225 165.134C187.25 160.609 183.204 156.654 181.902 153.474L177.062 141.657C178.074 138.864 177.153 122.298 171.962 113.497C160.878 94.7325 140.065 84.7383 124.226 92.2915C106 100.983 104.008 120.493 112.809 140.433C113.009 140.9 113.433 141.796 113.433 141.796Z" fill="#FFD3C8"/>
<path d="M143.628 121.277C144.706 121.623 144.506 122.356 143.016 123.87C141.726 125.184 139.467 126.735 137.698 127.607C133.749 129.563 130.411 128.843 131.671 128.455C133.785 127.801 135.42 127.11 139.109 124.657C141.12 123.319 142.901 121.047 143.628 121.277Z" fill="black"/>
<path d="M113.578 141.259C113.62 142.379 114.341 142.428 116.104 141.513C117.63 140.725 119.599 139.084 120.871 137.727C123.184 135.256 123.445 131.864 122.888 132.67C121.7 134.414 121.004 135.426 117.824 138.097C116.085 139.556 113.554 140.501 113.578 141.259Z" fill="black"/>
<path d="M135.432 147.229C135.311 147.229 135.189 147.217 135.074 147.187C134.596 147.072 134.311 146.624 134.123 146.2C133.82 145.515 133.657 144.782 133.475 144.061C133.221 143.038 132.96 142.014 132.633 141.009C132.573 140.815 132.724 140.694 132.882 140.694C132.991 140.694 133.094 140.748 133.136 140.875C133.487 141.972 133.76 143.086 134.045 144.201C134.22 144.903 134.372 145.691 134.765 146.315C134.941 146.599 135.195 146.702 135.474 146.702C135.674 146.702 135.892 146.648 136.104 146.557C136.958 146.193 137.334 145.315 137.352 144.425C137.352 144.261 137.479 144.176 137.612 144.176C137.739 144.176 137.873 144.261 137.867 144.425C137.854 145.333 137.527 146.212 136.782 146.763C136.413 147.029 135.91 147.229 135.432 147.229Z" fill="#FF775D"/>
<path d="M154.923 169.495L153.797 166.685C165.542 164.11 168.728 141.208 168.728 141.208C169.412 155.037 167.407 166.158 154.923 169.495Z" fill="#FF9177"/>
<path d="M210.643 154.807C206.639 149.131 201.502 144.552 197.044 139.276C192.356 133.722 189.007 127.223 185.99 120.657C180.618 108.967 175.929 96.3073 166.244 87.3792C157.171 79.0023 144.899 76.6218 133.039 79.4808C125.104 81.4009 116.594 85.6832 110.622 91.9462C108.835 93.7088 107.309 95.6653 106.164 97.8216C105.304 99.3056 104.589 100.868 104.032 102.504C97.0964 102.431 93.5046 111.087 93.4319 116.447C93.3834 120.511 94.3647 124.479 94.9219 128.483C95.5034 132.662 95.5579 136.896 96.6482 140.99C98.4593 147.847 102.433 154.177 108.036 158.562C114.038 163.262 121.131 165.231 128.678 165.134C133.687 165.067 137.988 165.855 141.925 169.156C145.153 171.863 147.552 175.413 149.569 179.077C149.793 179.477 150.405 179.199 150.302 178.768C147.322 166.454 133.657 162.881 125.038 155.655C119.913 151.348 115.589 146.115 112.76 140.118C111.736 137.483 109.756 132.044 108.381 126.09C107.418 121.941 108.132 117.955 109.38 114.6C111.5 117.368 115.031 118.749 118.484 119.361C124.481 120.433 130.701 119.845 136.625 121.42C142.149 122.898 146.861 126.671 149.248 131.917C151.725 137.362 151.18 143.74 152.719 149.482C154.39 155.697 157.31 161.5 161.235 166.594C161.495 166.921 162.113 166.757 161.968 166.285C160.726 162.196 158.903 158.32 157.546 154.274C156.837 152.142 156.268 149.961 156.026 147.72C155.771 145.358 155.959 142.977 155.893 140.603C155.862 139.216 155.693 137.847 155.462 136.496C157.916 143.074 159.66 150.015 162.301 156.478C162.604 157.211 162.919 157.944 163.246 158.665C164.936 164.801 166.759 170.876 170.587 176.091C174.355 181.234 179.473 185.262 185.469 187.466C185.857 187.606 186.129 187.061 185.857 186.794C182.931 183.911 180.763 180.446 179.442 176.618L179.515 176.655C179.842 176.915 180.151 177.194 180.49 177.448C184.415 180.331 188.807 182.251 193.507 183.451C198.983 184.85 204.688 185.643 209.486 188.847C209.891 189.12 210.243 188.545 209.97 188.217C209.704 187.896 209.437 187.569 209.171 187.242C210.897 188.751 212.423 190.459 213.707 192.421C213.944 192.778 214.61 192.56 214.44 192.112C213.925 190.786 213.344 189.489 212.708 188.224C214.652 190.634 216.603 193.045 218.547 195.456C218.82 195.789 218.535 193.935 218.456 193.578C218.02 191.531 218.117 191.058 217.263 189.193C218.735 191.337 220.055 193.584 221.194 195.952C221.4 196.376 221.061 194.196 220.97 193.772C220.092 189.562 219.171 187.569 216.469 184.311C219.746 186.727 222.702 189.205 225.488 192.203C225.767 192.506 225.379 190.428 225.282 190.053C222.109 176.939 218.48 165.909 210.643 154.807Z" fill="black"/>
<path d="M143.239 148.483C143.633 148.483 144.003 148.525 144.342 148.598C144.56 148.647 144.851 148.792 144.851 148.792C144.851 148.792 141.41 149.713 139.417 150.9C137.503 152.032 134.99 154.613 134.99 154.613C134.99 154.613 135.002 154.292 135.026 154.062C135.153 152.753 136.504 151.094 138.618 149.9C140.405 148.901 141.961 148.483 143.239 148.483Z" fill="#FF7E5E"/>
<path d="M138.224 135.151C139.884 135 141.459 134.11 142.458 132.759C142.628 132.529 143.009 132.753 142.834 132.983C141.737 134.473 140.041 135.424 138.206 135.587C137.927 135.618 137.946 135.176 138.224 135.151Z" fill="black"/>
<path d="M122.354 143.498C124.014 143.353 125.589 142.462 126.588 141.112C126.758 140.881 127.14 141.106 126.964 141.336C125.861 142.826 124.172 143.777 122.336 143.94C122.052 143.971 122.07 143.528 122.354 143.498Z" fill="black"/>
<path d="M155.59 136.617C155.275 130.191 154.463 123.013 149.163 118.634C143.639 114.073 136.28 115.145 129.665 114.224C125.965 113.715 122.233 112.546 119.671 109.681C119.502 109.494 119.217 109.772 119.387 109.966C123.578 114.648 130.295 114.775 136.104 115.115C139.69 115.327 143.403 115.678 146.619 117.41C149.805 119.118 152.089 122.001 153.355 125.357C154.699 128.943 155.008 132.819 155.19 136.617C155.202 136.872 155.602 136.872 155.59 136.617Z" fill="#8C7BB4"/>
<path d="M179.848 176.315C175.191 169.816 171.435 162.602 169.509 154.819C167.553 146.878 167.656 138.543 165.233 130.705C163.858 126.253 161.496 122.298 159.024 118.385C158.885 118.167 158.54 118.373 158.679 118.591C160.938 122.171 163.161 125.787 164.524 129.815C165.869 133.776 166.505 137.932 167.05 142.062C167.571 146.03 168.007 150.015 168.891 153.922C169.739 157.684 171.023 161.342 172.634 164.843C174.524 168.956 176.868 172.839 179.497 176.515C179.649 176.727 179.994 176.521 179.848 176.315Z" fill="#8C7BB4"/>
<path d="M109.356 114.042C107.654 112.94 106.515 111.232 105.649 109.439C104.662 107.404 103.777 105.114 104.135 102.813C104.177 102.558 103.796 102.449 103.753 102.704C103.384 105.066 104.22 107.368 105.225 109.475C106.134 111.395 107.339 113.213 109.15 114.388C109.368 114.527 109.574 114.182 109.356 114.042Z" fill="#8C7BB4"/>
<path d="M209.286 186.976C207.614 184.45 205.131 182.748 202.52 181.306C199.594 179.695 196.602 178.254 193.816 176.388C187.753 172.336 182.562 166.854 179.806 160.022C179.709 159.786 179.321 159.888 179.418 160.131C181.993 166.515 186.65 171.754 192.205 175.752C195.064 177.817 198.147 179.441 201.26 181.088C204.174 182.627 207.081 184.371 208.94 187.176C209.08 187.388 209.431 187.188 209.286 186.976Z" fill="#8C7BB4"/>
<path d="M212.974 188.115C210.497 183.051 206.257 179.217 201.787 175.909C199.285 174.068 196.638 172.408 194.488 170.137C192.38 167.908 190.757 165.291 189.509 162.493C189.406 162.263 189.061 162.463 189.164 162.699C190.315 165.279 191.787 167.702 193.664 169.828C195.663 172.087 198.116 173.759 200.551 175.51C205.349 178.956 209.988 182.918 212.629 188.314C212.744 188.545 213.089 188.339 212.974 188.115Z" fill="#8C7BB4"/>
<path d="M217.548 189.199C216.3 186.673 215.052 184.135 213.514 181.761C211.981 179.41 210.158 177.4 208.026 175.576C205.785 173.662 203.78 171.7 202.151 169.222C200.582 166.848 199.334 164.286 198.092 161.736C197.977 161.506 197.632 161.712 197.747 161.936C198.965 164.443 200.188 166.951 201.714 169.289C203.241 171.627 205.082 173.59 207.202 175.401C209.461 177.321 211.442 179.338 213.078 181.827C214.658 184.232 215.93 186.824 217.202 189.405C217.311 189.635 217.657 189.435 217.548 189.199Z" fill="#8C7BB4"/>
<path d="M216.803 184.074C215.512 181.961 215.264 179.398 214.386 177.109C213.58 175.001 212.496 173.008 211.321 171.082C208.85 167.024 205.979 163.178 204.228 158.72C204.131 158.483 203.743 158.586 203.84 158.829C205.561 163.22 208.359 167.024 210.812 171.015C212.084 173.087 213.271 175.225 214.107 177.509C214.937 179.75 215.197 182.215 216.457 184.274C216.597 184.498 216.942 184.293 216.803 184.074Z" fill="#8C7BB4"/>
<path d="M98.9198 116.162C101.936 124.751 99.8162 134.104 102.409 142.771C104.68 150.367 110.41 156.775 118 159.295C120.192 160.022 122.427 160.325 124.723 160.47C127.34 160.634 129.993 160.737 132.415 161.851C132.652 161.96 132.852 161.615 132.615 161.506C128.824 159.749 124.547 160.409 120.55 159.567C116.449 158.707 112.621 156.666 109.58 153.795C106.576 150.954 104.335 147.338 103.033 143.419C101.639 139.24 101.433 134.812 101.27 130.439C101.088 125.593 100.931 120.681 99.3074 116.059C99.2226 115.817 98.835 115.92 98.9198 116.162Z" fill="#8C7BB4"/>
<path d="M129.702 159.034C126.746 157.805 123.56 157.211 120.653 155.842C118.351 154.758 116.219 153.304 114.353 151.572C110.537 148.023 107.854 143.353 106.794 138.247C106.746 137.992 106.358 138.101 106.412 138.35C107.479 143.522 110.21 148.265 114.075 151.857C115.958 153.613 118.115 155.091 120.453 156.188C123.39 157.575 126.607 158.174 129.599 159.422C129.835 159.519 129.938 159.131 129.702 159.034Z" fill="#8C7BB4"/>
<path d="M135.722 255.015C134.814 249.449 134.287 243.821 134.16 238.182C134.045 232.822 134.826 227.31 133.899 221.998C133.857 221.749 133.469 221.852 133.512 222.107C134.008 224.929 133.929 227.794 133.833 230.647C133.736 233.415 133.705 236.171 133.784 238.939C133.929 244.361 134.462 249.77 135.335 255.124C135.377 255.378 135.765 255.269 135.722 255.015Z" fill="#79849D"/>
<path d="M131.028 226.547C131.949 227.14 132.918 227.649 133.924 228.073C134.021 228.115 134.136 228.103 134.196 228.006C134.245 227.922 134.22 227.77 134.123 227.728C133.118 227.304 132.149 226.795 131.228 226.207C131.01 226.062 130.81 226.413 131.028 226.547Z" fill="#79849D"/>
<path d="M133.73 240.944C129.696 252.786 122.318 263.967 111.882 271.084C111.664 271.23 111.87 271.575 112.082 271.43C122.609 264.252 130.047 252.998 134.117 241.047C134.202 240.805 133.814 240.696 133.73 240.944Z" fill="#79849D"/>
<path d="M108.441 223.833C114.989 232.047 124.275 237.304 133.869 241.187C134.111 241.284 134.214 240.896 133.978 240.805C124.438 236.941 115.231 231.707 108.726 223.555C108.562 223.349 108.278 223.633 108.441 223.833Z" fill="#79849D"/>
<path d="M110.349 225.59C112.645 222.119 114.941 218.648 117.236 215.178C117.375 214.96 117.03 214.76 116.891 214.972C114.595 218.442 112.3 221.913 110.004 225.39C109.859 225.602 110.204 225.802 110.349 225.59Z" fill="#79849D"/>
<path d="M113.208 228.491C115.934 225.329 118.26 221.846 120.132 218.115C120.247 217.885 119.901 217.679 119.786 217.909C117.933 221.616 115.631 225.069 112.924 228.206C112.754 228.4 113.039 228.685 113.208 228.491Z" fill="#79849D"/>
<path d="M116.752 231.392C117.969 229.666 119.174 227.928 120.362 226.177C120.943 225.317 121.524 224.451 122.1 223.585C122.633 222.791 123.202 222.016 123.56 221.126C123.657 220.883 123.269 220.786 123.178 221.017C122.815 221.937 122.191 222.743 121.646 223.555C121.064 224.421 120.489 225.281 119.901 226.141C118.75 227.837 117.581 229.515 116.406 231.192C116.255 231.404 116.606 231.604 116.752 231.392Z" fill="#79849D"/>
<path d="M120.38 234.039C122.585 230.726 124.705 227.358 126.734 223.936C126.867 223.718 126.522 223.512 126.388 223.736C124.365 227.158 122.239 230.526 120.035 233.839C119.889 234.051 120.234 234.251 120.38 234.039Z" fill="#79849D"/>
<path d="M124.729 236.492C126.625 233.131 128.351 229.684 129.914 226.165C130.017 225.929 129.671 225.723 129.569 225.959C128.006 229.484 126.28 232.931 124.384 236.286C124.256 236.517 124.602 236.717 124.729 236.492Z" fill="#79849D"/>
<path d="M132.591 227.395C131.277 231.096 129.677 234.681 127.812 238.134C127.685 238.358 128.03 238.564 128.157 238.334C130.041 234.851 131.652 231.229 132.979 227.504C133.063 227.255 132.676 227.152 132.591 227.395Z" fill="#79849D"/>
<path d="M131.852 240.102C132.627 238.164 133.402 236.22 134.178 234.282C134.275 234.045 133.887 233.936 133.796 234.179C133.015 236.117 132.239 238.055 131.464 239.993C131.367 240.236 131.755 240.339 131.852 240.102Z" fill="#79849D"/>
<path d="M149.436 196.703C152.67 198.63 156.323 199.593 160.023 200.12C163.876 200.659 167.789 200.816 171.665 200.501C178.879 199.908 185.966 197.606 191.793 193.239C194.737 191.04 197.28 188.351 199.273 185.262C199.413 185.044 199.067 184.844 198.928 185.056C190.963 197.424 175.548 201.476 161.616 199.92C157.449 199.453 153.276 198.521 149.642 196.358C149.417 196.225 149.218 196.57 149.436 196.703Z" fill="#79849D"/>
<path d="M184.464 214.996C182.035 208 179.382 201.216 176.953 194.22C174.845 188.169 173.125 181.73 168.951 176.721C165.166 172.178 160.054 169.083 154.693 166.751C148.442 164.032 142.434 161.342 136.806 157.448C133.681 155.285 130.701 152.923 127.83 150.446C126.219 149.052 124.293 146.599 122.076 145.776C121.119 144.394 119.114 142.087 117.472 142.953C115.28 144.116 117.945 147.066 118.726 148.156C122.924 153.971 127.363 159.265 132.724 164.044C135.541 166.557 137.994 169.241 140.168 172.336C142.052 175.013 143.79 177.793 145.856 180.331C147.764 182.681 149.969 184.874 152.609 186.388C153.875 187.115 155.262 187.485 156.547 188.151C158.533 189.174 159.29 191.373 160.175 193.305C163.742 201.089 165.566 218.351 165.566 218.351C171.265 218.588 184.464 214.996 184.464 214.996Z" fill="#FFD3C8"/>
<path d="M146.595 176.109C144.444 173.923 142.028 172.015 139.968 169.737C138.054 167.611 136.685 165.34 134.299 163.68C130.937 161.354 128.018 158.689 125.165 155.903C122.633 152.977 120.398 149.785 118.139 146.642C117.351 145.545 116.576 144.407 115.601 143.462C114.837 142.723 113.705 141.802 112.578 141.784C111.53 141.766 111.118 142.638 111.258 143.565C111.409 144.552 111.948 145.467 112.614 146.218C112.384 146.593 112.318 147.132 112.463 147.714C113.057 150.088 115.092 152.559 116.455 154.546C118.011 156.818 119.683 159.004 121.367 161.179C124.947 165.806 128.629 170.416 131.325 175.631C133.039 178.95 135.032 183.166 134.238 186.982C133.481 190.622 131.101 194.117 129.09 197.188C125.189 203.148 120.592 208.624 117.49 215.075C117.49 215.075 121.652 220.144 130.858 226.365C130.858 226.365 138.284 213.482 142.022 207.412C145.305 202.082 149.835 196.758 151.495 190.622C153.027 184.959 150.538 180.095 146.595 176.109Z" fill="#FFD3C8"/>
<path d="M184.458 215.208C186.323 221.404 189.152 227.116 192.623 232.567C194.403 235.36 196.166 238.164 197.347 241.271C198.553 244.439 199.213 247.777 199.358 251.157C199.37 251.417 199.77 251.417 199.758 251.157C199.625 247.977 199.037 244.827 197.977 241.823C196.887 238.764 195.27 235.984 193.537 233.252C189.891 227.51 186.814 221.634 184.839 215.099C184.767 214.85 184.379 214.953 184.458 215.208Z" fill="#79849D"/>
<path d="M168.364 227.625C174.918 226.789 181.774 226.601 187.698 223.324C187.922 223.197 187.722 222.852 187.498 222.979C181.641 226.22 174.845 226.395 168.364 227.219C168.109 227.255 168.109 227.655 168.364 227.625Z" fill="#79849D"/>
<path d="M167.843 218.606C168.594 221.422 169.485 224.197 170.521 226.916C170.611 227.152 170.999 227.049 170.908 226.807C169.872 224.088 168.982 221.313 168.231 218.497C168.164 218.255 167.777 218.358 167.843 218.606Z" fill="#79849D"/>
<path d="M171.09 218.188C171.81 221.011 172.604 223.821 173.452 226.607C173.525 226.856 173.912 226.747 173.84 226.504C172.986 223.712 172.198 220.908 171.477 218.079C171.411 217.837 171.023 217.94 171.09 218.188Z" fill="#79849D"/>
<path d="M174.385 217.57C175.136 220.49 175.966 223.397 176.868 226.274C176.947 226.516 177.329 226.413 177.256 226.165C176.353 223.288 175.524 220.387 174.773 217.467C174.706 217.219 174.318 217.322 174.385 217.57Z" fill="#79849D"/>
<path d="M177.462 216.964C178.261 219.86 179.127 222.743 180.054 225.602C180.133 225.844 180.521 225.741 180.442 225.499C179.509 222.634 178.649 219.757 177.849 216.855C177.783 216.607 177.395 216.71 177.462 216.964Z" fill="#79849D"/>
<path d="M180.727 216.201C181.199 217.667 181.672 219.127 182.144 220.587C182.592 221.968 183.089 223.349 183.331 224.784C183.38 225.045 183.761 224.929 183.725 224.681C183.477 223.246 182.98 221.865 182.532 220.478C182.059 219.018 181.587 217.558 181.108 216.098C181.036 215.856 180.648 215.959 180.727 216.201Z" fill="#79849D"/>
<path d="M157.813 190.325C157.007 193.19 156.632 196.152 156.698 199.12C156.704 199.375 157.104 199.381 157.098 199.12C157.031 196.189 157.401 193.263 158.194 190.434C158.267 190.186 157.879 190.083 157.813 190.325Z" fill="#79849D"/>
<path d="M153.155 189.053C152.228 191.834 151.707 194.723 151.598 197.648C151.592 197.909 151.992 197.909 152.004 197.648C152.107 194.759 152.628 191.906 153.542 189.162C153.627 188.92 153.239 188.811 153.155 189.053Z" fill="#79849D"/>
<path d="M177.48 188.769C179.152 191.743 180.418 194.929 181.235 198.242C181.296 198.49 181.683 198.381 181.623 198.133C180.793 194.789 179.515 191.573 177.825 188.569C177.698 188.339 177.353 188.545 177.48 188.769Z" fill="#79849D"/>
<path d="M181.266 187.442C182.816 190.446 184.046 193.602 184.93 196.861C184.997 197.109 185.384 197.006 185.318 196.758C184.421 193.463 183.174 190.277 181.605 187.236C181.49 187.006 181.144 187.212 181.266 187.442Z" fill="#79849D"/>
<path d="M185.863 187.648C187.371 189.792 188.649 192.088 189.673 194.499C189.77 194.735 190.115 194.535 190.018 194.299C188.994 191.888 187.716 189.586 186.208 187.442C186.063 187.23 185.718 187.436 185.863 187.648Z" fill="#79849D"/>
<path d="M188.649 183.505C190.745 185.674 192.641 188.024 194.307 190.537C194.452 190.749 194.797 190.549 194.658 190.331C192.968 187.8 191.054 185.413 188.934 183.226C188.752 183.039 188.474 183.323 188.649 183.505Z" fill="#79849D"/>
<path d="M195.076 184.395C195.942 185.256 196.669 186.243 197.232 187.333C197.353 187.557 197.699 187.357 197.577 187.127C197.002 186.019 196.251 184.995 195.361 184.111C195.173 183.929 194.888 184.214 195.076 184.395Z" fill="#79849D"/>
<path d="M116.909 144.716C116.819 144.195 117.043 143.547 117.479 143.238C118 142.868 118.678 143.044 119.199 143.328C120.265 143.904 120.95 144.952 121.598 145.945C121.731 146.151 122.064 145.957 121.931 145.751C121.162 144.57 120.277 143.232 118.872 142.765C118.248 142.559 117.564 142.608 117.073 143.074C116.625 143.504 116.431 144.213 116.54 144.819C116.582 145.061 116.952 144.958 116.909 144.716Z" fill="#FF7A5A"/>
<path d="M121.834 145.981C124.111 146.278 125.674 148.35 127.236 149.834C128.86 151.384 130.562 152.862 132.318 154.261C135.765 156.999 139.435 159.446 143.294 161.56C147.516 163.868 151.986 165.612 156.341 167.635C160.49 169.562 164.288 171.918 167.437 175.28C171.072 179.156 173.07 183.911 174.924 188.823C175.009 189.053 175.384 188.956 175.293 188.726C173.706 184.511 172.047 180.252 169.194 176.715C166.389 173.238 162.84 170.44 158.867 168.429C154.318 166.121 149.508 164.371 144.978 162.021C140.701 159.798 136.637 157.175 132.857 154.201C130.828 152.596 128.878 150.894 127.018 149.101C125.51 147.635 124.038 145.878 121.834 145.594C121.591 145.563 121.591 145.945 121.834 145.981Z" fill="#FF7A5A"/>
<path d="M113.838 142.317C119.55 146.902 122.251 154.062 127.697 158.907C129.211 160.258 130.858 161.451 132.451 162.711C134.147 164.044 135.759 165.485 137.303 166.993C140.35 169.949 143.257 173.057 146.195 176.121C147.824 177.817 149.478 179.556 150.604 181.646C151.701 183.669 151.961 185.879 151.804 188.157C151.786 188.399 152.167 188.399 152.185 188.157C152.319 186.31 152.204 184.462 151.525 182.73C150.883 181.058 149.817 179.592 148.666 178.241C145.85 174.928 142.676 171.863 139.629 168.768C136.558 165.637 133.263 162.911 129.841 160.191C126.685 157.69 124.256 154.74 121.973 151.445C119.641 148.077 117.339 144.637 114.111 142.044C113.917 141.887 113.644 142.159 113.838 142.317Z" fill="#FF7A5A"/>
<path d="M151.895 186.025C152.858 186.806 153.979 187.382 155.148 187.781C156.401 188.205 157.48 188.95 158.315 189.974C158.473 190.168 158.739 189.895 158.588 189.708C157.825 188.769 156.837 188.024 155.711 187.575C155.081 187.327 154.445 187.133 153.839 186.818C153.252 186.509 152.682 186.17 152.167 185.758C151.974 185.601 151.701 185.873 151.895 186.025Z" fill="#FF7A5A"/>
<path d="M134.402 186.873C135.735 188.448 137.703 189.399 139.763 189.483C140.011 189.496 140.011 189.114 139.763 189.102C137.8 189.017 135.941 188.096 134.669 186.6C134.511 186.412 134.239 186.685 134.402 186.873Z" fill="#FF7A5A"/>
<path d="M112.79 146.339C114.704 143.971 117.872 149.446 118.684 150.754C119.986 152.844 121.216 154.97 122.615 156.999C125.359 160.985 128.509 164.68 131.979 168.041C132.155 168.217 132.428 167.944 132.246 167.775C128.145 163.789 124.499 159.343 121.428 154.51C120.017 152.281 118.775 149.931 117.145 147.841C116.207 146.63 114.062 144.152 112.518 146.066C112.366 146.26 112.633 146.533 112.79 146.339Z" fill="#FF7A5A"/>
<path d="M158.455 190.071C160.775 190.283 163.191 190.15 165.245 188.938C165.463 188.811 165.269 188.484 165.051 188.605C163.058 189.786 160.708 189.889 158.455 189.683C158.206 189.659 158.212 190.047 158.455 190.071Z" fill="#FF7A5A"/>
<path d="M165.293 218.624C168.891 229.085 171.853 239.757 174.173 250.575C176.045 259.303 177.856 270.854 188.038 273.513C192.865 274.767 198.226 274.531 202.884 272.744C207.263 271.06 211.079 268.207 214.374 264.912C219.571 259.703 223.799 253.476 228.111 247.534C230.552 244.173 232.963 240.799 235.313 237.371C237.082 234.79 238.899 232.186 240.389 229.424C240.51 229.2 240.165 228.994 240.044 229.224C237.148 234.597 233.351 239.563 229.801 244.512C225.925 249.915 222.072 255.403 217.814 260.509C214.652 264.307 211.103 267.868 206.815 270.388C202.429 272.974 197.62 274.149 192.532 273.786C189.861 273.598 187.129 273.138 184.785 271.769C182.841 270.636 181.236 268.995 179.97 267.141C177.105 262.956 176.099 257.886 175.094 253.01C172.683 241.326 169.557 229.805 165.675 218.515C165.596 218.279 165.202 218.382 165.293 218.624Z" fill="#79849D"/>
<path d="M194.725 235.614C196.166 230.781 199.909 227.261 203.501 223.936C207.457 220.284 211 216.401 214.174 212.052C215.834 209.769 217.408 207.424 218.971 205.074C220.54 202.724 222.133 200.386 223.508 197.915C226.215 193.027 227.445 187.472 230.268 182.645C233.139 177.733 237.494 173.79 242.624 171.349C242.854 171.239 242.648 170.894 242.418 171.003C237.966 173.123 234.096 176.358 231.243 180.392C227.984 184.989 226.682 190.483 224.289 195.516C223.029 198.175 221.424 200.659 219.795 203.112C218.238 205.462 216.682 207.818 215.058 210.126C211.781 214.784 208.177 219.066 203.998 222.937C200.103 226.541 195.906 230.254 194.343 235.511C194.264 235.76 194.652 235.862 194.725 235.614Z" fill="#79849D"/>
<mask id="mask2_333_3948" style="mask-type:luminance" maskUnits="userSpaceOnUse" x="44" y="247" width="265" height="113">
<path d="M44 247.298H308.84V359.936H44V247.298Z" fill="white"/>
</mask>
<g mask="url(#mask2_333_3948)">
<path d="M251.134 346.737C259.529 345.714 267.524 342.473 273.999 337.034C277.361 334.211 280.456 331.062 283.212 327.585C289.948 319.069 294.23 308.784 296.992 298.353C298.198 293.817 299.027 289.274 299.488 284.61C299.942 280.037 300.214 275.452 300.729 270.891C301.644 262.689 303.249 253.9 308.61 247.365C306.671 247.383 304.733 247.444 302.795 247.565C301.438 247.65 300.075 247.765 298.706 247.892C288.906 249.6 279.414 253.083 270.819 258.14C263.945 262.187 257.96 267.238 252.418 272.95C249.559 275.9 246.47 278.959 242.418 280.122C237.724 281.472 232.781 280.17 228.196 279.001C210.558 274.495 192.271 273.12 174.167 275.185C165.293 276.197 156.516 277.995 147.97 280.594C139.102 283.283 130.659 287.741 121.488 289.353C111.773 291.067 101.645 290.104 91.8993 289.189C86.0482 288.638 80.2092 287.929 74.3823 287.142C69.9364 286.179 65.4783 285.294 61.0082 284.683C55.8173 283.98 50.5779 283.659 45.3446 283.98C45.0236 283.998 44.7631 284.259 44.745 284.58C44.6965 285.355 44.6541 286.13 44.6117 286.905C42.8794 319.444 67.9617 347.567 100.47 349.923C100.646 349.935 100.815 349.948 100.991 349.96C117.993 351.256 134.705 354.775 151.543 357.271C167.855 359.687 184.5 361.171 200.884 358.567C209.334 357.228 217.517 354.696 225.712 352.31C234.035 349.875 242.406 347.797 251.037 346.749L251.134 346.737Z" fill="#66A2AF"/>
</g>
<path d="M280.329 282.544C283.673 278.02 286.792 273.332 290.33 268.952C293.564 264.949 297.192 261.296 301.135 257.983C302.05 257.214 302.983 256.475 303.922 255.742C304.437 254.361 305.036 253.01 305.727 251.714C301.959 254.427 298.337 257.365 295 260.606C291.19 264.319 287.87 268.462 284.733 272.75C281.462 277.22 278.373 281.824 274.848 286.1C271.88 289.71 268.615 293.072 265.108 296.167C263.382 297.693 261.595 299.147 259.759 300.534C258.136 297.015 256.428 293.532 254.659 290.092C252.436 285.779 250.098 281.521 247.712 277.293C247.137 277.735 246.537 278.141 245.925 278.516C250.207 286.13 254.326 293.883 257.991 301.83C252.8 305.586 247.252 308.844 241.485 311.624C224.241 319.941 205.234 324.09 186.233 325.665C184.488 314.308 182.895 302.92 181.478 291.515C180.775 285.906 180.127 280.279 179.503 274.658C178.788 274.713 178.08 274.767 177.365 274.834C179.255 291.878 181.478 308.887 184.076 325.84C161.199 327.506 138.188 325.604 115.637 321.649C111.385 320.904 107.157 320.068 102.936 319.196C102.711 314.023 102.542 308.85 102.427 303.678C102.318 299.123 102.275 294.574 102.245 290.013C101.524 289.97 100.803 289.922 100.083 289.867C100.131 299.498 100.349 309.123 100.755 318.742C82.9351 314.95 65.3453 310.122 47.9009 304.907C47.374 304.75 46.847 304.592 46.314 304.429C46.526 305.258 46.7561 306.082 46.9984 306.9C64.782 312.212 82.6928 317.136 100.852 320.971C101.282 330.45 101.863 339.929 102.633 349.39C102.651 349.627 102.675 349.857 102.693 350.087C103.432 350.154 104.165 350.22 104.898 350.293C104.111 340.68 103.475 331.056 103.039 321.419C104.45 321.71 105.855 322.012 107.272 322.291C129.999 326.737 153.191 329.335 176.366 328.439C179.049 328.336 181.732 328.185 184.409 327.985C185.185 332.982 185.984 337.985 186.82 342.976C187.759 348.561 188.74 354.139 189.758 359.706C190.485 359.663 191.211 359.627 191.932 359.572C190.012 349.009 188.207 338.421 186.56 327.809C203.247 326.416 219.831 323.06 235.355 316.706C243.654 313.302 251.613 309.068 258.899 303.835C263.061 313.084 266.604 322.588 269.099 332.443C269.693 334.781 270.208 337.131 270.674 339.499C271.328 339.051 271.964 338.591 272.588 338.112C270.057 325.84 265.829 313.981 260.668 302.539C268.209 296.851 274.708 290.14 280.329 282.544Z" fill="#FEF1EB"/>
<path d="M69.3186 86.2102C64.2791 103.618 67.9921 121.802 71.4265 139.125C73.2497 148.332 75.0062 157.587 75.4181 166.981C75.8239 176.43 75.0729 185.886 75.509 195.335C75.933 204.523 77.5381 213.851 82.1172 221.949C82.2626 222.21 82.6684 221.974 82.5231 221.713C73.5646 205.868 76.357 187.055 75.9693 169.677C75.5635 151.475 69.9304 134.049 67.9679 116.041C66.8837 106.126 66.9745 95.9803 69.7669 86.3313C69.8517 86.0466 69.4034 85.9255 69.3186 86.2102Z" fill="#A5B3BF"/>
<path d="M123.281 172.221C111.215 170.119 100.095 163.583 92.2507 154.195C90.0217 151.524 88.0774 148.622 86.442 145.551C86.3027 145.285 85.8968 145.521 86.0422 145.782C91.8207 156.636 101.536 165.194 112.936 169.768C116.231 171.088 119.659 172.057 123.154 172.669C123.451 172.717 123.572 172.269 123.281 172.221Z" fill="#A5B3BF"/>
<path d="M122.972 177.291C116.685 178.278 110.343 178.865 103.983 179.065C103.686 179.077 103.68 179.544 103.983 179.532C110.386 179.332 116.77 178.732 123.099 177.739C123.39 177.69 123.269 177.248 122.972 177.291Z" fill="#A5B3BF"/>
<path d="M212.878 150.639C212.944 147.362 211.26 144.51 209.413 141.917C207.281 138.931 205.07 135.999 203.041 132.934C198.958 126.774 195.403 120.19 193.398 113.043C192.235 108.924 191.629 104.672 191.72 100.396C191.726 100.093 191.26 100.093 191.254 100.396C190.933 115.193 198.855 128.295 207.305 139.827C209.655 143.032 212.502 146.442 212.411 150.639C212.405 150.942 212.872 150.942 212.878 150.639Z" fill="#A5B3BF"/>
<path d="M215.682 154.037C217.554 147.514 216.863 140.706 216.13 134.061C216.1 133.77 215.634 133.764 215.664 134.061C216.391 140.657 217.093 147.429 215.234 153.91C215.149 154.201 215.603 154.322 215.682 154.037Z" fill="#A5B3BF"/>
<path d="M226.67 157.157C234.713 155.83 242.884 156.381 250.971 156.957C251.273 156.975 251.267 156.509 250.971 156.491C242.836 155.915 234.635 155.37 226.548 156.703C226.252 156.751 226.379 157.199 226.67 157.157Z" fill="#A5B3BF"/>
<path d="M247.954 259.958C252.14 260.157 256.277 260.866 260.292 262.084C260.716 262.211 260.898 261.544 260.474 261.417C256.404 260.188 252.2 259.473 247.954 259.273C247.512 259.249 247.512 259.933 247.954 259.958Z" fill="#E8E8E8"/>
</svg>
